M48
; DRILL file {KiCad 5.1.12-84ad8e8a86~92~ubuntu20.04.1} date So 12 Dez 2021 14:48:14 CET
; FORMAT={-:-/ absolute / inch / decimal}
; #@! TF.CreationDate,2021-12-12T14:48:14+01:00
; #@! TF.GenerationSoftware,Kicad,Pcbnew,5.1.12-84ad8e8a86~92~ubuntu20.04.1
; #@! TF.FileFunction,Plated,1,2,PTH
FMAT,2
INCH
T1C0.0157
T2C0.0260
T3C0.0295
T4C0.0315
T5C0.0354
T6C0.0394
T7C0.0433
%
G90
G05
T1
X6.75Y-3.07
X6.76Y-2.86
X6.76Y-3.01
X7.09Y-2.8
X7.56Y-2.19
X7.6263Y-4.1337
T3
X6.13Y-4.17
X6.18Y-4.12
X6.23Y-4.17
X7.23Y-4.17
X7.28Y-4.12
X7.33Y-4.17
T4
X5.905Y-2.695
X5.9081Y-2.495
X6.1019Y-2.695
X6.105Y-2.495
X6.1316Y-4.57
X6.18Y-3.7216
X6.18Y-3.82
X6.23Y-4.57
X6.38Y-2.92
X6.38Y-3.1169
X6.43Y-2.62
X6.6221Y-2.62
X6.63Y-2.92
X6.63Y-3.1169
X7.23Y-2.945
X7.23Y-3.445
X7.2316Y-3.77
X7.2316Y-4.57
X7.33Y-3.77
X7.33Y-4.57
X7.38Y-2.37
X7.38Y-2.87
T5
X6.63Y-3.32
X6.73Y-3.32
T6
X6.13Y-2.27
X6.23Y-2.27
X6.33Y-2.27
X6.43Y-2.27
X6.68Y-2.27
X6.78Y-2.27
X6.88Y-2.27
X6.98Y-2.27
X7.58Y-2.47
X7.58Y-2.57
X7.58Y-2.67
T7
X5.38Y-3.97
X5.569Y-3.97
T2
G00X5.63Y-2.9446
M15
G01X5.63Y-2.8812
M16
G05
G00X5.63Y-3.4517
M15
G01X5.63Y-3.3883
M16
G05
T0
M30
