%TF.GenerationSoftware,KiCad,Pcbnew,5.1.12-84ad8e8a86~92~ubuntu20.04.1*%
%TF.CreationDate,2021-12-12T14:48:12+01:00*%
%TF.ProjectId,funkwecker,66756e6b-7765-4636-9b65-722e6b696361,0.1*%
%TF.SameCoordinates,Original*%
%TF.FileFunction,Soldermask,Top*%
%TF.FilePolarity,Negative*%
%FSLAX46Y46*%
G04 Gerber Fmt 4.6, Leading zero omitted, Abs format (unit mm)*
G04 Created by KiCad (PCBNEW 5.1.12-84ad8e8a86~92~ubuntu20.04.1) date 2021-12-12 14:48:12*
%MOMM*%
%LPD*%
G01*
G04 APERTURE LIST*
%ADD10C,2.300000*%
%ADD11R,2.410000X4.020000*%
%ADD12O,2.410000X4.020000*%
%ADD13C,1.600000*%
%ADD14R,1.600000X1.600000*%
%ADD15R,1.800000X1.800000*%
%ADD16C,1.800000*%
%ADD17R,1.700000X1.700000*%
%ADD18O,1.700000X1.700000*%
%ADD19O,1.600000X1.600000*%
%ADD20R,1.300000X1.300000*%
%ADD21C,1.300000*%
%ADD22C,1.500000*%
G04 APERTURE END LIST*
D10*
%TO.C,SW1*%
X141452000Y-100838000D03*
G36*
G01*
X135502000Y-101738002D02*
X135502000Y-99937998D01*
G75*
G02*
X135751998Y-99688000I249998J0D01*
G01*
X137552002Y-99688000D01*
G75*
G02*
X137802000Y-99937998I0J-249998D01*
G01*
X137802000Y-101738002D01*
G75*
G02*
X137552002Y-101988000I-249998J0D01*
G01*
X135751998Y-101988000D01*
G75*
G02*
X135502000Y-101738002I0J249998D01*
G01*
G37*
%TD*%
D11*
%TO.C,BT1*%
X143002000Y-86868000D03*
D12*
X143002000Y-73988000D03*
D10*
X117222000Y-91598000D03*
X130712000Y-69248000D03*
X103742000Y-69248000D03*
%TD*%
D13*
%TO.C,C1*%
X155742000Y-116078000D03*
D14*
X158242000Y-116078000D03*
%TD*%
%TO.C,C2*%
X156972000Y-97028000D03*
D13*
X156972000Y-94528000D03*
%TD*%
D14*
%TO.C,C5*%
X186182000Y-95758000D03*
D13*
X183682000Y-95758000D03*
%TD*%
%TO.C,C6*%
X183682000Y-116078000D03*
D14*
X186182000Y-116078000D03*
%TD*%
D15*
%TO.C,D1*%
X170942000Y-84328000D03*
D16*
X168402000Y-84328000D03*
%TD*%
D17*
%TO.C,J1*%
X192532000Y-67818000D03*
D18*
X192532000Y-65278000D03*
X192532000Y-62738000D03*
%TD*%
D17*
%TO.C,J2*%
X155702000Y-57658000D03*
D18*
X158242000Y-57658000D03*
X160782000Y-57658000D03*
X163322000Y-57658000D03*
%TD*%
%TO.C,J3*%
X177292000Y-57658000D03*
X174752000Y-57658000D03*
X172212000Y-57658000D03*
D17*
X169672000Y-57658000D03*
%TD*%
D19*
%TO.C,R1*%
X187452000Y-72898000D03*
D13*
X187452000Y-60198000D03*
%TD*%
%TO.C,R2*%
X183642000Y-74803000D03*
D19*
X183642000Y-87503000D03*
%TD*%
D20*
%TO.C,U1*%
X155702000Y-105918000D03*
D21*
X158242000Y-105918000D03*
X156972000Y-104648000D03*
%TD*%
%TO.C,U2*%
G36*
G01*
X172422000Y-72613000D02*
X172422000Y-72413000D01*
G75*
G02*
X172522000Y-72313000I100000J0D01*
G01*
X173797000Y-72313000D01*
G75*
G02*
X173897000Y-72413000I0J-100000D01*
G01*
X173897000Y-72613000D01*
G75*
G02*
X173797000Y-72713000I-100000J0D01*
G01*
X172522000Y-72713000D01*
G75*
G02*
X172422000Y-72613000I0J100000D01*
G01*
G37*
G36*
G01*
X172422000Y-73263000D02*
X172422000Y-73063000D01*
G75*
G02*
X172522000Y-72963000I100000J0D01*
G01*
X173797000Y-72963000D01*
G75*
G02*
X173897000Y-73063000I0J-100000D01*
G01*
X173897000Y-73263000D01*
G75*
G02*
X173797000Y-73363000I-100000J0D01*
G01*
X172522000Y-73363000D01*
G75*
G02*
X172422000Y-73263000I0J100000D01*
G01*
G37*
G36*
G01*
X172422000Y-73913000D02*
X172422000Y-73713000D01*
G75*
G02*
X172522000Y-73613000I100000J0D01*
G01*
X173797000Y-73613000D01*
G75*
G02*
X173897000Y-73713000I0J-100000D01*
G01*
X173897000Y-73913000D01*
G75*
G02*
X173797000Y-74013000I-100000J0D01*
G01*
X172522000Y-74013000D01*
G75*
G02*
X172422000Y-73913000I0J100000D01*
G01*
G37*
G36*
G01*
X172422000Y-74563000D02*
X172422000Y-74363000D01*
G75*
G02*
X172522000Y-74263000I100000J0D01*
G01*
X173797000Y-74263000D01*
G75*
G02*
X173897000Y-74363000I0J-100000D01*
G01*
X173897000Y-74563000D01*
G75*
G02*
X173797000Y-74663000I-100000J0D01*
G01*
X172522000Y-74663000D01*
G75*
G02*
X172422000Y-74563000I0J100000D01*
G01*
G37*
G36*
G01*
X172422000Y-75213000D02*
X172422000Y-75013000D01*
G75*
G02*
X172522000Y-74913000I100000J0D01*
G01*
X173797000Y-74913000D01*
G75*
G02*
X173897000Y-75013000I0J-100000D01*
G01*
X173897000Y-75213000D01*
G75*
G02*
X173797000Y-75313000I-100000J0D01*
G01*
X172522000Y-75313000D01*
G75*
G02*
X172422000Y-75213000I0J100000D01*
G01*
G37*
G36*
G01*
X172422000Y-75863000D02*
X172422000Y-75663000D01*
G75*
G02*
X172522000Y-75563000I100000J0D01*
G01*
X173797000Y-75563000D01*
G75*
G02*
X173897000Y-75663000I0J-100000D01*
G01*
X173897000Y-75863000D01*
G75*
G02*
X173797000Y-75963000I-100000J0D01*
G01*
X172522000Y-75963000D01*
G75*
G02*
X172422000Y-75863000I0J100000D01*
G01*
G37*
G36*
G01*
X172422000Y-76513000D02*
X172422000Y-76313000D01*
G75*
G02*
X172522000Y-76213000I100000J0D01*
G01*
X173797000Y-76213000D01*
G75*
G02*
X173897000Y-76313000I0J-100000D01*
G01*
X173897000Y-76513000D01*
G75*
G02*
X173797000Y-76613000I-100000J0D01*
G01*
X172522000Y-76613000D01*
G75*
G02*
X172422000Y-76513000I0J100000D01*
G01*
G37*
G36*
G01*
X172422000Y-77163000D02*
X172422000Y-76963000D01*
G75*
G02*
X172522000Y-76863000I100000J0D01*
G01*
X173797000Y-76863000D01*
G75*
G02*
X173897000Y-76963000I0J-100000D01*
G01*
X173897000Y-77163000D01*
G75*
G02*
X173797000Y-77263000I-100000J0D01*
G01*
X172522000Y-77263000D01*
G75*
G02*
X172422000Y-77163000I0J100000D01*
G01*
G37*
G36*
G01*
X172422000Y-77813000D02*
X172422000Y-77613000D01*
G75*
G02*
X172522000Y-77513000I100000J0D01*
G01*
X173797000Y-77513000D01*
G75*
G02*
X173897000Y-77613000I0J-100000D01*
G01*
X173897000Y-77813000D01*
G75*
G02*
X173797000Y-77913000I-100000J0D01*
G01*
X172522000Y-77913000D01*
G75*
G02*
X172422000Y-77813000I0J100000D01*
G01*
G37*
G36*
G01*
X172422000Y-78463000D02*
X172422000Y-78263000D01*
G75*
G02*
X172522000Y-78163000I100000J0D01*
G01*
X173797000Y-78163000D01*
G75*
G02*
X173897000Y-78263000I0J-100000D01*
G01*
X173897000Y-78463000D01*
G75*
G02*
X173797000Y-78563000I-100000J0D01*
G01*
X172522000Y-78563000D01*
G75*
G02*
X172422000Y-78463000I0J100000D01*
G01*
G37*
G36*
G01*
X178147000Y-78463000D02*
X178147000Y-78263000D01*
G75*
G02*
X178247000Y-78163000I100000J0D01*
G01*
X179522000Y-78163000D01*
G75*
G02*
X179622000Y-78263000I0J-100000D01*
G01*
X179622000Y-78463000D01*
G75*
G02*
X179522000Y-78563000I-100000J0D01*
G01*
X178247000Y-78563000D01*
G75*
G02*
X178147000Y-78463000I0J100000D01*
G01*
G37*
G36*
G01*
X178147000Y-77813000D02*
X178147000Y-77613000D01*
G75*
G02*
X178247000Y-77513000I100000J0D01*
G01*
X179522000Y-77513000D01*
G75*
G02*
X179622000Y-77613000I0J-100000D01*
G01*
X179622000Y-77813000D01*
G75*
G02*
X179522000Y-77913000I-100000J0D01*
G01*
X178247000Y-77913000D01*
G75*
G02*
X178147000Y-77813000I0J100000D01*
G01*
G37*
G36*
G01*
X178147000Y-77163000D02*
X178147000Y-76963000D01*
G75*
G02*
X178247000Y-76863000I100000J0D01*
G01*
X179522000Y-76863000D01*
G75*
G02*
X179622000Y-76963000I0J-100000D01*
G01*
X179622000Y-77163000D01*
G75*
G02*
X179522000Y-77263000I-100000J0D01*
G01*
X178247000Y-77263000D01*
G75*
G02*
X178147000Y-77163000I0J100000D01*
G01*
G37*
G36*
G01*
X178147000Y-76513000D02*
X178147000Y-76313000D01*
G75*
G02*
X178247000Y-76213000I100000J0D01*
G01*
X179522000Y-76213000D01*
G75*
G02*
X179622000Y-76313000I0J-100000D01*
G01*
X179622000Y-76513000D01*
G75*
G02*
X179522000Y-76613000I-100000J0D01*
G01*
X178247000Y-76613000D01*
G75*
G02*
X178147000Y-76513000I0J100000D01*
G01*
G37*
G36*
G01*
X178147000Y-75863000D02*
X178147000Y-75663000D01*
G75*
G02*
X178247000Y-75563000I100000J0D01*
G01*
X179522000Y-75563000D01*
G75*
G02*
X179622000Y-75663000I0J-100000D01*
G01*
X179622000Y-75863000D01*
G75*
G02*
X179522000Y-75963000I-100000J0D01*
G01*
X178247000Y-75963000D01*
G75*
G02*
X178147000Y-75863000I0J100000D01*
G01*
G37*
G36*
G01*
X178147000Y-75213000D02*
X178147000Y-75013000D01*
G75*
G02*
X178247000Y-74913000I100000J0D01*
G01*
X179522000Y-74913000D01*
G75*
G02*
X179622000Y-75013000I0J-100000D01*
G01*
X179622000Y-75213000D01*
G75*
G02*
X179522000Y-75313000I-100000J0D01*
G01*
X178247000Y-75313000D01*
G75*
G02*
X178147000Y-75213000I0J100000D01*
G01*
G37*
G36*
G01*
X178147000Y-74563000D02*
X178147000Y-74363000D01*
G75*
G02*
X178247000Y-74263000I100000J0D01*
G01*
X179522000Y-74263000D01*
G75*
G02*
X179622000Y-74363000I0J-100000D01*
G01*
X179622000Y-74563000D01*
G75*
G02*
X179522000Y-74663000I-100000J0D01*
G01*
X178247000Y-74663000D01*
G75*
G02*
X178147000Y-74563000I0J100000D01*
G01*
G37*
G36*
G01*
X178147000Y-73913000D02*
X178147000Y-73713000D01*
G75*
G02*
X178247000Y-73613000I100000J0D01*
G01*
X179522000Y-73613000D01*
G75*
G02*
X179622000Y-73713000I0J-100000D01*
G01*
X179622000Y-73913000D01*
G75*
G02*
X179522000Y-74013000I-100000J0D01*
G01*
X178247000Y-74013000D01*
G75*
G02*
X178147000Y-73913000I0J100000D01*
G01*
G37*
G36*
G01*
X178147000Y-73263000D02*
X178147000Y-73063000D01*
G75*
G02*
X178247000Y-72963000I100000J0D01*
G01*
X179522000Y-72963000D01*
G75*
G02*
X179622000Y-73063000I0J-100000D01*
G01*
X179622000Y-73263000D01*
G75*
G02*
X179522000Y-73363000I-100000J0D01*
G01*
X178247000Y-73363000D01*
G75*
G02*
X178147000Y-73263000I0J100000D01*
G01*
G37*
G36*
G01*
X178147000Y-72613000D02*
X178147000Y-72413000D01*
G75*
G02*
X178247000Y-72313000I100000J0D01*
G01*
X179522000Y-72313000D01*
G75*
G02*
X179622000Y-72413000I0J-100000D01*
G01*
X179622000Y-72613000D01*
G75*
G02*
X179522000Y-72713000I-100000J0D01*
G01*
X178247000Y-72713000D01*
G75*
G02*
X178147000Y-72613000I0J100000D01*
G01*
G37*
%TD*%
%TO.C,U8*%
X184912000Y-104648000D03*
X186182000Y-105918000D03*
D20*
X183642000Y-105918000D03*
%TD*%
D22*
%TO.C,Y1*%
X163322000Y-66548000D03*
X168202000Y-66548000D03*
%TD*%
D13*
%TO.C,C3*%
X168402000Y-74168000D03*
X168402000Y-79168000D03*
%TD*%
%TO.C,C4*%
X162052000Y-79168000D03*
X162052000Y-74168000D03*
%TD*%
%TO.C,C7*%
X155067000Y-63373000D03*
X150067000Y-63373000D03*
%TD*%
%TO.C,C8*%
X154987000Y-68453000D03*
X149987000Y-68453000D03*
%TD*%
M02*
