%TF.GenerationSoftware,KiCad,Pcbnew,5.1.12-84ad8e8a86~92~ubuntu20.04.1*%
%TF.CreationDate,2021-12-12T14:48:12+01:00*%
%TF.ProjectId,funkwecker,66756e6b-7765-4636-9b65-722e6b696361,0.1*%
%TF.SameCoordinates,Original*%
%TF.FileFunction,Copper,L2,Bot*%
%TF.FilePolarity,Positive*%
%FSLAX46Y46*%
G04 Gerber Fmt 4.6, Leading zero omitted, Abs format (unit mm)*
G04 Created by KiCad (PCBNEW 5.1.12-84ad8e8a86~92~ubuntu20.04.1) date 2021-12-12 14:48:12*
%MOMM*%
%LPD*%
G01*
G04 APERTURE LIST*
%TA.AperFunction,ComponentPad*%
%ADD10C,2.300000*%
%TD*%
%TA.AperFunction,ComponentPad*%
%ADD11R,2.410000X4.020000*%
%TD*%
%TA.AperFunction,ComponentPad*%
%ADD12O,2.410000X4.020000*%
%TD*%
%TA.AperFunction,WasherPad*%
%ADD13C,2.300000*%
%TD*%
%TA.AperFunction,ComponentPad*%
%ADD14C,1.600000*%
%TD*%
%TA.AperFunction,ComponentPad*%
%ADD15R,1.600000X1.600000*%
%TD*%
%TA.AperFunction,ComponentPad*%
%ADD16R,1.800000X1.800000*%
%TD*%
%TA.AperFunction,ComponentPad*%
%ADD17C,1.800000*%
%TD*%
%TA.AperFunction,ComponentPad*%
%ADD18R,1.700000X1.700000*%
%TD*%
%TA.AperFunction,ComponentPad*%
%ADD19O,1.700000X1.700000*%
%TD*%
%TA.AperFunction,ComponentPad*%
%ADD20O,1.600000X1.600000*%
%TD*%
%TA.AperFunction,ComponentPad*%
%ADD21R,1.300000X1.300000*%
%TD*%
%TA.AperFunction,ComponentPad*%
%ADD22C,1.300000*%
%TD*%
%TA.AperFunction,ComponentPad*%
%ADD23C,1.500000*%
%TD*%
%TA.AperFunction,ViaPad*%
%ADD24C,0.800000*%
%TD*%
%TA.AperFunction,Conductor*%
%ADD25C,0.250000*%
%TD*%
%TA.AperFunction,Conductor*%
%ADD26C,0.254000*%
%TD*%
%TA.AperFunction,Conductor*%
%ADD27C,0.100000*%
%TD*%
G04 APERTURE END LIST*
D10*
%TO.P,SW1,2*%
%TO.N,VCC*%
X141452000Y-100838000D03*
%TO.P,SW1,1*%
%TO.N,Net-(BT1-Pad1)*%
%TA.AperFunction,ComponentPad*%
G36*
G01*
X135502000Y-101738002D02*
X135502000Y-99937998D01*
G75*
G02*
X135751998Y-99688000I249998J0D01*
G01*
X137552002Y-99688000D01*
G75*
G02*
X137802000Y-99937998I0J-249998D01*
G01*
X137802000Y-101738002D01*
G75*
G02*
X137552002Y-101988000I-249998J0D01*
G01*
X135751998Y-101988000D01*
G75*
G02*
X135502000Y-101738002I0J249998D01*
G01*
G37*
%TD.AperFunction*%
%TD*%
D11*
%TO.P,BT1,1*%
%TO.N,Net-(BT1-Pad1)*%
X143002000Y-86868000D03*
D12*
%TO.P,BT1,2*%
%TO.N,GND*%
X143002000Y-73988000D03*
D13*
%TO.P,BT1,*%
%TO.N,*%
X117222000Y-91598000D03*
X130712000Y-69248000D03*
X103742000Y-69248000D03*
%TD*%
D14*
%TO.P,C1,2*%
%TO.N,GND*%
X155742000Y-116078000D03*
D15*
%TO.P,C1,1*%
%TO.N,VCC*%
X158242000Y-116078000D03*
%TD*%
%TO.P,C2,1*%
%TO.N,VDD*%
X156972000Y-97028000D03*
D14*
%TO.P,C2,2*%
%TO.N,GND*%
X156972000Y-94528000D03*
%TD*%
D15*
%TO.P,C5,1*%
%TO.N,VCC*%
X186182000Y-95758000D03*
D14*
%TO.P,C5,2*%
%TO.N,GND*%
X183682000Y-95758000D03*
%TD*%
%TO.P,C6,2*%
%TO.N,GND*%
X183682000Y-116078000D03*
D15*
%TO.P,C6,1*%
%TO.N,+5V*%
X186182000Y-116078000D03*
%TD*%
D16*
%TO.P,D1,1*%
%TO.N,GND*%
X170942000Y-84328000D03*
D17*
%TO.P,D1,2*%
%TO.N,Net-(D1-Pad2)*%
X168402000Y-84328000D03*
%TD*%
D18*
%TO.P,J1,1*%
%TO.N,VDD*%
X192532000Y-67818000D03*
D19*
%TO.P,J1,2*%
%TO.N,DCF_SIGNAL*%
X192532000Y-65278000D03*
%TO.P,J1,3*%
%TO.N,GND*%
X192532000Y-62738000D03*
%TD*%
D18*
%TO.P,J2,1*%
%TO.N,VDD*%
X155702000Y-57658000D03*
D19*
%TO.P,J2,2*%
%TO.N,SWIM_I_O*%
X158242000Y-57658000D03*
%TO.P,J2,3*%
%TO.N,GND*%
X160782000Y-57658000D03*
%TO.P,J2,4*%
%TO.N,RESET*%
X163322000Y-57658000D03*
%TD*%
%TO.P,J3,4*%
%TO.N,LED_DISPLAY_CLK*%
X177292000Y-57658000D03*
%TO.P,J3,3*%
%TO.N,LED_DISPLAY_DATA*%
X174752000Y-57658000D03*
%TO.P,J3,2*%
%TO.N,+5V*%
X172212000Y-57658000D03*
D18*
%TO.P,J3,1*%
%TO.N,GND*%
X169672000Y-57658000D03*
%TD*%
D20*
%TO.P,R1,2*%
%TO.N,VDD*%
X187452000Y-72898000D03*
D14*
%TO.P,R1,1*%
%TO.N,DCF_SIGNAL*%
X187452000Y-60198000D03*
%TD*%
%TO.P,R2,1*%
%TO.N,Test_LED*%
X183642000Y-74803000D03*
D20*
%TO.P,R2,2*%
%TO.N,Net-(D1-Pad2)*%
X183642000Y-87503000D03*
%TD*%
D21*
%TO.P,U1,1*%
%TO.N,GND*%
X155702000Y-105918000D03*
D22*
%TO.P,U1,3*%
%TO.N,VCC*%
X158242000Y-105918000D03*
%TO.P,U1,2*%
%TO.N,VDD*%
X156972000Y-104648000D03*
%TD*%
%TO.P,U8,2*%
%TO.N,+5V*%
X184912000Y-104648000D03*
%TO.P,U8,3*%
%TO.N,VCC*%
X186182000Y-105918000D03*
D21*
%TO.P,U8,1*%
%TO.N,GND*%
X183642000Y-105918000D03*
%TD*%
D23*
%TO.P,Y1,1*%
%TO.N,OSC_OUT*%
X163322000Y-66548000D03*
%TO.P,Y1,2*%
%TO.N,OSC_IN*%
X168202000Y-66548000D03*
%TD*%
D14*
%TO.P,C3,1*%
%TO.N,GND*%
X168402000Y-74168000D03*
%TO.P,C3,2*%
%TO.N,VDD*%
X168402000Y-79168000D03*
%TD*%
%TO.P,C4,2*%
%TO.N,VDD*%
X162052000Y-79168000D03*
%TO.P,C4,1*%
%TO.N,GND*%
X162052000Y-74168000D03*
%TD*%
%TO.P,C7,1*%
%TO.N,OSC_IN*%
X155067000Y-63373000D03*
%TO.P,C7,2*%
%TO.N,GND*%
X150067000Y-63373000D03*
%TD*%
%TO.P,C8,2*%
%TO.N,OSC_OUT*%
X154987000Y-68453000D03*
%TO.P,C8,1*%
%TO.N,GND*%
X149987000Y-68453000D03*
%TD*%
D24*
%TO.N,GND*%
X171704000Y-76454000D03*
%TO.N,+5V*%
X192024000Y-55626000D03*
X193707001Y-104996999D03*
%TO.N,DCF_SIGNAL*%
X171450000Y-77978000D03*
X180086000Y-71120000D03*
%TO.N,SWIM_I_O*%
X171704000Y-72644000D03*
%TD*%
D25*
%TO.N,GND*%
X144452000Y-73988000D02*
X149987000Y-68453000D01*
X143002000Y-73988000D02*
X144452000Y-73988000D01*
X149987000Y-63453000D02*
X150067000Y-63373000D01*
X149987000Y-68453000D02*
X149987000Y-63453000D01*
X158877000Y-55753000D02*
X160782000Y-57658000D01*
X153162000Y-55753000D02*
X158877000Y-55753000D01*
X150067000Y-58848000D02*
X153162000Y-55753000D01*
X150067000Y-63373000D02*
X150067000Y-58848000D01*
X160782000Y-57658000D02*
X162687000Y-55753000D01*
X167767000Y-55753000D02*
X169672000Y-57658000D01*
X162687000Y-55753000D02*
X167767000Y-55753000D01*
X169672000Y-57658000D02*
X169672000Y-57023000D01*
X169672000Y-57023000D02*
X170942000Y-55753000D01*
X185547000Y-55753000D02*
X192532000Y-62738000D01*
X170942000Y-55753000D02*
X185547000Y-55753000D01*
X155702000Y-74168000D02*
X162052000Y-74168000D01*
X149987000Y-68453000D02*
X155702000Y-74168000D01*
X162052000Y-74168000D02*
X168402000Y-74168000D01*
X170688000Y-76454000D02*
X168402000Y-74168000D01*
X171704000Y-76454000D02*
X170688000Y-76454000D01*
X162052000Y-74168000D02*
X162052000Y-76073000D01*
X162052000Y-76073000D02*
X166497000Y-80518000D01*
X169716999Y-85553001D02*
X170942000Y-84328000D01*
X167813999Y-85553001D02*
X169716999Y-85553001D01*
X166497000Y-80518000D02*
X166497000Y-84236002D01*
X172252000Y-84328000D02*
X183682000Y-95758000D01*
X170942000Y-84328000D02*
X172252000Y-84328000D01*
X183682000Y-105878000D02*
X183642000Y-105918000D01*
X183682000Y-95758000D02*
X183682000Y-105878000D01*
X183642000Y-116038000D02*
X183682000Y-116078000D01*
X183642000Y-105918000D02*
X183642000Y-116038000D01*
X166860499Y-84639501D02*
X166860499Y-84599501D01*
X156972000Y-94528000D02*
X166860499Y-84639501D01*
X166860499Y-84599501D02*
X167813999Y-85553001D01*
X166497000Y-84236002D02*
X166860499Y-84599501D01*
X155702000Y-95798000D02*
X155702000Y-105918000D01*
X156972000Y-94528000D02*
X155702000Y-95798000D01*
X155702000Y-116038000D02*
X155742000Y-116078000D01*
X155702000Y-105918000D02*
X155702000Y-116038000D01*
%TO.N,+5V*%
X193707001Y-57309001D02*
X193707001Y-104996999D01*
X192024000Y-55626000D02*
X193707001Y-57309001D01*
X193707001Y-104996999D02*
X193707001Y-104996999D01*
%TO.N,DCF_SIGNAL*%
X180086000Y-71120000D02*
X180086000Y-74422000D01*
X180086000Y-74422000D02*
X175260000Y-79248000D01*
X172720000Y-79248000D02*
X171450000Y-77978000D01*
X175260000Y-79248000D02*
X172720000Y-79248000D01*
%TO.N,SWIM_I_O*%
X158242000Y-59182000D02*
X158242000Y-57658000D01*
X171704000Y-72644000D02*
X158242000Y-59182000D01*
%TD*%
D26*
%TO.N,GND*%
X198222001Y-124689000D02*
X84480000Y-124689000D01*
X84480000Y-117070702D01*
X154928903Y-117070702D01*
X155000486Y-117314671D01*
X155255996Y-117435571D01*
X155530184Y-117504300D01*
X155812512Y-117518217D01*
X156092130Y-117476787D01*
X156358292Y-117381603D01*
X156483514Y-117314671D01*
X156555097Y-117070702D01*
X155742000Y-116257605D01*
X154928903Y-117070702D01*
X84480000Y-117070702D01*
X84480000Y-116148512D01*
X154301783Y-116148512D01*
X154343213Y-116428130D01*
X154438397Y-116694292D01*
X154505329Y-116819514D01*
X154749298Y-116891097D01*
X155562395Y-116078000D01*
X155921605Y-116078000D01*
X156734702Y-116891097D01*
X156803928Y-116870785D01*
X156803928Y-116878000D01*
X156816188Y-117002482D01*
X156852498Y-117122180D01*
X156911463Y-117232494D01*
X156990815Y-117329185D01*
X157087506Y-117408537D01*
X157197820Y-117467502D01*
X157317518Y-117503812D01*
X157442000Y-117516072D01*
X159042000Y-117516072D01*
X159166482Y-117503812D01*
X159286180Y-117467502D01*
X159396494Y-117408537D01*
X159493185Y-117329185D01*
X159572537Y-117232494D01*
X159631502Y-117122180D01*
X159647117Y-117070702D01*
X182868903Y-117070702D01*
X182940486Y-117314671D01*
X183195996Y-117435571D01*
X183470184Y-117504300D01*
X183752512Y-117518217D01*
X184032130Y-117476787D01*
X184298292Y-117381603D01*
X184423514Y-117314671D01*
X184495097Y-117070702D01*
X183682000Y-116257605D01*
X182868903Y-117070702D01*
X159647117Y-117070702D01*
X159667812Y-117002482D01*
X159680072Y-116878000D01*
X159680072Y-116148512D01*
X182241783Y-116148512D01*
X182283213Y-116428130D01*
X182378397Y-116694292D01*
X182445329Y-116819514D01*
X182689298Y-116891097D01*
X183502395Y-116078000D01*
X183861605Y-116078000D01*
X184674702Y-116891097D01*
X184743928Y-116870785D01*
X184743928Y-116878000D01*
X184756188Y-117002482D01*
X184792498Y-117122180D01*
X184851463Y-117232494D01*
X184930815Y-117329185D01*
X185027506Y-117408537D01*
X185137820Y-117467502D01*
X185257518Y-117503812D01*
X185382000Y-117516072D01*
X186982000Y-117516072D01*
X187106482Y-117503812D01*
X187226180Y-117467502D01*
X187336494Y-117408537D01*
X187433185Y-117329185D01*
X187512537Y-117232494D01*
X187571502Y-117122180D01*
X187607812Y-117002482D01*
X187620072Y-116878000D01*
X187620072Y-115278000D01*
X187607812Y-115153518D01*
X187571502Y-115033820D01*
X187512537Y-114923506D01*
X187433185Y-114826815D01*
X187336494Y-114747463D01*
X187226180Y-114688498D01*
X187106482Y-114652188D01*
X186982000Y-114639928D01*
X185382000Y-114639928D01*
X185257518Y-114652188D01*
X185137820Y-114688498D01*
X185027506Y-114747463D01*
X184930815Y-114826815D01*
X184851463Y-114923506D01*
X184792498Y-115033820D01*
X184756188Y-115153518D01*
X184743928Y-115278000D01*
X184743928Y-115285215D01*
X184674702Y-115264903D01*
X183861605Y-116078000D01*
X183502395Y-116078000D01*
X182689298Y-115264903D01*
X182445329Y-115336486D01*
X182324429Y-115591996D01*
X182255700Y-115866184D01*
X182241783Y-116148512D01*
X159680072Y-116148512D01*
X159680072Y-115278000D01*
X159667812Y-115153518D01*
X159647118Y-115085298D01*
X182868903Y-115085298D01*
X183682000Y-115898395D01*
X184495097Y-115085298D01*
X184423514Y-114841329D01*
X184168004Y-114720429D01*
X183893816Y-114651700D01*
X183611488Y-114637783D01*
X183331870Y-114679213D01*
X183065708Y-114774397D01*
X182940486Y-114841329D01*
X182868903Y-115085298D01*
X159647118Y-115085298D01*
X159631502Y-115033820D01*
X159572537Y-114923506D01*
X159493185Y-114826815D01*
X159396494Y-114747463D01*
X159286180Y-114688498D01*
X159166482Y-114652188D01*
X159042000Y-114639928D01*
X157442000Y-114639928D01*
X157317518Y-114652188D01*
X157197820Y-114688498D01*
X157087506Y-114747463D01*
X156990815Y-114826815D01*
X156911463Y-114923506D01*
X156852498Y-115033820D01*
X156816188Y-115153518D01*
X156803928Y-115278000D01*
X156803928Y-115285215D01*
X156734702Y-115264903D01*
X155921605Y-116078000D01*
X155562395Y-116078000D01*
X154749298Y-115264903D01*
X154505329Y-115336486D01*
X154384429Y-115591996D01*
X154315700Y-115866184D01*
X154301783Y-116148512D01*
X84480000Y-116148512D01*
X84480000Y-115085298D01*
X154928903Y-115085298D01*
X155742000Y-115898395D01*
X156555097Y-115085298D01*
X156483514Y-114841329D01*
X156228004Y-114720429D01*
X155953816Y-114651700D01*
X155671488Y-114637783D01*
X155391870Y-114679213D01*
X155125708Y-114774397D01*
X155000486Y-114841329D01*
X154928903Y-115085298D01*
X84480000Y-115085298D01*
X84480000Y-106568000D01*
X154413928Y-106568000D01*
X154426188Y-106692482D01*
X154462498Y-106812180D01*
X154521463Y-106922494D01*
X154600815Y-107019185D01*
X154697506Y-107098537D01*
X154807820Y-107157502D01*
X154927518Y-107193812D01*
X155052000Y-107206072D01*
X155416250Y-107203000D01*
X155575000Y-107044250D01*
X155575000Y-106045000D01*
X154575750Y-106045000D01*
X154417000Y-106203750D01*
X154413928Y-106568000D01*
X84480000Y-106568000D01*
X84480000Y-105268000D01*
X154413928Y-105268000D01*
X154417000Y-105632250D01*
X154575750Y-105791000D01*
X155575000Y-105791000D01*
X155575000Y-105771000D01*
X155829000Y-105771000D01*
X155829000Y-105791000D01*
X155849000Y-105791000D01*
X155849000Y-106045000D01*
X155829000Y-106045000D01*
X155829000Y-107044250D01*
X155987750Y-107203000D01*
X156352000Y-107206072D01*
X156476482Y-107193812D01*
X156596180Y-107157502D01*
X156706494Y-107098537D01*
X156803185Y-107019185D01*
X156882537Y-106922494D01*
X156941502Y-106812180D01*
X156977812Y-106692482D01*
X156990072Y-106568000D01*
X156987000Y-106203750D01*
X156828252Y-106045002D01*
X156957088Y-106045002D01*
X157006381Y-106292821D01*
X157103247Y-106526676D01*
X157243875Y-106737140D01*
X157422860Y-106916125D01*
X157633324Y-107056753D01*
X157867179Y-107153619D01*
X158115439Y-107203000D01*
X158368561Y-107203000D01*
X158616821Y-107153619D01*
X158850676Y-107056753D01*
X159061140Y-106916125D01*
X159240125Y-106737140D01*
X159353141Y-106568000D01*
X182353928Y-106568000D01*
X182366188Y-106692482D01*
X182402498Y-106812180D01*
X182461463Y-106922494D01*
X182540815Y-107019185D01*
X182637506Y-107098537D01*
X182747820Y-107157502D01*
X182867518Y-107193812D01*
X182992000Y-107206072D01*
X183356250Y-107203000D01*
X183515000Y-107044250D01*
X183515000Y-106045000D01*
X182515750Y-106045000D01*
X182357000Y-106203750D01*
X182353928Y-106568000D01*
X159353141Y-106568000D01*
X159380753Y-106526676D01*
X159477619Y-106292821D01*
X159527000Y-106044561D01*
X159527000Y-105791439D01*
X159477619Y-105543179D01*
X159380753Y-105309324D01*
X159353142Y-105268000D01*
X182353928Y-105268000D01*
X182357000Y-105632250D01*
X182515750Y-105791000D01*
X183515000Y-105791000D01*
X183515000Y-105771000D01*
X183769000Y-105771000D01*
X183769000Y-105791000D01*
X183789000Y-105791000D01*
X183789000Y-106045000D01*
X183769000Y-106045000D01*
X183769000Y-107044250D01*
X183927750Y-107203000D01*
X184292000Y-107206072D01*
X184416482Y-107193812D01*
X184536180Y-107157502D01*
X184646494Y-107098537D01*
X184743185Y-107019185D01*
X184822537Y-106922494D01*
X184881502Y-106812180D01*
X184917812Y-106692482D01*
X184930072Y-106568000D01*
X184927000Y-106203750D01*
X184768252Y-106045002D01*
X184897088Y-106045002D01*
X184946381Y-106292821D01*
X185043247Y-106526676D01*
X185183875Y-106737140D01*
X185362860Y-106916125D01*
X185573324Y-107056753D01*
X185807179Y-107153619D01*
X186055439Y-107203000D01*
X186308561Y-107203000D01*
X186556821Y-107153619D01*
X186790676Y-107056753D01*
X187001140Y-106916125D01*
X187180125Y-106737140D01*
X187320753Y-106526676D01*
X187417619Y-106292821D01*
X187467000Y-106044561D01*
X187467000Y-105791439D01*
X187417619Y-105543179D01*
X187320753Y-105309324D01*
X187180125Y-105098860D01*
X187001140Y-104919875D01*
X186790676Y-104779247D01*
X186556821Y-104682381D01*
X186308561Y-104633000D01*
X186197000Y-104633000D01*
X186197000Y-104521439D01*
X186147619Y-104273179D01*
X186050753Y-104039324D01*
X185910125Y-103828860D01*
X185731140Y-103649875D01*
X185520676Y-103509247D01*
X185286821Y-103412381D01*
X185038561Y-103363000D01*
X184785439Y-103363000D01*
X184537179Y-103412381D01*
X184303324Y-103509247D01*
X184092860Y-103649875D01*
X183913875Y-103828860D01*
X183773247Y-104039324D01*
X183676381Y-104273179D01*
X183627000Y-104521439D01*
X183627000Y-104633000D01*
X183514998Y-104633000D01*
X183514998Y-104791748D01*
X183356250Y-104633000D01*
X182992000Y-104629928D01*
X182867518Y-104642188D01*
X182747820Y-104678498D01*
X182637506Y-104737463D01*
X182540815Y-104816815D01*
X182461463Y-104913506D01*
X182402498Y-105023820D01*
X182366188Y-105143518D01*
X182353928Y-105268000D01*
X159353142Y-105268000D01*
X159240125Y-105098860D01*
X159061140Y-104919875D01*
X158850676Y-104779247D01*
X158616821Y-104682381D01*
X158368561Y-104633000D01*
X158257000Y-104633000D01*
X158257000Y-104521439D01*
X158207619Y-104273179D01*
X158110753Y-104039324D01*
X157970125Y-103828860D01*
X157791140Y-103649875D01*
X157580676Y-103509247D01*
X157346821Y-103412381D01*
X157098561Y-103363000D01*
X156845439Y-103363000D01*
X156597179Y-103412381D01*
X156363324Y-103509247D01*
X156152860Y-103649875D01*
X155973875Y-103828860D01*
X155833247Y-104039324D01*
X155736381Y-104273179D01*
X155687000Y-104521439D01*
X155687000Y-104633000D01*
X155574998Y-104633000D01*
X155574998Y-104791748D01*
X155416250Y-104633000D01*
X155052000Y-104629928D01*
X154927518Y-104642188D01*
X154807820Y-104678498D01*
X154697506Y-104737463D01*
X154600815Y-104816815D01*
X154521463Y-104913506D01*
X154462498Y-105023820D01*
X154426188Y-105143518D01*
X154413928Y-105268000D01*
X84480000Y-105268000D01*
X84480000Y-99937998D01*
X134863928Y-99937998D01*
X134863928Y-101738002D01*
X134880992Y-101911256D01*
X134931528Y-102077852D01*
X135013595Y-102231387D01*
X135124038Y-102365962D01*
X135258613Y-102476405D01*
X135412148Y-102558472D01*
X135578744Y-102609008D01*
X135751998Y-102626072D01*
X137552002Y-102626072D01*
X137725256Y-102609008D01*
X137891852Y-102558472D01*
X138045387Y-102476405D01*
X138179962Y-102365962D01*
X138290405Y-102231387D01*
X138372472Y-102077852D01*
X138423008Y-101911256D01*
X138440072Y-101738002D01*
X138440072Y-100662193D01*
X139667000Y-100662193D01*
X139667000Y-101013807D01*
X139735596Y-101358665D01*
X139870153Y-101683515D01*
X140065500Y-101975871D01*
X140314129Y-102224500D01*
X140606485Y-102419847D01*
X140931335Y-102554404D01*
X141276193Y-102623000D01*
X141627807Y-102623000D01*
X141972665Y-102554404D01*
X142297515Y-102419847D01*
X142589871Y-102224500D01*
X142838500Y-101975871D01*
X143033847Y-101683515D01*
X143168404Y-101358665D01*
X143237000Y-101013807D01*
X143237000Y-100662193D01*
X143168404Y-100317335D01*
X143033847Y-99992485D01*
X142838500Y-99700129D01*
X142589871Y-99451500D01*
X142297515Y-99256153D01*
X141972665Y-99121596D01*
X141627807Y-99053000D01*
X141276193Y-99053000D01*
X140931335Y-99121596D01*
X140606485Y-99256153D01*
X140314129Y-99451500D01*
X140065500Y-99700129D01*
X139870153Y-99992485D01*
X139735596Y-100317335D01*
X139667000Y-100662193D01*
X138440072Y-100662193D01*
X138440072Y-99937998D01*
X138423008Y-99764744D01*
X138372472Y-99598148D01*
X138290405Y-99444613D01*
X138179962Y-99310038D01*
X138045387Y-99199595D01*
X137891852Y-99117528D01*
X137725256Y-99066992D01*
X137552002Y-99049928D01*
X135751998Y-99049928D01*
X135578744Y-99066992D01*
X135412148Y-99117528D01*
X135258613Y-99199595D01*
X135124038Y-99310038D01*
X135013595Y-99444613D01*
X134931528Y-99598148D01*
X134880992Y-99764744D01*
X134863928Y-99937998D01*
X84480000Y-99937998D01*
X84480000Y-96228000D01*
X155533928Y-96228000D01*
X155533928Y-97828000D01*
X155546188Y-97952482D01*
X155582498Y-98072180D01*
X155641463Y-98182494D01*
X155720815Y-98279185D01*
X155817506Y-98358537D01*
X155927820Y-98417502D01*
X156047518Y-98453812D01*
X156172000Y-98466072D01*
X157772000Y-98466072D01*
X157896482Y-98453812D01*
X158016180Y-98417502D01*
X158126494Y-98358537D01*
X158223185Y-98279185D01*
X158302537Y-98182494D01*
X158361502Y-98072180D01*
X158397812Y-97952482D01*
X158410072Y-97828000D01*
X158410072Y-96750702D01*
X182868903Y-96750702D01*
X182940486Y-96994671D01*
X183195996Y-97115571D01*
X183470184Y-97184300D01*
X183752512Y-97198217D01*
X184032130Y-97156787D01*
X184298292Y-97061603D01*
X184423514Y-96994671D01*
X184495097Y-96750702D01*
X183682000Y-95937605D01*
X182868903Y-96750702D01*
X158410072Y-96750702D01*
X158410072Y-96228000D01*
X158397812Y-96103518D01*
X158361502Y-95983820D01*
X158302537Y-95873506D01*
X158265612Y-95828512D01*
X182241783Y-95828512D01*
X182283213Y-96108130D01*
X182378397Y-96374292D01*
X182445329Y-96499514D01*
X182689298Y-96571097D01*
X183502395Y-95758000D01*
X183861605Y-95758000D01*
X184674702Y-96571097D01*
X184743928Y-96550785D01*
X184743928Y-96558000D01*
X184756188Y-96682482D01*
X184792498Y-96802180D01*
X184851463Y-96912494D01*
X184930815Y-97009185D01*
X185027506Y-97088537D01*
X185137820Y-97147502D01*
X185257518Y-97183812D01*
X185382000Y-97196072D01*
X186982000Y-97196072D01*
X187106482Y-97183812D01*
X187226180Y-97147502D01*
X187336494Y-97088537D01*
X187433185Y-97009185D01*
X187512537Y-96912494D01*
X187571502Y-96802180D01*
X187607812Y-96682482D01*
X187620072Y-96558000D01*
X187620072Y-94958000D01*
X187607812Y-94833518D01*
X187571502Y-94713820D01*
X187512537Y-94603506D01*
X187433185Y-94506815D01*
X187336494Y-94427463D01*
X187226180Y-94368498D01*
X187106482Y-94332188D01*
X186982000Y-94319928D01*
X185382000Y-94319928D01*
X185257518Y-94332188D01*
X185137820Y-94368498D01*
X185027506Y-94427463D01*
X184930815Y-94506815D01*
X184851463Y-94603506D01*
X184792498Y-94713820D01*
X184756188Y-94833518D01*
X184743928Y-94958000D01*
X184743928Y-94965215D01*
X184674702Y-94944903D01*
X183861605Y-95758000D01*
X183502395Y-95758000D01*
X182689298Y-94944903D01*
X182445329Y-95016486D01*
X182324429Y-95271996D01*
X182255700Y-95546184D01*
X182241783Y-95828512D01*
X158265612Y-95828512D01*
X158223185Y-95776815D01*
X158126494Y-95697463D01*
X158016180Y-95638498D01*
X157896482Y-95602188D01*
X157772000Y-95589928D01*
X157764785Y-95589928D01*
X157785097Y-95520702D01*
X156972000Y-94707605D01*
X156158903Y-95520702D01*
X156179215Y-95589928D01*
X156172000Y-95589928D01*
X156047518Y-95602188D01*
X155927820Y-95638498D01*
X155817506Y-95697463D01*
X155720815Y-95776815D01*
X155641463Y-95873506D01*
X155582498Y-95983820D01*
X155546188Y-96103518D01*
X155533928Y-96228000D01*
X84480000Y-96228000D01*
X84480000Y-94598512D01*
X155531783Y-94598512D01*
X155573213Y-94878130D01*
X155668397Y-95144292D01*
X155735329Y-95269514D01*
X155979298Y-95341097D01*
X156792395Y-94528000D01*
X157151605Y-94528000D01*
X157964702Y-95341097D01*
X158208671Y-95269514D01*
X158329571Y-95014004D01*
X158391912Y-94765298D01*
X182868903Y-94765298D01*
X183682000Y-95578395D01*
X184495097Y-94765298D01*
X184423514Y-94521329D01*
X184168004Y-94400429D01*
X183893816Y-94331700D01*
X183611488Y-94317783D01*
X183331870Y-94359213D01*
X183065708Y-94454397D01*
X182940486Y-94521329D01*
X182868903Y-94765298D01*
X158391912Y-94765298D01*
X158398300Y-94739816D01*
X158412217Y-94457488D01*
X158370787Y-94177870D01*
X158275603Y-93911708D01*
X158208671Y-93786486D01*
X157964702Y-93714903D01*
X157151605Y-94528000D01*
X156792395Y-94528000D01*
X155979298Y-93714903D01*
X155735329Y-93786486D01*
X155614429Y-94041996D01*
X155545700Y-94316184D01*
X155531783Y-94598512D01*
X84480000Y-94598512D01*
X84480000Y-93535298D01*
X156158903Y-93535298D01*
X156972000Y-94348395D01*
X157785097Y-93535298D01*
X157713514Y-93291329D01*
X157458004Y-93170429D01*
X157183816Y-93101700D01*
X156901488Y-93087783D01*
X156621870Y-93129213D01*
X156355708Y-93224397D01*
X156230486Y-93291329D01*
X156158903Y-93535298D01*
X84480000Y-93535298D01*
X84480000Y-91422193D01*
X115437000Y-91422193D01*
X115437000Y-91773807D01*
X115505596Y-92118665D01*
X115640153Y-92443515D01*
X115835500Y-92735871D01*
X116084129Y-92984500D01*
X116376485Y-93179847D01*
X116701335Y-93314404D01*
X117046193Y-93383000D01*
X117397807Y-93383000D01*
X117742665Y-93314404D01*
X118067515Y-93179847D01*
X118359871Y-92984500D01*
X118608500Y-92735871D01*
X118803847Y-92443515D01*
X118938404Y-92118665D01*
X119007000Y-91773807D01*
X119007000Y-91422193D01*
X118938404Y-91077335D01*
X118803847Y-90752485D01*
X118608500Y-90460129D01*
X118359871Y-90211500D01*
X118067515Y-90016153D01*
X117742665Y-89881596D01*
X117397807Y-89813000D01*
X117046193Y-89813000D01*
X116701335Y-89881596D01*
X116376485Y-90016153D01*
X116084129Y-90211500D01*
X115835500Y-90460129D01*
X115640153Y-90752485D01*
X115505596Y-91077335D01*
X115437000Y-91422193D01*
X84480000Y-91422193D01*
X84480000Y-84858000D01*
X141158928Y-84858000D01*
X141158928Y-88878000D01*
X141171188Y-89002482D01*
X141207498Y-89122180D01*
X141266463Y-89232494D01*
X141345815Y-89329185D01*
X141442506Y-89408537D01*
X141552820Y-89467502D01*
X141672518Y-89503812D01*
X141797000Y-89516072D01*
X144207000Y-89516072D01*
X144331482Y-89503812D01*
X144451180Y-89467502D01*
X144561494Y-89408537D01*
X144658185Y-89329185D01*
X144737537Y-89232494D01*
X144796502Y-89122180D01*
X144832812Y-89002482D01*
X144845072Y-88878000D01*
X144845072Y-87361665D01*
X182207000Y-87361665D01*
X182207000Y-87644335D01*
X182262147Y-87921574D01*
X182370320Y-88182727D01*
X182527363Y-88417759D01*
X182727241Y-88617637D01*
X182962273Y-88774680D01*
X183223426Y-88882853D01*
X183500665Y-88938000D01*
X183783335Y-88938000D01*
X184060574Y-88882853D01*
X184321727Y-88774680D01*
X184556759Y-88617637D01*
X184756637Y-88417759D01*
X184913680Y-88182727D01*
X185021853Y-87921574D01*
X185077000Y-87644335D01*
X185077000Y-87361665D01*
X185021853Y-87084426D01*
X184913680Y-86823273D01*
X184756637Y-86588241D01*
X184556759Y-86388363D01*
X184321727Y-86231320D01*
X184060574Y-86123147D01*
X183783335Y-86068000D01*
X183500665Y-86068000D01*
X183223426Y-86123147D01*
X182962273Y-86231320D01*
X182727241Y-86388363D01*
X182527363Y-86588241D01*
X182370320Y-86823273D01*
X182262147Y-87084426D01*
X182207000Y-87361665D01*
X144845072Y-87361665D01*
X144845072Y-84858000D01*
X144832812Y-84733518D01*
X144796502Y-84613820D01*
X144737537Y-84503506D01*
X144658185Y-84406815D01*
X144561494Y-84327463D01*
X144451180Y-84268498D01*
X144331482Y-84232188D01*
X144207000Y-84219928D01*
X141797000Y-84219928D01*
X141672518Y-84232188D01*
X141552820Y-84268498D01*
X141442506Y-84327463D01*
X141345815Y-84406815D01*
X141266463Y-84503506D01*
X141207498Y-84613820D01*
X141171188Y-84733518D01*
X141158928Y-84858000D01*
X84480000Y-84858000D01*
X84480000Y-84176816D01*
X166867000Y-84176816D01*
X166867000Y-84479184D01*
X166925989Y-84775743D01*
X167041701Y-85055095D01*
X167209688Y-85306505D01*
X167423495Y-85520312D01*
X167674905Y-85688299D01*
X167954257Y-85804011D01*
X168250816Y-85863000D01*
X168553184Y-85863000D01*
X168849743Y-85804011D01*
X169129095Y-85688299D01*
X169380505Y-85520312D01*
X169446944Y-85453873D01*
X169452498Y-85472180D01*
X169511463Y-85582494D01*
X169590815Y-85679185D01*
X169687506Y-85758537D01*
X169797820Y-85817502D01*
X169917518Y-85853812D01*
X170042000Y-85866072D01*
X170656250Y-85863000D01*
X170815000Y-85704250D01*
X170815000Y-84455000D01*
X171069000Y-84455000D01*
X171069000Y-85704250D01*
X171227750Y-85863000D01*
X171842000Y-85866072D01*
X171966482Y-85853812D01*
X172086180Y-85817502D01*
X172196494Y-85758537D01*
X172293185Y-85679185D01*
X172372537Y-85582494D01*
X172431502Y-85472180D01*
X172467812Y-85352482D01*
X172480072Y-85228000D01*
X172477000Y-84613750D01*
X172318250Y-84455000D01*
X171069000Y-84455000D01*
X170815000Y-84455000D01*
X170795000Y-84455000D01*
X170795000Y-84201000D01*
X170815000Y-84201000D01*
X170815000Y-82951750D01*
X171069000Y-82951750D01*
X171069000Y-84201000D01*
X172318250Y-84201000D01*
X172477000Y-84042250D01*
X172480072Y-83428000D01*
X172467812Y-83303518D01*
X172431502Y-83183820D01*
X172372537Y-83073506D01*
X172293185Y-82976815D01*
X172196494Y-82897463D01*
X172086180Y-82838498D01*
X171966482Y-82802188D01*
X171842000Y-82789928D01*
X171227750Y-82793000D01*
X171069000Y-82951750D01*
X170815000Y-82951750D01*
X170656250Y-82793000D01*
X170042000Y-82789928D01*
X169917518Y-82802188D01*
X169797820Y-82838498D01*
X169687506Y-82897463D01*
X169590815Y-82976815D01*
X169511463Y-83073506D01*
X169452498Y-83183820D01*
X169446944Y-83202127D01*
X169380505Y-83135688D01*
X169129095Y-82967701D01*
X168849743Y-82851989D01*
X168553184Y-82793000D01*
X168250816Y-82793000D01*
X167954257Y-82851989D01*
X167674905Y-82967701D01*
X167423495Y-83135688D01*
X167209688Y-83349495D01*
X167041701Y-83600905D01*
X166925989Y-83880257D01*
X166867000Y-84176816D01*
X84480000Y-84176816D01*
X84480000Y-79026665D01*
X160617000Y-79026665D01*
X160617000Y-79309335D01*
X160672147Y-79586574D01*
X160780320Y-79847727D01*
X160937363Y-80082759D01*
X161137241Y-80282637D01*
X161372273Y-80439680D01*
X161633426Y-80547853D01*
X161910665Y-80603000D01*
X162193335Y-80603000D01*
X162470574Y-80547853D01*
X162731727Y-80439680D01*
X162966759Y-80282637D01*
X163166637Y-80082759D01*
X163323680Y-79847727D01*
X163431853Y-79586574D01*
X163487000Y-79309335D01*
X163487000Y-79026665D01*
X166967000Y-79026665D01*
X166967000Y-79309335D01*
X167022147Y-79586574D01*
X167130320Y-79847727D01*
X167287363Y-80082759D01*
X167487241Y-80282637D01*
X167722273Y-80439680D01*
X167983426Y-80547853D01*
X168260665Y-80603000D01*
X168543335Y-80603000D01*
X168820574Y-80547853D01*
X169081727Y-80439680D01*
X169316759Y-80282637D01*
X169516637Y-80082759D01*
X169673680Y-79847727D01*
X169781853Y-79586574D01*
X169837000Y-79309335D01*
X169837000Y-79026665D01*
X169781853Y-78749426D01*
X169673680Y-78488273D01*
X169516637Y-78253241D01*
X169316759Y-78053363D01*
X169081727Y-77896320D01*
X169032818Y-77876061D01*
X170415000Y-77876061D01*
X170415000Y-78079939D01*
X170454774Y-78279898D01*
X170532795Y-78468256D01*
X170646063Y-78637774D01*
X170790226Y-78781937D01*
X170959744Y-78895205D01*
X171148102Y-78973226D01*
X171348061Y-79013000D01*
X171410199Y-79013000D01*
X172156201Y-79759003D01*
X172179999Y-79788001D01*
X172295724Y-79882974D01*
X172427753Y-79953546D01*
X172571014Y-79997003D01*
X172682667Y-80008000D01*
X172682676Y-80008000D01*
X172719999Y-80011676D01*
X172757322Y-80008000D01*
X175222678Y-80008000D01*
X175260000Y-80011676D01*
X175297322Y-80008000D01*
X175297333Y-80008000D01*
X175408986Y-79997003D01*
X175552247Y-79953546D01*
X175684276Y-79882974D01*
X175800001Y-79788001D01*
X175823804Y-79758997D01*
X180597003Y-74985799D01*
X180626001Y-74962001D01*
X180720974Y-74846276D01*
X180791546Y-74714247D01*
X180807496Y-74661665D01*
X182207000Y-74661665D01*
X182207000Y-74944335D01*
X182262147Y-75221574D01*
X182370320Y-75482727D01*
X182527363Y-75717759D01*
X182727241Y-75917637D01*
X182962273Y-76074680D01*
X183223426Y-76182853D01*
X183500665Y-76238000D01*
X183783335Y-76238000D01*
X184060574Y-76182853D01*
X184321727Y-76074680D01*
X184556759Y-75917637D01*
X184756637Y-75717759D01*
X184913680Y-75482727D01*
X185021853Y-75221574D01*
X185077000Y-74944335D01*
X185077000Y-74661665D01*
X185021853Y-74384426D01*
X184913680Y-74123273D01*
X184756637Y-73888241D01*
X184556759Y-73688363D01*
X184321727Y-73531320D01*
X184060574Y-73423147D01*
X183783335Y-73368000D01*
X183500665Y-73368000D01*
X183223426Y-73423147D01*
X182962273Y-73531320D01*
X182727241Y-73688363D01*
X182527363Y-73888241D01*
X182370320Y-74123273D01*
X182262147Y-74384426D01*
X182207000Y-74661665D01*
X180807496Y-74661665D01*
X180835003Y-74570986D01*
X180846000Y-74459333D01*
X180846000Y-74459325D01*
X180849676Y-74422000D01*
X180846000Y-74384675D01*
X180846000Y-72756665D01*
X186017000Y-72756665D01*
X186017000Y-73039335D01*
X186072147Y-73316574D01*
X186180320Y-73577727D01*
X186337363Y-73812759D01*
X186537241Y-74012637D01*
X186772273Y-74169680D01*
X187033426Y-74277853D01*
X187310665Y-74333000D01*
X187593335Y-74333000D01*
X187870574Y-74277853D01*
X188131727Y-74169680D01*
X188366759Y-74012637D01*
X188566637Y-73812759D01*
X188723680Y-73577727D01*
X188831853Y-73316574D01*
X188887000Y-73039335D01*
X188887000Y-72756665D01*
X188831853Y-72479426D01*
X188723680Y-72218273D01*
X188566637Y-71983241D01*
X188366759Y-71783363D01*
X188131727Y-71626320D01*
X187870574Y-71518147D01*
X187593335Y-71463000D01*
X187310665Y-71463000D01*
X187033426Y-71518147D01*
X186772273Y-71626320D01*
X186537241Y-71783363D01*
X186337363Y-71983241D01*
X186180320Y-72218273D01*
X186072147Y-72479426D01*
X186017000Y-72756665D01*
X180846000Y-72756665D01*
X180846000Y-71823711D01*
X180889937Y-71779774D01*
X181003205Y-71610256D01*
X181081226Y-71421898D01*
X181121000Y-71221939D01*
X181121000Y-71018061D01*
X181081226Y-70818102D01*
X181003205Y-70629744D01*
X180889937Y-70460226D01*
X180745774Y-70316063D01*
X180576256Y-70202795D01*
X180387898Y-70124774D01*
X180187939Y-70085000D01*
X179984061Y-70085000D01*
X179784102Y-70124774D01*
X179595744Y-70202795D01*
X179426226Y-70316063D01*
X179282063Y-70460226D01*
X179168795Y-70629744D01*
X179090774Y-70818102D01*
X179051000Y-71018061D01*
X179051000Y-71221939D01*
X179090774Y-71421898D01*
X179168795Y-71610256D01*
X179282063Y-71779774D01*
X179326000Y-71823711D01*
X179326001Y-74107197D01*
X174945199Y-78488000D01*
X173034802Y-78488000D01*
X172485000Y-77938199D01*
X172485000Y-77876061D01*
X172445226Y-77676102D01*
X172367205Y-77487744D01*
X172253937Y-77318226D01*
X172109774Y-77174063D01*
X171940256Y-77060795D01*
X171751898Y-76982774D01*
X171551939Y-76943000D01*
X171348061Y-76943000D01*
X171148102Y-76982774D01*
X170959744Y-77060795D01*
X170790226Y-77174063D01*
X170646063Y-77318226D01*
X170532795Y-77487744D01*
X170454774Y-77676102D01*
X170415000Y-77876061D01*
X169032818Y-77876061D01*
X168820574Y-77788147D01*
X168543335Y-77733000D01*
X168260665Y-77733000D01*
X167983426Y-77788147D01*
X167722273Y-77896320D01*
X167487241Y-78053363D01*
X167287363Y-78253241D01*
X167130320Y-78488273D01*
X167022147Y-78749426D01*
X166967000Y-79026665D01*
X163487000Y-79026665D01*
X163431853Y-78749426D01*
X163323680Y-78488273D01*
X163166637Y-78253241D01*
X162966759Y-78053363D01*
X162731727Y-77896320D01*
X162470574Y-77788147D01*
X162193335Y-77733000D01*
X161910665Y-77733000D01*
X161633426Y-77788147D01*
X161372273Y-77896320D01*
X161137241Y-78053363D01*
X160937363Y-78253241D01*
X160780320Y-78488273D01*
X160672147Y-78749426D01*
X160617000Y-79026665D01*
X84480000Y-79026665D01*
X84480000Y-74115000D01*
X141162000Y-74115000D01*
X141162000Y-74920000D01*
X141222132Y-75276526D01*
X141350663Y-75614470D01*
X141542654Y-75920846D01*
X141790727Y-76183879D01*
X142085348Y-76393461D01*
X142415196Y-76541539D01*
X142589411Y-76586145D01*
X142875000Y-76469446D01*
X142875000Y-74115000D01*
X143129000Y-74115000D01*
X143129000Y-76469446D01*
X143414589Y-76586145D01*
X143588804Y-76541539D01*
X143918652Y-76393461D01*
X144213273Y-76183879D01*
X144461346Y-75920846D01*
X144653337Y-75614470D01*
X144781868Y-75276526D01*
X144801402Y-75160702D01*
X161238903Y-75160702D01*
X161310486Y-75404671D01*
X161565996Y-75525571D01*
X161840184Y-75594300D01*
X162122512Y-75608217D01*
X162402130Y-75566787D01*
X162668292Y-75471603D01*
X162793514Y-75404671D01*
X162865097Y-75160702D01*
X167588903Y-75160702D01*
X167660486Y-75404671D01*
X167915996Y-75525571D01*
X168190184Y-75594300D01*
X168472512Y-75608217D01*
X168752130Y-75566787D01*
X169018292Y-75471603D01*
X169143514Y-75404671D01*
X169215097Y-75160702D01*
X168402000Y-74347605D01*
X167588903Y-75160702D01*
X162865097Y-75160702D01*
X162052000Y-74347605D01*
X161238903Y-75160702D01*
X144801402Y-75160702D01*
X144842000Y-74920000D01*
X144842000Y-74238512D01*
X160611783Y-74238512D01*
X160653213Y-74518130D01*
X160748397Y-74784292D01*
X160815329Y-74909514D01*
X161059298Y-74981097D01*
X161872395Y-74168000D01*
X162231605Y-74168000D01*
X163044702Y-74981097D01*
X163288671Y-74909514D01*
X163409571Y-74654004D01*
X163478300Y-74379816D01*
X163485265Y-74238512D01*
X166961783Y-74238512D01*
X167003213Y-74518130D01*
X167098397Y-74784292D01*
X167165329Y-74909514D01*
X167409298Y-74981097D01*
X168222395Y-74168000D01*
X168581605Y-74168000D01*
X169394702Y-74981097D01*
X169638671Y-74909514D01*
X169759571Y-74654004D01*
X169828300Y-74379816D01*
X169842217Y-74097488D01*
X169800787Y-73817870D01*
X169705603Y-73551708D01*
X169638671Y-73426486D01*
X169394702Y-73354903D01*
X168581605Y-74168000D01*
X168222395Y-74168000D01*
X167409298Y-73354903D01*
X167165329Y-73426486D01*
X167044429Y-73681996D01*
X166975700Y-73956184D01*
X166961783Y-74238512D01*
X163485265Y-74238512D01*
X163492217Y-74097488D01*
X163450787Y-73817870D01*
X163355603Y-73551708D01*
X163288671Y-73426486D01*
X163044702Y-73354903D01*
X162231605Y-74168000D01*
X161872395Y-74168000D01*
X161059298Y-73354903D01*
X160815329Y-73426486D01*
X160694429Y-73681996D01*
X160625700Y-73956184D01*
X160611783Y-74238512D01*
X144842000Y-74238512D01*
X144842000Y-74115000D01*
X143129000Y-74115000D01*
X142875000Y-74115000D01*
X141162000Y-74115000D01*
X84480000Y-74115000D01*
X84480000Y-73056000D01*
X141162000Y-73056000D01*
X141162000Y-73861000D01*
X142875000Y-73861000D01*
X142875000Y-71506554D01*
X143129000Y-71506554D01*
X143129000Y-73861000D01*
X144842000Y-73861000D01*
X144842000Y-73175298D01*
X161238903Y-73175298D01*
X162052000Y-73988395D01*
X162865097Y-73175298D01*
X167588903Y-73175298D01*
X168402000Y-73988395D01*
X169215097Y-73175298D01*
X169143514Y-72931329D01*
X168888004Y-72810429D01*
X168613816Y-72741700D01*
X168331488Y-72727783D01*
X168051870Y-72769213D01*
X167785708Y-72864397D01*
X167660486Y-72931329D01*
X167588903Y-73175298D01*
X162865097Y-73175298D01*
X162793514Y-72931329D01*
X162538004Y-72810429D01*
X162263816Y-72741700D01*
X161981488Y-72727783D01*
X161701870Y-72769213D01*
X161435708Y-72864397D01*
X161310486Y-72931329D01*
X161238903Y-73175298D01*
X144842000Y-73175298D01*
X144842000Y-73056000D01*
X144781868Y-72699474D01*
X144653337Y-72361530D01*
X144461346Y-72055154D01*
X144213273Y-71792121D01*
X143918652Y-71582539D01*
X143588804Y-71434461D01*
X143414589Y-71389855D01*
X143129000Y-71506554D01*
X142875000Y-71506554D01*
X142589411Y-71389855D01*
X142415196Y-71434461D01*
X142085348Y-71582539D01*
X141790727Y-71792121D01*
X141542654Y-72055154D01*
X141350663Y-72361530D01*
X141222132Y-72699474D01*
X141162000Y-73056000D01*
X84480000Y-73056000D01*
X84480000Y-69072193D01*
X101957000Y-69072193D01*
X101957000Y-69423807D01*
X102025596Y-69768665D01*
X102160153Y-70093515D01*
X102355500Y-70385871D01*
X102604129Y-70634500D01*
X102896485Y-70829847D01*
X103221335Y-70964404D01*
X103566193Y-71033000D01*
X103917807Y-71033000D01*
X104262665Y-70964404D01*
X104587515Y-70829847D01*
X104879871Y-70634500D01*
X105128500Y-70385871D01*
X105323847Y-70093515D01*
X105458404Y-69768665D01*
X105527000Y-69423807D01*
X105527000Y-69072193D01*
X128927000Y-69072193D01*
X128927000Y-69423807D01*
X128995596Y-69768665D01*
X129130153Y-70093515D01*
X129325500Y-70385871D01*
X129574129Y-70634500D01*
X129866485Y-70829847D01*
X130191335Y-70964404D01*
X130536193Y-71033000D01*
X130887807Y-71033000D01*
X131232665Y-70964404D01*
X131557515Y-70829847D01*
X131849871Y-70634500D01*
X132098500Y-70385871D01*
X132293847Y-70093515D01*
X132428404Y-69768665D01*
X132492644Y-69445702D01*
X149173903Y-69445702D01*
X149245486Y-69689671D01*
X149500996Y-69810571D01*
X149775184Y-69879300D01*
X150057512Y-69893217D01*
X150337130Y-69851787D01*
X150603292Y-69756603D01*
X150728514Y-69689671D01*
X150800097Y-69445702D01*
X149987000Y-68632605D01*
X149173903Y-69445702D01*
X132492644Y-69445702D01*
X132497000Y-69423807D01*
X132497000Y-69072193D01*
X132428404Y-68727335D01*
X132343978Y-68523512D01*
X148546783Y-68523512D01*
X148588213Y-68803130D01*
X148683397Y-69069292D01*
X148750329Y-69194514D01*
X148994298Y-69266097D01*
X149807395Y-68453000D01*
X150166605Y-68453000D01*
X150979702Y-69266097D01*
X151223671Y-69194514D01*
X151344571Y-68939004D01*
X151413300Y-68664816D01*
X151427217Y-68382488D01*
X151416724Y-68311665D01*
X153552000Y-68311665D01*
X153552000Y-68594335D01*
X153607147Y-68871574D01*
X153715320Y-69132727D01*
X153872363Y-69367759D01*
X154072241Y-69567637D01*
X154307273Y-69724680D01*
X154568426Y-69832853D01*
X154845665Y-69888000D01*
X155128335Y-69888000D01*
X155405574Y-69832853D01*
X155666727Y-69724680D01*
X155901759Y-69567637D01*
X156101637Y-69367759D01*
X156258680Y-69132727D01*
X156366853Y-68871574D01*
X156422000Y-68594335D01*
X156422000Y-68311665D01*
X156366853Y-68034426D01*
X156258680Y-67773273D01*
X156101637Y-67538241D01*
X155901759Y-67338363D01*
X155666727Y-67181320D01*
X155405574Y-67073147D01*
X155128335Y-67018000D01*
X154845665Y-67018000D01*
X154568426Y-67073147D01*
X154307273Y-67181320D01*
X154072241Y-67338363D01*
X153872363Y-67538241D01*
X153715320Y-67773273D01*
X153607147Y-68034426D01*
X153552000Y-68311665D01*
X151416724Y-68311665D01*
X151385787Y-68102870D01*
X151290603Y-67836708D01*
X151223671Y-67711486D01*
X150979702Y-67639903D01*
X150166605Y-68453000D01*
X149807395Y-68453000D01*
X148994298Y-67639903D01*
X148750329Y-67711486D01*
X148629429Y-67966996D01*
X148560700Y-68241184D01*
X148546783Y-68523512D01*
X132343978Y-68523512D01*
X132293847Y-68402485D01*
X132098500Y-68110129D01*
X131849871Y-67861500D01*
X131557515Y-67666153D01*
X131232665Y-67531596D01*
X130887807Y-67463000D01*
X130536193Y-67463000D01*
X130191335Y-67531596D01*
X129866485Y-67666153D01*
X129574129Y-67861500D01*
X129325500Y-68110129D01*
X129130153Y-68402485D01*
X128995596Y-68727335D01*
X128927000Y-69072193D01*
X105527000Y-69072193D01*
X105458404Y-68727335D01*
X105323847Y-68402485D01*
X105128500Y-68110129D01*
X104879871Y-67861500D01*
X104587515Y-67666153D01*
X104262665Y-67531596D01*
X103917807Y-67463000D01*
X103566193Y-67463000D01*
X103221335Y-67531596D01*
X102896485Y-67666153D01*
X102604129Y-67861500D01*
X102355500Y-68110129D01*
X102160153Y-68402485D01*
X102025596Y-68727335D01*
X101957000Y-69072193D01*
X84480000Y-69072193D01*
X84480000Y-67460298D01*
X149173903Y-67460298D01*
X149987000Y-68273395D01*
X150800097Y-67460298D01*
X150728514Y-67216329D01*
X150473004Y-67095429D01*
X150198816Y-67026700D01*
X149916488Y-67012783D01*
X149636870Y-67054213D01*
X149370708Y-67149397D01*
X149245486Y-67216329D01*
X149173903Y-67460298D01*
X84480000Y-67460298D01*
X84480000Y-64365702D01*
X149253903Y-64365702D01*
X149325486Y-64609671D01*
X149580996Y-64730571D01*
X149855184Y-64799300D01*
X150137512Y-64813217D01*
X150417130Y-64771787D01*
X150683292Y-64676603D01*
X150808514Y-64609671D01*
X150880097Y-64365702D01*
X150067000Y-63552605D01*
X149253903Y-64365702D01*
X84480000Y-64365702D01*
X84480000Y-63443512D01*
X148626783Y-63443512D01*
X148668213Y-63723130D01*
X148763397Y-63989292D01*
X148830329Y-64114514D01*
X149074298Y-64186097D01*
X149887395Y-63373000D01*
X150246605Y-63373000D01*
X151059702Y-64186097D01*
X151303671Y-64114514D01*
X151424571Y-63859004D01*
X151493300Y-63584816D01*
X151507217Y-63302488D01*
X151496724Y-63231665D01*
X153632000Y-63231665D01*
X153632000Y-63514335D01*
X153687147Y-63791574D01*
X153795320Y-64052727D01*
X153952363Y-64287759D01*
X154152241Y-64487637D01*
X154387273Y-64644680D01*
X154648426Y-64752853D01*
X154925665Y-64808000D01*
X155208335Y-64808000D01*
X155485574Y-64752853D01*
X155746727Y-64644680D01*
X155981759Y-64487637D01*
X156181637Y-64287759D01*
X156338680Y-64052727D01*
X156446853Y-63791574D01*
X156502000Y-63514335D01*
X156502000Y-63231665D01*
X156446853Y-62954426D01*
X156338680Y-62693273D01*
X156181637Y-62458241D01*
X155981759Y-62258363D01*
X155746727Y-62101320D01*
X155485574Y-61993147D01*
X155208335Y-61938000D01*
X154925665Y-61938000D01*
X154648426Y-61993147D01*
X154387273Y-62101320D01*
X154152241Y-62258363D01*
X153952363Y-62458241D01*
X153795320Y-62693273D01*
X153687147Y-62954426D01*
X153632000Y-63231665D01*
X151496724Y-63231665D01*
X151465787Y-63022870D01*
X151370603Y-62756708D01*
X151303671Y-62631486D01*
X151059702Y-62559903D01*
X150246605Y-63373000D01*
X149887395Y-63373000D01*
X149074298Y-62559903D01*
X148830329Y-62631486D01*
X148709429Y-62886996D01*
X148640700Y-63161184D01*
X148626783Y-63443512D01*
X84480000Y-63443512D01*
X84480000Y-62380298D01*
X149253903Y-62380298D01*
X150067000Y-63193395D01*
X150880097Y-62380298D01*
X150808514Y-62136329D01*
X150553004Y-62015429D01*
X150278816Y-61946700D01*
X149996488Y-61932783D01*
X149716870Y-61974213D01*
X149450708Y-62069397D01*
X149325486Y-62136329D01*
X149253903Y-62380298D01*
X84480000Y-62380298D01*
X84480000Y-56808000D01*
X154213928Y-56808000D01*
X154213928Y-58508000D01*
X154226188Y-58632482D01*
X154262498Y-58752180D01*
X154321463Y-58862494D01*
X154400815Y-58959185D01*
X154497506Y-59038537D01*
X154607820Y-59097502D01*
X154727518Y-59133812D01*
X154852000Y-59146072D01*
X156552000Y-59146072D01*
X156676482Y-59133812D01*
X156796180Y-59097502D01*
X156906494Y-59038537D01*
X157003185Y-58959185D01*
X157082537Y-58862494D01*
X157141502Y-58752180D01*
X157163513Y-58679620D01*
X157295368Y-58811475D01*
X157482000Y-58936179D01*
X157482000Y-59144677D01*
X157478324Y-59182000D01*
X157482000Y-59219322D01*
X157482000Y-59219332D01*
X157492997Y-59330985D01*
X157536454Y-59474246D01*
X157607026Y-59606276D01*
X157646871Y-59654826D01*
X157701999Y-59722001D01*
X157731003Y-59745804D01*
X163154402Y-65169204D01*
X162918011Y-65216225D01*
X162665957Y-65320629D01*
X162439114Y-65472201D01*
X162246201Y-65665114D01*
X162094629Y-65891957D01*
X161990225Y-66144011D01*
X161937000Y-66411589D01*
X161937000Y-66684411D01*
X161990225Y-66951989D01*
X162094629Y-67204043D01*
X162246201Y-67430886D01*
X162439114Y-67623799D01*
X162665957Y-67775371D01*
X162918011Y-67879775D01*
X163185589Y-67933000D01*
X163458411Y-67933000D01*
X163725989Y-67879775D01*
X163978043Y-67775371D01*
X164204886Y-67623799D01*
X164397799Y-67430886D01*
X164549371Y-67204043D01*
X164653775Y-66951989D01*
X164700796Y-66715598D01*
X170669000Y-72683802D01*
X170669000Y-72745939D01*
X170708774Y-72945898D01*
X170786795Y-73134256D01*
X170900063Y-73303774D01*
X171044226Y-73447937D01*
X171213744Y-73561205D01*
X171402102Y-73639226D01*
X171602061Y-73679000D01*
X171805939Y-73679000D01*
X172005898Y-73639226D01*
X172194256Y-73561205D01*
X172363774Y-73447937D01*
X172507937Y-73303774D01*
X172621205Y-73134256D01*
X172699226Y-72945898D01*
X172739000Y-72745939D01*
X172739000Y-72542061D01*
X172699226Y-72342102D01*
X172621205Y-72153744D01*
X172507937Y-71984226D01*
X172363774Y-71840063D01*
X172194256Y-71726795D01*
X172005898Y-71648774D01*
X171805939Y-71609000D01*
X171743802Y-71609000D01*
X168067802Y-67933000D01*
X168338411Y-67933000D01*
X168605989Y-67879775D01*
X168858043Y-67775371D01*
X169084886Y-67623799D01*
X169277799Y-67430886D01*
X169429371Y-67204043D01*
X169533775Y-66951989D01*
X169587000Y-66684411D01*
X169587000Y-66411589D01*
X169533775Y-66144011D01*
X169429371Y-65891957D01*
X169277799Y-65665114D01*
X169084886Y-65472201D01*
X168858043Y-65320629D01*
X168605989Y-65216225D01*
X168338411Y-65163000D01*
X168065589Y-65163000D01*
X167798011Y-65216225D01*
X167545957Y-65320629D01*
X167319114Y-65472201D01*
X167126201Y-65665114D01*
X166974629Y-65891957D01*
X166870225Y-66144011D01*
X166817000Y-66411589D01*
X166817000Y-66682198D01*
X162515912Y-62381110D01*
X191090524Y-62381110D01*
X191211845Y-62611000D01*
X192405000Y-62611000D01*
X192405000Y-61417186D01*
X192175109Y-61296519D01*
X191900748Y-61393843D01*
X191650645Y-61542822D01*
X191434412Y-61737731D01*
X191260359Y-61971080D01*
X191135175Y-62233901D01*
X191090524Y-62381110D01*
X162515912Y-62381110D01*
X160191467Y-60056665D01*
X186017000Y-60056665D01*
X186017000Y-60339335D01*
X186072147Y-60616574D01*
X186180320Y-60877727D01*
X186337363Y-61112759D01*
X186537241Y-61312637D01*
X186772273Y-61469680D01*
X187033426Y-61577853D01*
X187310665Y-61633000D01*
X187593335Y-61633000D01*
X187870574Y-61577853D01*
X188131727Y-61469680D01*
X188366759Y-61312637D01*
X188566637Y-61112759D01*
X188723680Y-60877727D01*
X188831853Y-60616574D01*
X188887000Y-60339335D01*
X188887000Y-60056665D01*
X188831853Y-59779426D01*
X188723680Y-59518273D01*
X188566637Y-59283241D01*
X188366759Y-59083363D01*
X188131727Y-58926320D01*
X187870574Y-58818147D01*
X187593335Y-58763000D01*
X187310665Y-58763000D01*
X187033426Y-58818147D01*
X186772273Y-58926320D01*
X186537241Y-59083363D01*
X186337363Y-59283241D01*
X186180320Y-59518273D01*
X186072147Y-59779426D01*
X186017000Y-60056665D01*
X160191467Y-60056665D01*
X159043350Y-58908549D01*
X159188632Y-58811475D01*
X159395475Y-58604632D01*
X159517195Y-58422466D01*
X159586822Y-58539355D01*
X159781731Y-58755588D01*
X160015080Y-58929641D01*
X160277901Y-59054825D01*
X160425110Y-59099476D01*
X160655000Y-58978155D01*
X160655000Y-57785000D01*
X160635000Y-57785000D01*
X160635000Y-57531000D01*
X160655000Y-57531000D01*
X160655000Y-56337845D01*
X160909000Y-56337845D01*
X160909000Y-57531000D01*
X160929000Y-57531000D01*
X160929000Y-57785000D01*
X160909000Y-57785000D01*
X160909000Y-58978155D01*
X161138890Y-59099476D01*
X161286099Y-59054825D01*
X161548920Y-58929641D01*
X161782269Y-58755588D01*
X161977178Y-58539355D01*
X162046805Y-58422466D01*
X162168525Y-58604632D01*
X162375368Y-58811475D01*
X162618589Y-58973990D01*
X162888842Y-59085932D01*
X163175740Y-59143000D01*
X163468260Y-59143000D01*
X163755158Y-59085932D01*
X164025411Y-58973990D01*
X164268632Y-58811475D01*
X164475475Y-58604632D01*
X164540042Y-58508000D01*
X168183928Y-58508000D01*
X168196188Y-58632482D01*
X168232498Y-58752180D01*
X168291463Y-58862494D01*
X168370815Y-58959185D01*
X168467506Y-59038537D01*
X168577820Y-59097502D01*
X168697518Y-59133812D01*
X168822000Y-59146072D01*
X169386250Y-59143000D01*
X169545000Y-58984250D01*
X169545000Y-57785000D01*
X168345750Y-57785000D01*
X168187000Y-57943750D01*
X168183928Y-58508000D01*
X164540042Y-58508000D01*
X164637990Y-58361411D01*
X164749932Y-58091158D01*
X164807000Y-57804260D01*
X164807000Y-57511740D01*
X164749932Y-57224842D01*
X164637990Y-56954589D01*
X164540043Y-56808000D01*
X168183928Y-56808000D01*
X168187000Y-57372250D01*
X168345750Y-57531000D01*
X169545000Y-57531000D01*
X169545000Y-56331750D01*
X169799000Y-56331750D01*
X169799000Y-57531000D01*
X169819000Y-57531000D01*
X169819000Y-57785000D01*
X169799000Y-57785000D01*
X169799000Y-58984250D01*
X169957750Y-59143000D01*
X170522000Y-59146072D01*
X170646482Y-59133812D01*
X170766180Y-59097502D01*
X170876494Y-59038537D01*
X170973185Y-58959185D01*
X171052537Y-58862494D01*
X171111502Y-58752180D01*
X171133513Y-58679620D01*
X171265368Y-58811475D01*
X171508589Y-58973990D01*
X171778842Y-59085932D01*
X172065740Y-59143000D01*
X172358260Y-59143000D01*
X172645158Y-59085932D01*
X172915411Y-58973990D01*
X173158632Y-58811475D01*
X173365475Y-58604632D01*
X173482000Y-58430240D01*
X173598525Y-58604632D01*
X173805368Y-58811475D01*
X174048589Y-58973990D01*
X174318842Y-59085932D01*
X174605740Y-59143000D01*
X174898260Y-59143000D01*
X175185158Y-59085932D01*
X175455411Y-58973990D01*
X175698632Y-58811475D01*
X175905475Y-58604632D01*
X176022000Y-58430240D01*
X176138525Y-58604632D01*
X176345368Y-58811475D01*
X176588589Y-58973990D01*
X176858842Y-59085932D01*
X177145740Y-59143000D01*
X177438260Y-59143000D01*
X177725158Y-59085932D01*
X177995411Y-58973990D01*
X178238632Y-58811475D01*
X178445475Y-58604632D01*
X178607990Y-58361411D01*
X178719932Y-58091158D01*
X178777000Y-57804260D01*
X178777000Y-57511740D01*
X178719932Y-57224842D01*
X178607990Y-56954589D01*
X178445475Y-56711368D01*
X178238632Y-56504525D01*
X177995411Y-56342010D01*
X177725158Y-56230068D01*
X177438260Y-56173000D01*
X177145740Y-56173000D01*
X176858842Y-56230068D01*
X176588589Y-56342010D01*
X176345368Y-56504525D01*
X176138525Y-56711368D01*
X176022000Y-56885760D01*
X175905475Y-56711368D01*
X175698632Y-56504525D01*
X175455411Y-56342010D01*
X175185158Y-56230068D01*
X174898260Y-56173000D01*
X174605740Y-56173000D01*
X174318842Y-56230068D01*
X174048589Y-56342010D01*
X173805368Y-56504525D01*
X173598525Y-56711368D01*
X173482000Y-56885760D01*
X173365475Y-56711368D01*
X173158632Y-56504525D01*
X172915411Y-56342010D01*
X172645158Y-56230068D01*
X172358260Y-56173000D01*
X172065740Y-56173000D01*
X171778842Y-56230068D01*
X171508589Y-56342010D01*
X171265368Y-56504525D01*
X171133513Y-56636380D01*
X171111502Y-56563820D01*
X171052537Y-56453506D01*
X170973185Y-56356815D01*
X170876494Y-56277463D01*
X170766180Y-56218498D01*
X170646482Y-56182188D01*
X170522000Y-56169928D01*
X169957750Y-56173000D01*
X169799000Y-56331750D01*
X169545000Y-56331750D01*
X169386250Y-56173000D01*
X168822000Y-56169928D01*
X168697518Y-56182188D01*
X168577820Y-56218498D01*
X168467506Y-56277463D01*
X168370815Y-56356815D01*
X168291463Y-56453506D01*
X168232498Y-56563820D01*
X168196188Y-56683518D01*
X168183928Y-56808000D01*
X164540043Y-56808000D01*
X164475475Y-56711368D01*
X164268632Y-56504525D01*
X164025411Y-56342010D01*
X163755158Y-56230068D01*
X163468260Y-56173000D01*
X163175740Y-56173000D01*
X162888842Y-56230068D01*
X162618589Y-56342010D01*
X162375368Y-56504525D01*
X162168525Y-56711368D01*
X162046805Y-56893534D01*
X161977178Y-56776645D01*
X161782269Y-56560412D01*
X161548920Y-56386359D01*
X161286099Y-56261175D01*
X161138890Y-56216524D01*
X160909000Y-56337845D01*
X160655000Y-56337845D01*
X160425110Y-56216524D01*
X160277901Y-56261175D01*
X160015080Y-56386359D01*
X159781731Y-56560412D01*
X159586822Y-56776645D01*
X159517195Y-56893534D01*
X159395475Y-56711368D01*
X159188632Y-56504525D01*
X158945411Y-56342010D01*
X158675158Y-56230068D01*
X158388260Y-56173000D01*
X158095740Y-56173000D01*
X157808842Y-56230068D01*
X157538589Y-56342010D01*
X157295368Y-56504525D01*
X157163513Y-56636380D01*
X157141502Y-56563820D01*
X157082537Y-56453506D01*
X157003185Y-56356815D01*
X156906494Y-56277463D01*
X156796180Y-56218498D01*
X156676482Y-56182188D01*
X156552000Y-56169928D01*
X154852000Y-56169928D01*
X154727518Y-56182188D01*
X154607820Y-56218498D01*
X154497506Y-56277463D01*
X154400815Y-56356815D01*
X154321463Y-56453506D01*
X154262498Y-56563820D01*
X154226188Y-56683518D01*
X154213928Y-56808000D01*
X84480000Y-56808000D01*
X84480000Y-55524061D01*
X190989000Y-55524061D01*
X190989000Y-55727939D01*
X191028774Y-55927898D01*
X191106795Y-56116256D01*
X191220063Y-56285774D01*
X191364226Y-56429937D01*
X191533744Y-56543205D01*
X191722102Y-56621226D01*
X191922061Y-56661000D01*
X191984199Y-56661000D01*
X192947001Y-57623803D01*
X192947001Y-61317132D01*
X192888891Y-61296519D01*
X192659000Y-61417186D01*
X192659000Y-62611000D01*
X192679000Y-62611000D01*
X192679000Y-62865000D01*
X192659000Y-62865000D01*
X192659000Y-62885000D01*
X192405000Y-62885000D01*
X192405000Y-62865000D01*
X191211845Y-62865000D01*
X191090524Y-63094890D01*
X191135175Y-63242099D01*
X191260359Y-63504920D01*
X191434412Y-63738269D01*
X191650645Y-63933178D01*
X191767534Y-64002805D01*
X191585368Y-64124525D01*
X191378525Y-64331368D01*
X191216010Y-64574589D01*
X191104068Y-64844842D01*
X191047000Y-65131740D01*
X191047000Y-65424260D01*
X191104068Y-65711158D01*
X191216010Y-65981411D01*
X191378525Y-66224632D01*
X191510380Y-66356487D01*
X191437820Y-66378498D01*
X191327506Y-66437463D01*
X191230815Y-66516815D01*
X191151463Y-66613506D01*
X191092498Y-66723820D01*
X191056188Y-66843518D01*
X191043928Y-66968000D01*
X191043928Y-68668000D01*
X191056188Y-68792482D01*
X191092498Y-68912180D01*
X191151463Y-69022494D01*
X191230815Y-69119185D01*
X191327506Y-69198537D01*
X191437820Y-69257502D01*
X191557518Y-69293812D01*
X191682000Y-69306072D01*
X192947001Y-69306072D01*
X192947002Y-104293287D01*
X192903064Y-104337225D01*
X192789796Y-104506743D01*
X192711775Y-104695101D01*
X192672001Y-104895060D01*
X192672001Y-105098938D01*
X192711775Y-105298897D01*
X192789796Y-105487255D01*
X192903064Y-105656773D01*
X193047227Y-105800936D01*
X193216745Y-105914204D01*
X193405103Y-105992225D01*
X193605062Y-106031999D01*
X193808940Y-106031999D01*
X194008899Y-105992225D01*
X194197257Y-105914204D01*
X194366775Y-105800936D01*
X194510938Y-105656773D01*
X194624206Y-105487255D01*
X194702227Y-105298897D01*
X194742001Y-105098938D01*
X194742001Y-104895060D01*
X194702227Y-104695101D01*
X194624206Y-104506743D01*
X194510938Y-104337225D01*
X194467001Y-104293288D01*
X194467001Y-57346324D01*
X194470677Y-57309001D01*
X194467001Y-57271678D01*
X194467001Y-57271668D01*
X194456004Y-57160015D01*
X194412547Y-57016754D01*
X194341975Y-56884725D01*
X194247002Y-56769000D01*
X194218005Y-56745203D01*
X193059000Y-55586199D01*
X193059000Y-55524061D01*
X193019226Y-55324102D01*
X192941205Y-55135744D01*
X192827937Y-54966226D01*
X192683774Y-54822063D01*
X192514256Y-54708795D01*
X192325898Y-54630774D01*
X192125939Y-54591000D01*
X191922061Y-54591000D01*
X191722102Y-54630774D01*
X191533744Y-54708795D01*
X191364226Y-54822063D01*
X191220063Y-54966226D01*
X191106795Y-55135744D01*
X191028774Y-55324102D01*
X190989000Y-55524061D01*
X84480000Y-55524061D01*
X84480000Y-54000000D01*
X198222000Y-54000000D01*
X198222001Y-124689000D01*
%TA.AperFunction,Conductor*%
D27*
G36*
X198222001Y-124689000D02*
G01*
X84480000Y-124689000D01*
X84480000Y-117070702D01*
X154928903Y-117070702D01*
X155000486Y-117314671D01*
X155255996Y-117435571D01*
X155530184Y-117504300D01*
X155812512Y-117518217D01*
X156092130Y-117476787D01*
X156358292Y-117381603D01*
X156483514Y-117314671D01*
X156555097Y-117070702D01*
X155742000Y-116257605D01*
X154928903Y-117070702D01*
X84480000Y-117070702D01*
X84480000Y-116148512D01*
X154301783Y-116148512D01*
X154343213Y-116428130D01*
X154438397Y-116694292D01*
X154505329Y-116819514D01*
X154749298Y-116891097D01*
X155562395Y-116078000D01*
X155921605Y-116078000D01*
X156734702Y-116891097D01*
X156803928Y-116870785D01*
X156803928Y-116878000D01*
X156816188Y-117002482D01*
X156852498Y-117122180D01*
X156911463Y-117232494D01*
X156990815Y-117329185D01*
X157087506Y-117408537D01*
X157197820Y-117467502D01*
X157317518Y-117503812D01*
X157442000Y-117516072D01*
X159042000Y-117516072D01*
X159166482Y-117503812D01*
X159286180Y-117467502D01*
X159396494Y-117408537D01*
X159493185Y-117329185D01*
X159572537Y-117232494D01*
X159631502Y-117122180D01*
X159647117Y-117070702D01*
X182868903Y-117070702D01*
X182940486Y-117314671D01*
X183195996Y-117435571D01*
X183470184Y-117504300D01*
X183752512Y-117518217D01*
X184032130Y-117476787D01*
X184298292Y-117381603D01*
X184423514Y-117314671D01*
X184495097Y-117070702D01*
X183682000Y-116257605D01*
X182868903Y-117070702D01*
X159647117Y-117070702D01*
X159667812Y-117002482D01*
X159680072Y-116878000D01*
X159680072Y-116148512D01*
X182241783Y-116148512D01*
X182283213Y-116428130D01*
X182378397Y-116694292D01*
X182445329Y-116819514D01*
X182689298Y-116891097D01*
X183502395Y-116078000D01*
X183861605Y-116078000D01*
X184674702Y-116891097D01*
X184743928Y-116870785D01*
X184743928Y-116878000D01*
X184756188Y-117002482D01*
X184792498Y-117122180D01*
X184851463Y-117232494D01*
X184930815Y-117329185D01*
X185027506Y-117408537D01*
X185137820Y-117467502D01*
X185257518Y-117503812D01*
X185382000Y-117516072D01*
X186982000Y-117516072D01*
X187106482Y-117503812D01*
X187226180Y-117467502D01*
X187336494Y-117408537D01*
X187433185Y-117329185D01*
X187512537Y-117232494D01*
X187571502Y-117122180D01*
X187607812Y-117002482D01*
X187620072Y-116878000D01*
X187620072Y-115278000D01*
X187607812Y-115153518D01*
X187571502Y-115033820D01*
X187512537Y-114923506D01*
X187433185Y-114826815D01*
X187336494Y-114747463D01*
X187226180Y-114688498D01*
X187106482Y-114652188D01*
X186982000Y-114639928D01*
X185382000Y-114639928D01*
X185257518Y-114652188D01*
X185137820Y-114688498D01*
X185027506Y-114747463D01*
X184930815Y-114826815D01*
X184851463Y-114923506D01*
X184792498Y-115033820D01*
X184756188Y-115153518D01*
X184743928Y-115278000D01*
X184743928Y-115285215D01*
X184674702Y-115264903D01*
X183861605Y-116078000D01*
X183502395Y-116078000D01*
X182689298Y-115264903D01*
X182445329Y-115336486D01*
X182324429Y-115591996D01*
X182255700Y-115866184D01*
X182241783Y-116148512D01*
X159680072Y-116148512D01*
X159680072Y-115278000D01*
X159667812Y-115153518D01*
X159647118Y-115085298D01*
X182868903Y-115085298D01*
X183682000Y-115898395D01*
X184495097Y-115085298D01*
X184423514Y-114841329D01*
X184168004Y-114720429D01*
X183893816Y-114651700D01*
X183611488Y-114637783D01*
X183331870Y-114679213D01*
X183065708Y-114774397D01*
X182940486Y-114841329D01*
X182868903Y-115085298D01*
X159647118Y-115085298D01*
X159631502Y-115033820D01*
X159572537Y-114923506D01*
X159493185Y-114826815D01*
X159396494Y-114747463D01*
X159286180Y-114688498D01*
X159166482Y-114652188D01*
X159042000Y-114639928D01*
X157442000Y-114639928D01*
X157317518Y-114652188D01*
X157197820Y-114688498D01*
X157087506Y-114747463D01*
X156990815Y-114826815D01*
X156911463Y-114923506D01*
X156852498Y-115033820D01*
X156816188Y-115153518D01*
X156803928Y-115278000D01*
X156803928Y-115285215D01*
X156734702Y-115264903D01*
X155921605Y-116078000D01*
X155562395Y-116078000D01*
X154749298Y-115264903D01*
X154505329Y-115336486D01*
X154384429Y-115591996D01*
X154315700Y-115866184D01*
X154301783Y-116148512D01*
X84480000Y-116148512D01*
X84480000Y-115085298D01*
X154928903Y-115085298D01*
X155742000Y-115898395D01*
X156555097Y-115085298D01*
X156483514Y-114841329D01*
X156228004Y-114720429D01*
X155953816Y-114651700D01*
X155671488Y-114637783D01*
X155391870Y-114679213D01*
X155125708Y-114774397D01*
X155000486Y-114841329D01*
X154928903Y-115085298D01*
X84480000Y-115085298D01*
X84480000Y-106568000D01*
X154413928Y-106568000D01*
X154426188Y-106692482D01*
X154462498Y-106812180D01*
X154521463Y-106922494D01*
X154600815Y-107019185D01*
X154697506Y-107098537D01*
X154807820Y-107157502D01*
X154927518Y-107193812D01*
X155052000Y-107206072D01*
X155416250Y-107203000D01*
X155575000Y-107044250D01*
X155575000Y-106045000D01*
X154575750Y-106045000D01*
X154417000Y-106203750D01*
X154413928Y-106568000D01*
X84480000Y-106568000D01*
X84480000Y-105268000D01*
X154413928Y-105268000D01*
X154417000Y-105632250D01*
X154575750Y-105791000D01*
X155575000Y-105791000D01*
X155575000Y-105771000D01*
X155829000Y-105771000D01*
X155829000Y-105791000D01*
X155849000Y-105791000D01*
X155849000Y-106045000D01*
X155829000Y-106045000D01*
X155829000Y-107044250D01*
X155987750Y-107203000D01*
X156352000Y-107206072D01*
X156476482Y-107193812D01*
X156596180Y-107157502D01*
X156706494Y-107098537D01*
X156803185Y-107019185D01*
X156882537Y-106922494D01*
X156941502Y-106812180D01*
X156977812Y-106692482D01*
X156990072Y-106568000D01*
X156987000Y-106203750D01*
X156828252Y-106045002D01*
X156957088Y-106045002D01*
X157006381Y-106292821D01*
X157103247Y-106526676D01*
X157243875Y-106737140D01*
X157422860Y-106916125D01*
X157633324Y-107056753D01*
X157867179Y-107153619D01*
X158115439Y-107203000D01*
X158368561Y-107203000D01*
X158616821Y-107153619D01*
X158850676Y-107056753D01*
X159061140Y-106916125D01*
X159240125Y-106737140D01*
X159353141Y-106568000D01*
X182353928Y-106568000D01*
X182366188Y-106692482D01*
X182402498Y-106812180D01*
X182461463Y-106922494D01*
X182540815Y-107019185D01*
X182637506Y-107098537D01*
X182747820Y-107157502D01*
X182867518Y-107193812D01*
X182992000Y-107206072D01*
X183356250Y-107203000D01*
X183515000Y-107044250D01*
X183515000Y-106045000D01*
X182515750Y-106045000D01*
X182357000Y-106203750D01*
X182353928Y-106568000D01*
X159353141Y-106568000D01*
X159380753Y-106526676D01*
X159477619Y-106292821D01*
X159527000Y-106044561D01*
X159527000Y-105791439D01*
X159477619Y-105543179D01*
X159380753Y-105309324D01*
X159353142Y-105268000D01*
X182353928Y-105268000D01*
X182357000Y-105632250D01*
X182515750Y-105791000D01*
X183515000Y-105791000D01*
X183515000Y-105771000D01*
X183769000Y-105771000D01*
X183769000Y-105791000D01*
X183789000Y-105791000D01*
X183789000Y-106045000D01*
X183769000Y-106045000D01*
X183769000Y-107044250D01*
X183927750Y-107203000D01*
X184292000Y-107206072D01*
X184416482Y-107193812D01*
X184536180Y-107157502D01*
X184646494Y-107098537D01*
X184743185Y-107019185D01*
X184822537Y-106922494D01*
X184881502Y-106812180D01*
X184917812Y-106692482D01*
X184930072Y-106568000D01*
X184927000Y-106203750D01*
X184768252Y-106045002D01*
X184897088Y-106045002D01*
X184946381Y-106292821D01*
X185043247Y-106526676D01*
X185183875Y-106737140D01*
X185362860Y-106916125D01*
X185573324Y-107056753D01*
X185807179Y-107153619D01*
X186055439Y-107203000D01*
X186308561Y-107203000D01*
X186556821Y-107153619D01*
X186790676Y-107056753D01*
X187001140Y-106916125D01*
X187180125Y-106737140D01*
X187320753Y-106526676D01*
X187417619Y-106292821D01*
X187467000Y-106044561D01*
X187467000Y-105791439D01*
X187417619Y-105543179D01*
X187320753Y-105309324D01*
X187180125Y-105098860D01*
X187001140Y-104919875D01*
X186790676Y-104779247D01*
X186556821Y-104682381D01*
X186308561Y-104633000D01*
X186197000Y-104633000D01*
X186197000Y-104521439D01*
X186147619Y-104273179D01*
X186050753Y-104039324D01*
X185910125Y-103828860D01*
X185731140Y-103649875D01*
X185520676Y-103509247D01*
X185286821Y-103412381D01*
X185038561Y-103363000D01*
X184785439Y-103363000D01*
X184537179Y-103412381D01*
X184303324Y-103509247D01*
X184092860Y-103649875D01*
X183913875Y-103828860D01*
X183773247Y-104039324D01*
X183676381Y-104273179D01*
X183627000Y-104521439D01*
X183627000Y-104633000D01*
X183514998Y-104633000D01*
X183514998Y-104791748D01*
X183356250Y-104633000D01*
X182992000Y-104629928D01*
X182867518Y-104642188D01*
X182747820Y-104678498D01*
X182637506Y-104737463D01*
X182540815Y-104816815D01*
X182461463Y-104913506D01*
X182402498Y-105023820D01*
X182366188Y-105143518D01*
X182353928Y-105268000D01*
X159353142Y-105268000D01*
X159240125Y-105098860D01*
X159061140Y-104919875D01*
X158850676Y-104779247D01*
X158616821Y-104682381D01*
X158368561Y-104633000D01*
X158257000Y-104633000D01*
X158257000Y-104521439D01*
X158207619Y-104273179D01*
X158110753Y-104039324D01*
X157970125Y-103828860D01*
X157791140Y-103649875D01*
X157580676Y-103509247D01*
X157346821Y-103412381D01*
X157098561Y-103363000D01*
X156845439Y-103363000D01*
X156597179Y-103412381D01*
X156363324Y-103509247D01*
X156152860Y-103649875D01*
X155973875Y-103828860D01*
X155833247Y-104039324D01*
X155736381Y-104273179D01*
X155687000Y-104521439D01*
X155687000Y-104633000D01*
X155574998Y-104633000D01*
X155574998Y-104791748D01*
X155416250Y-104633000D01*
X155052000Y-104629928D01*
X154927518Y-104642188D01*
X154807820Y-104678498D01*
X154697506Y-104737463D01*
X154600815Y-104816815D01*
X154521463Y-104913506D01*
X154462498Y-105023820D01*
X154426188Y-105143518D01*
X154413928Y-105268000D01*
X84480000Y-105268000D01*
X84480000Y-99937998D01*
X134863928Y-99937998D01*
X134863928Y-101738002D01*
X134880992Y-101911256D01*
X134931528Y-102077852D01*
X135013595Y-102231387D01*
X135124038Y-102365962D01*
X135258613Y-102476405D01*
X135412148Y-102558472D01*
X135578744Y-102609008D01*
X135751998Y-102626072D01*
X137552002Y-102626072D01*
X137725256Y-102609008D01*
X137891852Y-102558472D01*
X138045387Y-102476405D01*
X138179962Y-102365962D01*
X138290405Y-102231387D01*
X138372472Y-102077852D01*
X138423008Y-101911256D01*
X138440072Y-101738002D01*
X138440072Y-100662193D01*
X139667000Y-100662193D01*
X139667000Y-101013807D01*
X139735596Y-101358665D01*
X139870153Y-101683515D01*
X140065500Y-101975871D01*
X140314129Y-102224500D01*
X140606485Y-102419847D01*
X140931335Y-102554404D01*
X141276193Y-102623000D01*
X141627807Y-102623000D01*
X141972665Y-102554404D01*
X142297515Y-102419847D01*
X142589871Y-102224500D01*
X142838500Y-101975871D01*
X143033847Y-101683515D01*
X143168404Y-101358665D01*
X143237000Y-101013807D01*
X143237000Y-100662193D01*
X143168404Y-100317335D01*
X143033847Y-99992485D01*
X142838500Y-99700129D01*
X142589871Y-99451500D01*
X142297515Y-99256153D01*
X141972665Y-99121596D01*
X141627807Y-99053000D01*
X141276193Y-99053000D01*
X140931335Y-99121596D01*
X140606485Y-99256153D01*
X140314129Y-99451500D01*
X140065500Y-99700129D01*
X139870153Y-99992485D01*
X139735596Y-100317335D01*
X139667000Y-100662193D01*
X138440072Y-100662193D01*
X138440072Y-99937998D01*
X138423008Y-99764744D01*
X138372472Y-99598148D01*
X138290405Y-99444613D01*
X138179962Y-99310038D01*
X138045387Y-99199595D01*
X137891852Y-99117528D01*
X137725256Y-99066992D01*
X137552002Y-99049928D01*
X135751998Y-99049928D01*
X135578744Y-99066992D01*
X135412148Y-99117528D01*
X135258613Y-99199595D01*
X135124038Y-99310038D01*
X135013595Y-99444613D01*
X134931528Y-99598148D01*
X134880992Y-99764744D01*
X134863928Y-99937998D01*
X84480000Y-99937998D01*
X84480000Y-96228000D01*
X155533928Y-96228000D01*
X155533928Y-97828000D01*
X155546188Y-97952482D01*
X155582498Y-98072180D01*
X155641463Y-98182494D01*
X155720815Y-98279185D01*
X155817506Y-98358537D01*
X155927820Y-98417502D01*
X156047518Y-98453812D01*
X156172000Y-98466072D01*
X157772000Y-98466072D01*
X157896482Y-98453812D01*
X158016180Y-98417502D01*
X158126494Y-98358537D01*
X158223185Y-98279185D01*
X158302537Y-98182494D01*
X158361502Y-98072180D01*
X158397812Y-97952482D01*
X158410072Y-97828000D01*
X158410072Y-96750702D01*
X182868903Y-96750702D01*
X182940486Y-96994671D01*
X183195996Y-97115571D01*
X183470184Y-97184300D01*
X183752512Y-97198217D01*
X184032130Y-97156787D01*
X184298292Y-97061603D01*
X184423514Y-96994671D01*
X184495097Y-96750702D01*
X183682000Y-95937605D01*
X182868903Y-96750702D01*
X158410072Y-96750702D01*
X158410072Y-96228000D01*
X158397812Y-96103518D01*
X158361502Y-95983820D01*
X158302537Y-95873506D01*
X158265612Y-95828512D01*
X182241783Y-95828512D01*
X182283213Y-96108130D01*
X182378397Y-96374292D01*
X182445329Y-96499514D01*
X182689298Y-96571097D01*
X183502395Y-95758000D01*
X183861605Y-95758000D01*
X184674702Y-96571097D01*
X184743928Y-96550785D01*
X184743928Y-96558000D01*
X184756188Y-96682482D01*
X184792498Y-96802180D01*
X184851463Y-96912494D01*
X184930815Y-97009185D01*
X185027506Y-97088537D01*
X185137820Y-97147502D01*
X185257518Y-97183812D01*
X185382000Y-97196072D01*
X186982000Y-97196072D01*
X187106482Y-97183812D01*
X187226180Y-97147502D01*
X187336494Y-97088537D01*
X187433185Y-97009185D01*
X187512537Y-96912494D01*
X187571502Y-96802180D01*
X187607812Y-96682482D01*
X187620072Y-96558000D01*
X187620072Y-94958000D01*
X187607812Y-94833518D01*
X187571502Y-94713820D01*
X187512537Y-94603506D01*
X187433185Y-94506815D01*
X187336494Y-94427463D01*
X187226180Y-94368498D01*
X187106482Y-94332188D01*
X186982000Y-94319928D01*
X185382000Y-94319928D01*
X185257518Y-94332188D01*
X185137820Y-94368498D01*
X185027506Y-94427463D01*
X184930815Y-94506815D01*
X184851463Y-94603506D01*
X184792498Y-94713820D01*
X184756188Y-94833518D01*
X184743928Y-94958000D01*
X184743928Y-94965215D01*
X184674702Y-94944903D01*
X183861605Y-95758000D01*
X183502395Y-95758000D01*
X182689298Y-94944903D01*
X182445329Y-95016486D01*
X182324429Y-95271996D01*
X182255700Y-95546184D01*
X182241783Y-95828512D01*
X158265612Y-95828512D01*
X158223185Y-95776815D01*
X158126494Y-95697463D01*
X158016180Y-95638498D01*
X157896482Y-95602188D01*
X157772000Y-95589928D01*
X157764785Y-95589928D01*
X157785097Y-95520702D01*
X156972000Y-94707605D01*
X156158903Y-95520702D01*
X156179215Y-95589928D01*
X156172000Y-95589928D01*
X156047518Y-95602188D01*
X155927820Y-95638498D01*
X155817506Y-95697463D01*
X155720815Y-95776815D01*
X155641463Y-95873506D01*
X155582498Y-95983820D01*
X155546188Y-96103518D01*
X155533928Y-96228000D01*
X84480000Y-96228000D01*
X84480000Y-94598512D01*
X155531783Y-94598512D01*
X155573213Y-94878130D01*
X155668397Y-95144292D01*
X155735329Y-95269514D01*
X155979298Y-95341097D01*
X156792395Y-94528000D01*
X157151605Y-94528000D01*
X157964702Y-95341097D01*
X158208671Y-95269514D01*
X158329571Y-95014004D01*
X158391912Y-94765298D01*
X182868903Y-94765298D01*
X183682000Y-95578395D01*
X184495097Y-94765298D01*
X184423514Y-94521329D01*
X184168004Y-94400429D01*
X183893816Y-94331700D01*
X183611488Y-94317783D01*
X183331870Y-94359213D01*
X183065708Y-94454397D01*
X182940486Y-94521329D01*
X182868903Y-94765298D01*
X158391912Y-94765298D01*
X158398300Y-94739816D01*
X158412217Y-94457488D01*
X158370787Y-94177870D01*
X158275603Y-93911708D01*
X158208671Y-93786486D01*
X157964702Y-93714903D01*
X157151605Y-94528000D01*
X156792395Y-94528000D01*
X155979298Y-93714903D01*
X155735329Y-93786486D01*
X155614429Y-94041996D01*
X155545700Y-94316184D01*
X155531783Y-94598512D01*
X84480000Y-94598512D01*
X84480000Y-93535298D01*
X156158903Y-93535298D01*
X156972000Y-94348395D01*
X157785097Y-93535298D01*
X157713514Y-93291329D01*
X157458004Y-93170429D01*
X157183816Y-93101700D01*
X156901488Y-93087783D01*
X156621870Y-93129213D01*
X156355708Y-93224397D01*
X156230486Y-93291329D01*
X156158903Y-93535298D01*
X84480000Y-93535298D01*
X84480000Y-91422193D01*
X115437000Y-91422193D01*
X115437000Y-91773807D01*
X115505596Y-92118665D01*
X115640153Y-92443515D01*
X115835500Y-92735871D01*
X116084129Y-92984500D01*
X116376485Y-93179847D01*
X116701335Y-93314404D01*
X117046193Y-93383000D01*
X117397807Y-93383000D01*
X117742665Y-93314404D01*
X118067515Y-93179847D01*
X118359871Y-92984500D01*
X118608500Y-92735871D01*
X118803847Y-92443515D01*
X118938404Y-92118665D01*
X119007000Y-91773807D01*
X119007000Y-91422193D01*
X118938404Y-91077335D01*
X118803847Y-90752485D01*
X118608500Y-90460129D01*
X118359871Y-90211500D01*
X118067515Y-90016153D01*
X117742665Y-89881596D01*
X117397807Y-89813000D01*
X117046193Y-89813000D01*
X116701335Y-89881596D01*
X116376485Y-90016153D01*
X116084129Y-90211500D01*
X115835500Y-90460129D01*
X115640153Y-90752485D01*
X115505596Y-91077335D01*
X115437000Y-91422193D01*
X84480000Y-91422193D01*
X84480000Y-84858000D01*
X141158928Y-84858000D01*
X141158928Y-88878000D01*
X141171188Y-89002482D01*
X141207498Y-89122180D01*
X141266463Y-89232494D01*
X141345815Y-89329185D01*
X141442506Y-89408537D01*
X141552820Y-89467502D01*
X141672518Y-89503812D01*
X141797000Y-89516072D01*
X144207000Y-89516072D01*
X144331482Y-89503812D01*
X144451180Y-89467502D01*
X144561494Y-89408537D01*
X144658185Y-89329185D01*
X144737537Y-89232494D01*
X144796502Y-89122180D01*
X144832812Y-89002482D01*
X144845072Y-88878000D01*
X144845072Y-87361665D01*
X182207000Y-87361665D01*
X182207000Y-87644335D01*
X182262147Y-87921574D01*
X182370320Y-88182727D01*
X182527363Y-88417759D01*
X182727241Y-88617637D01*
X182962273Y-88774680D01*
X183223426Y-88882853D01*
X183500665Y-88938000D01*
X183783335Y-88938000D01*
X184060574Y-88882853D01*
X184321727Y-88774680D01*
X184556759Y-88617637D01*
X184756637Y-88417759D01*
X184913680Y-88182727D01*
X185021853Y-87921574D01*
X185077000Y-87644335D01*
X185077000Y-87361665D01*
X185021853Y-87084426D01*
X184913680Y-86823273D01*
X184756637Y-86588241D01*
X184556759Y-86388363D01*
X184321727Y-86231320D01*
X184060574Y-86123147D01*
X183783335Y-86068000D01*
X183500665Y-86068000D01*
X183223426Y-86123147D01*
X182962273Y-86231320D01*
X182727241Y-86388363D01*
X182527363Y-86588241D01*
X182370320Y-86823273D01*
X182262147Y-87084426D01*
X182207000Y-87361665D01*
X144845072Y-87361665D01*
X144845072Y-84858000D01*
X144832812Y-84733518D01*
X144796502Y-84613820D01*
X144737537Y-84503506D01*
X144658185Y-84406815D01*
X144561494Y-84327463D01*
X144451180Y-84268498D01*
X144331482Y-84232188D01*
X144207000Y-84219928D01*
X141797000Y-84219928D01*
X141672518Y-84232188D01*
X141552820Y-84268498D01*
X141442506Y-84327463D01*
X141345815Y-84406815D01*
X141266463Y-84503506D01*
X141207498Y-84613820D01*
X141171188Y-84733518D01*
X141158928Y-84858000D01*
X84480000Y-84858000D01*
X84480000Y-84176816D01*
X166867000Y-84176816D01*
X166867000Y-84479184D01*
X166925989Y-84775743D01*
X167041701Y-85055095D01*
X167209688Y-85306505D01*
X167423495Y-85520312D01*
X167674905Y-85688299D01*
X167954257Y-85804011D01*
X168250816Y-85863000D01*
X168553184Y-85863000D01*
X168849743Y-85804011D01*
X169129095Y-85688299D01*
X169380505Y-85520312D01*
X169446944Y-85453873D01*
X169452498Y-85472180D01*
X169511463Y-85582494D01*
X169590815Y-85679185D01*
X169687506Y-85758537D01*
X169797820Y-85817502D01*
X169917518Y-85853812D01*
X170042000Y-85866072D01*
X170656250Y-85863000D01*
X170815000Y-85704250D01*
X170815000Y-84455000D01*
X171069000Y-84455000D01*
X171069000Y-85704250D01*
X171227750Y-85863000D01*
X171842000Y-85866072D01*
X171966482Y-85853812D01*
X172086180Y-85817502D01*
X172196494Y-85758537D01*
X172293185Y-85679185D01*
X172372537Y-85582494D01*
X172431502Y-85472180D01*
X172467812Y-85352482D01*
X172480072Y-85228000D01*
X172477000Y-84613750D01*
X172318250Y-84455000D01*
X171069000Y-84455000D01*
X170815000Y-84455000D01*
X170795000Y-84455000D01*
X170795000Y-84201000D01*
X170815000Y-84201000D01*
X170815000Y-82951750D01*
X171069000Y-82951750D01*
X171069000Y-84201000D01*
X172318250Y-84201000D01*
X172477000Y-84042250D01*
X172480072Y-83428000D01*
X172467812Y-83303518D01*
X172431502Y-83183820D01*
X172372537Y-83073506D01*
X172293185Y-82976815D01*
X172196494Y-82897463D01*
X172086180Y-82838498D01*
X171966482Y-82802188D01*
X171842000Y-82789928D01*
X171227750Y-82793000D01*
X171069000Y-82951750D01*
X170815000Y-82951750D01*
X170656250Y-82793000D01*
X170042000Y-82789928D01*
X169917518Y-82802188D01*
X169797820Y-82838498D01*
X169687506Y-82897463D01*
X169590815Y-82976815D01*
X169511463Y-83073506D01*
X169452498Y-83183820D01*
X169446944Y-83202127D01*
X169380505Y-83135688D01*
X169129095Y-82967701D01*
X168849743Y-82851989D01*
X168553184Y-82793000D01*
X168250816Y-82793000D01*
X167954257Y-82851989D01*
X167674905Y-82967701D01*
X167423495Y-83135688D01*
X167209688Y-83349495D01*
X167041701Y-83600905D01*
X166925989Y-83880257D01*
X166867000Y-84176816D01*
X84480000Y-84176816D01*
X84480000Y-79026665D01*
X160617000Y-79026665D01*
X160617000Y-79309335D01*
X160672147Y-79586574D01*
X160780320Y-79847727D01*
X160937363Y-80082759D01*
X161137241Y-80282637D01*
X161372273Y-80439680D01*
X161633426Y-80547853D01*
X161910665Y-80603000D01*
X162193335Y-80603000D01*
X162470574Y-80547853D01*
X162731727Y-80439680D01*
X162966759Y-80282637D01*
X163166637Y-80082759D01*
X163323680Y-79847727D01*
X163431853Y-79586574D01*
X163487000Y-79309335D01*
X163487000Y-79026665D01*
X166967000Y-79026665D01*
X166967000Y-79309335D01*
X167022147Y-79586574D01*
X167130320Y-79847727D01*
X167287363Y-80082759D01*
X167487241Y-80282637D01*
X167722273Y-80439680D01*
X167983426Y-80547853D01*
X168260665Y-80603000D01*
X168543335Y-80603000D01*
X168820574Y-80547853D01*
X169081727Y-80439680D01*
X169316759Y-80282637D01*
X169516637Y-80082759D01*
X169673680Y-79847727D01*
X169781853Y-79586574D01*
X169837000Y-79309335D01*
X169837000Y-79026665D01*
X169781853Y-78749426D01*
X169673680Y-78488273D01*
X169516637Y-78253241D01*
X169316759Y-78053363D01*
X169081727Y-77896320D01*
X169032818Y-77876061D01*
X170415000Y-77876061D01*
X170415000Y-78079939D01*
X170454774Y-78279898D01*
X170532795Y-78468256D01*
X170646063Y-78637774D01*
X170790226Y-78781937D01*
X170959744Y-78895205D01*
X171148102Y-78973226D01*
X171348061Y-79013000D01*
X171410199Y-79013000D01*
X172156201Y-79759003D01*
X172179999Y-79788001D01*
X172295724Y-79882974D01*
X172427753Y-79953546D01*
X172571014Y-79997003D01*
X172682667Y-80008000D01*
X172682676Y-80008000D01*
X172719999Y-80011676D01*
X172757322Y-80008000D01*
X175222678Y-80008000D01*
X175260000Y-80011676D01*
X175297322Y-80008000D01*
X175297333Y-80008000D01*
X175408986Y-79997003D01*
X175552247Y-79953546D01*
X175684276Y-79882974D01*
X175800001Y-79788001D01*
X175823804Y-79758997D01*
X180597003Y-74985799D01*
X180626001Y-74962001D01*
X180720974Y-74846276D01*
X180791546Y-74714247D01*
X180807496Y-74661665D01*
X182207000Y-74661665D01*
X182207000Y-74944335D01*
X182262147Y-75221574D01*
X182370320Y-75482727D01*
X182527363Y-75717759D01*
X182727241Y-75917637D01*
X182962273Y-76074680D01*
X183223426Y-76182853D01*
X183500665Y-76238000D01*
X183783335Y-76238000D01*
X184060574Y-76182853D01*
X184321727Y-76074680D01*
X184556759Y-75917637D01*
X184756637Y-75717759D01*
X184913680Y-75482727D01*
X185021853Y-75221574D01*
X185077000Y-74944335D01*
X185077000Y-74661665D01*
X185021853Y-74384426D01*
X184913680Y-74123273D01*
X184756637Y-73888241D01*
X184556759Y-73688363D01*
X184321727Y-73531320D01*
X184060574Y-73423147D01*
X183783335Y-73368000D01*
X183500665Y-73368000D01*
X183223426Y-73423147D01*
X182962273Y-73531320D01*
X182727241Y-73688363D01*
X182527363Y-73888241D01*
X182370320Y-74123273D01*
X182262147Y-74384426D01*
X182207000Y-74661665D01*
X180807496Y-74661665D01*
X180835003Y-74570986D01*
X180846000Y-74459333D01*
X180846000Y-74459325D01*
X180849676Y-74422000D01*
X180846000Y-74384675D01*
X180846000Y-72756665D01*
X186017000Y-72756665D01*
X186017000Y-73039335D01*
X186072147Y-73316574D01*
X186180320Y-73577727D01*
X186337363Y-73812759D01*
X186537241Y-74012637D01*
X186772273Y-74169680D01*
X187033426Y-74277853D01*
X187310665Y-74333000D01*
X187593335Y-74333000D01*
X187870574Y-74277853D01*
X188131727Y-74169680D01*
X188366759Y-74012637D01*
X188566637Y-73812759D01*
X188723680Y-73577727D01*
X188831853Y-73316574D01*
X188887000Y-73039335D01*
X188887000Y-72756665D01*
X188831853Y-72479426D01*
X188723680Y-72218273D01*
X188566637Y-71983241D01*
X188366759Y-71783363D01*
X188131727Y-71626320D01*
X187870574Y-71518147D01*
X187593335Y-71463000D01*
X187310665Y-71463000D01*
X187033426Y-71518147D01*
X186772273Y-71626320D01*
X186537241Y-71783363D01*
X186337363Y-71983241D01*
X186180320Y-72218273D01*
X186072147Y-72479426D01*
X186017000Y-72756665D01*
X180846000Y-72756665D01*
X180846000Y-71823711D01*
X180889937Y-71779774D01*
X181003205Y-71610256D01*
X181081226Y-71421898D01*
X181121000Y-71221939D01*
X181121000Y-71018061D01*
X181081226Y-70818102D01*
X181003205Y-70629744D01*
X180889937Y-70460226D01*
X180745774Y-70316063D01*
X180576256Y-70202795D01*
X180387898Y-70124774D01*
X180187939Y-70085000D01*
X179984061Y-70085000D01*
X179784102Y-70124774D01*
X179595744Y-70202795D01*
X179426226Y-70316063D01*
X179282063Y-70460226D01*
X179168795Y-70629744D01*
X179090774Y-70818102D01*
X179051000Y-71018061D01*
X179051000Y-71221939D01*
X179090774Y-71421898D01*
X179168795Y-71610256D01*
X179282063Y-71779774D01*
X179326000Y-71823711D01*
X179326001Y-74107197D01*
X174945199Y-78488000D01*
X173034802Y-78488000D01*
X172485000Y-77938199D01*
X172485000Y-77876061D01*
X172445226Y-77676102D01*
X172367205Y-77487744D01*
X172253937Y-77318226D01*
X172109774Y-77174063D01*
X171940256Y-77060795D01*
X171751898Y-76982774D01*
X171551939Y-76943000D01*
X171348061Y-76943000D01*
X171148102Y-76982774D01*
X170959744Y-77060795D01*
X170790226Y-77174063D01*
X170646063Y-77318226D01*
X170532795Y-77487744D01*
X170454774Y-77676102D01*
X170415000Y-77876061D01*
X169032818Y-77876061D01*
X168820574Y-77788147D01*
X168543335Y-77733000D01*
X168260665Y-77733000D01*
X167983426Y-77788147D01*
X167722273Y-77896320D01*
X167487241Y-78053363D01*
X167287363Y-78253241D01*
X167130320Y-78488273D01*
X167022147Y-78749426D01*
X166967000Y-79026665D01*
X163487000Y-79026665D01*
X163431853Y-78749426D01*
X163323680Y-78488273D01*
X163166637Y-78253241D01*
X162966759Y-78053363D01*
X162731727Y-77896320D01*
X162470574Y-77788147D01*
X162193335Y-77733000D01*
X161910665Y-77733000D01*
X161633426Y-77788147D01*
X161372273Y-77896320D01*
X161137241Y-78053363D01*
X160937363Y-78253241D01*
X160780320Y-78488273D01*
X160672147Y-78749426D01*
X160617000Y-79026665D01*
X84480000Y-79026665D01*
X84480000Y-74115000D01*
X141162000Y-74115000D01*
X141162000Y-74920000D01*
X141222132Y-75276526D01*
X141350663Y-75614470D01*
X141542654Y-75920846D01*
X141790727Y-76183879D01*
X142085348Y-76393461D01*
X142415196Y-76541539D01*
X142589411Y-76586145D01*
X142875000Y-76469446D01*
X142875000Y-74115000D01*
X143129000Y-74115000D01*
X143129000Y-76469446D01*
X143414589Y-76586145D01*
X143588804Y-76541539D01*
X143918652Y-76393461D01*
X144213273Y-76183879D01*
X144461346Y-75920846D01*
X144653337Y-75614470D01*
X144781868Y-75276526D01*
X144801402Y-75160702D01*
X161238903Y-75160702D01*
X161310486Y-75404671D01*
X161565996Y-75525571D01*
X161840184Y-75594300D01*
X162122512Y-75608217D01*
X162402130Y-75566787D01*
X162668292Y-75471603D01*
X162793514Y-75404671D01*
X162865097Y-75160702D01*
X167588903Y-75160702D01*
X167660486Y-75404671D01*
X167915996Y-75525571D01*
X168190184Y-75594300D01*
X168472512Y-75608217D01*
X168752130Y-75566787D01*
X169018292Y-75471603D01*
X169143514Y-75404671D01*
X169215097Y-75160702D01*
X168402000Y-74347605D01*
X167588903Y-75160702D01*
X162865097Y-75160702D01*
X162052000Y-74347605D01*
X161238903Y-75160702D01*
X144801402Y-75160702D01*
X144842000Y-74920000D01*
X144842000Y-74238512D01*
X160611783Y-74238512D01*
X160653213Y-74518130D01*
X160748397Y-74784292D01*
X160815329Y-74909514D01*
X161059298Y-74981097D01*
X161872395Y-74168000D01*
X162231605Y-74168000D01*
X163044702Y-74981097D01*
X163288671Y-74909514D01*
X163409571Y-74654004D01*
X163478300Y-74379816D01*
X163485265Y-74238512D01*
X166961783Y-74238512D01*
X167003213Y-74518130D01*
X167098397Y-74784292D01*
X167165329Y-74909514D01*
X167409298Y-74981097D01*
X168222395Y-74168000D01*
X168581605Y-74168000D01*
X169394702Y-74981097D01*
X169638671Y-74909514D01*
X169759571Y-74654004D01*
X169828300Y-74379816D01*
X169842217Y-74097488D01*
X169800787Y-73817870D01*
X169705603Y-73551708D01*
X169638671Y-73426486D01*
X169394702Y-73354903D01*
X168581605Y-74168000D01*
X168222395Y-74168000D01*
X167409298Y-73354903D01*
X167165329Y-73426486D01*
X167044429Y-73681996D01*
X166975700Y-73956184D01*
X166961783Y-74238512D01*
X163485265Y-74238512D01*
X163492217Y-74097488D01*
X163450787Y-73817870D01*
X163355603Y-73551708D01*
X163288671Y-73426486D01*
X163044702Y-73354903D01*
X162231605Y-74168000D01*
X161872395Y-74168000D01*
X161059298Y-73354903D01*
X160815329Y-73426486D01*
X160694429Y-73681996D01*
X160625700Y-73956184D01*
X160611783Y-74238512D01*
X144842000Y-74238512D01*
X144842000Y-74115000D01*
X143129000Y-74115000D01*
X142875000Y-74115000D01*
X141162000Y-74115000D01*
X84480000Y-74115000D01*
X84480000Y-73056000D01*
X141162000Y-73056000D01*
X141162000Y-73861000D01*
X142875000Y-73861000D01*
X142875000Y-71506554D01*
X143129000Y-71506554D01*
X143129000Y-73861000D01*
X144842000Y-73861000D01*
X144842000Y-73175298D01*
X161238903Y-73175298D01*
X162052000Y-73988395D01*
X162865097Y-73175298D01*
X167588903Y-73175298D01*
X168402000Y-73988395D01*
X169215097Y-73175298D01*
X169143514Y-72931329D01*
X168888004Y-72810429D01*
X168613816Y-72741700D01*
X168331488Y-72727783D01*
X168051870Y-72769213D01*
X167785708Y-72864397D01*
X167660486Y-72931329D01*
X167588903Y-73175298D01*
X162865097Y-73175298D01*
X162793514Y-72931329D01*
X162538004Y-72810429D01*
X162263816Y-72741700D01*
X161981488Y-72727783D01*
X161701870Y-72769213D01*
X161435708Y-72864397D01*
X161310486Y-72931329D01*
X161238903Y-73175298D01*
X144842000Y-73175298D01*
X144842000Y-73056000D01*
X144781868Y-72699474D01*
X144653337Y-72361530D01*
X144461346Y-72055154D01*
X144213273Y-71792121D01*
X143918652Y-71582539D01*
X143588804Y-71434461D01*
X143414589Y-71389855D01*
X143129000Y-71506554D01*
X142875000Y-71506554D01*
X142589411Y-71389855D01*
X142415196Y-71434461D01*
X142085348Y-71582539D01*
X141790727Y-71792121D01*
X141542654Y-72055154D01*
X141350663Y-72361530D01*
X141222132Y-72699474D01*
X141162000Y-73056000D01*
X84480000Y-73056000D01*
X84480000Y-69072193D01*
X101957000Y-69072193D01*
X101957000Y-69423807D01*
X102025596Y-69768665D01*
X102160153Y-70093515D01*
X102355500Y-70385871D01*
X102604129Y-70634500D01*
X102896485Y-70829847D01*
X103221335Y-70964404D01*
X103566193Y-71033000D01*
X103917807Y-71033000D01*
X104262665Y-70964404D01*
X104587515Y-70829847D01*
X104879871Y-70634500D01*
X105128500Y-70385871D01*
X105323847Y-70093515D01*
X105458404Y-69768665D01*
X105527000Y-69423807D01*
X105527000Y-69072193D01*
X128927000Y-69072193D01*
X128927000Y-69423807D01*
X128995596Y-69768665D01*
X129130153Y-70093515D01*
X129325500Y-70385871D01*
X129574129Y-70634500D01*
X129866485Y-70829847D01*
X130191335Y-70964404D01*
X130536193Y-71033000D01*
X130887807Y-71033000D01*
X131232665Y-70964404D01*
X131557515Y-70829847D01*
X131849871Y-70634500D01*
X132098500Y-70385871D01*
X132293847Y-70093515D01*
X132428404Y-69768665D01*
X132492644Y-69445702D01*
X149173903Y-69445702D01*
X149245486Y-69689671D01*
X149500996Y-69810571D01*
X149775184Y-69879300D01*
X150057512Y-69893217D01*
X150337130Y-69851787D01*
X150603292Y-69756603D01*
X150728514Y-69689671D01*
X150800097Y-69445702D01*
X149987000Y-68632605D01*
X149173903Y-69445702D01*
X132492644Y-69445702D01*
X132497000Y-69423807D01*
X132497000Y-69072193D01*
X132428404Y-68727335D01*
X132343978Y-68523512D01*
X148546783Y-68523512D01*
X148588213Y-68803130D01*
X148683397Y-69069292D01*
X148750329Y-69194514D01*
X148994298Y-69266097D01*
X149807395Y-68453000D01*
X150166605Y-68453000D01*
X150979702Y-69266097D01*
X151223671Y-69194514D01*
X151344571Y-68939004D01*
X151413300Y-68664816D01*
X151427217Y-68382488D01*
X151416724Y-68311665D01*
X153552000Y-68311665D01*
X153552000Y-68594335D01*
X153607147Y-68871574D01*
X153715320Y-69132727D01*
X153872363Y-69367759D01*
X154072241Y-69567637D01*
X154307273Y-69724680D01*
X154568426Y-69832853D01*
X154845665Y-69888000D01*
X155128335Y-69888000D01*
X155405574Y-69832853D01*
X155666727Y-69724680D01*
X155901759Y-69567637D01*
X156101637Y-69367759D01*
X156258680Y-69132727D01*
X156366853Y-68871574D01*
X156422000Y-68594335D01*
X156422000Y-68311665D01*
X156366853Y-68034426D01*
X156258680Y-67773273D01*
X156101637Y-67538241D01*
X155901759Y-67338363D01*
X155666727Y-67181320D01*
X155405574Y-67073147D01*
X155128335Y-67018000D01*
X154845665Y-67018000D01*
X154568426Y-67073147D01*
X154307273Y-67181320D01*
X154072241Y-67338363D01*
X153872363Y-67538241D01*
X153715320Y-67773273D01*
X153607147Y-68034426D01*
X153552000Y-68311665D01*
X151416724Y-68311665D01*
X151385787Y-68102870D01*
X151290603Y-67836708D01*
X151223671Y-67711486D01*
X150979702Y-67639903D01*
X150166605Y-68453000D01*
X149807395Y-68453000D01*
X148994298Y-67639903D01*
X148750329Y-67711486D01*
X148629429Y-67966996D01*
X148560700Y-68241184D01*
X148546783Y-68523512D01*
X132343978Y-68523512D01*
X132293847Y-68402485D01*
X132098500Y-68110129D01*
X131849871Y-67861500D01*
X131557515Y-67666153D01*
X131232665Y-67531596D01*
X130887807Y-67463000D01*
X130536193Y-67463000D01*
X130191335Y-67531596D01*
X129866485Y-67666153D01*
X129574129Y-67861500D01*
X129325500Y-68110129D01*
X129130153Y-68402485D01*
X128995596Y-68727335D01*
X128927000Y-69072193D01*
X105527000Y-69072193D01*
X105458404Y-68727335D01*
X105323847Y-68402485D01*
X105128500Y-68110129D01*
X104879871Y-67861500D01*
X104587515Y-67666153D01*
X104262665Y-67531596D01*
X103917807Y-67463000D01*
X103566193Y-67463000D01*
X103221335Y-67531596D01*
X102896485Y-67666153D01*
X102604129Y-67861500D01*
X102355500Y-68110129D01*
X102160153Y-68402485D01*
X102025596Y-68727335D01*
X101957000Y-69072193D01*
X84480000Y-69072193D01*
X84480000Y-67460298D01*
X149173903Y-67460298D01*
X149987000Y-68273395D01*
X150800097Y-67460298D01*
X150728514Y-67216329D01*
X150473004Y-67095429D01*
X150198816Y-67026700D01*
X149916488Y-67012783D01*
X149636870Y-67054213D01*
X149370708Y-67149397D01*
X149245486Y-67216329D01*
X149173903Y-67460298D01*
X84480000Y-67460298D01*
X84480000Y-64365702D01*
X149253903Y-64365702D01*
X149325486Y-64609671D01*
X149580996Y-64730571D01*
X149855184Y-64799300D01*
X150137512Y-64813217D01*
X150417130Y-64771787D01*
X150683292Y-64676603D01*
X150808514Y-64609671D01*
X150880097Y-64365702D01*
X150067000Y-63552605D01*
X149253903Y-64365702D01*
X84480000Y-64365702D01*
X84480000Y-63443512D01*
X148626783Y-63443512D01*
X148668213Y-63723130D01*
X148763397Y-63989292D01*
X148830329Y-64114514D01*
X149074298Y-64186097D01*
X149887395Y-63373000D01*
X150246605Y-63373000D01*
X151059702Y-64186097D01*
X151303671Y-64114514D01*
X151424571Y-63859004D01*
X151493300Y-63584816D01*
X151507217Y-63302488D01*
X151496724Y-63231665D01*
X153632000Y-63231665D01*
X153632000Y-63514335D01*
X153687147Y-63791574D01*
X153795320Y-64052727D01*
X153952363Y-64287759D01*
X154152241Y-64487637D01*
X154387273Y-64644680D01*
X154648426Y-64752853D01*
X154925665Y-64808000D01*
X155208335Y-64808000D01*
X155485574Y-64752853D01*
X155746727Y-64644680D01*
X155981759Y-64487637D01*
X156181637Y-64287759D01*
X156338680Y-64052727D01*
X156446853Y-63791574D01*
X156502000Y-63514335D01*
X156502000Y-63231665D01*
X156446853Y-62954426D01*
X156338680Y-62693273D01*
X156181637Y-62458241D01*
X155981759Y-62258363D01*
X155746727Y-62101320D01*
X155485574Y-61993147D01*
X155208335Y-61938000D01*
X154925665Y-61938000D01*
X154648426Y-61993147D01*
X154387273Y-62101320D01*
X154152241Y-62258363D01*
X153952363Y-62458241D01*
X153795320Y-62693273D01*
X153687147Y-62954426D01*
X153632000Y-63231665D01*
X151496724Y-63231665D01*
X151465787Y-63022870D01*
X151370603Y-62756708D01*
X151303671Y-62631486D01*
X151059702Y-62559903D01*
X150246605Y-63373000D01*
X149887395Y-63373000D01*
X149074298Y-62559903D01*
X148830329Y-62631486D01*
X148709429Y-62886996D01*
X148640700Y-63161184D01*
X148626783Y-63443512D01*
X84480000Y-63443512D01*
X84480000Y-62380298D01*
X149253903Y-62380298D01*
X150067000Y-63193395D01*
X150880097Y-62380298D01*
X150808514Y-62136329D01*
X150553004Y-62015429D01*
X150278816Y-61946700D01*
X149996488Y-61932783D01*
X149716870Y-61974213D01*
X149450708Y-62069397D01*
X149325486Y-62136329D01*
X149253903Y-62380298D01*
X84480000Y-62380298D01*
X84480000Y-56808000D01*
X154213928Y-56808000D01*
X154213928Y-58508000D01*
X154226188Y-58632482D01*
X154262498Y-58752180D01*
X154321463Y-58862494D01*
X154400815Y-58959185D01*
X154497506Y-59038537D01*
X154607820Y-59097502D01*
X154727518Y-59133812D01*
X154852000Y-59146072D01*
X156552000Y-59146072D01*
X156676482Y-59133812D01*
X156796180Y-59097502D01*
X156906494Y-59038537D01*
X157003185Y-58959185D01*
X157082537Y-58862494D01*
X157141502Y-58752180D01*
X157163513Y-58679620D01*
X157295368Y-58811475D01*
X157482000Y-58936179D01*
X157482000Y-59144677D01*
X157478324Y-59182000D01*
X157482000Y-59219322D01*
X157482000Y-59219332D01*
X157492997Y-59330985D01*
X157536454Y-59474246D01*
X157607026Y-59606276D01*
X157646871Y-59654826D01*
X157701999Y-59722001D01*
X157731003Y-59745804D01*
X163154402Y-65169204D01*
X162918011Y-65216225D01*
X162665957Y-65320629D01*
X162439114Y-65472201D01*
X162246201Y-65665114D01*
X162094629Y-65891957D01*
X161990225Y-66144011D01*
X161937000Y-66411589D01*
X161937000Y-66684411D01*
X161990225Y-66951989D01*
X162094629Y-67204043D01*
X162246201Y-67430886D01*
X162439114Y-67623799D01*
X162665957Y-67775371D01*
X162918011Y-67879775D01*
X163185589Y-67933000D01*
X163458411Y-67933000D01*
X163725989Y-67879775D01*
X163978043Y-67775371D01*
X164204886Y-67623799D01*
X164397799Y-67430886D01*
X164549371Y-67204043D01*
X164653775Y-66951989D01*
X164700796Y-66715598D01*
X170669000Y-72683802D01*
X170669000Y-72745939D01*
X170708774Y-72945898D01*
X170786795Y-73134256D01*
X170900063Y-73303774D01*
X171044226Y-73447937D01*
X171213744Y-73561205D01*
X171402102Y-73639226D01*
X171602061Y-73679000D01*
X171805939Y-73679000D01*
X172005898Y-73639226D01*
X172194256Y-73561205D01*
X172363774Y-73447937D01*
X172507937Y-73303774D01*
X172621205Y-73134256D01*
X172699226Y-72945898D01*
X172739000Y-72745939D01*
X172739000Y-72542061D01*
X172699226Y-72342102D01*
X172621205Y-72153744D01*
X172507937Y-71984226D01*
X172363774Y-71840063D01*
X172194256Y-71726795D01*
X172005898Y-71648774D01*
X171805939Y-71609000D01*
X171743802Y-71609000D01*
X168067802Y-67933000D01*
X168338411Y-67933000D01*
X168605989Y-67879775D01*
X168858043Y-67775371D01*
X169084886Y-67623799D01*
X169277799Y-67430886D01*
X169429371Y-67204043D01*
X169533775Y-66951989D01*
X169587000Y-66684411D01*
X169587000Y-66411589D01*
X169533775Y-66144011D01*
X169429371Y-65891957D01*
X169277799Y-65665114D01*
X169084886Y-65472201D01*
X168858043Y-65320629D01*
X168605989Y-65216225D01*
X168338411Y-65163000D01*
X168065589Y-65163000D01*
X167798011Y-65216225D01*
X167545957Y-65320629D01*
X167319114Y-65472201D01*
X167126201Y-65665114D01*
X166974629Y-65891957D01*
X166870225Y-66144011D01*
X166817000Y-66411589D01*
X166817000Y-66682198D01*
X162515912Y-62381110D01*
X191090524Y-62381110D01*
X191211845Y-62611000D01*
X192405000Y-62611000D01*
X192405000Y-61417186D01*
X192175109Y-61296519D01*
X191900748Y-61393843D01*
X191650645Y-61542822D01*
X191434412Y-61737731D01*
X191260359Y-61971080D01*
X191135175Y-62233901D01*
X191090524Y-62381110D01*
X162515912Y-62381110D01*
X160191467Y-60056665D01*
X186017000Y-60056665D01*
X186017000Y-60339335D01*
X186072147Y-60616574D01*
X186180320Y-60877727D01*
X186337363Y-61112759D01*
X186537241Y-61312637D01*
X186772273Y-61469680D01*
X187033426Y-61577853D01*
X187310665Y-61633000D01*
X187593335Y-61633000D01*
X187870574Y-61577853D01*
X188131727Y-61469680D01*
X188366759Y-61312637D01*
X188566637Y-61112759D01*
X188723680Y-60877727D01*
X188831853Y-60616574D01*
X188887000Y-60339335D01*
X188887000Y-60056665D01*
X188831853Y-59779426D01*
X188723680Y-59518273D01*
X188566637Y-59283241D01*
X188366759Y-59083363D01*
X188131727Y-58926320D01*
X187870574Y-58818147D01*
X187593335Y-58763000D01*
X187310665Y-58763000D01*
X187033426Y-58818147D01*
X186772273Y-58926320D01*
X186537241Y-59083363D01*
X186337363Y-59283241D01*
X186180320Y-59518273D01*
X186072147Y-59779426D01*
X186017000Y-60056665D01*
X160191467Y-60056665D01*
X159043350Y-58908549D01*
X159188632Y-58811475D01*
X159395475Y-58604632D01*
X159517195Y-58422466D01*
X159586822Y-58539355D01*
X159781731Y-58755588D01*
X160015080Y-58929641D01*
X160277901Y-59054825D01*
X160425110Y-59099476D01*
X160655000Y-58978155D01*
X160655000Y-57785000D01*
X160635000Y-57785000D01*
X160635000Y-57531000D01*
X160655000Y-57531000D01*
X160655000Y-56337845D01*
X160909000Y-56337845D01*
X160909000Y-57531000D01*
X160929000Y-57531000D01*
X160929000Y-57785000D01*
X160909000Y-57785000D01*
X160909000Y-58978155D01*
X161138890Y-59099476D01*
X161286099Y-59054825D01*
X161548920Y-58929641D01*
X161782269Y-58755588D01*
X161977178Y-58539355D01*
X162046805Y-58422466D01*
X162168525Y-58604632D01*
X162375368Y-58811475D01*
X162618589Y-58973990D01*
X162888842Y-59085932D01*
X163175740Y-59143000D01*
X163468260Y-59143000D01*
X163755158Y-59085932D01*
X164025411Y-58973990D01*
X164268632Y-58811475D01*
X164475475Y-58604632D01*
X164540042Y-58508000D01*
X168183928Y-58508000D01*
X168196188Y-58632482D01*
X168232498Y-58752180D01*
X168291463Y-58862494D01*
X168370815Y-58959185D01*
X168467506Y-59038537D01*
X168577820Y-59097502D01*
X168697518Y-59133812D01*
X168822000Y-59146072D01*
X169386250Y-59143000D01*
X169545000Y-58984250D01*
X169545000Y-57785000D01*
X168345750Y-57785000D01*
X168187000Y-57943750D01*
X168183928Y-58508000D01*
X164540042Y-58508000D01*
X164637990Y-58361411D01*
X164749932Y-58091158D01*
X164807000Y-57804260D01*
X164807000Y-57511740D01*
X164749932Y-57224842D01*
X164637990Y-56954589D01*
X164540043Y-56808000D01*
X168183928Y-56808000D01*
X168187000Y-57372250D01*
X168345750Y-57531000D01*
X169545000Y-57531000D01*
X169545000Y-56331750D01*
X169799000Y-56331750D01*
X169799000Y-57531000D01*
X169819000Y-57531000D01*
X169819000Y-57785000D01*
X169799000Y-57785000D01*
X169799000Y-58984250D01*
X169957750Y-59143000D01*
X170522000Y-59146072D01*
X170646482Y-59133812D01*
X170766180Y-59097502D01*
X170876494Y-59038537D01*
X170973185Y-58959185D01*
X171052537Y-58862494D01*
X171111502Y-58752180D01*
X171133513Y-58679620D01*
X171265368Y-58811475D01*
X171508589Y-58973990D01*
X171778842Y-59085932D01*
X172065740Y-59143000D01*
X172358260Y-59143000D01*
X172645158Y-59085932D01*
X172915411Y-58973990D01*
X173158632Y-58811475D01*
X173365475Y-58604632D01*
X173482000Y-58430240D01*
X173598525Y-58604632D01*
X173805368Y-58811475D01*
X174048589Y-58973990D01*
X174318842Y-59085932D01*
X174605740Y-59143000D01*
X174898260Y-59143000D01*
X175185158Y-59085932D01*
X175455411Y-58973990D01*
X175698632Y-58811475D01*
X175905475Y-58604632D01*
X176022000Y-58430240D01*
X176138525Y-58604632D01*
X176345368Y-58811475D01*
X176588589Y-58973990D01*
X176858842Y-59085932D01*
X177145740Y-59143000D01*
X177438260Y-59143000D01*
X177725158Y-59085932D01*
X177995411Y-58973990D01*
X178238632Y-58811475D01*
X178445475Y-58604632D01*
X178607990Y-58361411D01*
X178719932Y-58091158D01*
X178777000Y-57804260D01*
X178777000Y-57511740D01*
X178719932Y-57224842D01*
X178607990Y-56954589D01*
X178445475Y-56711368D01*
X178238632Y-56504525D01*
X177995411Y-56342010D01*
X177725158Y-56230068D01*
X177438260Y-56173000D01*
X177145740Y-56173000D01*
X176858842Y-56230068D01*
X176588589Y-56342010D01*
X176345368Y-56504525D01*
X176138525Y-56711368D01*
X176022000Y-56885760D01*
X175905475Y-56711368D01*
X175698632Y-56504525D01*
X175455411Y-56342010D01*
X175185158Y-56230068D01*
X174898260Y-56173000D01*
X174605740Y-56173000D01*
X174318842Y-56230068D01*
X174048589Y-56342010D01*
X173805368Y-56504525D01*
X173598525Y-56711368D01*
X173482000Y-56885760D01*
X173365475Y-56711368D01*
X173158632Y-56504525D01*
X172915411Y-56342010D01*
X172645158Y-56230068D01*
X172358260Y-56173000D01*
X172065740Y-56173000D01*
X171778842Y-56230068D01*
X171508589Y-56342010D01*
X171265368Y-56504525D01*
X171133513Y-56636380D01*
X171111502Y-56563820D01*
X171052537Y-56453506D01*
X170973185Y-56356815D01*
X170876494Y-56277463D01*
X170766180Y-56218498D01*
X170646482Y-56182188D01*
X170522000Y-56169928D01*
X169957750Y-56173000D01*
X169799000Y-56331750D01*
X169545000Y-56331750D01*
X169386250Y-56173000D01*
X168822000Y-56169928D01*
X168697518Y-56182188D01*
X168577820Y-56218498D01*
X168467506Y-56277463D01*
X168370815Y-56356815D01*
X168291463Y-56453506D01*
X168232498Y-56563820D01*
X168196188Y-56683518D01*
X168183928Y-56808000D01*
X164540043Y-56808000D01*
X164475475Y-56711368D01*
X164268632Y-56504525D01*
X164025411Y-56342010D01*
X163755158Y-56230068D01*
X163468260Y-56173000D01*
X163175740Y-56173000D01*
X162888842Y-56230068D01*
X162618589Y-56342010D01*
X162375368Y-56504525D01*
X162168525Y-56711368D01*
X162046805Y-56893534D01*
X161977178Y-56776645D01*
X161782269Y-56560412D01*
X161548920Y-56386359D01*
X161286099Y-56261175D01*
X161138890Y-56216524D01*
X160909000Y-56337845D01*
X160655000Y-56337845D01*
X160425110Y-56216524D01*
X160277901Y-56261175D01*
X160015080Y-56386359D01*
X159781731Y-56560412D01*
X159586822Y-56776645D01*
X159517195Y-56893534D01*
X159395475Y-56711368D01*
X159188632Y-56504525D01*
X158945411Y-56342010D01*
X158675158Y-56230068D01*
X158388260Y-56173000D01*
X158095740Y-56173000D01*
X157808842Y-56230068D01*
X157538589Y-56342010D01*
X157295368Y-56504525D01*
X157163513Y-56636380D01*
X157141502Y-56563820D01*
X157082537Y-56453506D01*
X157003185Y-56356815D01*
X156906494Y-56277463D01*
X156796180Y-56218498D01*
X156676482Y-56182188D01*
X156552000Y-56169928D01*
X154852000Y-56169928D01*
X154727518Y-56182188D01*
X154607820Y-56218498D01*
X154497506Y-56277463D01*
X154400815Y-56356815D01*
X154321463Y-56453506D01*
X154262498Y-56563820D01*
X154226188Y-56683518D01*
X154213928Y-56808000D01*
X84480000Y-56808000D01*
X84480000Y-55524061D01*
X190989000Y-55524061D01*
X190989000Y-55727939D01*
X191028774Y-55927898D01*
X191106795Y-56116256D01*
X191220063Y-56285774D01*
X191364226Y-56429937D01*
X191533744Y-56543205D01*
X191722102Y-56621226D01*
X191922061Y-56661000D01*
X191984199Y-56661000D01*
X192947001Y-57623803D01*
X192947001Y-61317132D01*
X192888891Y-61296519D01*
X192659000Y-61417186D01*
X192659000Y-62611000D01*
X192679000Y-62611000D01*
X192679000Y-62865000D01*
X192659000Y-62865000D01*
X192659000Y-62885000D01*
X192405000Y-62885000D01*
X192405000Y-62865000D01*
X191211845Y-62865000D01*
X191090524Y-63094890D01*
X191135175Y-63242099D01*
X191260359Y-63504920D01*
X191434412Y-63738269D01*
X191650645Y-63933178D01*
X191767534Y-64002805D01*
X191585368Y-64124525D01*
X191378525Y-64331368D01*
X191216010Y-64574589D01*
X191104068Y-64844842D01*
X191047000Y-65131740D01*
X191047000Y-65424260D01*
X191104068Y-65711158D01*
X191216010Y-65981411D01*
X191378525Y-66224632D01*
X191510380Y-66356487D01*
X191437820Y-66378498D01*
X191327506Y-66437463D01*
X191230815Y-66516815D01*
X191151463Y-66613506D01*
X191092498Y-66723820D01*
X191056188Y-66843518D01*
X191043928Y-66968000D01*
X191043928Y-68668000D01*
X191056188Y-68792482D01*
X191092498Y-68912180D01*
X191151463Y-69022494D01*
X191230815Y-69119185D01*
X191327506Y-69198537D01*
X191437820Y-69257502D01*
X191557518Y-69293812D01*
X191682000Y-69306072D01*
X192947001Y-69306072D01*
X192947002Y-104293287D01*
X192903064Y-104337225D01*
X192789796Y-104506743D01*
X192711775Y-104695101D01*
X192672001Y-104895060D01*
X192672001Y-105098938D01*
X192711775Y-105298897D01*
X192789796Y-105487255D01*
X192903064Y-105656773D01*
X193047227Y-105800936D01*
X193216745Y-105914204D01*
X193405103Y-105992225D01*
X193605062Y-106031999D01*
X193808940Y-106031999D01*
X194008899Y-105992225D01*
X194197257Y-105914204D01*
X194366775Y-105800936D01*
X194510938Y-105656773D01*
X194624206Y-105487255D01*
X194702227Y-105298897D01*
X194742001Y-105098938D01*
X194742001Y-104895060D01*
X194702227Y-104695101D01*
X194624206Y-104506743D01*
X194510938Y-104337225D01*
X194467001Y-104293288D01*
X194467001Y-57346324D01*
X194470677Y-57309001D01*
X194467001Y-57271678D01*
X194467001Y-57271668D01*
X194456004Y-57160015D01*
X194412547Y-57016754D01*
X194341975Y-56884725D01*
X194247002Y-56769000D01*
X194218005Y-56745203D01*
X193059000Y-55586199D01*
X193059000Y-55524061D01*
X193019226Y-55324102D01*
X192941205Y-55135744D01*
X192827937Y-54966226D01*
X192683774Y-54822063D01*
X192514256Y-54708795D01*
X192325898Y-54630774D01*
X192125939Y-54591000D01*
X191922061Y-54591000D01*
X191722102Y-54630774D01*
X191533744Y-54708795D01*
X191364226Y-54822063D01*
X191220063Y-54966226D01*
X191106795Y-55135744D01*
X191028774Y-55324102D01*
X190989000Y-55524061D01*
X84480000Y-55524061D01*
X84480000Y-54000000D01*
X198222000Y-54000000D01*
X198222001Y-124689000D01*
G37*
%TD.AperFunction*%
%TD*%
M02*
