%TF.GenerationSoftware,KiCad,Pcbnew,5.1.12-84ad8e8a86~92~ubuntu20.04.1*%
%TF.CreationDate,2021-12-12T14:48:12+01:00*%
%TF.ProjectId,funkwecker,66756e6b-7765-4636-9b65-722e6b696361,0.1*%
%TF.SameCoordinates,Original*%
%TF.FileFunction,Paste,Top*%
%TF.FilePolarity,Positive*%
%FSLAX46Y46*%
G04 Gerber Fmt 4.6, Leading zero omitted, Abs format (unit mm)*
G04 Created by KiCad (PCBNEW 5.1.12-84ad8e8a86~92~ubuntu20.04.1) date 2021-12-12 14:48:12*
%MOMM*%
%LPD*%
G01*
G04 APERTURE LIST*
G04 APERTURE END LIST*
%TO.C,U2*%
G36*
G01*
X172422000Y-72613000D02*
X172422000Y-72413000D01*
G75*
G02*
X172522000Y-72313000I100000J0D01*
G01*
X173797000Y-72313000D01*
G75*
G02*
X173897000Y-72413000I0J-100000D01*
G01*
X173897000Y-72613000D01*
G75*
G02*
X173797000Y-72713000I-100000J0D01*
G01*
X172522000Y-72713000D01*
G75*
G02*
X172422000Y-72613000I0J100000D01*
G01*
G37*
G36*
G01*
X172422000Y-73263000D02*
X172422000Y-73063000D01*
G75*
G02*
X172522000Y-72963000I100000J0D01*
G01*
X173797000Y-72963000D01*
G75*
G02*
X173897000Y-73063000I0J-100000D01*
G01*
X173897000Y-73263000D01*
G75*
G02*
X173797000Y-73363000I-100000J0D01*
G01*
X172522000Y-73363000D01*
G75*
G02*
X172422000Y-73263000I0J100000D01*
G01*
G37*
G36*
G01*
X172422000Y-73913000D02*
X172422000Y-73713000D01*
G75*
G02*
X172522000Y-73613000I100000J0D01*
G01*
X173797000Y-73613000D01*
G75*
G02*
X173897000Y-73713000I0J-100000D01*
G01*
X173897000Y-73913000D01*
G75*
G02*
X173797000Y-74013000I-100000J0D01*
G01*
X172522000Y-74013000D01*
G75*
G02*
X172422000Y-73913000I0J100000D01*
G01*
G37*
G36*
G01*
X172422000Y-74563000D02*
X172422000Y-74363000D01*
G75*
G02*
X172522000Y-74263000I100000J0D01*
G01*
X173797000Y-74263000D01*
G75*
G02*
X173897000Y-74363000I0J-100000D01*
G01*
X173897000Y-74563000D01*
G75*
G02*
X173797000Y-74663000I-100000J0D01*
G01*
X172522000Y-74663000D01*
G75*
G02*
X172422000Y-74563000I0J100000D01*
G01*
G37*
G36*
G01*
X172422000Y-75213000D02*
X172422000Y-75013000D01*
G75*
G02*
X172522000Y-74913000I100000J0D01*
G01*
X173797000Y-74913000D01*
G75*
G02*
X173897000Y-75013000I0J-100000D01*
G01*
X173897000Y-75213000D01*
G75*
G02*
X173797000Y-75313000I-100000J0D01*
G01*
X172522000Y-75313000D01*
G75*
G02*
X172422000Y-75213000I0J100000D01*
G01*
G37*
G36*
G01*
X172422000Y-75863000D02*
X172422000Y-75663000D01*
G75*
G02*
X172522000Y-75563000I100000J0D01*
G01*
X173797000Y-75563000D01*
G75*
G02*
X173897000Y-75663000I0J-100000D01*
G01*
X173897000Y-75863000D01*
G75*
G02*
X173797000Y-75963000I-100000J0D01*
G01*
X172522000Y-75963000D01*
G75*
G02*
X172422000Y-75863000I0J100000D01*
G01*
G37*
G36*
G01*
X172422000Y-76513000D02*
X172422000Y-76313000D01*
G75*
G02*
X172522000Y-76213000I100000J0D01*
G01*
X173797000Y-76213000D01*
G75*
G02*
X173897000Y-76313000I0J-100000D01*
G01*
X173897000Y-76513000D01*
G75*
G02*
X173797000Y-76613000I-100000J0D01*
G01*
X172522000Y-76613000D01*
G75*
G02*
X172422000Y-76513000I0J100000D01*
G01*
G37*
G36*
G01*
X172422000Y-77163000D02*
X172422000Y-76963000D01*
G75*
G02*
X172522000Y-76863000I100000J0D01*
G01*
X173797000Y-76863000D01*
G75*
G02*
X173897000Y-76963000I0J-100000D01*
G01*
X173897000Y-77163000D01*
G75*
G02*
X173797000Y-77263000I-100000J0D01*
G01*
X172522000Y-77263000D01*
G75*
G02*
X172422000Y-77163000I0J100000D01*
G01*
G37*
G36*
G01*
X172422000Y-77813000D02*
X172422000Y-77613000D01*
G75*
G02*
X172522000Y-77513000I100000J0D01*
G01*
X173797000Y-77513000D01*
G75*
G02*
X173897000Y-77613000I0J-100000D01*
G01*
X173897000Y-77813000D01*
G75*
G02*
X173797000Y-77913000I-100000J0D01*
G01*
X172522000Y-77913000D01*
G75*
G02*
X172422000Y-77813000I0J100000D01*
G01*
G37*
G36*
G01*
X172422000Y-78463000D02*
X172422000Y-78263000D01*
G75*
G02*
X172522000Y-78163000I100000J0D01*
G01*
X173797000Y-78163000D01*
G75*
G02*
X173897000Y-78263000I0J-100000D01*
G01*
X173897000Y-78463000D01*
G75*
G02*
X173797000Y-78563000I-100000J0D01*
G01*
X172522000Y-78563000D01*
G75*
G02*
X172422000Y-78463000I0J100000D01*
G01*
G37*
G36*
G01*
X178147000Y-78463000D02*
X178147000Y-78263000D01*
G75*
G02*
X178247000Y-78163000I100000J0D01*
G01*
X179522000Y-78163000D01*
G75*
G02*
X179622000Y-78263000I0J-100000D01*
G01*
X179622000Y-78463000D01*
G75*
G02*
X179522000Y-78563000I-100000J0D01*
G01*
X178247000Y-78563000D01*
G75*
G02*
X178147000Y-78463000I0J100000D01*
G01*
G37*
G36*
G01*
X178147000Y-77813000D02*
X178147000Y-77613000D01*
G75*
G02*
X178247000Y-77513000I100000J0D01*
G01*
X179522000Y-77513000D01*
G75*
G02*
X179622000Y-77613000I0J-100000D01*
G01*
X179622000Y-77813000D01*
G75*
G02*
X179522000Y-77913000I-100000J0D01*
G01*
X178247000Y-77913000D01*
G75*
G02*
X178147000Y-77813000I0J100000D01*
G01*
G37*
G36*
G01*
X178147000Y-77163000D02*
X178147000Y-76963000D01*
G75*
G02*
X178247000Y-76863000I100000J0D01*
G01*
X179522000Y-76863000D01*
G75*
G02*
X179622000Y-76963000I0J-100000D01*
G01*
X179622000Y-77163000D01*
G75*
G02*
X179522000Y-77263000I-100000J0D01*
G01*
X178247000Y-77263000D01*
G75*
G02*
X178147000Y-77163000I0J100000D01*
G01*
G37*
G36*
G01*
X178147000Y-76513000D02*
X178147000Y-76313000D01*
G75*
G02*
X178247000Y-76213000I100000J0D01*
G01*
X179522000Y-76213000D01*
G75*
G02*
X179622000Y-76313000I0J-100000D01*
G01*
X179622000Y-76513000D01*
G75*
G02*
X179522000Y-76613000I-100000J0D01*
G01*
X178247000Y-76613000D01*
G75*
G02*
X178147000Y-76513000I0J100000D01*
G01*
G37*
G36*
G01*
X178147000Y-75863000D02*
X178147000Y-75663000D01*
G75*
G02*
X178247000Y-75563000I100000J0D01*
G01*
X179522000Y-75563000D01*
G75*
G02*
X179622000Y-75663000I0J-100000D01*
G01*
X179622000Y-75863000D01*
G75*
G02*
X179522000Y-75963000I-100000J0D01*
G01*
X178247000Y-75963000D01*
G75*
G02*
X178147000Y-75863000I0J100000D01*
G01*
G37*
G36*
G01*
X178147000Y-75213000D02*
X178147000Y-75013000D01*
G75*
G02*
X178247000Y-74913000I100000J0D01*
G01*
X179522000Y-74913000D01*
G75*
G02*
X179622000Y-75013000I0J-100000D01*
G01*
X179622000Y-75213000D01*
G75*
G02*
X179522000Y-75313000I-100000J0D01*
G01*
X178247000Y-75313000D01*
G75*
G02*
X178147000Y-75213000I0J100000D01*
G01*
G37*
G36*
G01*
X178147000Y-74563000D02*
X178147000Y-74363000D01*
G75*
G02*
X178247000Y-74263000I100000J0D01*
G01*
X179522000Y-74263000D01*
G75*
G02*
X179622000Y-74363000I0J-100000D01*
G01*
X179622000Y-74563000D01*
G75*
G02*
X179522000Y-74663000I-100000J0D01*
G01*
X178247000Y-74663000D01*
G75*
G02*
X178147000Y-74563000I0J100000D01*
G01*
G37*
G36*
G01*
X178147000Y-73913000D02*
X178147000Y-73713000D01*
G75*
G02*
X178247000Y-73613000I100000J0D01*
G01*
X179522000Y-73613000D01*
G75*
G02*
X179622000Y-73713000I0J-100000D01*
G01*
X179622000Y-73913000D01*
G75*
G02*
X179522000Y-74013000I-100000J0D01*
G01*
X178247000Y-74013000D01*
G75*
G02*
X178147000Y-73913000I0J100000D01*
G01*
G37*
G36*
G01*
X178147000Y-73263000D02*
X178147000Y-73063000D01*
G75*
G02*
X178247000Y-72963000I100000J0D01*
G01*
X179522000Y-72963000D01*
G75*
G02*
X179622000Y-73063000I0J-100000D01*
G01*
X179622000Y-73263000D01*
G75*
G02*
X179522000Y-73363000I-100000J0D01*
G01*
X178247000Y-73363000D01*
G75*
G02*
X178147000Y-73263000I0J100000D01*
G01*
G37*
G36*
G01*
X178147000Y-72613000D02*
X178147000Y-72413000D01*
G75*
G02*
X178247000Y-72313000I100000J0D01*
G01*
X179522000Y-72313000D01*
G75*
G02*
X179622000Y-72413000I0J-100000D01*
G01*
X179622000Y-72613000D01*
G75*
G02*
X179522000Y-72713000I-100000J0D01*
G01*
X178247000Y-72713000D01*
G75*
G02*
X178147000Y-72613000I0J100000D01*
G01*
G37*
%TD*%
M02*
