%TF.GenerationSoftware,KiCad,Pcbnew,5.1.12-84ad8e8a86~92~ubuntu20.04.1*%
%TF.CreationDate,2021-12-12T14:48:12+01:00*%
%TF.ProjectId,funkwecker,66756e6b-7765-4636-9b65-722e6b696361,0.1*%
%TF.SameCoordinates,Original*%
%TF.FileFunction,Copper,L1,Top*%
%TF.FilePolarity,Positive*%
%FSLAX46Y46*%
G04 Gerber Fmt 4.6, Leading zero omitted, Abs format (unit mm)*
G04 Created by KiCad (PCBNEW 5.1.12-84ad8e8a86~92~ubuntu20.04.1) date 2021-12-12 14:48:12*
%MOMM*%
%LPD*%
G01*
G04 APERTURE LIST*
%TA.AperFunction,ComponentPad*%
%ADD10C,2.300000*%
%TD*%
%TA.AperFunction,ComponentPad*%
%ADD11R,2.410000X4.020000*%
%TD*%
%TA.AperFunction,ComponentPad*%
%ADD12O,2.410000X4.020000*%
%TD*%
%TA.AperFunction,WasherPad*%
%ADD13C,2.300000*%
%TD*%
%TA.AperFunction,ComponentPad*%
%ADD14C,1.600000*%
%TD*%
%TA.AperFunction,ComponentPad*%
%ADD15R,1.600000X1.600000*%
%TD*%
%TA.AperFunction,ComponentPad*%
%ADD16R,1.800000X1.800000*%
%TD*%
%TA.AperFunction,ComponentPad*%
%ADD17C,1.800000*%
%TD*%
%TA.AperFunction,ComponentPad*%
%ADD18R,1.700000X1.700000*%
%TD*%
%TA.AperFunction,ComponentPad*%
%ADD19O,1.700000X1.700000*%
%TD*%
%TA.AperFunction,ComponentPad*%
%ADD20O,1.600000X1.600000*%
%TD*%
%TA.AperFunction,ComponentPad*%
%ADD21R,1.300000X1.300000*%
%TD*%
%TA.AperFunction,ComponentPad*%
%ADD22C,1.300000*%
%TD*%
%TA.AperFunction,ComponentPad*%
%ADD23C,1.500000*%
%TD*%
%TA.AperFunction,ViaPad*%
%ADD24C,0.800000*%
%TD*%
%TA.AperFunction,Conductor*%
%ADD25C,0.250000*%
%TD*%
%TA.AperFunction,Conductor*%
%ADD26C,0.254000*%
%TD*%
%TA.AperFunction,Conductor*%
%ADD27C,0.100000*%
%TD*%
G04 APERTURE END LIST*
D10*
%TO.P,SW1,2*%
%TO.N,VCC*%
X141452000Y-100838000D03*
%TO.P,SW1,1*%
%TO.N,Net-(BT1-Pad1)*%
%TA.AperFunction,ComponentPad*%
G36*
G01*
X135502000Y-101738002D02*
X135502000Y-99937998D01*
G75*
G02*
X135751998Y-99688000I249998J0D01*
G01*
X137552002Y-99688000D01*
G75*
G02*
X137802000Y-99937998I0J-249998D01*
G01*
X137802000Y-101738002D01*
G75*
G02*
X137552002Y-101988000I-249998J0D01*
G01*
X135751998Y-101988000D01*
G75*
G02*
X135502000Y-101738002I0J249998D01*
G01*
G37*
%TD.AperFunction*%
%TD*%
D11*
%TO.P,BT1,1*%
%TO.N,Net-(BT1-Pad1)*%
X143002000Y-86868000D03*
D12*
%TO.P,BT1,2*%
%TO.N,GND*%
X143002000Y-73988000D03*
D13*
%TO.P,BT1,*%
%TO.N,*%
X117222000Y-91598000D03*
X130712000Y-69248000D03*
X103742000Y-69248000D03*
%TD*%
D14*
%TO.P,C1,2*%
%TO.N,GND*%
X155742000Y-116078000D03*
D15*
%TO.P,C1,1*%
%TO.N,VCC*%
X158242000Y-116078000D03*
%TD*%
%TO.P,C2,1*%
%TO.N,VDD*%
X156972000Y-97028000D03*
D14*
%TO.P,C2,2*%
%TO.N,GND*%
X156972000Y-94528000D03*
%TD*%
D15*
%TO.P,C5,1*%
%TO.N,VCC*%
X186182000Y-95758000D03*
D14*
%TO.P,C5,2*%
%TO.N,GND*%
X183682000Y-95758000D03*
%TD*%
%TO.P,C6,2*%
%TO.N,GND*%
X183682000Y-116078000D03*
D15*
%TO.P,C6,1*%
%TO.N,+5V*%
X186182000Y-116078000D03*
%TD*%
D16*
%TO.P,D1,1*%
%TO.N,GND*%
X170942000Y-84328000D03*
D17*
%TO.P,D1,2*%
%TO.N,Net-(D1-Pad2)*%
X168402000Y-84328000D03*
%TD*%
D18*
%TO.P,J1,1*%
%TO.N,VDD*%
X192532000Y-67818000D03*
D19*
%TO.P,J1,2*%
%TO.N,DCF_SIGNAL*%
X192532000Y-65278000D03*
%TO.P,J1,3*%
%TO.N,GND*%
X192532000Y-62738000D03*
%TD*%
D18*
%TO.P,J2,1*%
%TO.N,VDD*%
X155702000Y-57658000D03*
D19*
%TO.P,J2,2*%
%TO.N,SWIM_I_O*%
X158242000Y-57658000D03*
%TO.P,J2,3*%
%TO.N,GND*%
X160782000Y-57658000D03*
%TO.P,J2,4*%
%TO.N,RESET*%
X163322000Y-57658000D03*
%TD*%
%TO.P,J3,4*%
%TO.N,LED_DISPLAY_CLK*%
X177292000Y-57658000D03*
%TO.P,J3,3*%
%TO.N,LED_DISPLAY_DATA*%
X174752000Y-57658000D03*
%TO.P,J3,2*%
%TO.N,+5V*%
X172212000Y-57658000D03*
D18*
%TO.P,J3,1*%
%TO.N,GND*%
X169672000Y-57658000D03*
%TD*%
D20*
%TO.P,R1,2*%
%TO.N,VDD*%
X187452000Y-72898000D03*
D14*
%TO.P,R1,1*%
%TO.N,DCF_SIGNAL*%
X187452000Y-60198000D03*
%TD*%
%TO.P,R2,1*%
%TO.N,Test_LED*%
X183642000Y-74803000D03*
D20*
%TO.P,R2,2*%
%TO.N,Net-(D1-Pad2)*%
X183642000Y-87503000D03*
%TD*%
D21*
%TO.P,U1,1*%
%TO.N,GND*%
X155702000Y-105918000D03*
D22*
%TO.P,U1,3*%
%TO.N,VCC*%
X158242000Y-105918000D03*
%TO.P,U1,2*%
%TO.N,VDD*%
X156972000Y-104648000D03*
%TD*%
%TO.P,U2,1*%
%TO.N,Net-(U2-Pad1)*%
%TA.AperFunction,SMDPad,CuDef*%
G36*
G01*
X172422000Y-72613000D02*
X172422000Y-72413000D01*
G75*
G02*
X172522000Y-72313000I100000J0D01*
G01*
X173797000Y-72313000D01*
G75*
G02*
X173897000Y-72413000I0J-100000D01*
G01*
X173897000Y-72613000D01*
G75*
G02*
X173797000Y-72713000I-100000J0D01*
G01*
X172522000Y-72713000D01*
G75*
G02*
X172422000Y-72613000I0J100000D01*
G01*
G37*
%TD.AperFunction*%
%TO.P,U2,2*%
%TO.N,Net-(U2-Pad2)*%
%TA.AperFunction,SMDPad,CuDef*%
G36*
G01*
X172422000Y-73263000D02*
X172422000Y-73063000D01*
G75*
G02*
X172522000Y-72963000I100000J0D01*
G01*
X173797000Y-72963000D01*
G75*
G02*
X173897000Y-73063000I0J-100000D01*
G01*
X173897000Y-73263000D01*
G75*
G02*
X173797000Y-73363000I-100000J0D01*
G01*
X172522000Y-73363000D01*
G75*
G02*
X172422000Y-73263000I0J100000D01*
G01*
G37*
%TD.AperFunction*%
%TO.P,U2,3*%
%TO.N,SWIM_I_O*%
%TA.AperFunction,SMDPad,CuDef*%
G36*
G01*
X172422000Y-73913000D02*
X172422000Y-73713000D01*
G75*
G02*
X172522000Y-73613000I100000J0D01*
G01*
X173797000Y-73613000D01*
G75*
G02*
X173897000Y-73713000I0J-100000D01*
G01*
X173897000Y-73913000D01*
G75*
G02*
X173797000Y-74013000I-100000J0D01*
G01*
X172522000Y-74013000D01*
G75*
G02*
X172422000Y-73913000I0J100000D01*
G01*
G37*
%TD.AperFunction*%
%TO.P,U2,4*%
%TO.N,RESET*%
%TA.AperFunction,SMDPad,CuDef*%
G36*
G01*
X172422000Y-74563000D02*
X172422000Y-74363000D01*
G75*
G02*
X172522000Y-74263000I100000J0D01*
G01*
X173797000Y-74263000D01*
G75*
G02*
X173897000Y-74363000I0J-100000D01*
G01*
X173897000Y-74563000D01*
G75*
G02*
X173797000Y-74663000I-100000J0D01*
G01*
X172522000Y-74663000D01*
G75*
G02*
X172422000Y-74563000I0J100000D01*
G01*
G37*
%TD.AperFunction*%
%TO.P,U2,5*%
%TO.N,OSC_IN*%
%TA.AperFunction,SMDPad,CuDef*%
G36*
G01*
X172422000Y-75213000D02*
X172422000Y-75013000D01*
G75*
G02*
X172522000Y-74913000I100000J0D01*
G01*
X173797000Y-74913000D01*
G75*
G02*
X173897000Y-75013000I0J-100000D01*
G01*
X173897000Y-75213000D01*
G75*
G02*
X173797000Y-75313000I-100000J0D01*
G01*
X172522000Y-75313000D01*
G75*
G02*
X172422000Y-75213000I0J100000D01*
G01*
G37*
%TD.AperFunction*%
%TO.P,U2,6*%
%TO.N,OSC_OUT*%
%TA.AperFunction,SMDPad,CuDef*%
G36*
G01*
X172422000Y-75863000D02*
X172422000Y-75663000D01*
G75*
G02*
X172522000Y-75563000I100000J0D01*
G01*
X173797000Y-75563000D01*
G75*
G02*
X173897000Y-75663000I0J-100000D01*
G01*
X173897000Y-75863000D01*
G75*
G02*
X173797000Y-75963000I-100000J0D01*
G01*
X172522000Y-75963000D01*
G75*
G02*
X172422000Y-75863000I0J100000D01*
G01*
G37*
%TD.AperFunction*%
%TO.P,U2,7*%
%TO.N,GND*%
%TA.AperFunction,SMDPad,CuDef*%
G36*
G01*
X172422000Y-76513000D02*
X172422000Y-76313000D01*
G75*
G02*
X172522000Y-76213000I100000J0D01*
G01*
X173797000Y-76213000D01*
G75*
G02*
X173897000Y-76313000I0J-100000D01*
G01*
X173897000Y-76513000D01*
G75*
G02*
X173797000Y-76613000I-100000J0D01*
G01*
X172522000Y-76613000D01*
G75*
G02*
X172422000Y-76513000I0J100000D01*
G01*
G37*
%TD.AperFunction*%
%TO.P,U2,8*%
%TO.N,VDD*%
%TA.AperFunction,SMDPad,CuDef*%
G36*
G01*
X172422000Y-77163000D02*
X172422000Y-76963000D01*
G75*
G02*
X172522000Y-76863000I100000J0D01*
G01*
X173797000Y-76863000D01*
G75*
G02*
X173897000Y-76963000I0J-100000D01*
G01*
X173897000Y-77163000D01*
G75*
G02*
X173797000Y-77263000I-100000J0D01*
G01*
X172522000Y-77263000D01*
G75*
G02*
X172422000Y-77163000I0J100000D01*
G01*
G37*
%TD.AperFunction*%
%TO.P,U2,9*%
%TO.N,DCF_SIGNAL*%
%TA.AperFunction,SMDPad,CuDef*%
G36*
G01*
X172422000Y-77813000D02*
X172422000Y-77613000D01*
G75*
G02*
X172522000Y-77513000I100000J0D01*
G01*
X173797000Y-77513000D01*
G75*
G02*
X173897000Y-77613000I0J-100000D01*
G01*
X173897000Y-77813000D01*
G75*
G02*
X173797000Y-77913000I-100000J0D01*
G01*
X172522000Y-77913000D01*
G75*
G02*
X172422000Y-77813000I0J100000D01*
G01*
G37*
%TD.AperFunction*%
%TO.P,U2,10*%
%TO.N,Net-(U2-Pad10)*%
%TA.AperFunction,SMDPad,CuDef*%
G36*
G01*
X172422000Y-78463000D02*
X172422000Y-78263000D01*
G75*
G02*
X172522000Y-78163000I100000J0D01*
G01*
X173797000Y-78163000D01*
G75*
G02*
X173897000Y-78263000I0J-100000D01*
G01*
X173897000Y-78463000D01*
G75*
G02*
X173797000Y-78563000I-100000J0D01*
G01*
X172522000Y-78563000D01*
G75*
G02*
X172422000Y-78463000I0J100000D01*
G01*
G37*
%TD.AperFunction*%
%TO.P,U2,11*%
%TO.N,Net-(U2-Pad11)*%
%TA.AperFunction,SMDPad,CuDef*%
G36*
G01*
X178147000Y-78463000D02*
X178147000Y-78263000D01*
G75*
G02*
X178247000Y-78163000I100000J0D01*
G01*
X179522000Y-78163000D01*
G75*
G02*
X179622000Y-78263000I0J-100000D01*
G01*
X179622000Y-78463000D01*
G75*
G02*
X179522000Y-78563000I-100000J0D01*
G01*
X178247000Y-78563000D01*
G75*
G02*
X178147000Y-78463000I0J100000D01*
G01*
G37*
%TD.AperFunction*%
%TO.P,U2,12*%
%TO.N,Net-(U2-Pad12)*%
%TA.AperFunction,SMDPad,CuDef*%
G36*
G01*
X178147000Y-77813000D02*
X178147000Y-77613000D01*
G75*
G02*
X178247000Y-77513000I100000J0D01*
G01*
X179522000Y-77513000D01*
G75*
G02*
X179622000Y-77613000I0J-100000D01*
G01*
X179622000Y-77813000D01*
G75*
G02*
X179522000Y-77913000I-100000J0D01*
G01*
X178247000Y-77913000D01*
G75*
G02*
X178147000Y-77813000I0J100000D01*
G01*
G37*
%TD.AperFunction*%
%TO.P,U2,13*%
%TO.N,Net-(U2-Pad13)*%
%TA.AperFunction,SMDPad,CuDef*%
G36*
G01*
X178147000Y-77163000D02*
X178147000Y-76963000D01*
G75*
G02*
X178247000Y-76863000I100000J0D01*
G01*
X179522000Y-76863000D01*
G75*
G02*
X179622000Y-76963000I0J-100000D01*
G01*
X179622000Y-77163000D01*
G75*
G02*
X179522000Y-77263000I-100000J0D01*
G01*
X178247000Y-77263000D01*
G75*
G02*
X178147000Y-77163000I0J100000D01*
G01*
G37*
%TD.AperFunction*%
%TO.P,U2,14*%
%TO.N,Net-(U2-Pad14)*%
%TA.AperFunction,SMDPad,CuDef*%
G36*
G01*
X178147000Y-76513000D02*
X178147000Y-76313000D01*
G75*
G02*
X178247000Y-76213000I100000J0D01*
G01*
X179522000Y-76213000D01*
G75*
G02*
X179622000Y-76313000I0J-100000D01*
G01*
X179622000Y-76513000D01*
G75*
G02*
X179522000Y-76613000I-100000J0D01*
G01*
X178247000Y-76613000D01*
G75*
G02*
X178147000Y-76513000I0J100000D01*
G01*
G37*
%TD.AperFunction*%
%TO.P,U2,15*%
%TO.N,Net-(U2-Pad15)*%
%TA.AperFunction,SMDPad,CuDef*%
G36*
G01*
X178147000Y-75863000D02*
X178147000Y-75663000D01*
G75*
G02*
X178247000Y-75563000I100000J0D01*
G01*
X179522000Y-75563000D01*
G75*
G02*
X179622000Y-75663000I0J-100000D01*
G01*
X179622000Y-75863000D01*
G75*
G02*
X179522000Y-75963000I-100000J0D01*
G01*
X178247000Y-75963000D01*
G75*
G02*
X178147000Y-75863000I0J100000D01*
G01*
G37*
%TD.AperFunction*%
%TO.P,U2,16*%
%TO.N,Net-(U2-Pad16)*%
%TA.AperFunction,SMDPad,CuDef*%
G36*
G01*
X178147000Y-75213000D02*
X178147000Y-75013000D01*
G75*
G02*
X178247000Y-74913000I100000J0D01*
G01*
X179522000Y-74913000D01*
G75*
G02*
X179622000Y-75013000I0J-100000D01*
G01*
X179622000Y-75213000D01*
G75*
G02*
X179522000Y-75313000I-100000J0D01*
G01*
X178247000Y-75313000D01*
G75*
G02*
X178147000Y-75213000I0J100000D01*
G01*
G37*
%TD.AperFunction*%
%TO.P,U2,17*%
%TO.N,Test_LED*%
%TA.AperFunction,SMDPad,CuDef*%
G36*
G01*
X178147000Y-74563000D02*
X178147000Y-74363000D01*
G75*
G02*
X178247000Y-74263000I100000J0D01*
G01*
X179522000Y-74263000D01*
G75*
G02*
X179622000Y-74363000I0J-100000D01*
G01*
X179622000Y-74563000D01*
G75*
G02*
X179522000Y-74663000I-100000J0D01*
G01*
X178247000Y-74663000D01*
G75*
G02*
X178147000Y-74563000I0J100000D01*
G01*
G37*
%TD.AperFunction*%
%TO.P,U2,18*%
%TO.N,LED_DISPLAY_CLK*%
%TA.AperFunction,SMDPad,CuDef*%
G36*
G01*
X178147000Y-73913000D02*
X178147000Y-73713000D01*
G75*
G02*
X178247000Y-73613000I100000J0D01*
G01*
X179522000Y-73613000D01*
G75*
G02*
X179622000Y-73713000I0J-100000D01*
G01*
X179622000Y-73913000D01*
G75*
G02*
X179522000Y-74013000I-100000J0D01*
G01*
X178247000Y-74013000D01*
G75*
G02*
X178147000Y-73913000I0J100000D01*
G01*
G37*
%TD.AperFunction*%
%TO.P,U2,19*%
%TO.N,LED_DISPLAY_DATA*%
%TA.AperFunction,SMDPad,CuDef*%
G36*
G01*
X178147000Y-73263000D02*
X178147000Y-73063000D01*
G75*
G02*
X178247000Y-72963000I100000J0D01*
G01*
X179522000Y-72963000D01*
G75*
G02*
X179622000Y-73063000I0J-100000D01*
G01*
X179622000Y-73263000D01*
G75*
G02*
X179522000Y-73363000I-100000J0D01*
G01*
X178247000Y-73363000D01*
G75*
G02*
X178147000Y-73263000I0J100000D01*
G01*
G37*
%TD.AperFunction*%
%TO.P,U2,20*%
%TO.N,Net-(U2-Pad20)*%
%TA.AperFunction,SMDPad,CuDef*%
G36*
G01*
X178147000Y-72613000D02*
X178147000Y-72413000D01*
G75*
G02*
X178247000Y-72313000I100000J0D01*
G01*
X179522000Y-72313000D01*
G75*
G02*
X179622000Y-72413000I0J-100000D01*
G01*
X179622000Y-72613000D01*
G75*
G02*
X179522000Y-72713000I-100000J0D01*
G01*
X178247000Y-72713000D01*
G75*
G02*
X178147000Y-72613000I0J100000D01*
G01*
G37*
%TD.AperFunction*%
%TD*%
%TO.P,U8,2*%
%TO.N,+5V*%
X184912000Y-104648000D03*
%TO.P,U8,3*%
%TO.N,VCC*%
X186182000Y-105918000D03*
D21*
%TO.P,U8,1*%
%TO.N,GND*%
X183642000Y-105918000D03*
%TD*%
D23*
%TO.P,Y1,1*%
%TO.N,OSC_OUT*%
X163322000Y-66548000D03*
%TO.P,Y1,2*%
%TO.N,OSC_IN*%
X168202000Y-66548000D03*
%TD*%
D14*
%TO.P,C3,1*%
%TO.N,GND*%
X168402000Y-74168000D03*
%TO.P,C3,2*%
%TO.N,VDD*%
X168402000Y-79168000D03*
%TD*%
%TO.P,C4,2*%
%TO.N,VDD*%
X162052000Y-79168000D03*
%TO.P,C4,1*%
%TO.N,GND*%
X162052000Y-74168000D03*
%TD*%
%TO.P,C7,1*%
%TO.N,OSC_IN*%
X155067000Y-63373000D03*
%TO.P,C7,2*%
%TO.N,GND*%
X150067000Y-63373000D03*
%TD*%
%TO.P,C8,2*%
%TO.N,OSC_OUT*%
X154987000Y-68453000D03*
%TO.P,C8,1*%
%TO.N,GND*%
X149987000Y-68453000D03*
%TD*%
D24*
%TO.N,GND*%
X171704000Y-76454000D03*
%TO.N,+5V*%
X192024000Y-55626000D03*
X193707001Y-104996999D03*
%TO.N,DCF_SIGNAL*%
X171450000Y-77978000D03*
X180086000Y-71120000D03*
%TO.N,SWIM_I_O*%
X171704000Y-72644000D03*
%TD*%
D25*
%TO.N,Net-(BT1-Pad1)*%
X143002000Y-94488000D02*
X136652000Y-100838000D01*
X143002000Y-86868000D02*
X143002000Y-94488000D01*
%TO.N,GND*%
X171745000Y-76413000D02*
X171704000Y-76454000D01*
X173159500Y-76413000D02*
X171745000Y-76413000D01*
%TO.N,VCC*%
X141452000Y-100838000D02*
X144272000Y-100838000D01*
X144272000Y-100838000D02*
X153162000Y-109728000D01*
X154432000Y-109728000D02*
X158242000Y-105918000D01*
X153162000Y-109728000D02*
X154432000Y-109728000D01*
X154432000Y-112268000D02*
X158242000Y-116078000D01*
X154432000Y-109728000D02*
X154432000Y-112268000D01*
X182372000Y-109728000D02*
X186182000Y-105918000D01*
X154432000Y-109728000D02*
X182372000Y-109728000D01*
X186182000Y-95758000D02*
X182372000Y-99568000D01*
X182372000Y-99568000D02*
X182372000Y-109728000D01*
%TO.N,VDD*%
X156972000Y-97028000D02*
X156972000Y-104648000D01*
X162052000Y-91948000D02*
X162052000Y-79168000D01*
X156972000Y-97028000D02*
X162052000Y-91948000D01*
X162052000Y-79168000D02*
X168402000Y-79168000D01*
X168402000Y-79168000D02*
X170579499Y-76990501D01*
X171355999Y-77179001D02*
X172052001Y-77179001D01*
X171167499Y-76990501D02*
X171355999Y-77179001D01*
X170579499Y-76990501D02*
X171167499Y-76990501D01*
X172168002Y-77063000D02*
X173159500Y-77063000D01*
X172052001Y-77179001D02*
X172168002Y-77063000D01*
X154116998Y-57658000D02*
X155702000Y-57658000D01*
X146558000Y-65216998D02*
X154116998Y-57658000D01*
X146558000Y-72390000D02*
X146558000Y-65216998D01*
X153336000Y-79168000D02*
X146558000Y-72390000D01*
X162052000Y-79168000D02*
X153336000Y-79168000D01*
X192532000Y-67818000D02*
X187452000Y-72898000D01*
X181182000Y-79168000D02*
X168402000Y-79168000D01*
X187452000Y-72898000D02*
X181182000Y-79168000D01*
%TO.N,+5V*%
X187157001Y-105449999D02*
X187157001Y-115102999D01*
X187157001Y-115102999D02*
X186182000Y-116078000D01*
X186355002Y-104648000D02*
X187157001Y-105449999D01*
X184912000Y-104648000D02*
X186355002Y-104648000D01*
X172212000Y-57658000D02*
X174244000Y-55626000D01*
X174244000Y-55626000D02*
X192024000Y-55626000D01*
X192024000Y-55626000D02*
X192024000Y-55626000D01*
X193358002Y-104648000D02*
X184912000Y-104648000D01*
X193707001Y-104996999D02*
X193358002Y-104648000D01*
%TO.N,Net-(D1-Pad2)*%
X171577000Y-87503000D02*
X168402000Y-84328000D01*
X183642000Y-87503000D02*
X171577000Y-87503000D01*
%TO.N,DCF_SIGNAL*%
X192532000Y-65278000D02*
X187452000Y-60198000D01*
X187452000Y-60198000D02*
X187452000Y-63754000D01*
X187452000Y-63754000D02*
X180086000Y-71120000D01*
X180086000Y-71120000D02*
X180086000Y-71120000D01*
X171715000Y-77713000D02*
X173159500Y-77713000D01*
X171450000Y-77978000D02*
X171715000Y-77713000D01*
%TO.N,SWIM_I_O*%
X172470942Y-73813000D02*
X171704000Y-73046058D01*
X173159500Y-73813000D02*
X172470942Y-73813000D01*
X171704000Y-73046058D02*
X171704000Y-72644000D01*
X171704000Y-72644000D02*
X171704000Y-72629942D01*
%TO.N,RESET*%
X168656000Y-70661648D02*
X172457352Y-74463000D01*
X168656000Y-67818000D02*
X168656000Y-70661648D01*
X172457352Y-74463000D02*
X173159500Y-74463000D01*
X169277001Y-67196999D02*
X168656000Y-67818000D01*
X169277001Y-63613001D02*
X169277001Y-67196999D01*
X163322000Y-57658000D02*
X169277001Y-63613001D01*
%TO.N,LED_DISPLAY_CLK*%
X178195942Y-73813000D02*
X178884500Y-73813000D01*
X177292000Y-72909058D02*
X178195942Y-73813000D01*
X177292000Y-57658000D02*
X177292000Y-72909058D01*
%TO.N,LED_DISPLAY_DATA*%
X177856001Y-56482999D02*
X175927001Y-56482999D01*
X178467001Y-57093999D02*
X177856001Y-56482999D01*
X178467001Y-58222001D02*
X178467001Y-57093999D01*
X177800000Y-58889002D02*
X178467001Y-58222001D01*
X175927001Y-56482999D02*
X174752000Y-57658000D01*
X177800000Y-72767058D02*
X177800000Y-58889002D01*
X178195942Y-73163000D02*
X177800000Y-72767058D01*
X178884500Y-73163000D02*
X178195942Y-73163000D01*
%TO.N,Test_LED*%
X183426990Y-74587990D02*
X183642000Y-74803000D01*
X178981990Y-74587990D02*
X183426990Y-74587990D01*
X178884500Y-74490500D02*
X178981990Y-74587990D01*
X178884500Y-74463000D02*
X178884500Y-74490500D01*
%TO.N,OSC_IN*%
X165027000Y-63373000D02*
X168202000Y-66548000D01*
X172470942Y-75113000D02*
X173159500Y-75113000D01*
X168202000Y-70844058D02*
X172470942Y-75113000D01*
X168202000Y-66548000D02*
X168202000Y-70844058D01*
X155067000Y-63373000D02*
X165027000Y-63373000D01*
%TO.N,OSC_OUT*%
X161417000Y-68453000D02*
X163322000Y-66548000D01*
X154987000Y-68453000D02*
X161417000Y-68453000D01*
X172283000Y-75763000D02*
X173159500Y-75763000D01*
X163322000Y-66802000D02*
X172283000Y-75763000D01*
X163322000Y-66548000D02*
X163322000Y-66802000D01*
%TD*%
D26*
%TO.N,VDD*%
X198222001Y-124689000D02*
X84480000Y-124689000D01*
X84480000Y-99937998D01*
X134863928Y-99937998D01*
X134863928Y-101738002D01*
X134880992Y-101911256D01*
X134931528Y-102077852D01*
X135013595Y-102231387D01*
X135124038Y-102365962D01*
X135258613Y-102476405D01*
X135412148Y-102558472D01*
X135578744Y-102609008D01*
X135751998Y-102626072D01*
X137552002Y-102626072D01*
X137725256Y-102609008D01*
X137891852Y-102558472D01*
X138045387Y-102476405D01*
X138179962Y-102365962D01*
X138290405Y-102231387D01*
X138372472Y-102077852D01*
X138423008Y-101911256D01*
X138440072Y-101738002D01*
X138440072Y-100662193D01*
X139667000Y-100662193D01*
X139667000Y-101013807D01*
X139735596Y-101358665D01*
X139870153Y-101683515D01*
X140065500Y-101975871D01*
X140314129Y-102224500D01*
X140606485Y-102419847D01*
X140931335Y-102554404D01*
X141276193Y-102623000D01*
X141627807Y-102623000D01*
X141972665Y-102554404D01*
X142297515Y-102419847D01*
X142589871Y-102224500D01*
X142838500Y-101975871D01*
X143033847Y-101683515D01*
X143069268Y-101598000D01*
X143957199Y-101598000D01*
X152598201Y-110239003D01*
X152621999Y-110268001D01*
X152650997Y-110291799D01*
X152737724Y-110362974D01*
X152869753Y-110433546D01*
X153013014Y-110477003D01*
X153162000Y-110491677D01*
X153199333Y-110488000D01*
X153672000Y-110488000D01*
X153672001Y-112230668D01*
X153668324Y-112268000D01*
X153682998Y-112416985D01*
X153726454Y-112560246D01*
X153797026Y-112692276D01*
X153868201Y-112779002D01*
X153892000Y-112808001D01*
X153920998Y-112831799D01*
X155732199Y-114643000D01*
X155600665Y-114643000D01*
X155323426Y-114698147D01*
X155062273Y-114806320D01*
X154827241Y-114963363D01*
X154627363Y-115163241D01*
X154470320Y-115398273D01*
X154362147Y-115659426D01*
X154307000Y-115936665D01*
X154307000Y-116219335D01*
X154362147Y-116496574D01*
X154470320Y-116757727D01*
X154627363Y-116992759D01*
X154827241Y-117192637D01*
X155062273Y-117349680D01*
X155323426Y-117457853D01*
X155600665Y-117513000D01*
X155883335Y-117513000D01*
X156160574Y-117457853D01*
X156421727Y-117349680D01*
X156656759Y-117192637D01*
X156823339Y-117026057D01*
X156852498Y-117122180D01*
X156911463Y-117232494D01*
X156990815Y-117329185D01*
X157087506Y-117408537D01*
X157197820Y-117467502D01*
X157317518Y-117503812D01*
X157442000Y-117516072D01*
X159042000Y-117516072D01*
X159166482Y-117503812D01*
X159286180Y-117467502D01*
X159396494Y-117408537D01*
X159493185Y-117329185D01*
X159572537Y-117232494D01*
X159631502Y-117122180D01*
X159667812Y-117002482D01*
X159680072Y-116878000D01*
X159680072Y-115278000D01*
X159667812Y-115153518D01*
X159631502Y-115033820D01*
X159572537Y-114923506D01*
X159493185Y-114826815D01*
X159396494Y-114747463D01*
X159286180Y-114688498D01*
X159166482Y-114652188D01*
X159042000Y-114639928D01*
X157878730Y-114639928D01*
X155192000Y-111953199D01*
X155192000Y-110488000D01*
X182334667Y-110488000D01*
X182372000Y-110491677D01*
X182520986Y-110477003D01*
X182664247Y-110433546D01*
X182796276Y-110362974D01*
X182912001Y-110268001D01*
X182935804Y-110238997D01*
X185985678Y-107189124D01*
X186055439Y-107203000D01*
X186308561Y-107203000D01*
X186397001Y-107185409D01*
X186397002Y-114639928D01*
X185382000Y-114639928D01*
X185257518Y-114652188D01*
X185137820Y-114688498D01*
X185027506Y-114747463D01*
X184930815Y-114826815D01*
X184851463Y-114923506D01*
X184792498Y-115033820D01*
X184763339Y-115129943D01*
X184596759Y-114963363D01*
X184361727Y-114806320D01*
X184100574Y-114698147D01*
X183823335Y-114643000D01*
X183540665Y-114643000D01*
X183263426Y-114698147D01*
X183002273Y-114806320D01*
X182767241Y-114963363D01*
X182567363Y-115163241D01*
X182410320Y-115398273D01*
X182302147Y-115659426D01*
X182247000Y-115936665D01*
X182247000Y-116219335D01*
X182302147Y-116496574D01*
X182410320Y-116757727D01*
X182567363Y-116992759D01*
X182767241Y-117192637D01*
X183002273Y-117349680D01*
X183263426Y-117457853D01*
X183540665Y-117513000D01*
X183823335Y-117513000D01*
X184100574Y-117457853D01*
X184361727Y-117349680D01*
X184596759Y-117192637D01*
X184763339Y-117026057D01*
X184792498Y-117122180D01*
X184851463Y-117232494D01*
X184930815Y-117329185D01*
X185027506Y-117408537D01*
X185137820Y-117467502D01*
X185257518Y-117503812D01*
X185382000Y-117516072D01*
X186982000Y-117516072D01*
X187106482Y-117503812D01*
X187226180Y-117467502D01*
X187336494Y-117408537D01*
X187433185Y-117329185D01*
X187512537Y-117232494D01*
X187571502Y-117122180D01*
X187607812Y-117002482D01*
X187620072Y-116878000D01*
X187620072Y-115714730D01*
X187668004Y-115666798D01*
X187697002Y-115643000D01*
X187791975Y-115527275D01*
X187862547Y-115395246D01*
X187906004Y-115251985D01*
X187917001Y-115140332D01*
X187917001Y-115140324D01*
X187920677Y-115102999D01*
X187917001Y-115065674D01*
X187917001Y-105487322D01*
X187920677Y-105449999D01*
X187917001Y-105412676D01*
X187917001Y-105412666D01*
X187916541Y-105408000D01*
X192756967Y-105408000D01*
X192789796Y-105487255D01*
X192903064Y-105656773D01*
X193047227Y-105800936D01*
X193216745Y-105914204D01*
X193405103Y-105992225D01*
X193605062Y-106031999D01*
X193808940Y-106031999D01*
X194008899Y-105992225D01*
X194197257Y-105914204D01*
X194366775Y-105800936D01*
X194510938Y-105656773D01*
X194624206Y-105487255D01*
X194702227Y-105298897D01*
X194742001Y-105098938D01*
X194742001Y-104895060D01*
X194702227Y-104695101D01*
X194624206Y-104506743D01*
X194510938Y-104337225D01*
X194366775Y-104193062D01*
X194197257Y-104079794D01*
X194008899Y-104001773D01*
X193808940Y-103961999D01*
X193686815Y-103961999D01*
X193650249Y-103942454D01*
X193506988Y-103898997D01*
X193395335Y-103888000D01*
X193395324Y-103888000D01*
X193358002Y-103884324D01*
X193320680Y-103888000D01*
X186392324Y-103888000D01*
X186355002Y-103884324D01*
X186317680Y-103888000D01*
X185949641Y-103888000D01*
X185910125Y-103828860D01*
X185731140Y-103649875D01*
X185520676Y-103509247D01*
X185286821Y-103412381D01*
X185038561Y-103363000D01*
X184785439Y-103363000D01*
X184537179Y-103412381D01*
X184303324Y-103509247D01*
X184092860Y-103649875D01*
X183913875Y-103828860D01*
X183773247Y-104039324D01*
X183676381Y-104273179D01*
X183627000Y-104521439D01*
X183627000Y-104629928D01*
X183132000Y-104629928D01*
X183132000Y-99882801D01*
X185818730Y-97196072D01*
X186982000Y-97196072D01*
X187106482Y-97183812D01*
X187226180Y-97147502D01*
X187336494Y-97088537D01*
X187433185Y-97009185D01*
X187512537Y-96912494D01*
X187571502Y-96802180D01*
X187607812Y-96682482D01*
X187620072Y-96558000D01*
X187620072Y-94958000D01*
X187607812Y-94833518D01*
X187571502Y-94713820D01*
X187512537Y-94603506D01*
X187433185Y-94506815D01*
X187336494Y-94427463D01*
X187226180Y-94368498D01*
X187106482Y-94332188D01*
X186982000Y-94319928D01*
X185382000Y-94319928D01*
X185257518Y-94332188D01*
X185137820Y-94368498D01*
X185027506Y-94427463D01*
X184930815Y-94506815D01*
X184851463Y-94603506D01*
X184792498Y-94713820D01*
X184763339Y-94809943D01*
X184596759Y-94643363D01*
X184361727Y-94486320D01*
X184100574Y-94378147D01*
X183823335Y-94323000D01*
X183540665Y-94323000D01*
X183263426Y-94378147D01*
X183002273Y-94486320D01*
X182767241Y-94643363D01*
X182567363Y-94843241D01*
X182410320Y-95078273D01*
X182302147Y-95339426D01*
X182247000Y-95616665D01*
X182247000Y-95899335D01*
X182302147Y-96176574D01*
X182410320Y-96437727D01*
X182567363Y-96672759D01*
X182767241Y-96872637D01*
X183002273Y-97029680D01*
X183263426Y-97137853D01*
X183540665Y-97193000D01*
X183672199Y-97193000D01*
X181861003Y-99004196D01*
X181831999Y-99027999D01*
X181799999Y-99066992D01*
X181737026Y-99143724D01*
X181707162Y-99199595D01*
X181666454Y-99275754D01*
X181622997Y-99419015D01*
X181612000Y-99530668D01*
X181612000Y-99530678D01*
X181608324Y-99568000D01*
X181612000Y-99605322D01*
X181612001Y-108968000D01*
X156266801Y-108968000D01*
X158045678Y-107189124D01*
X158115439Y-107203000D01*
X158368561Y-107203000D01*
X158616821Y-107153619D01*
X158850676Y-107056753D01*
X159061140Y-106916125D01*
X159240125Y-106737140D01*
X159380753Y-106526676D01*
X159477619Y-106292821D01*
X159527000Y-106044561D01*
X159527000Y-105791439D01*
X159477619Y-105543179D01*
X159380753Y-105309324D01*
X159240125Y-105098860D01*
X159061140Y-104919875D01*
X158850676Y-104779247D01*
X158616821Y-104682381D01*
X158368561Y-104633000D01*
X158258559Y-104633000D01*
X158260952Y-104571545D01*
X158221270Y-104321551D01*
X158133578Y-104084104D01*
X158086201Y-103995466D01*
X157857527Y-103942078D01*
X157151605Y-104648000D01*
X157165748Y-104662143D01*
X156986143Y-104841748D01*
X156972000Y-104827605D01*
X156957858Y-104841748D01*
X156778253Y-104662143D01*
X156792395Y-104648000D01*
X156086473Y-103942078D01*
X155857799Y-103995466D01*
X155751905Y-104225374D01*
X155692898Y-104471524D01*
X155686729Y-104629928D01*
X155052000Y-104629928D01*
X154927518Y-104642188D01*
X154807820Y-104678498D01*
X154697506Y-104737463D01*
X154600815Y-104816815D01*
X154521463Y-104913506D01*
X154462498Y-105023820D01*
X154426188Y-105143518D01*
X154413928Y-105268000D01*
X154413928Y-106568000D01*
X154426188Y-106692482D01*
X154462498Y-106812180D01*
X154521463Y-106922494D01*
X154600815Y-107019185D01*
X154697506Y-107098537D01*
X154807820Y-107157502D01*
X154927518Y-107193812D01*
X155052000Y-107206072D01*
X155879126Y-107206072D01*
X154117199Y-108968000D01*
X153476802Y-108968000D01*
X148271275Y-103762473D01*
X156266078Y-103762473D01*
X156972000Y-104468395D01*
X157677922Y-103762473D01*
X157624534Y-103533799D01*
X157394626Y-103427905D01*
X157148476Y-103368898D01*
X156895545Y-103359048D01*
X156645551Y-103398730D01*
X156408104Y-103486422D01*
X156319466Y-103533799D01*
X156266078Y-103762473D01*
X148271275Y-103762473D01*
X144835804Y-100327003D01*
X144812001Y-100297999D01*
X144696276Y-100203026D01*
X144564247Y-100132454D01*
X144420986Y-100088997D01*
X144309333Y-100078000D01*
X144309322Y-100078000D01*
X144272000Y-100074324D01*
X144234678Y-100078000D01*
X143069268Y-100078000D01*
X143033847Y-99992485D01*
X142838500Y-99700129D01*
X142589871Y-99451500D01*
X142297515Y-99256153D01*
X141972665Y-99121596D01*
X141627807Y-99053000D01*
X141276193Y-99053000D01*
X140931335Y-99121596D01*
X140606485Y-99256153D01*
X140314129Y-99451500D01*
X140065500Y-99700129D01*
X139870153Y-99992485D01*
X139735596Y-100317335D01*
X139667000Y-100662193D01*
X138440072Y-100662193D01*
X138440072Y-100124729D01*
X140736801Y-97828000D01*
X155533928Y-97828000D01*
X155546188Y-97952482D01*
X155582498Y-98072180D01*
X155641463Y-98182494D01*
X155720815Y-98279185D01*
X155817506Y-98358537D01*
X155927820Y-98417502D01*
X156047518Y-98453812D01*
X156172000Y-98466072D01*
X156686250Y-98463000D01*
X156845000Y-98304250D01*
X156845000Y-97155000D01*
X157099000Y-97155000D01*
X157099000Y-98304250D01*
X157257750Y-98463000D01*
X157772000Y-98466072D01*
X157896482Y-98453812D01*
X158016180Y-98417502D01*
X158126494Y-98358537D01*
X158223185Y-98279185D01*
X158302537Y-98182494D01*
X158361502Y-98072180D01*
X158397812Y-97952482D01*
X158410072Y-97828000D01*
X158407000Y-97313750D01*
X158248250Y-97155000D01*
X157099000Y-97155000D01*
X156845000Y-97155000D01*
X155695750Y-97155000D01*
X155537000Y-97313750D01*
X155533928Y-97828000D01*
X140736801Y-97828000D01*
X142336801Y-96228000D01*
X155533928Y-96228000D01*
X155537000Y-96742250D01*
X155695750Y-96901000D01*
X156845000Y-96901000D01*
X156845000Y-96881000D01*
X157099000Y-96881000D01*
X157099000Y-96901000D01*
X158248250Y-96901000D01*
X158407000Y-96742250D01*
X158410072Y-96228000D01*
X158397812Y-96103518D01*
X158361502Y-95983820D01*
X158302537Y-95873506D01*
X158223185Y-95776815D01*
X158126494Y-95697463D01*
X158016180Y-95638498D01*
X157920057Y-95609339D01*
X158086637Y-95442759D01*
X158243680Y-95207727D01*
X158351853Y-94946574D01*
X158407000Y-94669335D01*
X158407000Y-94386665D01*
X158351853Y-94109426D01*
X158243680Y-93848273D01*
X158086637Y-93613241D01*
X157886759Y-93413363D01*
X157651727Y-93256320D01*
X157390574Y-93148147D01*
X157113335Y-93093000D01*
X156830665Y-93093000D01*
X156553426Y-93148147D01*
X156292273Y-93256320D01*
X156057241Y-93413363D01*
X155857363Y-93613241D01*
X155700320Y-93848273D01*
X155592147Y-94109426D01*
X155537000Y-94386665D01*
X155537000Y-94669335D01*
X155592147Y-94946574D01*
X155700320Y-95207727D01*
X155857363Y-95442759D01*
X156023943Y-95609339D01*
X155927820Y-95638498D01*
X155817506Y-95697463D01*
X155720815Y-95776815D01*
X155641463Y-95873506D01*
X155582498Y-95983820D01*
X155546188Y-96103518D01*
X155533928Y-96228000D01*
X142336801Y-96228000D01*
X143513003Y-95051799D01*
X143542001Y-95028001D01*
X143569639Y-94994324D01*
X143636974Y-94912277D01*
X143707546Y-94780247D01*
X143741190Y-94669335D01*
X143751003Y-94636986D01*
X143762000Y-94525333D01*
X143762000Y-94525324D01*
X143765676Y-94488001D01*
X143762000Y-94450678D01*
X143762000Y-89516072D01*
X144207000Y-89516072D01*
X144331482Y-89503812D01*
X144451180Y-89467502D01*
X144561494Y-89408537D01*
X144658185Y-89329185D01*
X144737537Y-89232494D01*
X144796502Y-89122180D01*
X144832812Y-89002482D01*
X144845072Y-88878000D01*
X144845072Y-84858000D01*
X144832812Y-84733518D01*
X144796502Y-84613820D01*
X144737537Y-84503506D01*
X144658185Y-84406815D01*
X144561494Y-84327463D01*
X144451180Y-84268498D01*
X144331482Y-84232188D01*
X144207000Y-84219928D01*
X141797000Y-84219928D01*
X141672518Y-84232188D01*
X141552820Y-84268498D01*
X141442506Y-84327463D01*
X141345815Y-84406815D01*
X141266463Y-84503506D01*
X141207498Y-84613820D01*
X141171188Y-84733518D01*
X141158928Y-84858000D01*
X141158928Y-88878000D01*
X141171188Y-89002482D01*
X141207498Y-89122180D01*
X141266463Y-89232494D01*
X141345815Y-89329185D01*
X141442506Y-89408537D01*
X141552820Y-89467502D01*
X141672518Y-89503812D01*
X141797000Y-89516072D01*
X142242000Y-89516072D01*
X142242001Y-94173197D01*
X137365271Y-99049928D01*
X135751998Y-99049928D01*
X135578744Y-99066992D01*
X135412148Y-99117528D01*
X135258613Y-99199595D01*
X135124038Y-99310038D01*
X135013595Y-99444613D01*
X134931528Y-99598148D01*
X134880992Y-99764744D01*
X134863928Y-99937998D01*
X84480000Y-99937998D01*
X84480000Y-91422193D01*
X115437000Y-91422193D01*
X115437000Y-91773807D01*
X115505596Y-92118665D01*
X115640153Y-92443515D01*
X115835500Y-92735871D01*
X116084129Y-92984500D01*
X116376485Y-93179847D01*
X116701335Y-93314404D01*
X117046193Y-93383000D01*
X117397807Y-93383000D01*
X117742665Y-93314404D01*
X118067515Y-93179847D01*
X118359871Y-92984500D01*
X118608500Y-92735871D01*
X118803847Y-92443515D01*
X118938404Y-92118665D01*
X119007000Y-91773807D01*
X119007000Y-91422193D01*
X118938404Y-91077335D01*
X118803847Y-90752485D01*
X118608500Y-90460129D01*
X118359871Y-90211500D01*
X118067515Y-90016153D01*
X117742665Y-89881596D01*
X117397807Y-89813000D01*
X117046193Y-89813000D01*
X116701335Y-89881596D01*
X116376485Y-90016153D01*
X116084129Y-90211500D01*
X115835500Y-90460129D01*
X115640153Y-90752485D01*
X115505596Y-91077335D01*
X115437000Y-91422193D01*
X84480000Y-91422193D01*
X84480000Y-84176816D01*
X166867000Y-84176816D01*
X166867000Y-84479184D01*
X166925989Y-84775743D01*
X167041701Y-85055095D01*
X167209688Y-85306505D01*
X167423495Y-85520312D01*
X167674905Y-85688299D01*
X167954257Y-85804011D01*
X168250816Y-85863000D01*
X168553184Y-85863000D01*
X168810930Y-85811731D01*
X171013201Y-88014003D01*
X171036999Y-88043001D01*
X171065997Y-88066799D01*
X171152723Y-88137974D01*
X171284753Y-88208546D01*
X171428014Y-88252003D01*
X171539667Y-88263000D01*
X171539676Y-88263000D01*
X171576999Y-88266676D01*
X171614322Y-88263000D01*
X182423957Y-88263000D01*
X182527363Y-88417759D01*
X182727241Y-88617637D01*
X182962273Y-88774680D01*
X183223426Y-88882853D01*
X183500665Y-88938000D01*
X183783335Y-88938000D01*
X184060574Y-88882853D01*
X184321727Y-88774680D01*
X184556759Y-88617637D01*
X184756637Y-88417759D01*
X184913680Y-88182727D01*
X185021853Y-87921574D01*
X185077000Y-87644335D01*
X185077000Y-87361665D01*
X185021853Y-87084426D01*
X184913680Y-86823273D01*
X184756637Y-86588241D01*
X184556759Y-86388363D01*
X184321727Y-86231320D01*
X184060574Y-86123147D01*
X183783335Y-86068000D01*
X183500665Y-86068000D01*
X183223426Y-86123147D01*
X182962273Y-86231320D01*
X182727241Y-86388363D01*
X182527363Y-86588241D01*
X182423957Y-86743000D01*
X171891802Y-86743000D01*
X171014874Y-85866072D01*
X171842000Y-85866072D01*
X171966482Y-85853812D01*
X172086180Y-85817502D01*
X172196494Y-85758537D01*
X172293185Y-85679185D01*
X172372537Y-85582494D01*
X172431502Y-85472180D01*
X172467812Y-85352482D01*
X172480072Y-85228000D01*
X172480072Y-83428000D01*
X172467812Y-83303518D01*
X172431502Y-83183820D01*
X172372537Y-83073506D01*
X172293185Y-82976815D01*
X172196494Y-82897463D01*
X172086180Y-82838498D01*
X171966482Y-82802188D01*
X171842000Y-82789928D01*
X170042000Y-82789928D01*
X169917518Y-82802188D01*
X169797820Y-82838498D01*
X169687506Y-82897463D01*
X169590815Y-82976815D01*
X169511463Y-83073506D01*
X169452498Y-83183820D01*
X169446944Y-83202127D01*
X169380505Y-83135688D01*
X169129095Y-82967701D01*
X168849743Y-82851989D01*
X168553184Y-82793000D01*
X168250816Y-82793000D01*
X167954257Y-82851989D01*
X167674905Y-82967701D01*
X167423495Y-83135688D01*
X167209688Y-83349495D01*
X167041701Y-83600905D01*
X166925989Y-83880257D01*
X166867000Y-84176816D01*
X84480000Y-84176816D01*
X84480000Y-80160702D01*
X161238903Y-80160702D01*
X161310486Y-80404671D01*
X161565996Y-80525571D01*
X161840184Y-80594300D01*
X162122512Y-80608217D01*
X162402130Y-80566787D01*
X162668292Y-80471603D01*
X162793514Y-80404671D01*
X162865097Y-80160702D01*
X167588903Y-80160702D01*
X167660486Y-80404671D01*
X167915996Y-80525571D01*
X168190184Y-80594300D01*
X168472512Y-80608217D01*
X168752130Y-80566787D01*
X169018292Y-80471603D01*
X169143514Y-80404671D01*
X169215097Y-80160702D01*
X168402000Y-79347605D01*
X167588903Y-80160702D01*
X162865097Y-80160702D01*
X162052000Y-79347605D01*
X161238903Y-80160702D01*
X84480000Y-80160702D01*
X84480000Y-79238512D01*
X160611783Y-79238512D01*
X160653213Y-79518130D01*
X160748397Y-79784292D01*
X160815329Y-79909514D01*
X161059298Y-79981097D01*
X161872395Y-79168000D01*
X162231605Y-79168000D01*
X163044702Y-79981097D01*
X163288671Y-79909514D01*
X163409571Y-79654004D01*
X163478300Y-79379816D01*
X163485265Y-79238512D01*
X166961783Y-79238512D01*
X167003213Y-79518130D01*
X167098397Y-79784292D01*
X167165329Y-79909514D01*
X167409298Y-79981097D01*
X168222395Y-79168000D01*
X168581605Y-79168000D01*
X169394702Y-79981097D01*
X169638671Y-79909514D01*
X169759571Y-79654004D01*
X169828300Y-79379816D01*
X169842217Y-79097488D01*
X169800787Y-78817870D01*
X169705603Y-78551708D01*
X169638671Y-78426486D01*
X169394702Y-78354903D01*
X168581605Y-79168000D01*
X168222395Y-79168000D01*
X167409298Y-78354903D01*
X167165329Y-78426486D01*
X167044429Y-78681996D01*
X166975700Y-78956184D01*
X166961783Y-79238512D01*
X163485265Y-79238512D01*
X163492217Y-79097488D01*
X163450787Y-78817870D01*
X163355603Y-78551708D01*
X163288671Y-78426486D01*
X163044702Y-78354903D01*
X162231605Y-79168000D01*
X161872395Y-79168000D01*
X161059298Y-78354903D01*
X160815329Y-78426486D01*
X160694429Y-78681996D01*
X160625700Y-78956184D01*
X160611783Y-79238512D01*
X84480000Y-79238512D01*
X84480000Y-78175298D01*
X161238903Y-78175298D01*
X162052000Y-78988395D01*
X162865097Y-78175298D01*
X167588903Y-78175298D01*
X168402000Y-78988395D01*
X169215097Y-78175298D01*
X169143514Y-77931329D01*
X168888004Y-77810429D01*
X168613816Y-77741700D01*
X168331488Y-77727783D01*
X168051870Y-77769213D01*
X167785708Y-77864397D01*
X167660486Y-77931329D01*
X167588903Y-78175298D01*
X162865097Y-78175298D01*
X162793514Y-77931329D01*
X162538004Y-77810429D01*
X162263816Y-77741700D01*
X161981488Y-77727783D01*
X161701870Y-77769213D01*
X161435708Y-77864397D01*
X161310486Y-77931329D01*
X161238903Y-78175298D01*
X84480000Y-78175298D01*
X84480000Y-73092616D01*
X141162000Y-73092616D01*
X141162000Y-74883383D01*
X141188624Y-75153702D01*
X141293837Y-75500543D01*
X141464694Y-75820194D01*
X141694629Y-76100371D01*
X141974805Y-76330306D01*
X142294456Y-76501163D01*
X142641297Y-76606376D01*
X143002000Y-76641902D01*
X143362702Y-76606376D01*
X143709543Y-76501163D01*
X144029194Y-76330306D01*
X144309371Y-76100371D01*
X144539306Y-75820195D01*
X144710163Y-75500544D01*
X144815376Y-75153703D01*
X144842000Y-74883384D01*
X144842000Y-74026665D01*
X160617000Y-74026665D01*
X160617000Y-74309335D01*
X160672147Y-74586574D01*
X160780320Y-74847727D01*
X160937363Y-75082759D01*
X161137241Y-75282637D01*
X161372273Y-75439680D01*
X161633426Y-75547853D01*
X161910665Y-75603000D01*
X162193335Y-75603000D01*
X162470574Y-75547853D01*
X162731727Y-75439680D01*
X162966759Y-75282637D01*
X163166637Y-75082759D01*
X163323680Y-74847727D01*
X163431853Y-74586574D01*
X163487000Y-74309335D01*
X163487000Y-74026665D01*
X163431853Y-73749426D01*
X163323680Y-73488273D01*
X163166637Y-73253241D01*
X162966759Y-73053363D01*
X162731727Y-72896320D01*
X162470574Y-72788147D01*
X162193335Y-72733000D01*
X161910665Y-72733000D01*
X161633426Y-72788147D01*
X161372273Y-72896320D01*
X161137241Y-73053363D01*
X160937363Y-73253241D01*
X160780320Y-73488273D01*
X160672147Y-73749426D01*
X160617000Y-74026665D01*
X144842000Y-74026665D01*
X144842000Y-73092616D01*
X144815376Y-72822297D01*
X144710163Y-72475456D01*
X144539306Y-72155805D01*
X144309371Y-71875629D01*
X144029195Y-71645694D01*
X143709544Y-71474837D01*
X143362703Y-71369624D01*
X143002000Y-71334098D01*
X142641298Y-71369624D01*
X142294457Y-71474837D01*
X141974806Y-71645694D01*
X141694630Y-71875629D01*
X141464695Y-72155805D01*
X141293838Y-72475456D01*
X141188625Y-72822297D01*
X141162000Y-73092616D01*
X84480000Y-73092616D01*
X84480000Y-69072193D01*
X101957000Y-69072193D01*
X101957000Y-69423807D01*
X102025596Y-69768665D01*
X102160153Y-70093515D01*
X102355500Y-70385871D01*
X102604129Y-70634500D01*
X102896485Y-70829847D01*
X103221335Y-70964404D01*
X103566193Y-71033000D01*
X103917807Y-71033000D01*
X104262665Y-70964404D01*
X104587515Y-70829847D01*
X104879871Y-70634500D01*
X105128500Y-70385871D01*
X105323847Y-70093515D01*
X105458404Y-69768665D01*
X105527000Y-69423807D01*
X105527000Y-69072193D01*
X128927000Y-69072193D01*
X128927000Y-69423807D01*
X128995596Y-69768665D01*
X129130153Y-70093515D01*
X129325500Y-70385871D01*
X129574129Y-70634500D01*
X129866485Y-70829847D01*
X130191335Y-70964404D01*
X130536193Y-71033000D01*
X130887807Y-71033000D01*
X131232665Y-70964404D01*
X131557515Y-70829847D01*
X131849871Y-70634500D01*
X132098500Y-70385871D01*
X132293847Y-70093515D01*
X132428404Y-69768665D01*
X132497000Y-69423807D01*
X132497000Y-69072193D01*
X132428404Y-68727335D01*
X132293847Y-68402485D01*
X132233163Y-68311665D01*
X148552000Y-68311665D01*
X148552000Y-68594335D01*
X148607147Y-68871574D01*
X148715320Y-69132727D01*
X148872363Y-69367759D01*
X149072241Y-69567637D01*
X149307273Y-69724680D01*
X149568426Y-69832853D01*
X149845665Y-69888000D01*
X150128335Y-69888000D01*
X150405574Y-69832853D01*
X150666727Y-69724680D01*
X150901759Y-69567637D01*
X151101637Y-69367759D01*
X151258680Y-69132727D01*
X151366853Y-68871574D01*
X151422000Y-68594335D01*
X151422000Y-68311665D01*
X153552000Y-68311665D01*
X153552000Y-68594335D01*
X153607147Y-68871574D01*
X153715320Y-69132727D01*
X153872363Y-69367759D01*
X154072241Y-69567637D01*
X154307273Y-69724680D01*
X154568426Y-69832853D01*
X154845665Y-69888000D01*
X155128335Y-69888000D01*
X155405574Y-69832853D01*
X155666727Y-69724680D01*
X155901759Y-69567637D01*
X156101637Y-69367759D01*
X156205043Y-69213000D01*
X161379678Y-69213000D01*
X161417000Y-69216676D01*
X161454322Y-69213000D01*
X161454333Y-69213000D01*
X161565986Y-69202003D01*
X161709247Y-69158546D01*
X161841276Y-69087974D01*
X161957001Y-68993001D01*
X161980804Y-68963997D01*
X163040635Y-67904167D01*
X163185589Y-67933000D01*
X163378199Y-67933000D01*
X168191881Y-72746682D01*
X167983426Y-72788147D01*
X167722273Y-72896320D01*
X167487241Y-73053363D01*
X167287363Y-73253241D01*
X167130320Y-73488273D01*
X167022147Y-73749426D01*
X166967000Y-74026665D01*
X166967000Y-74309335D01*
X167022147Y-74586574D01*
X167130320Y-74847727D01*
X167287363Y-75082759D01*
X167487241Y-75282637D01*
X167722273Y-75439680D01*
X167983426Y-75547853D01*
X168260665Y-75603000D01*
X168543335Y-75603000D01*
X168820574Y-75547853D01*
X169081727Y-75439680D01*
X169316759Y-75282637D01*
X169516637Y-75082759D01*
X169673680Y-74847727D01*
X169781853Y-74586574D01*
X169823318Y-74378120D01*
X171074819Y-75629621D01*
X171044226Y-75650063D01*
X170900063Y-75794226D01*
X170786795Y-75963744D01*
X170708774Y-76152102D01*
X170669000Y-76352061D01*
X170669000Y-76555939D01*
X170708774Y-76755898D01*
X170786795Y-76944256D01*
X170894011Y-77104716D01*
X170790226Y-77174063D01*
X170646063Y-77318226D01*
X170532795Y-77487744D01*
X170454774Y-77676102D01*
X170415000Y-77876061D01*
X170415000Y-78079939D01*
X170454774Y-78279898D01*
X170532795Y-78468256D01*
X170646063Y-78637774D01*
X170790226Y-78781937D01*
X170959744Y-78895205D01*
X171148102Y-78973226D01*
X171348061Y-79013000D01*
X171551939Y-79013000D01*
X171751898Y-78973226D01*
X171929988Y-78899458D01*
X172000104Y-78984896D01*
X172111949Y-79076684D01*
X172239552Y-79144890D01*
X172378009Y-79186890D01*
X172522000Y-79201072D01*
X173797000Y-79201072D01*
X173940991Y-79186890D01*
X174079448Y-79144890D01*
X174207051Y-79076684D01*
X174318896Y-78984896D01*
X174410684Y-78873051D01*
X174478890Y-78745448D01*
X174520890Y-78606991D01*
X174535072Y-78463000D01*
X174535072Y-78263000D01*
X174520890Y-78119009D01*
X174496316Y-78038000D01*
X174520890Y-77956991D01*
X174535072Y-77813000D01*
X174535072Y-77613000D01*
X174520890Y-77469009D01*
X174509650Y-77431955D01*
X174520868Y-77396883D01*
X174532000Y-77294750D01*
X174373250Y-77136000D01*
X174355741Y-77136000D01*
X174318896Y-77091104D01*
X174284651Y-77063000D01*
X174318896Y-77034896D01*
X174355741Y-76990000D01*
X174373250Y-76990000D01*
X174532000Y-76831250D01*
X174520868Y-76729117D01*
X174509650Y-76694045D01*
X174520890Y-76656991D01*
X174535072Y-76513000D01*
X174535072Y-76313000D01*
X174520890Y-76169009D01*
X174496316Y-76088000D01*
X174520890Y-76006991D01*
X174535072Y-75863000D01*
X174535072Y-75663000D01*
X174520890Y-75519009D01*
X174496316Y-75438000D01*
X174520890Y-75356991D01*
X174535072Y-75213000D01*
X174535072Y-75013000D01*
X174520890Y-74869009D01*
X174496316Y-74788000D01*
X174520890Y-74706991D01*
X174535072Y-74563000D01*
X174535072Y-74363000D01*
X174520890Y-74219009D01*
X174496316Y-74138000D01*
X174520890Y-74056991D01*
X174535072Y-73913000D01*
X174535072Y-73713000D01*
X174520890Y-73569009D01*
X174496316Y-73488000D01*
X174520890Y-73406991D01*
X174535072Y-73263000D01*
X174535072Y-73063000D01*
X174520890Y-72919009D01*
X174496316Y-72838000D01*
X174520890Y-72756991D01*
X174535072Y-72613000D01*
X174535072Y-72413000D01*
X174520890Y-72269009D01*
X174478890Y-72130552D01*
X174410684Y-72002949D01*
X174318896Y-71891104D01*
X174207051Y-71799316D01*
X174079448Y-71731110D01*
X173940991Y-71689110D01*
X173797000Y-71674928D01*
X172522000Y-71674928D01*
X172378009Y-71689110D01*
X172239552Y-71731110D01*
X172217975Y-71742643D01*
X172194256Y-71726795D01*
X172005898Y-71648774D01*
X171805939Y-71609000D01*
X171602061Y-71609000D01*
X171402102Y-71648774D01*
X171213744Y-71726795D01*
X171044226Y-71840063D01*
X170976721Y-71907568D01*
X169416000Y-70346847D01*
X169416000Y-68132801D01*
X169788003Y-67760799D01*
X169817002Y-67737000D01*
X169909904Y-67623799D01*
X169911975Y-67621276D01*
X169982547Y-67489246D01*
X170011522Y-67393725D01*
X170026004Y-67345985D01*
X170037001Y-67234332D01*
X170037001Y-67234323D01*
X170040677Y-67197000D01*
X170037001Y-67159677D01*
X170037001Y-63650323D01*
X170040677Y-63613000D01*
X170037001Y-63575677D01*
X170037001Y-63575668D01*
X170026004Y-63464015D01*
X169982547Y-63320754D01*
X169911975Y-63188725D01*
X169817002Y-63073000D01*
X169788005Y-63049203D01*
X164763209Y-58024408D01*
X164807000Y-57804260D01*
X164807000Y-57511740D01*
X164749932Y-57224842D01*
X164637990Y-56954589D01*
X164540043Y-56808000D01*
X168183928Y-56808000D01*
X168183928Y-58508000D01*
X168196188Y-58632482D01*
X168232498Y-58752180D01*
X168291463Y-58862494D01*
X168370815Y-58959185D01*
X168467506Y-59038537D01*
X168577820Y-59097502D01*
X168697518Y-59133812D01*
X168822000Y-59146072D01*
X170522000Y-59146072D01*
X170646482Y-59133812D01*
X170766180Y-59097502D01*
X170876494Y-59038537D01*
X170973185Y-58959185D01*
X171052537Y-58862494D01*
X171111502Y-58752180D01*
X171133513Y-58679620D01*
X171265368Y-58811475D01*
X171508589Y-58973990D01*
X171778842Y-59085932D01*
X172065740Y-59143000D01*
X172358260Y-59143000D01*
X172645158Y-59085932D01*
X172915411Y-58973990D01*
X173158632Y-58811475D01*
X173365475Y-58604632D01*
X173482000Y-58430240D01*
X173598525Y-58604632D01*
X173805368Y-58811475D01*
X174048589Y-58973990D01*
X174318842Y-59085932D01*
X174605740Y-59143000D01*
X174898260Y-59143000D01*
X175185158Y-59085932D01*
X175455411Y-58973990D01*
X175698632Y-58811475D01*
X175905475Y-58604632D01*
X176022000Y-58430240D01*
X176138525Y-58604632D01*
X176345368Y-58811475D01*
X176532000Y-58936179D01*
X176532001Y-72871725D01*
X176528324Y-72909058D01*
X176532001Y-72946391D01*
X176542998Y-73058044D01*
X176550687Y-73083391D01*
X176586454Y-73201304D01*
X176657026Y-73333334D01*
X176728201Y-73420060D01*
X176752000Y-73449059D01*
X176780998Y-73472857D01*
X177524050Y-74215910D01*
X177523110Y-74219009D01*
X177508928Y-74363000D01*
X177508928Y-74563000D01*
X177523110Y-74706991D01*
X177547684Y-74788000D01*
X177523110Y-74869009D01*
X177508928Y-75013000D01*
X177508928Y-75213000D01*
X177523110Y-75356991D01*
X177547684Y-75438000D01*
X177523110Y-75519009D01*
X177508928Y-75663000D01*
X177508928Y-75863000D01*
X177523110Y-76006991D01*
X177547684Y-76088000D01*
X177523110Y-76169009D01*
X177508928Y-76313000D01*
X177508928Y-76513000D01*
X177523110Y-76656991D01*
X177547684Y-76738000D01*
X177523110Y-76819009D01*
X177508928Y-76963000D01*
X177508928Y-77163000D01*
X177523110Y-77306991D01*
X177547684Y-77388000D01*
X177523110Y-77469009D01*
X177508928Y-77613000D01*
X177508928Y-77813000D01*
X177523110Y-77956991D01*
X177547684Y-78038000D01*
X177523110Y-78119009D01*
X177508928Y-78263000D01*
X177508928Y-78463000D01*
X177523110Y-78606991D01*
X177565110Y-78745448D01*
X177633316Y-78873051D01*
X177725104Y-78984896D01*
X177836949Y-79076684D01*
X177964552Y-79144890D01*
X178103009Y-79186890D01*
X178247000Y-79201072D01*
X179522000Y-79201072D01*
X179665991Y-79186890D01*
X179804448Y-79144890D01*
X179932051Y-79076684D01*
X180043896Y-78984896D01*
X180135684Y-78873051D01*
X180203890Y-78745448D01*
X180245890Y-78606991D01*
X180260072Y-78463000D01*
X180260072Y-78263000D01*
X180245890Y-78119009D01*
X180221316Y-78038000D01*
X180245890Y-77956991D01*
X180260072Y-77813000D01*
X180260072Y-77613000D01*
X180245890Y-77469009D01*
X180221316Y-77388000D01*
X180245890Y-77306991D01*
X180260072Y-77163000D01*
X180260072Y-76963000D01*
X180245890Y-76819009D01*
X180221316Y-76738000D01*
X180245890Y-76656991D01*
X180260072Y-76513000D01*
X180260072Y-76313000D01*
X180245890Y-76169009D01*
X180221316Y-76088000D01*
X180245890Y-76006991D01*
X180260072Y-75863000D01*
X180260072Y-75663000D01*
X180245890Y-75519009D01*
X180221316Y-75438000D01*
X180245890Y-75356991D01*
X180246777Y-75347990D01*
X182314510Y-75347990D01*
X182370320Y-75482727D01*
X182527363Y-75717759D01*
X182727241Y-75917637D01*
X182962273Y-76074680D01*
X183223426Y-76182853D01*
X183500665Y-76238000D01*
X183783335Y-76238000D01*
X184060574Y-76182853D01*
X184321727Y-76074680D01*
X184556759Y-75917637D01*
X184756637Y-75717759D01*
X184913680Y-75482727D01*
X185021853Y-75221574D01*
X185077000Y-74944335D01*
X185077000Y-74661665D01*
X185021853Y-74384426D01*
X184913680Y-74123273D01*
X184756637Y-73888241D01*
X184556759Y-73688363D01*
X184321727Y-73531320D01*
X184060574Y-73423147D01*
X183783335Y-73368000D01*
X183500665Y-73368000D01*
X183223426Y-73423147D01*
X182962273Y-73531320D01*
X182727241Y-73688363D01*
X182587614Y-73827990D01*
X180260072Y-73827990D01*
X180260072Y-73713000D01*
X180245890Y-73569009D01*
X180221316Y-73488000D01*
X180245890Y-73406991D01*
X180260072Y-73263000D01*
X180260072Y-73247040D01*
X186060091Y-73247040D01*
X186154930Y-73511881D01*
X186299615Y-73753131D01*
X186488586Y-73961519D01*
X186714580Y-74129037D01*
X186968913Y-74249246D01*
X187102961Y-74289904D01*
X187325000Y-74167915D01*
X187325000Y-73025000D01*
X187579000Y-73025000D01*
X187579000Y-74167915D01*
X187801039Y-74289904D01*
X187935087Y-74249246D01*
X188189420Y-74129037D01*
X188415414Y-73961519D01*
X188604385Y-73753131D01*
X188749070Y-73511881D01*
X188843909Y-73247040D01*
X188722624Y-73025000D01*
X187579000Y-73025000D01*
X187325000Y-73025000D01*
X186181376Y-73025000D01*
X186060091Y-73247040D01*
X180260072Y-73247040D01*
X180260072Y-73063000D01*
X180245890Y-72919009D01*
X180221316Y-72838000D01*
X180245890Y-72756991D01*
X180260072Y-72613000D01*
X180260072Y-72548960D01*
X186060091Y-72548960D01*
X186181376Y-72771000D01*
X187325000Y-72771000D01*
X187325000Y-71628085D01*
X187579000Y-71628085D01*
X187579000Y-72771000D01*
X188722624Y-72771000D01*
X188843909Y-72548960D01*
X188749070Y-72284119D01*
X188604385Y-72042869D01*
X188415414Y-71834481D01*
X188189420Y-71666963D01*
X187935087Y-71546754D01*
X187801039Y-71506096D01*
X187579000Y-71628085D01*
X187325000Y-71628085D01*
X187102961Y-71506096D01*
X186968913Y-71546754D01*
X186714580Y-71666963D01*
X186488586Y-71834481D01*
X186299615Y-72042869D01*
X186154930Y-72284119D01*
X186060091Y-72548960D01*
X180260072Y-72548960D01*
X180260072Y-72413000D01*
X180245890Y-72269009D01*
X180209976Y-72150617D01*
X180387898Y-72115226D01*
X180576256Y-72037205D01*
X180745774Y-71923937D01*
X180889937Y-71779774D01*
X181003205Y-71610256D01*
X181081226Y-71421898D01*
X181121000Y-71221939D01*
X181121000Y-71159801D01*
X183612801Y-68668000D01*
X191043928Y-68668000D01*
X191056188Y-68792482D01*
X191092498Y-68912180D01*
X191151463Y-69022494D01*
X191230815Y-69119185D01*
X191327506Y-69198537D01*
X191437820Y-69257502D01*
X191557518Y-69293812D01*
X191682000Y-69306072D01*
X192246250Y-69303000D01*
X192405000Y-69144250D01*
X192405000Y-67945000D01*
X192659000Y-67945000D01*
X192659000Y-69144250D01*
X192817750Y-69303000D01*
X193382000Y-69306072D01*
X193506482Y-69293812D01*
X193626180Y-69257502D01*
X193736494Y-69198537D01*
X193833185Y-69119185D01*
X193912537Y-69022494D01*
X193971502Y-68912180D01*
X194007812Y-68792482D01*
X194020072Y-68668000D01*
X194017000Y-68103750D01*
X193858250Y-67945000D01*
X192659000Y-67945000D01*
X192405000Y-67945000D01*
X191205750Y-67945000D01*
X191047000Y-68103750D01*
X191043928Y-68668000D01*
X183612801Y-68668000D01*
X187963003Y-64317799D01*
X187992001Y-64294001D01*
X188050270Y-64223000D01*
X188086974Y-64178277D01*
X188157546Y-64046247D01*
X188169156Y-64007974D01*
X188201003Y-63902986D01*
X188212000Y-63791333D01*
X188212000Y-63791324D01*
X188215676Y-63754001D01*
X188212000Y-63716678D01*
X188212000Y-62032801D01*
X191090790Y-64911592D01*
X191047000Y-65131740D01*
X191047000Y-65424260D01*
X191104068Y-65711158D01*
X191216010Y-65981411D01*
X191378525Y-66224632D01*
X191510380Y-66356487D01*
X191437820Y-66378498D01*
X191327506Y-66437463D01*
X191230815Y-66516815D01*
X191151463Y-66613506D01*
X191092498Y-66723820D01*
X191056188Y-66843518D01*
X191043928Y-66968000D01*
X191047000Y-67532250D01*
X191205750Y-67691000D01*
X192405000Y-67691000D01*
X192405000Y-67671000D01*
X192659000Y-67671000D01*
X192659000Y-67691000D01*
X193858250Y-67691000D01*
X194017000Y-67532250D01*
X194020072Y-66968000D01*
X194007812Y-66843518D01*
X193971502Y-66723820D01*
X193912537Y-66613506D01*
X193833185Y-66516815D01*
X193736494Y-66437463D01*
X193626180Y-66378498D01*
X193553620Y-66356487D01*
X193685475Y-66224632D01*
X193847990Y-65981411D01*
X193959932Y-65711158D01*
X194017000Y-65424260D01*
X194017000Y-65131740D01*
X193959932Y-64844842D01*
X193847990Y-64574589D01*
X193685475Y-64331368D01*
X193478632Y-64124525D01*
X193304240Y-64008000D01*
X193478632Y-63891475D01*
X193685475Y-63684632D01*
X193847990Y-63441411D01*
X193959932Y-63171158D01*
X194017000Y-62884260D01*
X194017000Y-62591740D01*
X193959932Y-62304842D01*
X193847990Y-62034589D01*
X193685475Y-61791368D01*
X193478632Y-61584525D01*
X193235411Y-61422010D01*
X192965158Y-61310068D01*
X192678260Y-61253000D01*
X192385740Y-61253000D01*
X192098842Y-61310068D01*
X191828589Y-61422010D01*
X191585368Y-61584525D01*
X191378525Y-61791368D01*
X191216010Y-62034589D01*
X191104068Y-62304842D01*
X191047000Y-62591740D01*
X191047000Y-62718198D01*
X188850688Y-60521887D01*
X188887000Y-60339335D01*
X188887000Y-60056665D01*
X188831853Y-59779426D01*
X188723680Y-59518273D01*
X188566637Y-59283241D01*
X188366759Y-59083363D01*
X188131727Y-58926320D01*
X187870574Y-58818147D01*
X187593335Y-58763000D01*
X187310665Y-58763000D01*
X187033426Y-58818147D01*
X186772273Y-58926320D01*
X186537241Y-59083363D01*
X186337363Y-59283241D01*
X186180320Y-59518273D01*
X186072147Y-59779426D01*
X186017000Y-60056665D01*
X186017000Y-60339335D01*
X186072147Y-60616574D01*
X186180320Y-60877727D01*
X186337363Y-61112759D01*
X186537241Y-61312637D01*
X186692000Y-61416044D01*
X186692001Y-63439197D01*
X180046199Y-70085000D01*
X179984061Y-70085000D01*
X179784102Y-70124774D01*
X179595744Y-70202795D01*
X179426226Y-70316063D01*
X179282063Y-70460226D01*
X179168795Y-70629744D01*
X179090774Y-70818102D01*
X179051000Y-71018061D01*
X179051000Y-71221939D01*
X179090774Y-71421898D01*
X179168795Y-71610256D01*
X179212007Y-71674928D01*
X178560000Y-71674928D01*
X178560000Y-59203803D01*
X178978005Y-58785799D01*
X179007002Y-58762002D01*
X179101975Y-58646277D01*
X179172547Y-58514248D01*
X179216004Y-58370987D01*
X179227001Y-58259334D01*
X179227001Y-58259324D01*
X179230677Y-58222001D01*
X179227001Y-58184678D01*
X179227001Y-57131321D01*
X179230677Y-57093998D01*
X179227001Y-57056675D01*
X179227001Y-57056666D01*
X179216004Y-56945013D01*
X179172547Y-56801752D01*
X179101975Y-56669723D01*
X179071004Y-56631985D01*
X179030800Y-56582995D01*
X179030796Y-56582991D01*
X179007002Y-56553998D01*
X178978009Y-56530204D01*
X178833804Y-56386000D01*
X191320289Y-56386000D01*
X191364226Y-56429937D01*
X191533744Y-56543205D01*
X191722102Y-56621226D01*
X191922061Y-56661000D01*
X192125939Y-56661000D01*
X192325898Y-56621226D01*
X192514256Y-56543205D01*
X192683774Y-56429937D01*
X192827937Y-56285774D01*
X192941205Y-56116256D01*
X193019226Y-55927898D01*
X193059000Y-55727939D01*
X193059000Y-55524061D01*
X193019226Y-55324102D01*
X192941205Y-55135744D01*
X192827937Y-54966226D01*
X192683774Y-54822063D01*
X192514256Y-54708795D01*
X192325898Y-54630774D01*
X192125939Y-54591000D01*
X191922061Y-54591000D01*
X191722102Y-54630774D01*
X191533744Y-54708795D01*
X191364226Y-54822063D01*
X191320289Y-54866000D01*
X174281323Y-54866000D01*
X174244000Y-54862324D01*
X174206677Y-54866000D01*
X174206667Y-54866000D01*
X174095014Y-54876997D01*
X173951753Y-54920454D01*
X173819723Y-54991026D01*
X173736083Y-55059668D01*
X173703999Y-55085999D01*
X173680201Y-55114997D01*
X172578408Y-56216791D01*
X172358260Y-56173000D01*
X172065740Y-56173000D01*
X171778842Y-56230068D01*
X171508589Y-56342010D01*
X171265368Y-56504525D01*
X171133513Y-56636380D01*
X171111502Y-56563820D01*
X171052537Y-56453506D01*
X170973185Y-56356815D01*
X170876494Y-56277463D01*
X170766180Y-56218498D01*
X170646482Y-56182188D01*
X170522000Y-56169928D01*
X168822000Y-56169928D01*
X168697518Y-56182188D01*
X168577820Y-56218498D01*
X168467506Y-56277463D01*
X168370815Y-56356815D01*
X168291463Y-56453506D01*
X168232498Y-56563820D01*
X168196188Y-56683518D01*
X168183928Y-56808000D01*
X164540043Y-56808000D01*
X164475475Y-56711368D01*
X164268632Y-56504525D01*
X164025411Y-56342010D01*
X163755158Y-56230068D01*
X163468260Y-56173000D01*
X163175740Y-56173000D01*
X162888842Y-56230068D01*
X162618589Y-56342010D01*
X162375368Y-56504525D01*
X162168525Y-56711368D01*
X162052000Y-56885760D01*
X161935475Y-56711368D01*
X161728632Y-56504525D01*
X161485411Y-56342010D01*
X161215158Y-56230068D01*
X160928260Y-56173000D01*
X160635740Y-56173000D01*
X160348842Y-56230068D01*
X160078589Y-56342010D01*
X159835368Y-56504525D01*
X159628525Y-56711368D01*
X159512000Y-56885760D01*
X159395475Y-56711368D01*
X159188632Y-56504525D01*
X158945411Y-56342010D01*
X158675158Y-56230068D01*
X158388260Y-56173000D01*
X158095740Y-56173000D01*
X157808842Y-56230068D01*
X157538589Y-56342010D01*
X157295368Y-56504525D01*
X157163513Y-56636380D01*
X157141502Y-56563820D01*
X157082537Y-56453506D01*
X157003185Y-56356815D01*
X156906494Y-56277463D01*
X156796180Y-56218498D01*
X156676482Y-56182188D01*
X156552000Y-56169928D01*
X155987750Y-56173000D01*
X155829000Y-56331750D01*
X155829000Y-57531000D01*
X155849000Y-57531000D01*
X155849000Y-57785000D01*
X155829000Y-57785000D01*
X155829000Y-58984250D01*
X155987750Y-59143000D01*
X156552000Y-59146072D01*
X156676482Y-59133812D01*
X156796180Y-59097502D01*
X156906494Y-59038537D01*
X157003185Y-58959185D01*
X157082537Y-58862494D01*
X157141502Y-58752180D01*
X157163513Y-58679620D01*
X157295368Y-58811475D01*
X157538589Y-58973990D01*
X157808842Y-59085932D01*
X158095740Y-59143000D01*
X158388260Y-59143000D01*
X158675158Y-59085932D01*
X158945411Y-58973990D01*
X159188632Y-58811475D01*
X159395475Y-58604632D01*
X159512000Y-58430240D01*
X159628525Y-58604632D01*
X159835368Y-58811475D01*
X160078589Y-58973990D01*
X160348842Y-59085932D01*
X160635740Y-59143000D01*
X160928260Y-59143000D01*
X161215158Y-59085932D01*
X161485411Y-58973990D01*
X161728632Y-58811475D01*
X161935475Y-58604632D01*
X162052000Y-58430240D01*
X162168525Y-58604632D01*
X162375368Y-58811475D01*
X162618589Y-58973990D01*
X162888842Y-59085932D01*
X163175740Y-59143000D01*
X163468260Y-59143000D01*
X163688408Y-59099209D01*
X168517001Y-63927803D01*
X168517001Y-65198524D01*
X168338411Y-65163000D01*
X168065589Y-65163000D01*
X167920635Y-65191833D01*
X165590804Y-62862003D01*
X165567001Y-62832999D01*
X165451276Y-62738026D01*
X165319247Y-62667454D01*
X165175986Y-62623997D01*
X165064333Y-62613000D01*
X165064322Y-62613000D01*
X165027000Y-62609324D01*
X164989678Y-62613000D01*
X156285043Y-62613000D01*
X156181637Y-62458241D01*
X155981759Y-62258363D01*
X155746727Y-62101320D01*
X155485574Y-61993147D01*
X155208335Y-61938000D01*
X154925665Y-61938000D01*
X154648426Y-61993147D01*
X154387273Y-62101320D01*
X154152241Y-62258363D01*
X153952363Y-62458241D01*
X153795320Y-62693273D01*
X153687147Y-62954426D01*
X153632000Y-63231665D01*
X153632000Y-63514335D01*
X153687147Y-63791574D01*
X153795320Y-64052727D01*
X153952363Y-64287759D01*
X154152241Y-64487637D01*
X154387273Y-64644680D01*
X154648426Y-64752853D01*
X154925665Y-64808000D01*
X155208335Y-64808000D01*
X155485574Y-64752853D01*
X155746727Y-64644680D01*
X155981759Y-64487637D01*
X156181637Y-64287759D01*
X156285043Y-64133000D01*
X164712199Y-64133000D01*
X166845833Y-66266635D01*
X166817000Y-66411589D01*
X166817000Y-66684411D01*
X166870225Y-66951989D01*
X166974629Y-67204043D01*
X167126201Y-67430886D01*
X167319114Y-67623799D01*
X167442000Y-67705909D01*
X167442001Y-69847199D01*
X164622440Y-67027639D01*
X164653775Y-66951989D01*
X164707000Y-66684411D01*
X164707000Y-66411589D01*
X164653775Y-66144011D01*
X164549371Y-65891957D01*
X164397799Y-65665114D01*
X164204886Y-65472201D01*
X163978043Y-65320629D01*
X163725989Y-65216225D01*
X163458411Y-65163000D01*
X163185589Y-65163000D01*
X162918011Y-65216225D01*
X162665957Y-65320629D01*
X162439114Y-65472201D01*
X162246201Y-65665114D01*
X162094629Y-65891957D01*
X161990225Y-66144011D01*
X161937000Y-66411589D01*
X161937000Y-66684411D01*
X161965833Y-66829365D01*
X161102199Y-67693000D01*
X156205043Y-67693000D01*
X156101637Y-67538241D01*
X155901759Y-67338363D01*
X155666727Y-67181320D01*
X155405574Y-67073147D01*
X155128335Y-67018000D01*
X154845665Y-67018000D01*
X154568426Y-67073147D01*
X154307273Y-67181320D01*
X154072241Y-67338363D01*
X153872363Y-67538241D01*
X153715320Y-67773273D01*
X153607147Y-68034426D01*
X153552000Y-68311665D01*
X151422000Y-68311665D01*
X151366853Y-68034426D01*
X151258680Y-67773273D01*
X151101637Y-67538241D01*
X150901759Y-67338363D01*
X150666727Y-67181320D01*
X150405574Y-67073147D01*
X150128335Y-67018000D01*
X149845665Y-67018000D01*
X149568426Y-67073147D01*
X149307273Y-67181320D01*
X149072241Y-67338363D01*
X148872363Y-67538241D01*
X148715320Y-67773273D01*
X148607147Y-68034426D01*
X148552000Y-68311665D01*
X132233163Y-68311665D01*
X132098500Y-68110129D01*
X131849871Y-67861500D01*
X131557515Y-67666153D01*
X131232665Y-67531596D01*
X130887807Y-67463000D01*
X130536193Y-67463000D01*
X130191335Y-67531596D01*
X129866485Y-67666153D01*
X129574129Y-67861500D01*
X129325500Y-68110129D01*
X129130153Y-68402485D01*
X128995596Y-68727335D01*
X128927000Y-69072193D01*
X105527000Y-69072193D01*
X105458404Y-68727335D01*
X105323847Y-68402485D01*
X105128500Y-68110129D01*
X104879871Y-67861500D01*
X104587515Y-67666153D01*
X104262665Y-67531596D01*
X103917807Y-67463000D01*
X103566193Y-67463000D01*
X103221335Y-67531596D01*
X102896485Y-67666153D01*
X102604129Y-67861500D01*
X102355500Y-68110129D01*
X102160153Y-68402485D01*
X102025596Y-68727335D01*
X101957000Y-69072193D01*
X84480000Y-69072193D01*
X84480000Y-63231665D01*
X148632000Y-63231665D01*
X148632000Y-63514335D01*
X148687147Y-63791574D01*
X148795320Y-64052727D01*
X148952363Y-64287759D01*
X149152241Y-64487637D01*
X149387273Y-64644680D01*
X149648426Y-64752853D01*
X149925665Y-64808000D01*
X150208335Y-64808000D01*
X150485574Y-64752853D01*
X150746727Y-64644680D01*
X150981759Y-64487637D01*
X151181637Y-64287759D01*
X151338680Y-64052727D01*
X151446853Y-63791574D01*
X151502000Y-63514335D01*
X151502000Y-63231665D01*
X151446853Y-62954426D01*
X151338680Y-62693273D01*
X151181637Y-62458241D01*
X150981759Y-62258363D01*
X150746727Y-62101320D01*
X150485574Y-61993147D01*
X150208335Y-61938000D01*
X149925665Y-61938000D01*
X149648426Y-61993147D01*
X149387273Y-62101320D01*
X149152241Y-62258363D01*
X148952363Y-62458241D01*
X148795320Y-62693273D01*
X148687147Y-62954426D01*
X148632000Y-63231665D01*
X84480000Y-63231665D01*
X84480000Y-58508000D01*
X154213928Y-58508000D01*
X154226188Y-58632482D01*
X154262498Y-58752180D01*
X154321463Y-58862494D01*
X154400815Y-58959185D01*
X154497506Y-59038537D01*
X154607820Y-59097502D01*
X154727518Y-59133812D01*
X154852000Y-59146072D01*
X155416250Y-59143000D01*
X155575000Y-58984250D01*
X155575000Y-57785000D01*
X154375750Y-57785000D01*
X154217000Y-57943750D01*
X154213928Y-58508000D01*
X84480000Y-58508000D01*
X84480000Y-56808000D01*
X154213928Y-56808000D01*
X154217000Y-57372250D01*
X154375750Y-57531000D01*
X155575000Y-57531000D01*
X155575000Y-56331750D01*
X155416250Y-56173000D01*
X154852000Y-56169928D01*
X154727518Y-56182188D01*
X154607820Y-56218498D01*
X154497506Y-56277463D01*
X154400815Y-56356815D01*
X154321463Y-56453506D01*
X154262498Y-56563820D01*
X154226188Y-56683518D01*
X154213928Y-56808000D01*
X84480000Y-56808000D01*
X84480000Y-54000000D01*
X198222000Y-54000000D01*
X198222001Y-124689000D01*
%TA.AperFunction,Conductor*%
D27*
G36*
X198222001Y-124689000D02*
G01*
X84480000Y-124689000D01*
X84480000Y-99937998D01*
X134863928Y-99937998D01*
X134863928Y-101738002D01*
X134880992Y-101911256D01*
X134931528Y-102077852D01*
X135013595Y-102231387D01*
X135124038Y-102365962D01*
X135258613Y-102476405D01*
X135412148Y-102558472D01*
X135578744Y-102609008D01*
X135751998Y-102626072D01*
X137552002Y-102626072D01*
X137725256Y-102609008D01*
X137891852Y-102558472D01*
X138045387Y-102476405D01*
X138179962Y-102365962D01*
X138290405Y-102231387D01*
X138372472Y-102077852D01*
X138423008Y-101911256D01*
X138440072Y-101738002D01*
X138440072Y-100662193D01*
X139667000Y-100662193D01*
X139667000Y-101013807D01*
X139735596Y-101358665D01*
X139870153Y-101683515D01*
X140065500Y-101975871D01*
X140314129Y-102224500D01*
X140606485Y-102419847D01*
X140931335Y-102554404D01*
X141276193Y-102623000D01*
X141627807Y-102623000D01*
X141972665Y-102554404D01*
X142297515Y-102419847D01*
X142589871Y-102224500D01*
X142838500Y-101975871D01*
X143033847Y-101683515D01*
X143069268Y-101598000D01*
X143957199Y-101598000D01*
X152598201Y-110239003D01*
X152621999Y-110268001D01*
X152650997Y-110291799D01*
X152737724Y-110362974D01*
X152869753Y-110433546D01*
X153013014Y-110477003D01*
X153162000Y-110491677D01*
X153199333Y-110488000D01*
X153672000Y-110488000D01*
X153672001Y-112230668D01*
X153668324Y-112268000D01*
X153682998Y-112416985D01*
X153726454Y-112560246D01*
X153797026Y-112692276D01*
X153868201Y-112779002D01*
X153892000Y-112808001D01*
X153920998Y-112831799D01*
X155732199Y-114643000D01*
X155600665Y-114643000D01*
X155323426Y-114698147D01*
X155062273Y-114806320D01*
X154827241Y-114963363D01*
X154627363Y-115163241D01*
X154470320Y-115398273D01*
X154362147Y-115659426D01*
X154307000Y-115936665D01*
X154307000Y-116219335D01*
X154362147Y-116496574D01*
X154470320Y-116757727D01*
X154627363Y-116992759D01*
X154827241Y-117192637D01*
X155062273Y-117349680D01*
X155323426Y-117457853D01*
X155600665Y-117513000D01*
X155883335Y-117513000D01*
X156160574Y-117457853D01*
X156421727Y-117349680D01*
X156656759Y-117192637D01*
X156823339Y-117026057D01*
X156852498Y-117122180D01*
X156911463Y-117232494D01*
X156990815Y-117329185D01*
X157087506Y-117408537D01*
X157197820Y-117467502D01*
X157317518Y-117503812D01*
X157442000Y-117516072D01*
X159042000Y-117516072D01*
X159166482Y-117503812D01*
X159286180Y-117467502D01*
X159396494Y-117408537D01*
X159493185Y-117329185D01*
X159572537Y-117232494D01*
X159631502Y-117122180D01*
X159667812Y-117002482D01*
X159680072Y-116878000D01*
X159680072Y-115278000D01*
X159667812Y-115153518D01*
X159631502Y-115033820D01*
X159572537Y-114923506D01*
X159493185Y-114826815D01*
X159396494Y-114747463D01*
X159286180Y-114688498D01*
X159166482Y-114652188D01*
X159042000Y-114639928D01*
X157878730Y-114639928D01*
X155192000Y-111953199D01*
X155192000Y-110488000D01*
X182334667Y-110488000D01*
X182372000Y-110491677D01*
X182520986Y-110477003D01*
X182664247Y-110433546D01*
X182796276Y-110362974D01*
X182912001Y-110268001D01*
X182935804Y-110238997D01*
X185985678Y-107189124D01*
X186055439Y-107203000D01*
X186308561Y-107203000D01*
X186397001Y-107185409D01*
X186397002Y-114639928D01*
X185382000Y-114639928D01*
X185257518Y-114652188D01*
X185137820Y-114688498D01*
X185027506Y-114747463D01*
X184930815Y-114826815D01*
X184851463Y-114923506D01*
X184792498Y-115033820D01*
X184763339Y-115129943D01*
X184596759Y-114963363D01*
X184361727Y-114806320D01*
X184100574Y-114698147D01*
X183823335Y-114643000D01*
X183540665Y-114643000D01*
X183263426Y-114698147D01*
X183002273Y-114806320D01*
X182767241Y-114963363D01*
X182567363Y-115163241D01*
X182410320Y-115398273D01*
X182302147Y-115659426D01*
X182247000Y-115936665D01*
X182247000Y-116219335D01*
X182302147Y-116496574D01*
X182410320Y-116757727D01*
X182567363Y-116992759D01*
X182767241Y-117192637D01*
X183002273Y-117349680D01*
X183263426Y-117457853D01*
X183540665Y-117513000D01*
X183823335Y-117513000D01*
X184100574Y-117457853D01*
X184361727Y-117349680D01*
X184596759Y-117192637D01*
X184763339Y-117026057D01*
X184792498Y-117122180D01*
X184851463Y-117232494D01*
X184930815Y-117329185D01*
X185027506Y-117408537D01*
X185137820Y-117467502D01*
X185257518Y-117503812D01*
X185382000Y-117516072D01*
X186982000Y-117516072D01*
X187106482Y-117503812D01*
X187226180Y-117467502D01*
X187336494Y-117408537D01*
X187433185Y-117329185D01*
X187512537Y-117232494D01*
X187571502Y-117122180D01*
X187607812Y-117002482D01*
X187620072Y-116878000D01*
X187620072Y-115714730D01*
X187668004Y-115666798D01*
X187697002Y-115643000D01*
X187791975Y-115527275D01*
X187862547Y-115395246D01*
X187906004Y-115251985D01*
X187917001Y-115140332D01*
X187917001Y-115140324D01*
X187920677Y-115102999D01*
X187917001Y-115065674D01*
X187917001Y-105487322D01*
X187920677Y-105449999D01*
X187917001Y-105412676D01*
X187917001Y-105412666D01*
X187916541Y-105408000D01*
X192756967Y-105408000D01*
X192789796Y-105487255D01*
X192903064Y-105656773D01*
X193047227Y-105800936D01*
X193216745Y-105914204D01*
X193405103Y-105992225D01*
X193605062Y-106031999D01*
X193808940Y-106031999D01*
X194008899Y-105992225D01*
X194197257Y-105914204D01*
X194366775Y-105800936D01*
X194510938Y-105656773D01*
X194624206Y-105487255D01*
X194702227Y-105298897D01*
X194742001Y-105098938D01*
X194742001Y-104895060D01*
X194702227Y-104695101D01*
X194624206Y-104506743D01*
X194510938Y-104337225D01*
X194366775Y-104193062D01*
X194197257Y-104079794D01*
X194008899Y-104001773D01*
X193808940Y-103961999D01*
X193686815Y-103961999D01*
X193650249Y-103942454D01*
X193506988Y-103898997D01*
X193395335Y-103888000D01*
X193395324Y-103888000D01*
X193358002Y-103884324D01*
X193320680Y-103888000D01*
X186392324Y-103888000D01*
X186355002Y-103884324D01*
X186317680Y-103888000D01*
X185949641Y-103888000D01*
X185910125Y-103828860D01*
X185731140Y-103649875D01*
X185520676Y-103509247D01*
X185286821Y-103412381D01*
X185038561Y-103363000D01*
X184785439Y-103363000D01*
X184537179Y-103412381D01*
X184303324Y-103509247D01*
X184092860Y-103649875D01*
X183913875Y-103828860D01*
X183773247Y-104039324D01*
X183676381Y-104273179D01*
X183627000Y-104521439D01*
X183627000Y-104629928D01*
X183132000Y-104629928D01*
X183132000Y-99882801D01*
X185818730Y-97196072D01*
X186982000Y-97196072D01*
X187106482Y-97183812D01*
X187226180Y-97147502D01*
X187336494Y-97088537D01*
X187433185Y-97009185D01*
X187512537Y-96912494D01*
X187571502Y-96802180D01*
X187607812Y-96682482D01*
X187620072Y-96558000D01*
X187620072Y-94958000D01*
X187607812Y-94833518D01*
X187571502Y-94713820D01*
X187512537Y-94603506D01*
X187433185Y-94506815D01*
X187336494Y-94427463D01*
X187226180Y-94368498D01*
X187106482Y-94332188D01*
X186982000Y-94319928D01*
X185382000Y-94319928D01*
X185257518Y-94332188D01*
X185137820Y-94368498D01*
X185027506Y-94427463D01*
X184930815Y-94506815D01*
X184851463Y-94603506D01*
X184792498Y-94713820D01*
X184763339Y-94809943D01*
X184596759Y-94643363D01*
X184361727Y-94486320D01*
X184100574Y-94378147D01*
X183823335Y-94323000D01*
X183540665Y-94323000D01*
X183263426Y-94378147D01*
X183002273Y-94486320D01*
X182767241Y-94643363D01*
X182567363Y-94843241D01*
X182410320Y-95078273D01*
X182302147Y-95339426D01*
X182247000Y-95616665D01*
X182247000Y-95899335D01*
X182302147Y-96176574D01*
X182410320Y-96437727D01*
X182567363Y-96672759D01*
X182767241Y-96872637D01*
X183002273Y-97029680D01*
X183263426Y-97137853D01*
X183540665Y-97193000D01*
X183672199Y-97193000D01*
X181861003Y-99004196D01*
X181831999Y-99027999D01*
X181799999Y-99066992D01*
X181737026Y-99143724D01*
X181707162Y-99199595D01*
X181666454Y-99275754D01*
X181622997Y-99419015D01*
X181612000Y-99530668D01*
X181612000Y-99530678D01*
X181608324Y-99568000D01*
X181612000Y-99605322D01*
X181612001Y-108968000D01*
X156266801Y-108968000D01*
X158045678Y-107189124D01*
X158115439Y-107203000D01*
X158368561Y-107203000D01*
X158616821Y-107153619D01*
X158850676Y-107056753D01*
X159061140Y-106916125D01*
X159240125Y-106737140D01*
X159380753Y-106526676D01*
X159477619Y-106292821D01*
X159527000Y-106044561D01*
X159527000Y-105791439D01*
X159477619Y-105543179D01*
X159380753Y-105309324D01*
X159240125Y-105098860D01*
X159061140Y-104919875D01*
X158850676Y-104779247D01*
X158616821Y-104682381D01*
X158368561Y-104633000D01*
X158258559Y-104633000D01*
X158260952Y-104571545D01*
X158221270Y-104321551D01*
X158133578Y-104084104D01*
X158086201Y-103995466D01*
X157857527Y-103942078D01*
X157151605Y-104648000D01*
X157165748Y-104662143D01*
X156986143Y-104841748D01*
X156972000Y-104827605D01*
X156957858Y-104841748D01*
X156778253Y-104662143D01*
X156792395Y-104648000D01*
X156086473Y-103942078D01*
X155857799Y-103995466D01*
X155751905Y-104225374D01*
X155692898Y-104471524D01*
X155686729Y-104629928D01*
X155052000Y-104629928D01*
X154927518Y-104642188D01*
X154807820Y-104678498D01*
X154697506Y-104737463D01*
X154600815Y-104816815D01*
X154521463Y-104913506D01*
X154462498Y-105023820D01*
X154426188Y-105143518D01*
X154413928Y-105268000D01*
X154413928Y-106568000D01*
X154426188Y-106692482D01*
X154462498Y-106812180D01*
X154521463Y-106922494D01*
X154600815Y-107019185D01*
X154697506Y-107098537D01*
X154807820Y-107157502D01*
X154927518Y-107193812D01*
X155052000Y-107206072D01*
X155879126Y-107206072D01*
X154117199Y-108968000D01*
X153476802Y-108968000D01*
X148271275Y-103762473D01*
X156266078Y-103762473D01*
X156972000Y-104468395D01*
X157677922Y-103762473D01*
X157624534Y-103533799D01*
X157394626Y-103427905D01*
X157148476Y-103368898D01*
X156895545Y-103359048D01*
X156645551Y-103398730D01*
X156408104Y-103486422D01*
X156319466Y-103533799D01*
X156266078Y-103762473D01*
X148271275Y-103762473D01*
X144835804Y-100327003D01*
X144812001Y-100297999D01*
X144696276Y-100203026D01*
X144564247Y-100132454D01*
X144420986Y-100088997D01*
X144309333Y-100078000D01*
X144309322Y-100078000D01*
X144272000Y-100074324D01*
X144234678Y-100078000D01*
X143069268Y-100078000D01*
X143033847Y-99992485D01*
X142838500Y-99700129D01*
X142589871Y-99451500D01*
X142297515Y-99256153D01*
X141972665Y-99121596D01*
X141627807Y-99053000D01*
X141276193Y-99053000D01*
X140931335Y-99121596D01*
X140606485Y-99256153D01*
X140314129Y-99451500D01*
X140065500Y-99700129D01*
X139870153Y-99992485D01*
X139735596Y-100317335D01*
X139667000Y-100662193D01*
X138440072Y-100662193D01*
X138440072Y-100124729D01*
X140736801Y-97828000D01*
X155533928Y-97828000D01*
X155546188Y-97952482D01*
X155582498Y-98072180D01*
X155641463Y-98182494D01*
X155720815Y-98279185D01*
X155817506Y-98358537D01*
X155927820Y-98417502D01*
X156047518Y-98453812D01*
X156172000Y-98466072D01*
X156686250Y-98463000D01*
X156845000Y-98304250D01*
X156845000Y-97155000D01*
X157099000Y-97155000D01*
X157099000Y-98304250D01*
X157257750Y-98463000D01*
X157772000Y-98466072D01*
X157896482Y-98453812D01*
X158016180Y-98417502D01*
X158126494Y-98358537D01*
X158223185Y-98279185D01*
X158302537Y-98182494D01*
X158361502Y-98072180D01*
X158397812Y-97952482D01*
X158410072Y-97828000D01*
X158407000Y-97313750D01*
X158248250Y-97155000D01*
X157099000Y-97155000D01*
X156845000Y-97155000D01*
X155695750Y-97155000D01*
X155537000Y-97313750D01*
X155533928Y-97828000D01*
X140736801Y-97828000D01*
X142336801Y-96228000D01*
X155533928Y-96228000D01*
X155537000Y-96742250D01*
X155695750Y-96901000D01*
X156845000Y-96901000D01*
X156845000Y-96881000D01*
X157099000Y-96881000D01*
X157099000Y-96901000D01*
X158248250Y-96901000D01*
X158407000Y-96742250D01*
X158410072Y-96228000D01*
X158397812Y-96103518D01*
X158361502Y-95983820D01*
X158302537Y-95873506D01*
X158223185Y-95776815D01*
X158126494Y-95697463D01*
X158016180Y-95638498D01*
X157920057Y-95609339D01*
X158086637Y-95442759D01*
X158243680Y-95207727D01*
X158351853Y-94946574D01*
X158407000Y-94669335D01*
X158407000Y-94386665D01*
X158351853Y-94109426D01*
X158243680Y-93848273D01*
X158086637Y-93613241D01*
X157886759Y-93413363D01*
X157651727Y-93256320D01*
X157390574Y-93148147D01*
X157113335Y-93093000D01*
X156830665Y-93093000D01*
X156553426Y-93148147D01*
X156292273Y-93256320D01*
X156057241Y-93413363D01*
X155857363Y-93613241D01*
X155700320Y-93848273D01*
X155592147Y-94109426D01*
X155537000Y-94386665D01*
X155537000Y-94669335D01*
X155592147Y-94946574D01*
X155700320Y-95207727D01*
X155857363Y-95442759D01*
X156023943Y-95609339D01*
X155927820Y-95638498D01*
X155817506Y-95697463D01*
X155720815Y-95776815D01*
X155641463Y-95873506D01*
X155582498Y-95983820D01*
X155546188Y-96103518D01*
X155533928Y-96228000D01*
X142336801Y-96228000D01*
X143513003Y-95051799D01*
X143542001Y-95028001D01*
X143569639Y-94994324D01*
X143636974Y-94912277D01*
X143707546Y-94780247D01*
X143741190Y-94669335D01*
X143751003Y-94636986D01*
X143762000Y-94525333D01*
X143762000Y-94525324D01*
X143765676Y-94488001D01*
X143762000Y-94450678D01*
X143762000Y-89516072D01*
X144207000Y-89516072D01*
X144331482Y-89503812D01*
X144451180Y-89467502D01*
X144561494Y-89408537D01*
X144658185Y-89329185D01*
X144737537Y-89232494D01*
X144796502Y-89122180D01*
X144832812Y-89002482D01*
X144845072Y-88878000D01*
X144845072Y-84858000D01*
X144832812Y-84733518D01*
X144796502Y-84613820D01*
X144737537Y-84503506D01*
X144658185Y-84406815D01*
X144561494Y-84327463D01*
X144451180Y-84268498D01*
X144331482Y-84232188D01*
X144207000Y-84219928D01*
X141797000Y-84219928D01*
X141672518Y-84232188D01*
X141552820Y-84268498D01*
X141442506Y-84327463D01*
X141345815Y-84406815D01*
X141266463Y-84503506D01*
X141207498Y-84613820D01*
X141171188Y-84733518D01*
X141158928Y-84858000D01*
X141158928Y-88878000D01*
X141171188Y-89002482D01*
X141207498Y-89122180D01*
X141266463Y-89232494D01*
X141345815Y-89329185D01*
X141442506Y-89408537D01*
X141552820Y-89467502D01*
X141672518Y-89503812D01*
X141797000Y-89516072D01*
X142242000Y-89516072D01*
X142242001Y-94173197D01*
X137365271Y-99049928D01*
X135751998Y-99049928D01*
X135578744Y-99066992D01*
X135412148Y-99117528D01*
X135258613Y-99199595D01*
X135124038Y-99310038D01*
X135013595Y-99444613D01*
X134931528Y-99598148D01*
X134880992Y-99764744D01*
X134863928Y-99937998D01*
X84480000Y-99937998D01*
X84480000Y-91422193D01*
X115437000Y-91422193D01*
X115437000Y-91773807D01*
X115505596Y-92118665D01*
X115640153Y-92443515D01*
X115835500Y-92735871D01*
X116084129Y-92984500D01*
X116376485Y-93179847D01*
X116701335Y-93314404D01*
X117046193Y-93383000D01*
X117397807Y-93383000D01*
X117742665Y-93314404D01*
X118067515Y-93179847D01*
X118359871Y-92984500D01*
X118608500Y-92735871D01*
X118803847Y-92443515D01*
X118938404Y-92118665D01*
X119007000Y-91773807D01*
X119007000Y-91422193D01*
X118938404Y-91077335D01*
X118803847Y-90752485D01*
X118608500Y-90460129D01*
X118359871Y-90211500D01*
X118067515Y-90016153D01*
X117742665Y-89881596D01*
X117397807Y-89813000D01*
X117046193Y-89813000D01*
X116701335Y-89881596D01*
X116376485Y-90016153D01*
X116084129Y-90211500D01*
X115835500Y-90460129D01*
X115640153Y-90752485D01*
X115505596Y-91077335D01*
X115437000Y-91422193D01*
X84480000Y-91422193D01*
X84480000Y-84176816D01*
X166867000Y-84176816D01*
X166867000Y-84479184D01*
X166925989Y-84775743D01*
X167041701Y-85055095D01*
X167209688Y-85306505D01*
X167423495Y-85520312D01*
X167674905Y-85688299D01*
X167954257Y-85804011D01*
X168250816Y-85863000D01*
X168553184Y-85863000D01*
X168810930Y-85811731D01*
X171013201Y-88014003D01*
X171036999Y-88043001D01*
X171065997Y-88066799D01*
X171152723Y-88137974D01*
X171284753Y-88208546D01*
X171428014Y-88252003D01*
X171539667Y-88263000D01*
X171539676Y-88263000D01*
X171576999Y-88266676D01*
X171614322Y-88263000D01*
X182423957Y-88263000D01*
X182527363Y-88417759D01*
X182727241Y-88617637D01*
X182962273Y-88774680D01*
X183223426Y-88882853D01*
X183500665Y-88938000D01*
X183783335Y-88938000D01*
X184060574Y-88882853D01*
X184321727Y-88774680D01*
X184556759Y-88617637D01*
X184756637Y-88417759D01*
X184913680Y-88182727D01*
X185021853Y-87921574D01*
X185077000Y-87644335D01*
X185077000Y-87361665D01*
X185021853Y-87084426D01*
X184913680Y-86823273D01*
X184756637Y-86588241D01*
X184556759Y-86388363D01*
X184321727Y-86231320D01*
X184060574Y-86123147D01*
X183783335Y-86068000D01*
X183500665Y-86068000D01*
X183223426Y-86123147D01*
X182962273Y-86231320D01*
X182727241Y-86388363D01*
X182527363Y-86588241D01*
X182423957Y-86743000D01*
X171891802Y-86743000D01*
X171014874Y-85866072D01*
X171842000Y-85866072D01*
X171966482Y-85853812D01*
X172086180Y-85817502D01*
X172196494Y-85758537D01*
X172293185Y-85679185D01*
X172372537Y-85582494D01*
X172431502Y-85472180D01*
X172467812Y-85352482D01*
X172480072Y-85228000D01*
X172480072Y-83428000D01*
X172467812Y-83303518D01*
X172431502Y-83183820D01*
X172372537Y-83073506D01*
X172293185Y-82976815D01*
X172196494Y-82897463D01*
X172086180Y-82838498D01*
X171966482Y-82802188D01*
X171842000Y-82789928D01*
X170042000Y-82789928D01*
X169917518Y-82802188D01*
X169797820Y-82838498D01*
X169687506Y-82897463D01*
X169590815Y-82976815D01*
X169511463Y-83073506D01*
X169452498Y-83183820D01*
X169446944Y-83202127D01*
X169380505Y-83135688D01*
X169129095Y-82967701D01*
X168849743Y-82851989D01*
X168553184Y-82793000D01*
X168250816Y-82793000D01*
X167954257Y-82851989D01*
X167674905Y-82967701D01*
X167423495Y-83135688D01*
X167209688Y-83349495D01*
X167041701Y-83600905D01*
X166925989Y-83880257D01*
X166867000Y-84176816D01*
X84480000Y-84176816D01*
X84480000Y-80160702D01*
X161238903Y-80160702D01*
X161310486Y-80404671D01*
X161565996Y-80525571D01*
X161840184Y-80594300D01*
X162122512Y-80608217D01*
X162402130Y-80566787D01*
X162668292Y-80471603D01*
X162793514Y-80404671D01*
X162865097Y-80160702D01*
X167588903Y-80160702D01*
X167660486Y-80404671D01*
X167915996Y-80525571D01*
X168190184Y-80594300D01*
X168472512Y-80608217D01*
X168752130Y-80566787D01*
X169018292Y-80471603D01*
X169143514Y-80404671D01*
X169215097Y-80160702D01*
X168402000Y-79347605D01*
X167588903Y-80160702D01*
X162865097Y-80160702D01*
X162052000Y-79347605D01*
X161238903Y-80160702D01*
X84480000Y-80160702D01*
X84480000Y-79238512D01*
X160611783Y-79238512D01*
X160653213Y-79518130D01*
X160748397Y-79784292D01*
X160815329Y-79909514D01*
X161059298Y-79981097D01*
X161872395Y-79168000D01*
X162231605Y-79168000D01*
X163044702Y-79981097D01*
X163288671Y-79909514D01*
X163409571Y-79654004D01*
X163478300Y-79379816D01*
X163485265Y-79238512D01*
X166961783Y-79238512D01*
X167003213Y-79518130D01*
X167098397Y-79784292D01*
X167165329Y-79909514D01*
X167409298Y-79981097D01*
X168222395Y-79168000D01*
X168581605Y-79168000D01*
X169394702Y-79981097D01*
X169638671Y-79909514D01*
X169759571Y-79654004D01*
X169828300Y-79379816D01*
X169842217Y-79097488D01*
X169800787Y-78817870D01*
X169705603Y-78551708D01*
X169638671Y-78426486D01*
X169394702Y-78354903D01*
X168581605Y-79168000D01*
X168222395Y-79168000D01*
X167409298Y-78354903D01*
X167165329Y-78426486D01*
X167044429Y-78681996D01*
X166975700Y-78956184D01*
X166961783Y-79238512D01*
X163485265Y-79238512D01*
X163492217Y-79097488D01*
X163450787Y-78817870D01*
X163355603Y-78551708D01*
X163288671Y-78426486D01*
X163044702Y-78354903D01*
X162231605Y-79168000D01*
X161872395Y-79168000D01*
X161059298Y-78354903D01*
X160815329Y-78426486D01*
X160694429Y-78681996D01*
X160625700Y-78956184D01*
X160611783Y-79238512D01*
X84480000Y-79238512D01*
X84480000Y-78175298D01*
X161238903Y-78175298D01*
X162052000Y-78988395D01*
X162865097Y-78175298D01*
X167588903Y-78175298D01*
X168402000Y-78988395D01*
X169215097Y-78175298D01*
X169143514Y-77931329D01*
X168888004Y-77810429D01*
X168613816Y-77741700D01*
X168331488Y-77727783D01*
X168051870Y-77769213D01*
X167785708Y-77864397D01*
X167660486Y-77931329D01*
X167588903Y-78175298D01*
X162865097Y-78175298D01*
X162793514Y-77931329D01*
X162538004Y-77810429D01*
X162263816Y-77741700D01*
X161981488Y-77727783D01*
X161701870Y-77769213D01*
X161435708Y-77864397D01*
X161310486Y-77931329D01*
X161238903Y-78175298D01*
X84480000Y-78175298D01*
X84480000Y-73092616D01*
X141162000Y-73092616D01*
X141162000Y-74883383D01*
X141188624Y-75153702D01*
X141293837Y-75500543D01*
X141464694Y-75820194D01*
X141694629Y-76100371D01*
X141974805Y-76330306D01*
X142294456Y-76501163D01*
X142641297Y-76606376D01*
X143002000Y-76641902D01*
X143362702Y-76606376D01*
X143709543Y-76501163D01*
X144029194Y-76330306D01*
X144309371Y-76100371D01*
X144539306Y-75820195D01*
X144710163Y-75500544D01*
X144815376Y-75153703D01*
X144842000Y-74883384D01*
X144842000Y-74026665D01*
X160617000Y-74026665D01*
X160617000Y-74309335D01*
X160672147Y-74586574D01*
X160780320Y-74847727D01*
X160937363Y-75082759D01*
X161137241Y-75282637D01*
X161372273Y-75439680D01*
X161633426Y-75547853D01*
X161910665Y-75603000D01*
X162193335Y-75603000D01*
X162470574Y-75547853D01*
X162731727Y-75439680D01*
X162966759Y-75282637D01*
X163166637Y-75082759D01*
X163323680Y-74847727D01*
X163431853Y-74586574D01*
X163487000Y-74309335D01*
X163487000Y-74026665D01*
X163431853Y-73749426D01*
X163323680Y-73488273D01*
X163166637Y-73253241D01*
X162966759Y-73053363D01*
X162731727Y-72896320D01*
X162470574Y-72788147D01*
X162193335Y-72733000D01*
X161910665Y-72733000D01*
X161633426Y-72788147D01*
X161372273Y-72896320D01*
X161137241Y-73053363D01*
X160937363Y-73253241D01*
X160780320Y-73488273D01*
X160672147Y-73749426D01*
X160617000Y-74026665D01*
X144842000Y-74026665D01*
X144842000Y-73092616D01*
X144815376Y-72822297D01*
X144710163Y-72475456D01*
X144539306Y-72155805D01*
X144309371Y-71875629D01*
X144029195Y-71645694D01*
X143709544Y-71474837D01*
X143362703Y-71369624D01*
X143002000Y-71334098D01*
X142641298Y-71369624D01*
X142294457Y-71474837D01*
X141974806Y-71645694D01*
X141694630Y-71875629D01*
X141464695Y-72155805D01*
X141293838Y-72475456D01*
X141188625Y-72822297D01*
X141162000Y-73092616D01*
X84480000Y-73092616D01*
X84480000Y-69072193D01*
X101957000Y-69072193D01*
X101957000Y-69423807D01*
X102025596Y-69768665D01*
X102160153Y-70093515D01*
X102355500Y-70385871D01*
X102604129Y-70634500D01*
X102896485Y-70829847D01*
X103221335Y-70964404D01*
X103566193Y-71033000D01*
X103917807Y-71033000D01*
X104262665Y-70964404D01*
X104587515Y-70829847D01*
X104879871Y-70634500D01*
X105128500Y-70385871D01*
X105323847Y-70093515D01*
X105458404Y-69768665D01*
X105527000Y-69423807D01*
X105527000Y-69072193D01*
X128927000Y-69072193D01*
X128927000Y-69423807D01*
X128995596Y-69768665D01*
X129130153Y-70093515D01*
X129325500Y-70385871D01*
X129574129Y-70634500D01*
X129866485Y-70829847D01*
X130191335Y-70964404D01*
X130536193Y-71033000D01*
X130887807Y-71033000D01*
X131232665Y-70964404D01*
X131557515Y-70829847D01*
X131849871Y-70634500D01*
X132098500Y-70385871D01*
X132293847Y-70093515D01*
X132428404Y-69768665D01*
X132497000Y-69423807D01*
X132497000Y-69072193D01*
X132428404Y-68727335D01*
X132293847Y-68402485D01*
X132233163Y-68311665D01*
X148552000Y-68311665D01*
X148552000Y-68594335D01*
X148607147Y-68871574D01*
X148715320Y-69132727D01*
X148872363Y-69367759D01*
X149072241Y-69567637D01*
X149307273Y-69724680D01*
X149568426Y-69832853D01*
X149845665Y-69888000D01*
X150128335Y-69888000D01*
X150405574Y-69832853D01*
X150666727Y-69724680D01*
X150901759Y-69567637D01*
X151101637Y-69367759D01*
X151258680Y-69132727D01*
X151366853Y-68871574D01*
X151422000Y-68594335D01*
X151422000Y-68311665D01*
X153552000Y-68311665D01*
X153552000Y-68594335D01*
X153607147Y-68871574D01*
X153715320Y-69132727D01*
X153872363Y-69367759D01*
X154072241Y-69567637D01*
X154307273Y-69724680D01*
X154568426Y-69832853D01*
X154845665Y-69888000D01*
X155128335Y-69888000D01*
X155405574Y-69832853D01*
X155666727Y-69724680D01*
X155901759Y-69567637D01*
X156101637Y-69367759D01*
X156205043Y-69213000D01*
X161379678Y-69213000D01*
X161417000Y-69216676D01*
X161454322Y-69213000D01*
X161454333Y-69213000D01*
X161565986Y-69202003D01*
X161709247Y-69158546D01*
X161841276Y-69087974D01*
X161957001Y-68993001D01*
X161980804Y-68963997D01*
X163040635Y-67904167D01*
X163185589Y-67933000D01*
X163378199Y-67933000D01*
X168191881Y-72746682D01*
X167983426Y-72788147D01*
X167722273Y-72896320D01*
X167487241Y-73053363D01*
X167287363Y-73253241D01*
X167130320Y-73488273D01*
X167022147Y-73749426D01*
X166967000Y-74026665D01*
X166967000Y-74309335D01*
X167022147Y-74586574D01*
X167130320Y-74847727D01*
X167287363Y-75082759D01*
X167487241Y-75282637D01*
X167722273Y-75439680D01*
X167983426Y-75547853D01*
X168260665Y-75603000D01*
X168543335Y-75603000D01*
X168820574Y-75547853D01*
X169081727Y-75439680D01*
X169316759Y-75282637D01*
X169516637Y-75082759D01*
X169673680Y-74847727D01*
X169781853Y-74586574D01*
X169823318Y-74378120D01*
X171074819Y-75629621D01*
X171044226Y-75650063D01*
X170900063Y-75794226D01*
X170786795Y-75963744D01*
X170708774Y-76152102D01*
X170669000Y-76352061D01*
X170669000Y-76555939D01*
X170708774Y-76755898D01*
X170786795Y-76944256D01*
X170894011Y-77104716D01*
X170790226Y-77174063D01*
X170646063Y-77318226D01*
X170532795Y-77487744D01*
X170454774Y-77676102D01*
X170415000Y-77876061D01*
X170415000Y-78079939D01*
X170454774Y-78279898D01*
X170532795Y-78468256D01*
X170646063Y-78637774D01*
X170790226Y-78781937D01*
X170959744Y-78895205D01*
X171148102Y-78973226D01*
X171348061Y-79013000D01*
X171551939Y-79013000D01*
X171751898Y-78973226D01*
X171929988Y-78899458D01*
X172000104Y-78984896D01*
X172111949Y-79076684D01*
X172239552Y-79144890D01*
X172378009Y-79186890D01*
X172522000Y-79201072D01*
X173797000Y-79201072D01*
X173940991Y-79186890D01*
X174079448Y-79144890D01*
X174207051Y-79076684D01*
X174318896Y-78984896D01*
X174410684Y-78873051D01*
X174478890Y-78745448D01*
X174520890Y-78606991D01*
X174535072Y-78463000D01*
X174535072Y-78263000D01*
X174520890Y-78119009D01*
X174496316Y-78038000D01*
X174520890Y-77956991D01*
X174535072Y-77813000D01*
X174535072Y-77613000D01*
X174520890Y-77469009D01*
X174509650Y-77431955D01*
X174520868Y-77396883D01*
X174532000Y-77294750D01*
X174373250Y-77136000D01*
X174355741Y-77136000D01*
X174318896Y-77091104D01*
X174284651Y-77063000D01*
X174318896Y-77034896D01*
X174355741Y-76990000D01*
X174373250Y-76990000D01*
X174532000Y-76831250D01*
X174520868Y-76729117D01*
X174509650Y-76694045D01*
X174520890Y-76656991D01*
X174535072Y-76513000D01*
X174535072Y-76313000D01*
X174520890Y-76169009D01*
X174496316Y-76088000D01*
X174520890Y-76006991D01*
X174535072Y-75863000D01*
X174535072Y-75663000D01*
X174520890Y-75519009D01*
X174496316Y-75438000D01*
X174520890Y-75356991D01*
X174535072Y-75213000D01*
X174535072Y-75013000D01*
X174520890Y-74869009D01*
X174496316Y-74788000D01*
X174520890Y-74706991D01*
X174535072Y-74563000D01*
X174535072Y-74363000D01*
X174520890Y-74219009D01*
X174496316Y-74138000D01*
X174520890Y-74056991D01*
X174535072Y-73913000D01*
X174535072Y-73713000D01*
X174520890Y-73569009D01*
X174496316Y-73488000D01*
X174520890Y-73406991D01*
X174535072Y-73263000D01*
X174535072Y-73063000D01*
X174520890Y-72919009D01*
X174496316Y-72838000D01*
X174520890Y-72756991D01*
X174535072Y-72613000D01*
X174535072Y-72413000D01*
X174520890Y-72269009D01*
X174478890Y-72130552D01*
X174410684Y-72002949D01*
X174318896Y-71891104D01*
X174207051Y-71799316D01*
X174079448Y-71731110D01*
X173940991Y-71689110D01*
X173797000Y-71674928D01*
X172522000Y-71674928D01*
X172378009Y-71689110D01*
X172239552Y-71731110D01*
X172217975Y-71742643D01*
X172194256Y-71726795D01*
X172005898Y-71648774D01*
X171805939Y-71609000D01*
X171602061Y-71609000D01*
X171402102Y-71648774D01*
X171213744Y-71726795D01*
X171044226Y-71840063D01*
X170976721Y-71907568D01*
X169416000Y-70346847D01*
X169416000Y-68132801D01*
X169788003Y-67760799D01*
X169817002Y-67737000D01*
X169909904Y-67623799D01*
X169911975Y-67621276D01*
X169982547Y-67489246D01*
X170011522Y-67393725D01*
X170026004Y-67345985D01*
X170037001Y-67234332D01*
X170037001Y-67234323D01*
X170040677Y-67197000D01*
X170037001Y-67159677D01*
X170037001Y-63650323D01*
X170040677Y-63613000D01*
X170037001Y-63575677D01*
X170037001Y-63575668D01*
X170026004Y-63464015D01*
X169982547Y-63320754D01*
X169911975Y-63188725D01*
X169817002Y-63073000D01*
X169788005Y-63049203D01*
X164763209Y-58024408D01*
X164807000Y-57804260D01*
X164807000Y-57511740D01*
X164749932Y-57224842D01*
X164637990Y-56954589D01*
X164540043Y-56808000D01*
X168183928Y-56808000D01*
X168183928Y-58508000D01*
X168196188Y-58632482D01*
X168232498Y-58752180D01*
X168291463Y-58862494D01*
X168370815Y-58959185D01*
X168467506Y-59038537D01*
X168577820Y-59097502D01*
X168697518Y-59133812D01*
X168822000Y-59146072D01*
X170522000Y-59146072D01*
X170646482Y-59133812D01*
X170766180Y-59097502D01*
X170876494Y-59038537D01*
X170973185Y-58959185D01*
X171052537Y-58862494D01*
X171111502Y-58752180D01*
X171133513Y-58679620D01*
X171265368Y-58811475D01*
X171508589Y-58973990D01*
X171778842Y-59085932D01*
X172065740Y-59143000D01*
X172358260Y-59143000D01*
X172645158Y-59085932D01*
X172915411Y-58973990D01*
X173158632Y-58811475D01*
X173365475Y-58604632D01*
X173482000Y-58430240D01*
X173598525Y-58604632D01*
X173805368Y-58811475D01*
X174048589Y-58973990D01*
X174318842Y-59085932D01*
X174605740Y-59143000D01*
X174898260Y-59143000D01*
X175185158Y-59085932D01*
X175455411Y-58973990D01*
X175698632Y-58811475D01*
X175905475Y-58604632D01*
X176022000Y-58430240D01*
X176138525Y-58604632D01*
X176345368Y-58811475D01*
X176532000Y-58936179D01*
X176532001Y-72871725D01*
X176528324Y-72909058D01*
X176532001Y-72946391D01*
X176542998Y-73058044D01*
X176550687Y-73083391D01*
X176586454Y-73201304D01*
X176657026Y-73333334D01*
X176728201Y-73420060D01*
X176752000Y-73449059D01*
X176780998Y-73472857D01*
X177524050Y-74215910D01*
X177523110Y-74219009D01*
X177508928Y-74363000D01*
X177508928Y-74563000D01*
X177523110Y-74706991D01*
X177547684Y-74788000D01*
X177523110Y-74869009D01*
X177508928Y-75013000D01*
X177508928Y-75213000D01*
X177523110Y-75356991D01*
X177547684Y-75438000D01*
X177523110Y-75519009D01*
X177508928Y-75663000D01*
X177508928Y-75863000D01*
X177523110Y-76006991D01*
X177547684Y-76088000D01*
X177523110Y-76169009D01*
X177508928Y-76313000D01*
X177508928Y-76513000D01*
X177523110Y-76656991D01*
X177547684Y-76738000D01*
X177523110Y-76819009D01*
X177508928Y-76963000D01*
X177508928Y-77163000D01*
X177523110Y-77306991D01*
X177547684Y-77388000D01*
X177523110Y-77469009D01*
X177508928Y-77613000D01*
X177508928Y-77813000D01*
X177523110Y-77956991D01*
X177547684Y-78038000D01*
X177523110Y-78119009D01*
X177508928Y-78263000D01*
X177508928Y-78463000D01*
X177523110Y-78606991D01*
X177565110Y-78745448D01*
X177633316Y-78873051D01*
X177725104Y-78984896D01*
X177836949Y-79076684D01*
X177964552Y-79144890D01*
X178103009Y-79186890D01*
X178247000Y-79201072D01*
X179522000Y-79201072D01*
X179665991Y-79186890D01*
X179804448Y-79144890D01*
X179932051Y-79076684D01*
X180043896Y-78984896D01*
X180135684Y-78873051D01*
X180203890Y-78745448D01*
X180245890Y-78606991D01*
X180260072Y-78463000D01*
X180260072Y-78263000D01*
X180245890Y-78119009D01*
X180221316Y-78038000D01*
X180245890Y-77956991D01*
X180260072Y-77813000D01*
X180260072Y-77613000D01*
X180245890Y-77469009D01*
X180221316Y-77388000D01*
X180245890Y-77306991D01*
X180260072Y-77163000D01*
X180260072Y-76963000D01*
X180245890Y-76819009D01*
X180221316Y-76738000D01*
X180245890Y-76656991D01*
X180260072Y-76513000D01*
X180260072Y-76313000D01*
X180245890Y-76169009D01*
X180221316Y-76088000D01*
X180245890Y-76006991D01*
X180260072Y-75863000D01*
X180260072Y-75663000D01*
X180245890Y-75519009D01*
X180221316Y-75438000D01*
X180245890Y-75356991D01*
X180246777Y-75347990D01*
X182314510Y-75347990D01*
X182370320Y-75482727D01*
X182527363Y-75717759D01*
X182727241Y-75917637D01*
X182962273Y-76074680D01*
X183223426Y-76182853D01*
X183500665Y-76238000D01*
X183783335Y-76238000D01*
X184060574Y-76182853D01*
X184321727Y-76074680D01*
X184556759Y-75917637D01*
X184756637Y-75717759D01*
X184913680Y-75482727D01*
X185021853Y-75221574D01*
X185077000Y-74944335D01*
X185077000Y-74661665D01*
X185021853Y-74384426D01*
X184913680Y-74123273D01*
X184756637Y-73888241D01*
X184556759Y-73688363D01*
X184321727Y-73531320D01*
X184060574Y-73423147D01*
X183783335Y-73368000D01*
X183500665Y-73368000D01*
X183223426Y-73423147D01*
X182962273Y-73531320D01*
X182727241Y-73688363D01*
X182587614Y-73827990D01*
X180260072Y-73827990D01*
X180260072Y-73713000D01*
X180245890Y-73569009D01*
X180221316Y-73488000D01*
X180245890Y-73406991D01*
X180260072Y-73263000D01*
X180260072Y-73247040D01*
X186060091Y-73247040D01*
X186154930Y-73511881D01*
X186299615Y-73753131D01*
X186488586Y-73961519D01*
X186714580Y-74129037D01*
X186968913Y-74249246D01*
X187102961Y-74289904D01*
X187325000Y-74167915D01*
X187325000Y-73025000D01*
X187579000Y-73025000D01*
X187579000Y-74167915D01*
X187801039Y-74289904D01*
X187935087Y-74249246D01*
X188189420Y-74129037D01*
X188415414Y-73961519D01*
X188604385Y-73753131D01*
X188749070Y-73511881D01*
X188843909Y-73247040D01*
X188722624Y-73025000D01*
X187579000Y-73025000D01*
X187325000Y-73025000D01*
X186181376Y-73025000D01*
X186060091Y-73247040D01*
X180260072Y-73247040D01*
X180260072Y-73063000D01*
X180245890Y-72919009D01*
X180221316Y-72838000D01*
X180245890Y-72756991D01*
X180260072Y-72613000D01*
X180260072Y-72548960D01*
X186060091Y-72548960D01*
X186181376Y-72771000D01*
X187325000Y-72771000D01*
X187325000Y-71628085D01*
X187579000Y-71628085D01*
X187579000Y-72771000D01*
X188722624Y-72771000D01*
X188843909Y-72548960D01*
X188749070Y-72284119D01*
X188604385Y-72042869D01*
X188415414Y-71834481D01*
X188189420Y-71666963D01*
X187935087Y-71546754D01*
X187801039Y-71506096D01*
X187579000Y-71628085D01*
X187325000Y-71628085D01*
X187102961Y-71506096D01*
X186968913Y-71546754D01*
X186714580Y-71666963D01*
X186488586Y-71834481D01*
X186299615Y-72042869D01*
X186154930Y-72284119D01*
X186060091Y-72548960D01*
X180260072Y-72548960D01*
X180260072Y-72413000D01*
X180245890Y-72269009D01*
X180209976Y-72150617D01*
X180387898Y-72115226D01*
X180576256Y-72037205D01*
X180745774Y-71923937D01*
X180889937Y-71779774D01*
X181003205Y-71610256D01*
X181081226Y-71421898D01*
X181121000Y-71221939D01*
X181121000Y-71159801D01*
X183612801Y-68668000D01*
X191043928Y-68668000D01*
X191056188Y-68792482D01*
X191092498Y-68912180D01*
X191151463Y-69022494D01*
X191230815Y-69119185D01*
X191327506Y-69198537D01*
X191437820Y-69257502D01*
X191557518Y-69293812D01*
X191682000Y-69306072D01*
X192246250Y-69303000D01*
X192405000Y-69144250D01*
X192405000Y-67945000D01*
X192659000Y-67945000D01*
X192659000Y-69144250D01*
X192817750Y-69303000D01*
X193382000Y-69306072D01*
X193506482Y-69293812D01*
X193626180Y-69257502D01*
X193736494Y-69198537D01*
X193833185Y-69119185D01*
X193912537Y-69022494D01*
X193971502Y-68912180D01*
X194007812Y-68792482D01*
X194020072Y-68668000D01*
X194017000Y-68103750D01*
X193858250Y-67945000D01*
X192659000Y-67945000D01*
X192405000Y-67945000D01*
X191205750Y-67945000D01*
X191047000Y-68103750D01*
X191043928Y-68668000D01*
X183612801Y-68668000D01*
X187963003Y-64317799D01*
X187992001Y-64294001D01*
X188050270Y-64223000D01*
X188086974Y-64178277D01*
X188157546Y-64046247D01*
X188169156Y-64007974D01*
X188201003Y-63902986D01*
X188212000Y-63791333D01*
X188212000Y-63791324D01*
X188215676Y-63754001D01*
X188212000Y-63716678D01*
X188212000Y-62032801D01*
X191090790Y-64911592D01*
X191047000Y-65131740D01*
X191047000Y-65424260D01*
X191104068Y-65711158D01*
X191216010Y-65981411D01*
X191378525Y-66224632D01*
X191510380Y-66356487D01*
X191437820Y-66378498D01*
X191327506Y-66437463D01*
X191230815Y-66516815D01*
X191151463Y-66613506D01*
X191092498Y-66723820D01*
X191056188Y-66843518D01*
X191043928Y-66968000D01*
X191047000Y-67532250D01*
X191205750Y-67691000D01*
X192405000Y-67691000D01*
X192405000Y-67671000D01*
X192659000Y-67671000D01*
X192659000Y-67691000D01*
X193858250Y-67691000D01*
X194017000Y-67532250D01*
X194020072Y-66968000D01*
X194007812Y-66843518D01*
X193971502Y-66723820D01*
X193912537Y-66613506D01*
X193833185Y-66516815D01*
X193736494Y-66437463D01*
X193626180Y-66378498D01*
X193553620Y-66356487D01*
X193685475Y-66224632D01*
X193847990Y-65981411D01*
X193959932Y-65711158D01*
X194017000Y-65424260D01*
X194017000Y-65131740D01*
X193959932Y-64844842D01*
X193847990Y-64574589D01*
X193685475Y-64331368D01*
X193478632Y-64124525D01*
X193304240Y-64008000D01*
X193478632Y-63891475D01*
X193685475Y-63684632D01*
X193847990Y-63441411D01*
X193959932Y-63171158D01*
X194017000Y-62884260D01*
X194017000Y-62591740D01*
X193959932Y-62304842D01*
X193847990Y-62034589D01*
X193685475Y-61791368D01*
X193478632Y-61584525D01*
X193235411Y-61422010D01*
X192965158Y-61310068D01*
X192678260Y-61253000D01*
X192385740Y-61253000D01*
X192098842Y-61310068D01*
X191828589Y-61422010D01*
X191585368Y-61584525D01*
X191378525Y-61791368D01*
X191216010Y-62034589D01*
X191104068Y-62304842D01*
X191047000Y-62591740D01*
X191047000Y-62718198D01*
X188850688Y-60521887D01*
X188887000Y-60339335D01*
X188887000Y-60056665D01*
X188831853Y-59779426D01*
X188723680Y-59518273D01*
X188566637Y-59283241D01*
X188366759Y-59083363D01*
X188131727Y-58926320D01*
X187870574Y-58818147D01*
X187593335Y-58763000D01*
X187310665Y-58763000D01*
X187033426Y-58818147D01*
X186772273Y-58926320D01*
X186537241Y-59083363D01*
X186337363Y-59283241D01*
X186180320Y-59518273D01*
X186072147Y-59779426D01*
X186017000Y-60056665D01*
X186017000Y-60339335D01*
X186072147Y-60616574D01*
X186180320Y-60877727D01*
X186337363Y-61112759D01*
X186537241Y-61312637D01*
X186692000Y-61416044D01*
X186692001Y-63439197D01*
X180046199Y-70085000D01*
X179984061Y-70085000D01*
X179784102Y-70124774D01*
X179595744Y-70202795D01*
X179426226Y-70316063D01*
X179282063Y-70460226D01*
X179168795Y-70629744D01*
X179090774Y-70818102D01*
X179051000Y-71018061D01*
X179051000Y-71221939D01*
X179090774Y-71421898D01*
X179168795Y-71610256D01*
X179212007Y-71674928D01*
X178560000Y-71674928D01*
X178560000Y-59203803D01*
X178978005Y-58785799D01*
X179007002Y-58762002D01*
X179101975Y-58646277D01*
X179172547Y-58514248D01*
X179216004Y-58370987D01*
X179227001Y-58259334D01*
X179227001Y-58259324D01*
X179230677Y-58222001D01*
X179227001Y-58184678D01*
X179227001Y-57131321D01*
X179230677Y-57093998D01*
X179227001Y-57056675D01*
X179227001Y-57056666D01*
X179216004Y-56945013D01*
X179172547Y-56801752D01*
X179101975Y-56669723D01*
X179071004Y-56631985D01*
X179030800Y-56582995D01*
X179030796Y-56582991D01*
X179007002Y-56553998D01*
X178978009Y-56530204D01*
X178833804Y-56386000D01*
X191320289Y-56386000D01*
X191364226Y-56429937D01*
X191533744Y-56543205D01*
X191722102Y-56621226D01*
X191922061Y-56661000D01*
X192125939Y-56661000D01*
X192325898Y-56621226D01*
X192514256Y-56543205D01*
X192683774Y-56429937D01*
X192827937Y-56285774D01*
X192941205Y-56116256D01*
X193019226Y-55927898D01*
X193059000Y-55727939D01*
X193059000Y-55524061D01*
X193019226Y-55324102D01*
X192941205Y-55135744D01*
X192827937Y-54966226D01*
X192683774Y-54822063D01*
X192514256Y-54708795D01*
X192325898Y-54630774D01*
X192125939Y-54591000D01*
X191922061Y-54591000D01*
X191722102Y-54630774D01*
X191533744Y-54708795D01*
X191364226Y-54822063D01*
X191320289Y-54866000D01*
X174281323Y-54866000D01*
X174244000Y-54862324D01*
X174206677Y-54866000D01*
X174206667Y-54866000D01*
X174095014Y-54876997D01*
X173951753Y-54920454D01*
X173819723Y-54991026D01*
X173736083Y-55059668D01*
X173703999Y-55085999D01*
X173680201Y-55114997D01*
X172578408Y-56216791D01*
X172358260Y-56173000D01*
X172065740Y-56173000D01*
X171778842Y-56230068D01*
X171508589Y-56342010D01*
X171265368Y-56504525D01*
X171133513Y-56636380D01*
X171111502Y-56563820D01*
X171052537Y-56453506D01*
X170973185Y-56356815D01*
X170876494Y-56277463D01*
X170766180Y-56218498D01*
X170646482Y-56182188D01*
X170522000Y-56169928D01*
X168822000Y-56169928D01*
X168697518Y-56182188D01*
X168577820Y-56218498D01*
X168467506Y-56277463D01*
X168370815Y-56356815D01*
X168291463Y-56453506D01*
X168232498Y-56563820D01*
X168196188Y-56683518D01*
X168183928Y-56808000D01*
X164540043Y-56808000D01*
X164475475Y-56711368D01*
X164268632Y-56504525D01*
X164025411Y-56342010D01*
X163755158Y-56230068D01*
X163468260Y-56173000D01*
X163175740Y-56173000D01*
X162888842Y-56230068D01*
X162618589Y-56342010D01*
X162375368Y-56504525D01*
X162168525Y-56711368D01*
X162052000Y-56885760D01*
X161935475Y-56711368D01*
X161728632Y-56504525D01*
X161485411Y-56342010D01*
X161215158Y-56230068D01*
X160928260Y-56173000D01*
X160635740Y-56173000D01*
X160348842Y-56230068D01*
X160078589Y-56342010D01*
X159835368Y-56504525D01*
X159628525Y-56711368D01*
X159512000Y-56885760D01*
X159395475Y-56711368D01*
X159188632Y-56504525D01*
X158945411Y-56342010D01*
X158675158Y-56230068D01*
X158388260Y-56173000D01*
X158095740Y-56173000D01*
X157808842Y-56230068D01*
X157538589Y-56342010D01*
X157295368Y-56504525D01*
X157163513Y-56636380D01*
X157141502Y-56563820D01*
X157082537Y-56453506D01*
X157003185Y-56356815D01*
X156906494Y-56277463D01*
X156796180Y-56218498D01*
X156676482Y-56182188D01*
X156552000Y-56169928D01*
X155987750Y-56173000D01*
X155829000Y-56331750D01*
X155829000Y-57531000D01*
X155849000Y-57531000D01*
X155849000Y-57785000D01*
X155829000Y-57785000D01*
X155829000Y-58984250D01*
X155987750Y-59143000D01*
X156552000Y-59146072D01*
X156676482Y-59133812D01*
X156796180Y-59097502D01*
X156906494Y-59038537D01*
X157003185Y-58959185D01*
X157082537Y-58862494D01*
X157141502Y-58752180D01*
X157163513Y-58679620D01*
X157295368Y-58811475D01*
X157538589Y-58973990D01*
X157808842Y-59085932D01*
X158095740Y-59143000D01*
X158388260Y-59143000D01*
X158675158Y-59085932D01*
X158945411Y-58973990D01*
X159188632Y-58811475D01*
X159395475Y-58604632D01*
X159512000Y-58430240D01*
X159628525Y-58604632D01*
X159835368Y-58811475D01*
X160078589Y-58973990D01*
X160348842Y-59085932D01*
X160635740Y-59143000D01*
X160928260Y-59143000D01*
X161215158Y-59085932D01*
X161485411Y-58973990D01*
X161728632Y-58811475D01*
X161935475Y-58604632D01*
X162052000Y-58430240D01*
X162168525Y-58604632D01*
X162375368Y-58811475D01*
X162618589Y-58973990D01*
X162888842Y-59085932D01*
X163175740Y-59143000D01*
X163468260Y-59143000D01*
X163688408Y-59099209D01*
X168517001Y-63927803D01*
X168517001Y-65198524D01*
X168338411Y-65163000D01*
X168065589Y-65163000D01*
X167920635Y-65191833D01*
X165590804Y-62862003D01*
X165567001Y-62832999D01*
X165451276Y-62738026D01*
X165319247Y-62667454D01*
X165175986Y-62623997D01*
X165064333Y-62613000D01*
X165064322Y-62613000D01*
X165027000Y-62609324D01*
X164989678Y-62613000D01*
X156285043Y-62613000D01*
X156181637Y-62458241D01*
X155981759Y-62258363D01*
X155746727Y-62101320D01*
X155485574Y-61993147D01*
X155208335Y-61938000D01*
X154925665Y-61938000D01*
X154648426Y-61993147D01*
X154387273Y-62101320D01*
X154152241Y-62258363D01*
X153952363Y-62458241D01*
X153795320Y-62693273D01*
X153687147Y-62954426D01*
X153632000Y-63231665D01*
X153632000Y-63514335D01*
X153687147Y-63791574D01*
X153795320Y-64052727D01*
X153952363Y-64287759D01*
X154152241Y-64487637D01*
X154387273Y-64644680D01*
X154648426Y-64752853D01*
X154925665Y-64808000D01*
X155208335Y-64808000D01*
X155485574Y-64752853D01*
X155746727Y-64644680D01*
X155981759Y-64487637D01*
X156181637Y-64287759D01*
X156285043Y-64133000D01*
X164712199Y-64133000D01*
X166845833Y-66266635D01*
X166817000Y-66411589D01*
X166817000Y-66684411D01*
X166870225Y-66951989D01*
X166974629Y-67204043D01*
X167126201Y-67430886D01*
X167319114Y-67623799D01*
X167442000Y-67705909D01*
X167442001Y-69847199D01*
X164622440Y-67027639D01*
X164653775Y-66951989D01*
X164707000Y-66684411D01*
X164707000Y-66411589D01*
X164653775Y-66144011D01*
X164549371Y-65891957D01*
X164397799Y-65665114D01*
X164204886Y-65472201D01*
X163978043Y-65320629D01*
X163725989Y-65216225D01*
X163458411Y-65163000D01*
X163185589Y-65163000D01*
X162918011Y-65216225D01*
X162665957Y-65320629D01*
X162439114Y-65472201D01*
X162246201Y-65665114D01*
X162094629Y-65891957D01*
X161990225Y-66144011D01*
X161937000Y-66411589D01*
X161937000Y-66684411D01*
X161965833Y-66829365D01*
X161102199Y-67693000D01*
X156205043Y-67693000D01*
X156101637Y-67538241D01*
X155901759Y-67338363D01*
X155666727Y-67181320D01*
X155405574Y-67073147D01*
X155128335Y-67018000D01*
X154845665Y-67018000D01*
X154568426Y-67073147D01*
X154307273Y-67181320D01*
X154072241Y-67338363D01*
X153872363Y-67538241D01*
X153715320Y-67773273D01*
X153607147Y-68034426D01*
X153552000Y-68311665D01*
X151422000Y-68311665D01*
X151366853Y-68034426D01*
X151258680Y-67773273D01*
X151101637Y-67538241D01*
X150901759Y-67338363D01*
X150666727Y-67181320D01*
X150405574Y-67073147D01*
X150128335Y-67018000D01*
X149845665Y-67018000D01*
X149568426Y-67073147D01*
X149307273Y-67181320D01*
X149072241Y-67338363D01*
X148872363Y-67538241D01*
X148715320Y-67773273D01*
X148607147Y-68034426D01*
X148552000Y-68311665D01*
X132233163Y-68311665D01*
X132098500Y-68110129D01*
X131849871Y-67861500D01*
X131557515Y-67666153D01*
X131232665Y-67531596D01*
X130887807Y-67463000D01*
X130536193Y-67463000D01*
X130191335Y-67531596D01*
X129866485Y-67666153D01*
X129574129Y-67861500D01*
X129325500Y-68110129D01*
X129130153Y-68402485D01*
X128995596Y-68727335D01*
X128927000Y-69072193D01*
X105527000Y-69072193D01*
X105458404Y-68727335D01*
X105323847Y-68402485D01*
X105128500Y-68110129D01*
X104879871Y-67861500D01*
X104587515Y-67666153D01*
X104262665Y-67531596D01*
X103917807Y-67463000D01*
X103566193Y-67463000D01*
X103221335Y-67531596D01*
X102896485Y-67666153D01*
X102604129Y-67861500D01*
X102355500Y-68110129D01*
X102160153Y-68402485D01*
X102025596Y-68727335D01*
X101957000Y-69072193D01*
X84480000Y-69072193D01*
X84480000Y-63231665D01*
X148632000Y-63231665D01*
X148632000Y-63514335D01*
X148687147Y-63791574D01*
X148795320Y-64052727D01*
X148952363Y-64287759D01*
X149152241Y-64487637D01*
X149387273Y-64644680D01*
X149648426Y-64752853D01*
X149925665Y-64808000D01*
X150208335Y-64808000D01*
X150485574Y-64752853D01*
X150746727Y-64644680D01*
X150981759Y-64487637D01*
X151181637Y-64287759D01*
X151338680Y-64052727D01*
X151446853Y-63791574D01*
X151502000Y-63514335D01*
X151502000Y-63231665D01*
X151446853Y-62954426D01*
X151338680Y-62693273D01*
X151181637Y-62458241D01*
X150981759Y-62258363D01*
X150746727Y-62101320D01*
X150485574Y-61993147D01*
X150208335Y-61938000D01*
X149925665Y-61938000D01*
X149648426Y-61993147D01*
X149387273Y-62101320D01*
X149152241Y-62258363D01*
X148952363Y-62458241D01*
X148795320Y-62693273D01*
X148687147Y-62954426D01*
X148632000Y-63231665D01*
X84480000Y-63231665D01*
X84480000Y-58508000D01*
X154213928Y-58508000D01*
X154226188Y-58632482D01*
X154262498Y-58752180D01*
X154321463Y-58862494D01*
X154400815Y-58959185D01*
X154497506Y-59038537D01*
X154607820Y-59097502D01*
X154727518Y-59133812D01*
X154852000Y-59146072D01*
X155416250Y-59143000D01*
X155575000Y-58984250D01*
X155575000Y-57785000D01*
X154375750Y-57785000D01*
X154217000Y-57943750D01*
X154213928Y-58508000D01*
X84480000Y-58508000D01*
X84480000Y-56808000D01*
X154213928Y-56808000D01*
X154217000Y-57372250D01*
X154375750Y-57531000D01*
X155575000Y-57531000D01*
X155575000Y-56331750D01*
X155416250Y-56173000D01*
X154852000Y-56169928D01*
X154727518Y-56182188D01*
X154607820Y-56218498D01*
X154497506Y-56277463D01*
X154400815Y-56356815D01*
X154321463Y-56453506D01*
X154262498Y-56563820D01*
X154226188Y-56683518D01*
X154213928Y-56808000D01*
X84480000Y-56808000D01*
X84480000Y-54000000D01*
X198222000Y-54000000D01*
X198222001Y-124689000D01*
G37*
%TD.AperFunction*%
%TD*%
M02*
