%TF.GenerationSoftware,KiCad,Pcbnew,5.1.12-84ad8e8a86~92~ubuntu20.04.1*%
%TF.CreationDate,2021-12-12T14:48:12+01:00*%
%TF.ProjectId,funkwecker,66756e6b-7765-4636-9b65-722e6b696361,0.1*%
%TF.SameCoordinates,Original*%
%TF.FileFunction,Legend,Top*%
%TF.FilePolarity,Positive*%
%FSLAX46Y46*%
G04 Gerber Fmt 4.6, Leading zero omitted, Abs format (unit mm)*
G04 Created by KiCad (PCBNEW 5.1.12-84ad8e8a86~92~ubuntu20.04.1) date 2021-12-12 14:48:12*
%MOMM*%
%LPD*%
G01*
G04 APERTURE LIST*
%ADD10C,0.300000*%
%ADD11C,0.150000*%
%ADD12C,0.120000*%
G04 APERTURE END LIST*
D10*
X94067714Y-122598571D02*
X93567714Y-121884285D01*
X93210571Y-122598571D02*
X93210571Y-121098571D01*
X93782000Y-121098571D01*
X93924857Y-121170000D01*
X93996285Y-121241428D01*
X94067714Y-121384285D01*
X94067714Y-121598571D01*
X93996285Y-121741428D01*
X93924857Y-121812857D01*
X93782000Y-121884285D01*
X93210571Y-121884285D01*
X94710571Y-121812857D02*
X95210571Y-121812857D01*
X95424857Y-122598571D02*
X94710571Y-122598571D01*
X94710571Y-121098571D01*
X95424857Y-121098571D01*
X95853428Y-121098571D02*
X96353428Y-122598571D01*
X96853428Y-121098571D01*
X96996285Y-122741428D02*
X98139142Y-122741428D01*
X98782000Y-121098571D02*
X98924857Y-121098571D01*
X99067714Y-121170000D01*
X99139142Y-121241428D01*
X99210571Y-121384285D01*
X99282000Y-121670000D01*
X99282000Y-122027142D01*
X99210571Y-122312857D01*
X99139142Y-122455714D01*
X99067714Y-122527142D01*
X98924857Y-122598571D01*
X98782000Y-122598571D01*
X98639142Y-122527142D01*
X98567714Y-122455714D01*
X98496285Y-122312857D01*
X98424857Y-122027142D01*
X98424857Y-121670000D01*
X98496285Y-121384285D01*
X98567714Y-121241428D01*
X98639142Y-121170000D01*
X98782000Y-121098571D01*
X99924857Y-122455714D02*
X99996285Y-122527142D01*
X99924857Y-122598571D01*
X99853428Y-122527142D01*
X99924857Y-122455714D01*
X99924857Y-122598571D01*
X101424857Y-122598571D02*
X100567714Y-122598571D01*
X100996285Y-122598571D02*
X100996285Y-121098571D01*
X100853428Y-121312857D01*
X100710571Y-121455714D01*
X100567714Y-121527142D01*
D11*
X134422095Y-106370380D02*
X134422095Y-105370380D01*
X134755428Y-106084666D01*
X135088761Y-105370380D01*
X135088761Y-106370380D01*
X135993523Y-106370380D02*
X135993523Y-105846571D01*
X135945904Y-105751333D01*
X135850666Y-105703714D01*
X135660190Y-105703714D01*
X135564952Y-105751333D01*
X135993523Y-106322761D02*
X135898285Y-106370380D01*
X135660190Y-106370380D01*
X135564952Y-106322761D01*
X135517333Y-106227523D01*
X135517333Y-106132285D01*
X135564952Y-106037047D01*
X135660190Y-105989428D01*
X135898285Y-105989428D01*
X135993523Y-105941809D01*
X136469714Y-106370380D02*
X136469714Y-105703714D01*
X136469714Y-105370380D02*
X136422095Y-105418000D01*
X136469714Y-105465619D01*
X136517333Y-105418000D01*
X136469714Y-105370380D01*
X136469714Y-105465619D01*
X136945904Y-105703714D02*
X136945904Y-106370380D01*
X136945904Y-105798952D02*
X136993523Y-105751333D01*
X137088761Y-105703714D01*
X137231619Y-105703714D01*
X137326857Y-105751333D01*
X137374476Y-105846571D01*
X137374476Y-106370380D01*
X138564952Y-106322761D02*
X138707809Y-106370380D01*
X138945904Y-106370380D01*
X139041142Y-106322761D01*
X139088761Y-106275142D01*
X139136380Y-106179904D01*
X139136380Y-106084666D01*
X139088761Y-105989428D01*
X139041142Y-105941809D01*
X138945904Y-105894190D01*
X138755428Y-105846571D01*
X138660190Y-105798952D01*
X138612571Y-105751333D01*
X138564952Y-105656095D01*
X138564952Y-105560857D01*
X138612571Y-105465619D01*
X138660190Y-105418000D01*
X138755428Y-105370380D01*
X138993523Y-105370380D01*
X139136380Y-105418000D01*
X139469714Y-105703714D02*
X139660190Y-106370380D01*
X139850666Y-105894190D01*
X140041142Y-106370380D01*
X140231619Y-105703714D01*
X140612571Y-106370380D02*
X140612571Y-105703714D01*
X140612571Y-105370380D02*
X140564952Y-105418000D01*
X140612571Y-105465619D01*
X140660190Y-105418000D01*
X140612571Y-105370380D01*
X140612571Y-105465619D01*
X140945904Y-105703714D02*
X141326857Y-105703714D01*
X141088761Y-105370380D02*
X141088761Y-106227523D01*
X141136380Y-106322761D01*
X141231619Y-106370380D01*
X141326857Y-106370380D01*
X142088761Y-106322761D02*
X141993523Y-106370380D01*
X141803047Y-106370380D01*
X141707809Y-106322761D01*
X141660190Y-106275142D01*
X141612571Y-106179904D01*
X141612571Y-105894190D01*
X141660190Y-105798952D01*
X141707809Y-105751333D01*
X141803047Y-105703714D01*
X141993523Y-105703714D01*
X142088761Y-105751333D01*
X142517333Y-106370380D02*
X142517333Y-105370380D01*
X142945904Y-106370380D02*
X142945904Y-105846571D01*
X142898285Y-105751333D01*
X142803047Y-105703714D01*
X142660190Y-105703714D01*
X142564952Y-105751333D01*
X142517333Y-105798952D01*
X194434666Y-69028000D02*
X195134666Y-68794666D01*
X194434666Y-68561333D01*
X195134666Y-68328000D02*
X194434666Y-68328000D01*
X194434666Y-68161333D01*
X194468000Y-68061333D01*
X194534666Y-67994666D01*
X194601333Y-67961333D01*
X194734666Y-67928000D01*
X194834666Y-67928000D01*
X194968000Y-67961333D01*
X195034666Y-67994666D01*
X195101333Y-68061333D01*
X195134666Y-68161333D01*
X195134666Y-68328000D01*
X195134666Y-67628000D02*
X194434666Y-67628000D01*
X194434666Y-67461333D01*
X194468000Y-67361333D01*
X194534666Y-67294666D01*
X194601333Y-67261333D01*
X194734666Y-67228000D01*
X194834666Y-67228000D01*
X194968000Y-67261333D01*
X195034666Y-67294666D01*
X195101333Y-67361333D01*
X195134666Y-67461333D01*
X195134666Y-67628000D01*
X195134666Y-66394666D02*
X194434666Y-66394666D01*
X194434666Y-66228000D01*
X194468000Y-66128000D01*
X194534666Y-66061333D01*
X194601333Y-66028000D01*
X194734666Y-65994666D01*
X194834666Y-65994666D01*
X194968000Y-66028000D01*
X195034666Y-66061333D01*
X195101333Y-66128000D01*
X195134666Y-66228000D01*
X195134666Y-66394666D01*
X194934666Y-65728000D02*
X194934666Y-65394666D01*
X195134666Y-65794666D02*
X194434666Y-65561333D01*
X195134666Y-65328000D01*
X194434666Y-65194666D02*
X194434666Y-64794666D01*
X195134666Y-64994666D02*
X194434666Y-64994666D01*
X194934666Y-64594666D02*
X194934666Y-64261333D01*
X195134666Y-64661333D02*
X194434666Y-64428000D01*
X195134666Y-64194666D01*
X194468000Y-63061333D02*
X194434666Y-63128000D01*
X194434666Y-63228000D01*
X194468000Y-63328000D01*
X194534666Y-63394666D01*
X194601333Y-63428000D01*
X194734666Y-63461333D01*
X194834666Y-63461333D01*
X194968000Y-63428000D01*
X195034666Y-63394666D01*
X195101333Y-63328000D01*
X195134666Y-63228000D01*
X195134666Y-63161333D01*
X195101333Y-63061333D01*
X195068000Y-63028000D01*
X194834666Y-63028000D01*
X194834666Y-63161333D01*
X195134666Y-62728000D02*
X194434666Y-62728000D01*
X195134666Y-62328000D01*
X194434666Y-62328000D01*
X195134666Y-61994666D02*
X194434666Y-61994666D01*
X194434666Y-61828000D01*
X194468000Y-61728000D01*
X194534666Y-61661333D01*
X194601333Y-61628000D01*
X194734666Y-61594666D01*
X194834666Y-61594666D01*
X194968000Y-61628000D01*
X195034666Y-61661333D01*
X195101333Y-61728000D01*
X195134666Y-61828000D01*
X195134666Y-61994666D01*
X196912666Y-69590666D02*
X196212666Y-69590666D01*
X196212666Y-69424000D01*
X196246000Y-69324000D01*
X196312666Y-69257333D01*
X196379333Y-69224000D01*
X196512666Y-69190666D01*
X196612666Y-69190666D01*
X196746000Y-69224000D01*
X196812666Y-69257333D01*
X196879333Y-69324000D01*
X196912666Y-69424000D01*
X196912666Y-69590666D01*
X196846000Y-68490666D02*
X196879333Y-68524000D01*
X196912666Y-68624000D01*
X196912666Y-68690666D01*
X196879333Y-68790666D01*
X196812666Y-68857333D01*
X196746000Y-68890666D01*
X196612666Y-68924000D01*
X196512666Y-68924000D01*
X196379333Y-68890666D01*
X196312666Y-68857333D01*
X196246000Y-68790666D01*
X196212666Y-68690666D01*
X196212666Y-68624000D01*
X196246000Y-68524000D01*
X196279333Y-68490666D01*
X196546000Y-67957333D02*
X196546000Y-68190666D01*
X196912666Y-68190666D02*
X196212666Y-68190666D01*
X196212666Y-67857333D01*
X196212666Y-67657333D02*
X196212666Y-67190666D01*
X196912666Y-67490666D01*
X196212666Y-66990666D02*
X196212666Y-66524000D01*
X196912666Y-66824000D01*
X196646000Y-66257333D02*
X196646000Y-65724000D01*
X196846000Y-64990666D02*
X196879333Y-65024000D01*
X196912666Y-65124000D01*
X196912666Y-65190666D01*
X196879333Y-65290666D01*
X196812666Y-65357333D01*
X196746000Y-65390666D01*
X196612666Y-65424000D01*
X196512666Y-65424000D01*
X196379333Y-65390666D01*
X196312666Y-65357333D01*
X196246000Y-65290666D01*
X196212666Y-65190666D01*
X196212666Y-65124000D01*
X196246000Y-65024000D01*
X196279333Y-64990666D01*
X196912666Y-64590666D02*
X196879333Y-64657333D01*
X196846000Y-64690666D01*
X196779333Y-64724000D01*
X196579333Y-64724000D01*
X196512666Y-64690666D01*
X196479333Y-64657333D01*
X196446000Y-64590666D01*
X196446000Y-64490666D01*
X196479333Y-64424000D01*
X196512666Y-64390666D01*
X196579333Y-64357333D01*
X196779333Y-64357333D01*
X196846000Y-64390666D01*
X196879333Y-64424000D01*
X196912666Y-64490666D01*
X196912666Y-64590666D01*
X196446000Y-64057333D02*
X196912666Y-64057333D01*
X196512666Y-64057333D02*
X196479333Y-64024000D01*
X196446000Y-63957333D01*
X196446000Y-63857333D01*
X196479333Y-63790666D01*
X196546000Y-63757333D01*
X196912666Y-63757333D01*
X196446000Y-63424000D02*
X196912666Y-63424000D01*
X196512666Y-63424000D02*
X196479333Y-63390666D01*
X196446000Y-63324000D01*
X196446000Y-63224000D01*
X196479333Y-63157333D01*
X196546000Y-63124000D01*
X196912666Y-63124000D01*
X196879333Y-62524000D02*
X196912666Y-62590666D01*
X196912666Y-62724000D01*
X196879333Y-62790666D01*
X196812666Y-62824000D01*
X196546000Y-62824000D01*
X196479333Y-62790666D01*
X196446000Y-62724000D01*
X196446000Y-62590666D01*
X196479333Y-62524000D01*
X196546000Y-62490666D01*
X196612666Y-62490666D01*
X196679333Y-62824000D01*
X196879333Y-61890666D02*
X196912666Y-61957333D01*
X196912666Y-62090666D01*
X196879333Y-62157333D01*
X196846000Y-62190666D01*
X196779333Y-62224000D01*
X196579333Y-62224000D01*
X196512666Y-62190666D01*
X196479333Y-62157333D01*
X196446000Y-62090666D01*
X196446000Y-61957333D01*
X196479333Y-61890666D01*
X196446000Y-61690666D02*
X196446000Y-61424000D01*
X196212666Y-61590666D02*
X196812666Y-61590666D01*
X196879333Y-61557333D01*
X196912666Y-61490666D01*
X196912666Y-61424000D01*
X196912666Y-61090666D02*
X196879333Y-61157333D01*
X196846000Y-61190666D01*
X196779333Y-61224000D01*
X196579333Y-61224000D01*
X196512666Y-61190666D01*
X196479333Y-61157333D01*
X196446000Y-61090666D01*
X196446000Y-60990666D01*
X196479333Y-60924000D01*
X196512666Y-60890666D01*
X196579333Y-60857333D01*
X196779333Y-60857333D01*
X196846000Y-60890666D01*
X196879333Y-60924000D01*
X196912666Y-60990666D01*
X196912666Y-61090666D01*
X196912666Y-60557333D02*
X196446000Y-60557333D01*
X196579333Y-60557333D02*
X196512666Y-60524000D01*
X196479333Y-60490666D01*
X196446000Y-60424000D01*
X196446000Y-60357333D01*
X153974666Y-54988666D02*
X154208000Y-55688666D01*
X154441333Y-54988666D01*
X154674666Y-55688666D02*
X154674666Y-54988666D01*
X154841333Y-54988666D01*
X154941333Y-55022000D01*
X155008000Y-55088666D01*
X155041333Y-55155333D01*
X155074666Y-55288666D01*
X155074666Y-55388666D01*
X155041333Y-55522000D01*
X155008000Y-55588666D01*
X154941333Y-55655333D01*
X154841333Y-55688666D01*
X154674666Y-55688666D01*
X155374666Y-55688666D02*
X155374666Y-54988666D01*
X155541333Y-54988666D01*
X155641333Y-55022000D01*
X155708000Y-55088666D01*
X155741333Y-55155333D01*
X155774666Y-55288666D01*
X155774666Y-55388666D01*
X155741333Y-55522000D01*
X155708000Y-55588666D01*
X155641333Y-55655333D01*
X155541333Y-55688666D01*
X155374666Y-55688666D01*
X156608000Y-55688666D02*
X156608000Y-54988666D01*
X157441333Y-54955333D02*
X156841333Y-55855333D01*
X157808000Y-54988666D02*
X157941333Y-54988666D01*
X158008000Y-55022000D01*
X158074666Y-55088666D01*
X158108000Y-55222000D01*
X158108000Y-55455333D01*
X158074666Y-55588666D01*
X158008000Y-55655333D01*
X157941333Y-55688666D01*
X157808000Y-55688666D01*
X157741333Y-55655333D01*
X157674666Y-55588666D01*
X157641333Y-55455333D01*
X157641333Y-55222000D01*
X157674666Y-55088666D01*
X157741333Y-55022000D01*
X157808000Y-54988666D01*
X159308000Y-55022000D02*
X159241333Y-54988666D01*
X159141333Y-54988666D01*
X159041333Y-55022000D01*
X158974666Y-55088666D01*
X158941333Y-55155333D01*
X158908000Y-55288666D01*
X158908000Y-55388666D01*
X158941333Y-55522000D01*
X158974666Y-55588666D01*
X159041333Y-55655333D01*
X159141333Y-55688666D01*
X159208000Y-55688666D01*
X159308000Y-55655333D01*
X159341333Y-55622000D01*
X159341333Y-55388666D01*
X159208000Y-55388666D01*
X159641333Y-55688666D02*
X159641333Y-54988666D01*
X160041333Y-55688666D01*
X160041333Y-54988666D01*
X160374666Y-55688666D02*
X160374666Y-54988666D01*
X160541333Y-54988666D01*
X160641333Y-55022000D01*
X160708000Y-55088666D01*
X160741333Y-55155333D01*
X160774666Y-55288666D01*
X160774666Y-55388666D01*
X160741333Y-55522000D01*
X160708000Y-55588666D01*
X160641333Y-55655333D01*
X160541333Y-55688666D01*
X160374666Y-55688666D01*
X162008000Y-55688666D02*
X161774666Y-55355333D01*
X161608000Y-55688666D02*
X161608000Y-54988666D01*
X161874666Y-54988666D01*
X161941333Y-55022000D01*
X161974666Y-55055333D01*
X162008000Y-55122000D01*
X162008000Y-55222000D01*
X161974666Y-55288666D01*
X161941333Y-55322000D01*
X161874666Y-55355333D01*
X161608000Y-55355333D01*
X162308000Y-55322000D02*
X162541333Y-55322000D01*
X162641333Y-55688666D02*
X162308000Y-55688666D01*
X162308000Y-54988666D01*
X162641333Y-54988666D01*
X162908000Y-55655333D02*
X163008000Y-55688666D01*
X163174666Y-55688666D01*
X163241333Y-55655333D01*
X163274666Y-55622000D01*
X163308000Y-55555333D01*
X163308000Y-55488666D01*
X163274666Y-55422000D01*
X163241333Y-55388666D01*
X163174666Y-55355333D01*
X163041333Y-55322000D01*
X162974666Y-55288666D01*
X162941333Y-55255333D01*
X162908000Y-55188666D01*
X162908000Y-55122000D01*
X162941333Y-55055333D01*
X162974666Y-55022000D01*
X163041333Y-54988666D01*
X163208000Y-54988666D01*
X163308000Y-55022000D01*
X163608000Y-55322000D02*
X163841333Y-55322000D01*
X163941333Y-55688666D02*
X163608000Y-55688666D01*
X163608000Y-54988666D01*
X163941333Y-54988666D01*
X164141333Y-54988666D02*
X164541333Y-54988666D01*
X164341333Y-55688666D02*
X164341333Y-54988666D01*
X156312000Y-60260666D02*
X156312000Y-59560666D01*
X156478666Y-59560666D01*
X156578666Y-59594000D01*
X156645333Y-59660666D01*
X156678666Y-59727333D01*
X156712000Y-59860666D01*
X156712000Y-59960666D01*
X156678666Y-60094000D01*
X156645333Y-60160666D01*
X156578666Y-60227333D01*
X156478666Y-60260666D01*
X156312000Y-60260666D01*
X157278666Y-60227333D02*
X157212000Y-60260666D01*
X157078666Y-60260666D01*
X157012000Y-60227333D01*
X156978666Y-60160666D01*
X156978666Y-59894000D01*
X157012000Y-59827333D01*
X157078666Y-59794000D01*
X157212000Y-59794000D01*
X157278666Y-59827333D01*
X157312000Y-59894000D01*
X157312000Y-59960666D01*
X156978666Y-60027333D01*
X157612000Y-60260666D02*
X157612000Y-59560666D01*
X157612000Y-59827333D02*
X157678666Y-59794000D01*
X157812000Y-59794000D01*
X157878666Y-59827333D01*
X157912000Y-59860666D01*
X157945333Y-59927333D01*
X157945333Y-60127333D01*
X157912000Y-60194000D01*
X157878666Y-60227333D01*
X157812000Y-60260666D01*
X157678666Y-60260666D01*
X157612000Y-60227333D01*
X158545333Y-59794000D02*
X158545333Y-60260666D01*
X158245333Y-59794000D02*
X158245333Y-60160666D01*
X158278666Y-60227333D01*
X158345333Y-60260666D01*
X158445333Y-60260666D01*
X158512000Y-60227333D01*
X158545333Y-60194000D01*
X159178666Y-59794000D02*
X159178666Y-60360666D01*
X159145333Y-60427333D01*
X159112000Y-60460666D01*
X159045333Y-60494000D01*
X158945333Y-60494000D01*
X158878666Y-60460666D01*
X159178666Y-60227333D02*
X159112000Y-60260666D01*
X158978666Y-60260666D01*
X158912000Y-60227333D01*
X158878666Y-60194000D01*
X158845333Y-60127333D01*
X158845333Y-59927333D01*
X158878666Y-59860666D01*
X158912000Y-59827333D01*
X158978666Y-59794000D01*
X159112000Y-59794000D01*
X159178666Y-59827333D01*
X159712000Y-60527333D02*
X159678666Y-60494000D01*
X159612000Y-60394000D01*
X159578666Y-60327333D01*
X159545333Y-60227333D01*
X159512000Y-60060666D01*
X159512000Y-59927333D01*
X159545333Y-59760666D01*
X159578666Y-59660666D01*
X159612000Y-59594000D01*
X159678666Y-59494000D01*
X159712000Y-59460666D01*
X159945333Y-60227333D02*
X160045333Y-60260666D01*
X160212000Y-60260666D01*
X160278666Y-60227333D01*
X160312000Y-60194000D01*
X160345333Y-60127333D01*
X160345333Y-60060666D01*
X160312000Y-59994000D01*
X160278666Y-59960666D01*
X160212000Y-59927333D01*
X160078666Y-59894000D01*
X160012000Y-59860666D01*
X159978666Y-59827333D01*
X159945333Y-59760666D01*
X159945333Y-59694000D01*
X159978666Y-59627333D01*
X160012000Y-59594000D01*
X160078666Y-59560666D01*
X160245333Y-59560666D01*
X160345333Y-59594000D01*
X160578666Y-59560666D02*
X160745333Y-60260666D01*
X160878666Y-59760666D01*
X161012000Y-60260666D01*
X161178666Y-59560666D01*
X161445333Y-60260666D02*
X161445333Y-59560666D01*
X161778666Y-60260666D02*
X161778666Y-59560666D01*
X162012000Y-60060666D01*
X162245333Y-59560666D01*
X162245333Y-60260666D01*
X162512000Y-60527333D02*
X162545333Y-60494000D01*
X162612000Y-60394000D01*
X162645333Y-60327333D01*
X162678666Y-60227333D01*
X162712000Y-60060666D01*
X162712000Y-59927333D01*
X162678666Y-59760666D01*
X162645333Y-59660666D01*
X162612000Y-59594000D01*
X162545333Y-59494000D01*
X162512000Y-59460666D01*
X169315333Y-55022000D02*
X169248666Y-54988666D01*
X169148666Y-54988666D01*
X169048666Y-55022000D01*
X168982000Y-55088666D01*
X168948666Y-55155333D01*
X168915333Y-55288666D01*
X168915333Y-55388666D01*
X168948666Y-55522000D01*
X168982000Y-55588666D01*
X169048666Y-55655333D01*
X169148666Y-55688666D01*
X169215333Y-55688666D01*
X169315333Y-55655333D01*
X169348666Y-55622000D01*
X169348666Y-55388666D01*
X169215333Y-55388666D01*
X169648666Y-55688666D02*
X169648666Y-54988666D01*
X170048666Y-55688666D01*
X170048666Y-54988666D01*
X170382000Y-55688666D02*
X170382000Y-54988666D01*
X170548666Y-54988666D01*
X170648666Y-55022000D01*
X170715333Y-55088666D01*
X170748666Y-55155333D01*
X170782000Y-55288666D01*
X170782000Y-55388666D01*
X170748666Y-55522000D01*
X170715333Y-55588666D01*
X170648666Y-55655333D01*
X170548666Y-55688666D01*
X170382000Y-55688666D01*
X171948666Y-54988666D02*
X171615333Y-54988666D01*
X171582000Y-55322000D01*
X171615333Y-55288666D01*
X171682000Y-55255333D01*
X171848666Y-55255333D01*
X171915333Y-55288666D01*
X171948666Y-55322000D01*
X171982000Y-55388666D01*
X171982000Y-55555333D01*
X171948666Y-55622000D01*
X171915333Y-55655333D01*
X171848666Y-55688666D01*
X171682000Y-55688666D01*
X171615333Y-55655333D01*
X171582000Y-55622000D01*
X172182000Y-54988666D02*
X172415333Y-55688666D01*
X172648666Y-54988666D01*
X173415333Y-55688666D02*
X173415333Y-54988666D01*
X173582000Y-54988666D01*
X173682000Y-55022000D01*
X173748666Y-55088666D01*
X173782000Y-55155333D01*
X173815333Y-55288666D01*
X173815333Y-55388666D01*
X173782000Y-55522000D01*
X173748666Y-55588666D01*
X173682000Y-55655333D01*
X173582000Y-55688666D01*
X173415333Y-55688666D01*
X174082000Y-55488666D02*
X174415333Y-55488666D01*
X174015333Y-55688666D02*
X174248666Y-54988666D01*
X174482000Y-55688666D01*
X174615333Y-54988666D02*
X175015333Y-54988666D01*
X174815333Y-55688666D02*
X174815333Y-54988666D01*
X175215333Y-55488666D02*
X175548666Y-55488666D01*
X175148666Y-55688666D02*
X175382000Y-54988666D01*
X175615333Y-55688666D01*
X176782000Y-55622000D02*
X176748666Y-55655333D01*
X176648666Y-55688666D01*
X176582000Y-55688666D01*
X176482000Y-55655333D01*
X176415333Y-55588666D01*
X176382000Y-55522000D01*
X176348666Y-55388666D01*
X176348666Y-55288666D01*
X176382000Y-55155333D01*
X176415333Y-55088666D01*
X176482000Y-55022000D01*
X176582000Y-54988666D01*
X176648666Y-54988666D01*
X176748666Y-55022000D01*
X176782000Y-55055333D01*
X177415333Y-55688666D02*
X177082000Y-55688666D01*
X177082000Y-54988666D01*
X177648666Y-55688666D02*
X177648666Y-54988666D01*
X178048666Y-55688666D02*
X177748666Y-55288666D01*
X178048666Y-54988666D02*
X177648666Y-55388666D01*
X170473333Y-60260666D02*
X170140000Y-60260666D01*
X170140000Y-59560666D01*
X170706666Y-59894000D02*
X170940000Y-59894000D01*
X171040000Y-60260666D02*
X170706666Y-60260666D01*
X170706666Y-59560666D01*
X171040000Y-59560666D01*
X171340000Y-60260666D02*
X171340000Y-59560666D01*
X171506666Y-59560666D01*
X171606666Y-59594000D01*
X171673333Y-59660666D01*
X171706666Y-59727333D01*
X171740000Y-59860666D01*
X171740000Y-59960666D01*
X171706666Y-60094000D01*
X171673333Y-60160666D01*
X171606666Y-60227333D01*
X171506666Y-60260666D01*
X171340000Y-60260666D01*
X172040000Y-59994000D02*
X172573333Y-59994000D01*
X173306666Y-60194000D02*
X173273333Y-60227333D01*
X173173333Y-60260666D01*
X173106666Y-60260666D01*
X173006666Y-60227333D01*
X172940000Y-60160666D01*
X172906666Y-60094000D01*
X172873333Y-59960666D01*
X172873333Y-59860666D01*
X172906666Y-59727333D01*
X172940000Y-59660666D01*
X173006666Y-59594000D01*
X173106666Y-59560666D01*
X173173333Y-59560666D01*
X173273333Y-59594000D01*
X173306666Y-59627333D01*
X173706666Y-60260666D02*
X173640000Y-60227333D01*
X173606666Y-60194000D01*
X173573333Y-60127333D01*
X173573333Y-59927333D01*
X173606666Y-59860666D01*
X173640000Y-59827333D01*
X173706666Y-59794000D01*
X173806666Y-59794000D01*
X173873333Y-59827333D01*
X173906666Y-59860666D01*
X173940000Y-59927333D01*
X173940000Y-60127333D01*
X173906666Y-60194000D01*
X173873333Y-60227333D01*
X173806666Y-60260666D01*
X173706666Y-60260666D01*
X174240000Y-59794000D02*
X174240000Y-60260666D01*
X174240000Y-59860666D02*
X174273333Y-59827333D01*
X174340000Y-59794000D01*
X174440000Y-59794000D01*
X174506666Y-59827333D01*
X174540000Y-59894000D01*
X174540000Y-60260666D01*
X174873333Y-59794000D02*
X174873333Y-60260666D01*
X174873333Y-59860666D02*
X174906666Y-59827333D01*
X174973333Y-59794000D01*
X175073333Y-59794000D01*
X175140000Y-59827333D01*
X175173333Y-59894000D01*
X175173333Y-60260666D01*
X175773333Y-60227333D02*
X175706666Y-60260666D01*
X175573333Y-60260666D01*
X175506666Y-60227333D01*
X175473333Y-60160666D01*
X175473333Y-59894000D01*
X175506666Y-59827333D01*
X175573333Y-59794000D01*
X175706666Y-59794000D01*
X175773333Y-59827333D01*
X175806666Y-59894000D01*
X175806666Y-59960666D01*
X175473333Y-60027333D01*
X176406666Y-60227333D02*
X176340000Y-60260666D01*
X176206666Y-60260666D01*
X176140000Y-60227333D01*
X176106666Y-60194000D01*
X176073333Y-60127333D01*
X176073333Y-59927333D01*
X176106666Y-59860666D01*
X176140000Y-59827333D01*
X176206666Y-59794000D01*
X176340000Y-59794000D01*
X176406666Y-59827333D01*
X176606666Y-59794000D02*
X176873333Y-59794000D01*
X176706666Y-59560666D02*
X176706666Y-60160666D01*
X176740000Y-60227333D01*
X176806666Y-60260666D01*
X176873333Y-60260666D01*
X177206666Y-60260666D02*
X177140000Y-60227333D01*
X177106666Y-60194000D01*
X177073333Y-60127333D01*
X177073333Y-59927333D01*
X177106666Y-59860666D01*
X177140000Y-59827333D01*
X177206666Y-59794000D01*
X177306666Y-59794000D01*
X177373333Y-59827333D01*
X177406666Y-59860666D01*
X177440000Y-59927333D01*
X177440000Y-60127333D01*
X177406666Y-60194000D01*
X177373333Y-60227333D01*
X177306666Y-60260666D01*
X177206666Y-60260666D01*
X177740000Y-60260666D02*
X177740000Y-59794000D01*
X177740000Y-59927333D02*
X177773333Y-59860666D01*
X177806666Y-59827333D01*
X177873333Y-59794000D01*
X177940000Y-59794000D01*
D12*
%TO.C,BT1*%
X145402000Y-92418000D02*
X142402000Y-92418000D01*
X145402000Y-92418000D02*
X145402000Y-89418000D01*
X145062000Y-67488000D02*
X145062000Y-72168000D01*
X145062000Y-84218000D02*
X145062000Y-75868000D01*
X145062000Y-92078000D02*
X145062000Y-89518000D01*
X139462000Y-92078000D02*
X145062000Y-92078000D01*
X139462000Y-96178000D02*
X139462000Y-92078000D01*
X89902000Y-96178000D02*
X139462000Y-96178000D01*
X139462000Y-67488000D02*
X145062000Y-67488000D01*
X139462000Y-64588000D02*
X139462000Y-67488000D01*
X89902000Y-64588000D02*
X139462000Y-64588000D01*
X89902000Y-64588000D02*
X89902000Y-96178000D01*
%TO.C,C1*%
X162112000Y-116078000D02*
G75*
G03*
X162112000Y-116078000I-5120000J0D01*
G01*
X156992000Y-121158000D02*
X156992000Y-110998000D01*
X156952000Y-121158000D02*
X156952000Y-110998000D01*
X156912000Y-121158000D02*
X156912000Y-110998000D01*
X156872000Y-121157000D02*
X156872000Y-110999000D01*
X156832000Y-121156000D02*
X156832000Y-111000000D01*
X156792000Y-121155000D02*
X156792000Y-111001000D01*
X156752000Y-121153000D02*
X156752000Y-117118000D01*
X156752000Y-115038000D02*
X156752000Y-111003000D01*
X156712000Y-121151000D02*
X156712000Y-117118000D01*
X156712000Y-115038000D02*
X156712000Y-111005000D01*
X156672000Y-121148000D02*
X156672000Y-117118000D01*
X156672000Y-115038000D02*
X156672000Y-111008000D01*
X156632000Y-121146000D02*
X156632000Y-117118000D01*
X156632000Y-115038000D02*
X156632000Y-111010000D01*
X156592000Y-121143000D02*
X156592000Y-117118000D01*
X156592000Y-115038000D02*
X156592000Y-111013000D01*
X156552000Y-121140000D02*
X156552000Y-117118000D01*
X156552000Y-115038000D02*
X156552000Y-111016000D01*
X156512000Y-121136000D02*
X156512000Y-117118000D01*
X156512000Y-115038000D02*
X156512000Y-111020000D01*
X156472000Y-121132000D02*
X156472000Y-117118000D01*
X156472000Y-115038000D02*
X156472000Y-111024000D01*
X156432000Y-121128000D02*
X156432000Y-117118000D01*
X156432000Y-115038000D02*
X156432000Y-111028000D01*
X156392000Y-121123000D02*
X156392000Y-117118000D01*
X156392000Y-115038000D02*
X156392000Y-111033000D01*
X156352000Y-121118000D02*
X156352000Y-117118000D01*
X156352000Y-115038000D02*
X156352000Y-111038000D01*
X156312000Y-121113000D02*
X156312000Y-117118000D01*
X156312000Y-115038000D02*
X156312000Y-111043000D01*
X156271000Y-121108000D02*
X156271000Y-117118000D01*
X156271000Y-115038000D02*
X156271000Y-111048000D01*
X156231000Y-121102000D02*
X156231000Y-117118000D01*
X156231000Y-115038000D02*
X156231000Y-111054000D01*
X156191000Y-121096000D02*
X156191000Y-117118000D01*
X156191000Y-115038000D02*
X156191000Y-111060000D01*
X156151000Y-121089000D02*
X156151000Y-117118000D01*
X156151000Y-115038000D02*
X156151000Y-111067000D01*
X156111000Y-121082000D02*
X156111000Y-117118000D01*
X156111000Y-115038000D02*
X156111000Y-111074000D01*
X156071000Y-121075000D02*
X156071000Y-117118000D01*
X156071000Y-115038000D02*
X156071000Y-111081000D01*
X156031000Y-121068000D02*
X156031000Y-117118000D01*
X156031000Y-115038000D02*
X156031000Y-111088000D01*
X155991000Y-121060000D02*
X155991000Y-117118000D01*
X155991000Y-115038000D02*
X155991000Y-111096000D01*
X155951000Y-121052000D02*
X155951000Y-117118000D01*
X155951000Y-115038000D02*
X155951000Y-111104000D01*
X155911000Y-121043000D02*
X155911000Y-117118000D01*
X155911000Y-115038000D02*
X155911000Y-111113000D01*
X155871000Y-121034000D02*
X155871000Y-117118000D01*
X155871000Y-115038000D02*
X155871000Y-111122000D01*
X155831000Y-121025000D02*
X155831000Y-117118000D01*
X155831000Y-115038000D02*
X155831000Y-111131000D01*
X155791000Y-121016000D02*
X155791000Y-117118000D01*
X155791000Y-115038000D02*
X155791000Y-111140000D01*
X155751000Y-121006000D02*
X155751000Y-117118000D01*
X155751000Y-115038000D02*
X155751000Y-111150000D01*
X155711000Y-120996000D02*
X155711000Y-117118000D01*
X155711000Y-115038000D02*
X155711000Y-111160000D01*
X155671000Y-120985000D02*
X155671000Y-117118000D01*
X155671000Y-115038000D02*
X155671000Y-111171000D01*
X155631000Y-120975000D02*
X155631000Y-117118000D01*
X155631000Y-115038000D02*
X155631000Y-111181000D01*
X155591000Y-120963000D02*
X155591000Y-117118000D01*
X155591000Y-115038000D02*
X155591000Y-111193000D01*
X155551000Y-120952000D02*
X155551000Y-117118000D01*
X155551000Y-115038000D02*
X155551000Y-111204000D01*
X155511000Y-120940000D02*
X155511000Y-117118000D01*
X155511000Y-115038000D02*
X155511000Y-111216000D01*
X155471000Y-120928000D02*
X155471000Y-117118000D01*
X155471000Y-115038000D02*
X155471000Y-111228000D01*
X155431000Y-120915000D02*
X155431000Y-117118000D01*
X155431000Y-115038000D02*
X155431000Y-111241000D01*
X155391000Y-120902000D02*
X155391000Y-117118000D01*
X155391000Y-115038000D02*
X155391000Y-111254000D01*
X155351000Y-120889000D02*
X155351000Y-117118000D01*
X155351000Y-115038000D02*
X155351000Y-111267000D01*
X155311000Y-120875000D02*
X155311000Y-117118000D01*
X155311000Y-115038000D02*
X155311000Y-111281000D01*
X155271000Y-120861000D02*
X155271000Y-117118000D01*
X155271000Y-115038000D02*
X155271000Y-111295000D01*
X155231000Y-120846000D02*
X155231000Y-117118000D01*
X155231000Y-115038000D02*
X155231000Y-111310000D01*
X155191000Y-120832000D02*
X155191000Y-117118000D01*
X155191000Y-115038000D02*
X155191000Y-111324000D01*
X155151000Y-120816000D02*
X155151000Y-117118000D01*
X155151000Y-115038000D02*
X155151000Y-111340000D01*
X155111000Y-120801000D02*
X155111000Y-117118000D01*
X155111000Y-115038000D02*
X155111000Y-111355000D01*
X155071000Y-120785000D02*
X155071000Y-117118000D01*
X155071000Y-115038000D02*
X155071000Y-111371000D01*
X155031000Y-120768000D02*
X155031000Y-117118000D01*
X155031000Y-115038000D02*
X155031000Y-111388000D01*
X154991000Y-120752000D02*
X154991000Y-117118000D01*
X154991000Y-115038000D02*
X154991000Y-111404000D01*
X154951000Y-120735000D02*
X154951000Y-117118000D01*
X154951000Y-115038000D02*
X154951000Y-111421000D01*
X154911000Y-120717000D02*
X154911000Y-117118000D01*
X154911000Y-115038000D02*
X154911000Y-111439000D01*
X154871000Y-120699000D02*
X154871000Y-117118000D01*
X154871000Y-115038000D02*
X154871000Y-111457000D01*
X154831000Y-120681000D02*
X154831000Y-117118000D01*
X154831000Y-115038000D02*
X154831000Y-111475000D01*
X154791000Y-120662000D02*
X154791000Y-117118000D01*
X154791000Y-115038000D02*
X154791000Y-111494000D01*
X154751000Y-120642000D02*
X154751000Y-117118000D01*
X154751000Y-115038000D02*
X154751000Y-111514000D01*
X154711000Y-120623000D02*
X154711000Y-117118000D01*
X154711000Y-115038000D02*
X154711000Y-111533000D01*
X154671000Y-120603000D02*
X154671000Y-111553000D01*
X154631000Y-120582000D02*
X154631000Y-111574000D01*
X154591000Y-120561000D02*
X154591000Y-111595000D01*
X154551000Y-120540000D02*
X154551000Y-111616000D01*
X154511000Y-120518000D02*
X154511000Y-111638000D01*
X154471000Y-120495000D02*
X154471000Y-111661000D01*
X154431000Y-120473000D02*
X154431000Y-111683000D01*
X154391000Y-120449000D02*
X154391000Y-111707000D01*
X154351000Y-120425000D02*
X154351000Y-111731000D01*
X154311000Y-120401000D02*
X154311000Y-111755000D01*
X154271000Y-120376000D02*
X154271000Y-111780000D01*
X154231000Y-120351000D02*
X154231000Y-111805000D01*
X154191000Y-120325000D02*
X154191000Y-111831000D01*
X154151000Y-120299000D02*
X154151000Y-111857000D01*
X154111000Y-120272000D02*
X154111000Y-111884000D01*
X154071000Y-120244000D02*
X154071000Y-111912000D01*
X154031000Y-120216000D02*
X154031000Y-111940000D01*
X153991000Y-120188000D02*
X153991000Y-111968000D01*
X153951000Y-120158000D02*
X153951000Y-111998000D01*
X153911000Y-120128000D02*
X153911000Y-112028000D01*
X153871000Y-120098000D02*
X153871000Y-112058000D01*
X153831000Y-120067000D02*
X153831000Y-112089000D01*
X153791000Y-120035000D02*
X153791000Y-112121000D01*
X153751000Y-120003000D02*
X153751000Y-112153000D01*
X153711000Y-119970000D02*
X153711000Y-112186000D01*
X153671000Y-119936000D02*
X153671000Y-112220000D01*
X153631000Y-119902000D02*
X153631000Y-112254000D01*
X153591000Y-119867000D02*
X153591000Y-112289000D01*
X153551000Y-119831000D02*
X153551000Y-112325000D01*
X153511000Y-119794000D02*
X153511000Y-112362000D01*
X153471000Y-119757000D02*
X153471000Y-112399000D01*
X153431000Y-119718000D02*
X153431000Y-112438000D01*
X153391000Y-119679000D02*
X153391000Y-112477000D01*
X153351000Y-119639000D02*
X153351000Y-112517000D01*
X153311000Y-119598000D02*
X153311000Y-112558000D01*
X153271000Y-119556000D02*
X153271000Y-112600000D01*
X153231000Y-119514000D02*
X153231000Y-112642000D01*
X153191000Y-119470000D02*
X153191000Y-112686000D01*
X153151000Y-119425000D02*
X153151000Y-112731000D01*
X153111000Y-119379000D02*
X153111000Y-112777000D01*
X153071000Y-119332000D02*
X153071000Y-112824000D01*
X153031000Y-119284000D02*
X153031000Y-112872000D01*
X152991000Y-119234000D02*
X152991000Y-112922000D01*
X152951000Y-119184000D02*
X152951000Y-112972000D01*
X152911000Y-119132000D02*
X152911000Y-113024000D01*
X152871000Y-119078000D02*
X152871000Y-113078000D01*
X152831000Y-119023000D02*
X152831000Y-113133000D01*
X152791000Y-118967000D02*
X152791000Y-113189000D01*
X152751000Y-118908000D02*
X152751000Y-113248000D01*
X152711000Y-118848000D02*
X152711000Y-113308000D01*
X152671000Y-118787000D02*
X152671000Y-113369000D01*
X152631000Y-118723000D02*
X152631000Y-113433000D01*
X152591000Y-118657000D02*
X152591000Y-113499000D01*
X152551000Y-118588000D02*
X152551000Y-113568000D01*
X152511000Y-118517000D02*
X152511000Y-113639000D01*
X152471000Y-118443000D02*
X152471000Y-113713000D01*
X152431000Y-118367000D02*
X152431000Y-113789000D01*
X152391000Y-118287000D02*
X152391000Y-113869000D01*
X152351000Y-118203000D02*
X152351000Y-113953000D01*
X152311000Y-118115000D02*
X152311000Y-114041000D01*
X152271000Y-118022000D02*
X152271000Y-114134000D01*
X152231000Y-117924000D02*
X152231000Y-114232000D01*
X152191000Y-117820000D02*
X152191000Y-114336000D01*
X152151000Y-117708000D02*
X152151000Y-114448000D01*
X152111000Y-117588000D02*
X152111000Y-114568000D01*
X152071000Y-117456000D02*
X152071000Y-114700000D01*
X152031000Y-117308000D02*
X152031000Y-114848000D01*
X151991000Y-117140000D02*
X151991000Y-115016000D01*
X151951000Y-116940000D02*
X151951000Y-115216000D01*
X151911000Y-116677000D02*
X151911000Y-115479000D01*
X162471646Y-118953000D02*
X161471646Y-118953000D01*
X161971646Y-119453000D02*
X161971646Y-118453000D01*
%TO.C,C2*%
X153597000Y-100757646D02*
X154597000Y-100757646D01*
X154097000Y-101257646D02*
X154097000Y-100257646D01*
X156373000Y-90697000D02*
X157571000Y-90697000D01*
X156110000Y-90737000D02*
X157834000Y-90737000D01*
X155910000Y-90777000D02*
X158034000Y-90777000D01*
X155742000Y-90817000D02*
X158202000Y-90817000D01*
X155594000Y-90857000D02*
X158350000Y-90857000D01*
X155462000Y-90897000D02*
X158482000Y-90897000D01*
X155342000Y-90937000D02*
X158602000Y-90937000D01*
X155230000Y-90977000D02*
X158714000Y-90977000D01*
X155126000Y-91017000D02*
X158818000Y-91017000D01*
X155028000Y-91057000D02*
X158916000Y-91057000D01*
X154935000Y-91097000D02*
X159009000Y-91097000D01*
X154847000Y-91137000D02*
X159097000Y-91137000D01*
X154763000Y-91177000D02*
X159181000Y-91177000D01*
X154683000Y-91217000D02*
X159261000Y-91217000D01*
X154607000Y-91257000D02*
X159337000Y-91257000D01*
X154533000Y-91297000D02*
X159411000Y-91297000D01*
X154462000Y-91337000D02*
X159482000Y-91337000D01*
X154393000Y-91377000D02*
X159551000Y-91377000D01*
X154327000Y-91417000D02*
X159617000Y-91417000D01*
X154263000Y-91457000D02*
X159681000Y-91457000D01*
X154202000Y-91497000D02*
X159742000Y-91497000D01*
X154142000Y-91537000D02*
X159802000Y-91537000D01*
X154083000Y-91577000D02*
X159861000Y-91577000D01*
X154027000Y-91617000D02*
X159917000Y-91617000D01*
X153972000Y-91657000D02*
X159972000Y-91657000D01*
X153918000Y-91697000D02*
X160026000Y-91697000D01*
X153866000Y-91737000D02*
X160078000Y-91737000D01*
X153816000Y-91777000D02*
X160128000Y-91777000D01*
X153766000Y-91817000D02*
X160178000Y-91817000D01*
X153718000Y-91857000D02*
X160226000Y-91857000D01*
X153671000Y-91897000D02*
X160273000Y-91897000D01*
X153625000Y-91937000D02*
X160319000Y-91937000D01*
X153580000Y-91977000D02*
X160364000Y-91977000D01*
X153536000Y-92017000D02*
X160408000Y-92017000D01*
X153494000Y-92057000D02*
X160450000Y-92057000D01*
X153452000Y-92097000D02*
X160492000Y-92097000D01*
X153411000Y-92137000D02*
X160533000Y-92137000D01*
X153371000Y-92177000D02*
X160573000Y-92177000D01*
X153332000Y-92217000D02*
X160612000Y-92217000D01*
X153293000Y-92257000D02*
X160651000Y-92257000D01*
X153256000Y-92297000D02*
X160688000Y-92297000D01*
X153219000Y-92337000D02*
X160725000Y-92337000D01*
X153183000Y-92377000D02*
X160761000Y-92377000D01*
X153148000Y-92417000D02*
X160796000Y-92417000D01*
X153114000Y-92457000D02*
X160830000Y-92457000D01*
X153080000Y-92497000D02*
X160864000Y-92497000D01*
X153047000Y-92537000D02*
X160897000Y-92537000D01*
X153015000Y-92577000D02*
X160929000Y-92577000D01*
X152983000Y-92617000D02*
X160961000Y-92617000D01*
X152952000Y-92657000D02*
X160992000Y-92657000D01*
X152922000Y-92697000D02*
X161022000Y-92697000D01*
X152892000Y-92737000D02*
X161052000Y-92737000D01*
X152862000Y-92777000D02*
X161082000Y-92777000D01*
X152834000Y-92817000D02*
X161110000Y-92817000D01*
X152806000Y-92857000D02*
X161138000Y-92857000D01*
X152778000Y-92897000D02*
X161166000Y-92897000D01*
X152751000Y-92937000D02*
X161193000Y-92937000D01*
X152725000Y-92977000D02*
X161219000Y-92977000D01*
X152699000Y-93017000D02*
X161245000Y-93017000D01*
X152674000Y-93057000D02*
X161270000Y-93057000D01*
X152649000Y-93097000D02*
X161295000Y-93097000D01*
X152625000Y-93137000D02*
X161319000Y-93137000D01*
X152601000Y-93177000D02*
X161343000Y-93177000D01*
X152577000Y-93217000D02*
X161367000Y-93217000D01*
X152555000Y-93257000D02*
X161389000Y-93257000D01*
X152532000Y-93297000D02*
X161412000Y-93297000D01*
X152510000Y-93337000D02*
X161434000Y-93337000D01*
X152489000Y-93377000D02*
X161455000Y-93377000D01*
X152468000Y-93417000D02*
X161476000Y-93417000D01*
X152447000Y-93457000D02*
X161497000Y-93457000D01*
X158012000Y-93497000D02*
X161517000Y-93497000D01*
X152427000Y-93497000D02*
X155932000Y-93497000D01*
X158012000Y-93537000D02*
X161536000Y-93537000D01*
X152408000Y-93537000D02*
X155932000Y-93537000D01*
X158012000Y-93577000D02*
X161556000Y-93577000D01*
X152388000Y-93577000D02*
X155932000Y-93577000D01*
X158012000Y-93617000D02*
X161575000Y-93617000D01*
X152369000Y-93617000D02*
X155932000Y-93617000D01*
X158012000Y-93657000D02*
X161593000Y-93657000D01*
X152351000Y-93657000D02*
X155932000Y-93657000D01*
X158012000Y-93697000D02*
X161611000Y-93697000D01*
X152333000Y-93697000D02*
X155932000Y-93697000D01*
X158012000Y-93737000D02*
X161629000Y-93737000D01*
X152315000Y-93737000D02*
X155932000Y-93737000D01*
X158012000Y-93777000D02*
X161646000Y-93777000D01*
X152298000Y-93777000D02*
X155932000Y-93777000D01*
X158012000Y-93817000D02*
X161662000Y-93817000D01*
X152282000Y-93817000D02*
X155932000Y-93817000D01*
X158012000Y-93857000D02*
X161679000Y-93857000D01*
X152265000Y-93857000D02*
X155932000Y-93857000D01*
X158012000Y-93897000D02*
X161695000Y-93897000D01*
X152249000Y-93897000D02*
X155932000Y-93897000D01*
X158012000Y-93937000D02*
X161710000Y-93937000D01*
X152234000Y-93937000D02*
X155932000Y-93937000D01*
X158012000Y-93977000D02*
X161726000Y-93977000D01*
X152218000Y-93977000D02*
X155932000Y-93977000D01*
X158012000Y-94017000D02*
X161740000Y-94017000D01*
X152204000Y-94017000D02*
X155932000Y-94017000D01*
X158012000Y-94057000D02*
X161755000Y-94057000D01*
X152189000Y-94057000D02*
X155932000Y-94057000D01*
X158012000Y-94097000D02*
X161769000Y-94097000D01*
X152175000Y-94097000D02*
X155932000Y-94097000D01*
X158012000Y-94137000D02*
X161783000Y-94137000D01*
X152161000Y-94137000D02*
X155932000Y-94137000D01*
X158012000Y-94177000D02*
X161796000Y-94177000D01*
X152148000Y-94177000D02*
X155932000Y-94177000D01*
X158012000Y-94217000D02*
X161809000Y-94217000D01*
X152135000Y-94217000D02*
X155932000Y-94217000D01*
X158012000Y-94257000D02*
X161822000Y-94257000D01*
X152122000Y-94257000D02*
X155932000Y-94257000D01*
X158012000Y-94297000D02*
X161834000Y-94297000D01*
X152110000Y-94297000D02*
X155932000Y-94297000D01*
X158012000Y-94337000D02*
X161846000Y-94337000D01*
X152098000Y-94337000D02*
X155932000Y-94337000D01*
X158012000Y-94377000D02*
X161857000Y-94377000D01*
X152087000Y-94377000D02*
X155932000Y-94377000D01*
X158012000Y-94417000D02*
X161869000Y-94417000D01*
X152075000Y-94417000D02*
X155932000Y-94417000D01*
X158012000Y-94457000D02*
X161879000Y-94457000D01*
X152065000Y-94457000D02*
X155932000Y-94457000D01*
X158012000Y-94497000D02*
X161890000Y-94497000D01*
X152054000Y-94497000D02*
X155932000Y-94497000D01*
X158012000Y-94537000D02*
X161900000Y-94537000D01*
X152044000Y-94537000D02*
X155932000Y-94537000D01*
X158012000Y-94577000D02*
X161910000Y-94577000D01*
X152034000Y-94577000D02*
X155932000Y-94577000D01*
X158012000Y-94617000D02*
X161919000Y-94617000D01*
X152025000Y-94617000D02*
X155932000Y-94617000D01*
X158012000Y-94657000D02*
X161928000Y-94657000D01*
X152016000Y-94657000D02*
X155932000Y-94657000D01*
X158012000Y-94697000D02*
X161937000Y-94697000D01*
X152007000Y-94697000D02*
X155932000Y-94697000D01*
X158012000Y-94737000D02*
X161946000Y-94737000D01*
X151998000Y-94737000D02*
X155932000Y-94737000D01*
X158012000Y-94777000D02*
X161954000Y-94777000D01*
X151990000Y-94777000D02*
X155932000Y-94777000D01*
X158012000Y-94817000D02*
X161962000Y-94817000D01*
X151982000Y-94817000D02*
X155932000Y-94817000D01*
X158012000Y-94857000D02*
X161969000Y-94857000D01*
X151975000Y-94857000D02*
X155932000Y-94857000D01*
X158012000Y-94897000D02*
X161976000Y-94897000D01*
X151968000Y-94897000D02*
X155932000Y-94897000D01*
X158012000Y-94937000D02*
X161983000Y-94937000D01*
X151961000Y-94937000D02*
X155932000Y-94937000D01*
X158012000Y-94977000D02*
X161990000Y-94977000D01*
X151954000Y-94977000D02*
X155932000Y-94977000D01*
X158012000Y-95017000D02*
X161996000Y-95017000D01*
X151948000Y-95017000D02*
X155932000Y-95017000D01*
X158012000Y-95057000D02*
X162002000Y-95057000D01*
X151942000Y-95057000D02*
X155932000Y-95057000D01*
X158012000Y-95098000D02*
X162007000Y-95098000D01*
X151937000Y-95098000D02*
X155932000Y-95098000D01*
X158012000Y-95138000D02*
X162012000Y-95138000D01*
X151932000Y-95138000D02*
X155932000Y-95138000D01*
X158012000Y-95178000D02*
X162017000Y-95178000D01*
X151927000Y-95178000D02*
X155932000Y-95178000D01*
X158012000Y-95218000D02*
X162022000Y-95218000D01*
X151922000Y-95218000D02*
X155932000Y-95218000D01*
X158012000Y-95258000D02*
X162026000Y-95258000D01*
X151918000Y-95258000D02*
X155932000Y-95258000D01*
X158012000Y-95298000D02*
X162030000Y-95298000D01*
X151914000Y-95298000D02*
X155932000Y-95298000D01*
X158012000Y-95338000D02*
X162034000Y-95338000D01*
X151910000Y-95338000D02*
X155932000Y-95338000D01*
X158012000Y-95378000D02*
X162037000Y-95378000D01*
X151907000Y-95378000D02*
X155932000Y-95378000D01*
X158012000Y-95418000D02*
X162040000Y-95418000D01*
X151904000Y-95418000D02*
X155932000Y-95418000D01*
X158012000Y-95458000D02*
X162042000Y-95458000D01*
X151902000Y-95458000D02*
X155932000Y-95458000D01*
X158012000Y-95498000D02*
X162045000Y-95498000D01*
X151899000Y-95498000D02*
X155932000Y-95498000D01*
X158012000Y-95538000D02*
X162047000Y-95538000D01*
X151897000Y-95538000D02*
X155932000Y-95538000D01*
X151895000Y-95578000D02*
X162049000Y-95578000D01*
X151894000Y-95618000D02*
X162050000Y-95618000D01*
X151893000Y-95658000D02*
X162051000Y-95658000D01*
X151892000Y-95698000D02*
X162052000Y-95698000D01*
X151892000Y-95738000D02*
X162052000Y-95738000D01*
X151892000Y-95778000D02*
X162052000Y-95778000D01*
X162092000Y-95778000D02*
G75*
G03*
X162092000Y-95778000I-5120000J0D01*
G01*
%TO.C,C5*%
X189911646Y-99133000D02*
X189911646Y-98133000D01*
X190411646Y-98633000D02*
X189411646Y-98633000D01*
X179851000Y-96357000D02*
X179851000Y-95159000D01*
X179891000Y-96620000D02*
X179891000Y-94896000D01*
X179931000Y-96820000D02*
X179931000Y-94696000D01*
X179971000Y-96988000D02*
X179971000Y-94528000D01*
X180011000Y-97136000D02*
X180011000Y-94380000D01*
X180051000Y-97268000D02*
X180051000Y-94248000D01*
X180091000Y-97388000D02*
X180091000Y-94128000D01*
X180131000Y-97500000D02*
X180131000Y-94016000D01*
X180171000Y-97604000D02*
X180171000Y-93912000D01*
X180211000Y-97702000D02*
X180211000Y-93814000D01*
X180251000Y-97795000D02*
X180251000Y-93721000D01*
X180291000Y-97883000D02*
X180291000Y-93633000D01*
X180331000Y-97967000D02*
X180331000Y-93549000D01*
X180371000Y-98047000D02*
X180371000Y-93469000D01*
X180411000Y-98123000D02*
X180411000Y-93393000D01*
X180451000Y-98197000D02*
X180451000Y-93319000D01*
X180491000Y-98268000D02*
X180491000Y-93248000D01*
X180531000Y-98337000D02*
X180531000Y-93179000D01*
X180571000Y-98403000D02*
X180571000Y-93113000D01*
X180611000Y-98467000D02*
X180611000Y-93049000D01*
X180651000Y-98528000D02*
X180651000Y-92988000D01*
X180691000Y-98588000D02*
X180691000Y-92928000D01*
X180731000Y-98647000D02*
X180731000Y-92869000D01*
X180771000Y-98703000D02*
X180771000Y-92813000D01*
X180811000Y-98758000D02*
X180811000Y-92758000D01*
X180851000Y-98812000D02*
X180851000Y-92704000D01*
X180891000Y-98864000D02*
X180891000Y-92652000D01*
X180931000Y-98914000D02*
X180931000Y-92602000D01*
X180971000Y-98964000D02*
X180971000Y-92552000D01*
X181011000Y-99012000D02*
X181011000Y-92504000D01*
X181051000Y-99059000D02*
X181051000Y-92457000D01*
X181091000Y-99105000D02*
X181091000Y-92411000D01*
X181131000Y-99150000D02*
X181131000Y-92366000D01*
X181171000Y-99194000D02*
X181171000Y-92322000D01*
X181211000Y-99236000D02*
X181211000Y-92280000D01*
X181251000Y-99278000D02*
X181251000Y-92238000D01*
X181291000Y-99319000D02*
X181291000Y-92197000D01*
X181331000Y-99359000D02*
X181331000Y-92157000D01*
X181371000Y-99398000D02*
X181371000Y-92118000D01*
X181411000Y-99437000D02*
X181411000Y-92079000D01*
X181451000Y-99474000D02*
X181451000Y-92042000D01*
X181491000Y-99511000D02*
X181491000Y-92005000D01*
X181531000Y-99547000D02*
X181531000Y-91969000D01*
X181571000Y-99582000D02*
X181571000Y-91934000D01*
X181611000Y-99616000D02*
X181611000Y-91900000D01*
X181651000Y-99650000D02*
X181651000Y-91866000D01*
X181691000Y-99683000D02*
X181691000Y-91833000D01*
X181731000Y-99715000D02*
X181731000Y-91801000D01*
X181771000Y-99747000D02*
X181771000Y-91769000D01*
X181811000Y-99778000D02*
X181811000Y-91738000D01*
X181851000Y-99808000D02*
X181851000Y-91708000D01*
X181891000Y-99838000D02*
X181891000Y-91678000D01*
X181931000Y-99868000D02*
X181931000Y-91648000D01*
X181971000Y-99896000D02*
X181971000Y-91620000D01*
X182011000Y-99924000D02*
X182011000Y-91592000D01*
X182051000Y-99952000D02*
X182051000Y-91564000D01*
X182091000Y-99979000D02*
X182091000Y-91537000D01*
X182131000Y-100005000D02*
X182131000Y-91511000D01*
X182171000Y-100031000D02*
X182171000Y-91485000D01*
X182211000Y-100056000D02*
X182211000Y-91460000D01*
X182251000Y-100081000D02*
X182251000Y-91435000D01*
X182291000Y-100105000D02*
X182291000Y-91411000D01*
X182331000Y-100129000D02*
X182331000Y-91387000D01*
X182371000Y-100153000D02*
X182371000Y-91363000D01*
X182411000Y-100175000D02*
X182411000Y-91341000D01*
X182451000Y-100198000D02*
X182451000Y-91318000D01*
X182491000Y-100220000D02*
X182491000Y-91296000D01*
X182531000Y-100241000D02*
X182531000Y-91275000D01*
X182571000Y-100262000D02*
X182571000Y-91254000D01*
X182611000Y-100283000D02*
X182611000Y-91233000D01*
X182651000Y-94718000D02*
X182651000Y-91213000D01*
X182651000Y-100303000D02*
X182651000Y-96798000D01*
X182691000Y-94718000D02*
X182691000Y-91194000D01*
X182691000Y-100322000D02*
X182691000Y-96798000D01*
X182731000Y-94718000D02*
X182731000Y-91174000D01*
X182731000Y-100342000D02*
X182731000Y-96798000D01*
X182771000Y-94718000D02*
X182771000Y-91155000D01*
X182771000Y-100361000D02*
X182771000Y-96798000D01*
X182811000Y-94718000D02*
X182811000Y-91137000D01*
X182811000Y-100379000D02*
X182811000Y-96798000D01*
X182851000Y-94718000D02*
X182851000Y-91119000D01*
X182851000Y-100397000D02*
X182851000Y-96798000D01*
X182891000Y-94718000D02*
X182891000Y-91101000D01*
X182891000Y-100415000D02*
X182891000Y-96798000D01*
X182931000Y-94718000D02*
X182931000Y-91084000D01*
X182931000Y-100432000D02*
X182931000Y-96798000D01*
X182971000Y-94718000D02*
X182971000Y-91068000D01*
X182971000Y-100448000D02*
X182971000Y-96798000D01*
X183011000Y-94718000D02*
X183011000Y-91051000D01*
X183011000Y-100465000D02*
X183011000Y-96798000D01*
X183051000Y-94718000D02*
X183051000Y-91035000D01*
X183051000Y-100481000D02*
X183051000Y-96798000D01*
X183091000Y-94718000D02*
X183091000Y-91020000D01*
X183091000Y-100496000D02*
X183091000Y-96798000D01*
X183131000Y-94718000D02*
X183131000Y-91004000D01*
X183131000Y-100512000D02*
X183131000Y-96798000D01*
X183171000Y-94718000D02*
X183171000Y-90990000D01*
X183171000Y-100526000D02*
X183171000Y-96798000D01*
X183211000Y-94718000D02*
X183211000Y-90975000D01*
X183211000Y-100541000D02*
X183211000Y-96798000D01*
X183251000Y-94718000D02*
X183251000Y-90961000D01*
X183251000Y-100555000D02*
X183251000Y-96798000D01*
X183291000Y-94718000D02*
X183291000Y-90947000D01*
X183291000Y-100569000D02*
X183291000Y-96798000D01*
X183331000Y-94718000D02*
X183331000Y-90934000D01*
X183331000Y-100582000D02*
X183331000Y-96798000D01*
X183371000Y-94718000D02*
X183371000Y-90921000D01*
X183371000Y-100595000D02*
X183371000Y-96798000D01*
X183411000Y-94718000D02*
X183411000Y-90908000D01*
X183411000Y-100608000D02*
X183411000Y-96798000D01*
X183451000Y-94718000D02*
X183451000Y-90896000D01*
X183451000Y-100620000D02*
X183451000Y-96798000D01*
X183491000Y-94718000D02*
X183491000Y-90884000D01*
X183491000Y-100632000D02*
X183491000Y-96798000D01*
X183531000Y-94718000D02*
X183531000Y-90873000D01*
X183531000Y-100643000D02*
X183531000Y-96798000D01*
X183571000Y-94718000D02*
X183571000Y-90861000D01*
X183571000Y-100655000D02*
X183571000Y-96798000D01*
X183611000Y-94718000D02*
X183611000Y-90851000D01*
X183611000Y-100665000D02*
X183611000Y-96798000D01*
X183651000Y-94718000D02*
X183651000Y-90840000D01*
X183651000Y-100676000D02*
X183651000Y-96798000D01*
X183691000Y-94718000D02*
X183691000Y-90830000D01*
X183691000Y-100686000D02*
X183691000Y-96798000D01*
X183731000Y-94718000D02*
X183731000Y-90820000D01*
X183731000Y-100696000D02*
X183731000Y-96798000D01*
X183771000Y-94718000D02*
X183771000Y-90811000D01*
X183771000Y-100705000D02*
X183771000Y-96798000D01*
X183811000Y-94718000D02*
X183811000Y-90802000D01*
X183811000Y-100714000D02*
X183811000Y-96798000D01*
X183851000Y-94718000D02*
X183851000Y-90793000D01*
X183851000Y-100723000D02*
X183851000Y-96798000D01*
X183891000Y-94718000D02*
X183891000Y-90784000D01*
X183891000Y-100732000D02*
X183891000Y-96798000D01*
X183931000Y-94718000D02*
X183931000Y-90776000D01*
X183931000Y-100740000D02*
X183931000Y-96798000D01*
X183971000Y-94718000D02*
X183971000Y-90768000D01*
X183971000Y-100748000D02*
X183971000Y-96798000D01*
X184011000Y-94718000D02*
X184011000Y-90761000D01*
X184011000Y-100755000D02*
X184011000Y-96798000D01*
X184051000Y-94718000D02*
X184051000Y-90754000D01*
X184051000Y-100762000D02*
X184051000Y-96798000D01*
X184091000Y-94718000D02*
X184091000Y-90747000D01*
X184091000Y-100769000D02*
X184091000Y-96798000D01*
X184131000Y-94718000D02*
X184131000Y-90740000D01*
X184131000Y-100776000D02*
X184131000Y-96798000D01*
X184171000Y-94718000D02*
X184171000Y-90734000D01*
X184171000Y-100782000D02*
X184171000Y-96798000D01*
X184211000Y-94718000D02*
X184211000Y-90728000D01*
X184211000Y-100788000D02*
X184211000Y-96798000D01*
X184252000Y-94718000D02*
X184252000Y-90723000D01*
X184252000Y-100793000D02*
X184252000Y-96798000D01*
X184292000Y-94718000D02*
X184292000Y-90718000D01*
X184292000Y-100798000D02*
X184292000Y-96798000D01*
X184332000Y-94718000D02*
X184332000Y-90713000D01*
X184332000Y-100803000D02*
X184332000Y-96798000D01*
X184372000Y-94718000D02*
X184372000Y-90708000D01*
X184372000Y-100808000D02*
X184372000Y-96798000D01*
X184412000Y-94718000D02*
X184412000Y-90704000D01*
X184412000Y-100812000D02*
X184412000Y-96798000D01*
X184452000Y-94718000D02*
X184452000Y-90700000D01*
X184452000Y-100816000D02*
X184452000Y-96798000D01*
X184492000Y-94718000D02*
X184492000Y-90696000D01*
X184492000Y-100820000D02*
X184492000Y-96798000D01*
X184532000Y-94718000D02*
X184532000Y-90693000D01*
X184532000Y-100823000D02*
X184532000Y-96798000D01*
X184572000Y-94718000D02*
X184572000Y-90690000D01*
X184572000Y-100826000D02*
X184572000Y-96798000D01*
X184612000Y-94718000D02*
X184612000Y-90688000D01*
X184612000Y-100828000D02*
X184612000Y-96798000D01*
X184652000Y-94718000D02*
X184652000Y-90685000D01*
X184652000Y-100831000D02*
X184652000Y-96798000D01*
X184692000Y-94718000D02*
X184692000Y-90683000D01*
X184692000Y-100833000D02*
X184692000Y-96798000D01*
X184732000Y-100835000D02*
X184732000Y-90681000D01*
X184772000Y-100836000D02*
X184772000Y-90680000D01*
X184812000Y-100837000D02*
X184812000Y-90679000D01*
X184852000Y-100838000D02*
X184852000Y-90678000D01*
X184892000Y-100838000D02*
X184892000Y-90678000D01*
X184932000Y-100838000D02*
X184932000Y-90678000D01*
X190052000Y-95758000D02*
G75*
G03*
X190052000Y-95758000I-5120000J0D01*
G01*
%TO.C,C6*%
X190052000Y-116078000D02*
G75*
G03*
X190052000Y-116078000I-5120000J0D01*
G01*
X184932000Y-121158000D02*
X184932000Y-110998000D01*
X184892000Y-121158000D02*
X184892000Y-110998000D01*
X184852000Y-121158000D02*
X184852000Y-110998000D01*
X184812000Y-121157000D02*
X184812000Y-110999000D01*
X184772000Y-121156000D02*
X184772000Y-111000000D01*
X184732000Y-121155000D02*
X184732000Y-111001000D01*
X184692000Y-121153000D02*
X184692000Y-117118000D01*
X184692000Y-115038000D02*
X184692000Y-111003000D01*
X184652000Y-121151000D02*
X184652000Y-117118000D01*
X184652000Y-115038000D02*
X184652000Y-111005000D01*
X184612000Y-121148000D02*
X184612000Y-117118000D01*
X184612000Y-115038000D02*
X184612000Y-111008000D01*
X184572000Y-121146000D02*
X184572000Y-117118000D01*
X184572000Y-115038000D02*
X184572000Y-111010000D01*
X184532000Y-121143000D02*
X184532000Y-117118000D01*
X184532000Y-115038000D02*
X184532000Y-111013000D01*
X184492000Y-121140000D02*
X184492000Y-117118000D01*
X184492000Y-115038000D02*
X184492000Y-111016000D01*
X184452000Y-121136000D02*
X184452000Y-117118000D01*
X184452000Y-115038000D02*
X184452000Y-111020000D01*
X184412000Y-121132000D02*
X184412000Y-117118000D01*
X184412000Y-115038000D02*
X184412000Y-111024000D01*
X184372000Y-121128000D02*
X184372000Y-117118000D01*
X184372000Y-115038000D02*
X184372000Y-111028000D01*
X184332000Y-121123000D02*
X184332000Y-117118000D01*
X184332000Y-115038000D02*
X184332000Y-111033000D01*
X184292000Y-121118000D02*
X184292000Y-117118000D01*
X184292000Y-115038000D02*
X184292000Y-111038000D01*
X184252000Y-121113000D02*
X184252000Y-117118000D01*
X184252000Y-115038000D02*
X184252000Y-111043000D01*
X184211000Y-121108000D02*
X184211000Y-117118000D01*
X184211000Y-115038000D02*
X184211000Y-111048000D01*
X184171000Y-121102000D02*
X184171000Y-117118000D01*
X184171000Y-115038000D02*
X184171000Y-111054000D01*
X184131000Y-121096000D02*
X184131000Y-117118000D01*
X184131000Y-115038000D02*
X184131000Y-111060000D01*
X184091000Y-121089000D02*
X184091000Y-117118000D01*
X184091000Y-115038000D02*
X184091000Y-111067000D01*
X184051000Y-121082000D02*
X184051000Y-117118000D01*
X184051000Y-115038000D02*
X184051000Y-111074000D01*
X184011000Y-121075000D02*
X184011000Y-117118000D01*
X184011000Y-115038000D02*
X184011000Y-111081000D01*
X183971000Y-121068000D02*
X183971000Y-117118000D01*
X183971000Y-115038000D02*
X183971000Y-111088000D01*
X183931000Y-121060000D02*
X183931000Y-117118000D01*
X183931000Y-115038000D02*
X183931000Y-111096000D01*
X183891000Y-121052000D02*
X183891000Y-117118000D01*
X183891000Y-115038000D02*
X183891000Y-111104000D01*
X183851000Y-121043000D02*
X183851000Y-117118000D01*
X183851000Y-115038000D02*
X183851000Y-111113000D01*
X183811000Y-121034000D02*
X183811000Y-117118000D01*
X183811000Y-115038000D02*
X183811000Y-111122000D01*
X183771000Y-121025000D02*
X183771000Y-117118000D01*
X183771000Y-115038000D02*
X183771000Y-111131000D01*
X183731000Y-121016000D02*
X183731000Y-117118000D01*
X183731000Y-115038000D02*
X183731000Y-111140000D01*
X183691000Y-121006000D02*
X183691000Y-117118000D01*
X183691000Y-115038000D02*
X183691000Y-111150000D01*
X183651000Y-120996000D02*
X183651000Y-117118000D01*
X183651000Y-115038000D02*
X183651000Y-111160000D01*
X183611000Y-120985000D02*
X183611000Y-117118000D01*
X183611000Y-115038000D02*
X183611000Y-111171000D01*
X183571000Y-120975000D02*
X183571000Y-117118000D01*
X183571000Y-115038000D02*
X183571000Y-111181000D01*
X183531000Y-120963000D02*
X183531000Y-117118000D01*
X183531000Y-115038000D02*
X183531000Y-111193000D01*
X183491000Y-120952000D02*
X183491000Y-117118000D01*
X183491000Y-115038000D02*
X183491000Y-111204000D01*
X183451000Y-120940000D02*
X183451000Y-117118000D01*
X183451000Y-115038000D02*
X183451000Y-111216000D01*
X183411000Y-120928000D02*
X183411000Y-117118000D01*
X183411000Y-115038000D02*
X183411000Y-111228000D01*
X183371000Y-120915000D02*
X183371000Y-117118000D01*
X183371000Y-115038000D02*
X183371000Y-111241000D01*
X183331000Y-120902000D02*
X183331000Y-117118000D01*
X183331000Y-115038000D02*
X183331000Y-111254000D01*
X183291000Y-120889000D02*
X183291000Y-117118000D01*
X183291000Y-115038000D02*
X183291000Y-111267000D01*
X183251000Y-120875000D02*
X183251000Y-117118000D01*
X183251000Y-115038000D02*
X183251000Y-111281000D01*
X183211000Y-120861000D02*
X183211000Y-117118000D01*
X183211000Y-115038000D02*
X183211000Y-111295000D01*
X183171000Y-120846000D02*
X183171000Y-117118000D01*
X183171000Y-115038000D02*
X183171000Y-111310000D01*
X183131000Y-120832000D02*
X183131000Y-117118000D01*
X183131000Y-115038000D02*
X183131000Y-111324000D01*
X183091000Y-120816000D02*
X183091000Y-117118000D01*
X183091000Y-115038000D02*
X183091000Y-111340000D01*
X183051000Y-120801000D02*
X183051000Y-117118000D01*
X183051000Y-115038000D02*
X183051000Y-111355000D01*
X183011000Y-120785000D02*
X183011000Y-117118000D01*
X183011000Y-115038000D02*
X183011000Y-111371000D01*
X182971000Y-120768000D02*
X182971000Y-117118000D01*
X182971000Y-115038000D02*
X182971000Y-111388000D01*
X182931000Y-120752000D02*
X182931000Y-117118000D01*
X182931000Y-115038000D02*
X182931000Y-111404000D01*
X182891000Y-120735000D02*
X182891000Y-117118000D01*
X182891000Y-115038000D02*
X182891000Y-111421000D01*
X182851000Y-120717000D02*
X182851000Y-117118000D01*
X182851000Y-115038000D02*
X182851000Y-111439000D01*
X182811000Y-120699000D02*
X182811000Y-117118000D01*
X182811000Y-115038000D02*
X182811000Y-111457000D01*
X182771000Y-120681000D02*
X182771000Y-117118000D01*
X182771000Y-115038000D02*
X182771000Y-111475000D01*
X182731000Y-120662000D02*
X182731000Y-117118000D01*
X182731000Y-115038000D02*
X182731000Y-111494000D01*
X182691000Y-120642000D02*
X182691000Y-117118000D01*
X182691000Y-115038000D02*
X182691000Y-111514000D01*
X182651000Y-120623000D02*
X182651000Y-117118000D01*
X182651000Y-115038000D02*
X182651000Y-111533000D01*
X182611000Y-120603000D02*
X182611000Y-111553000D01*
X182571000Y-120582000D02*
X182571000Y-111574000D01*
X182531000Y-120561000D02*
X182531000Y-111595000D01*
X182491000Y-120540000D02*
X182491000Y-111616000D01*
X182451000Y-120518000D02*
X182451000Y-111638000D01*
X182411000Y-120495000D02*
X182411000Y-111661000D01*
X182371000Y-120473000D02*
X182371000Y-111683000D01*
X182331000Y-120449000D02*
X182331000Y-111707000D01*
X182291000Y-120425000D02*
X182291000Y-111731000D01*
X182251000Y-120401000D02*
X182251000Y-111755000D01*
X182211000Y-120376000D02*
X182211000Y-111780000D01*
X182171000Y-120351000D02*
X182171000Y-111805000D01*
X182131000Y-120325000D02*
X182131000Y-111831000D01*
X182091000Y-120299000D02*
X182091000Y-111857000D01*
X182051000Y-120272000D02*
X182051000Y-111884000D01*
X182011000Y-120244000D02*
X182011000Y-111912000D01*
X181971000Y-120216000D02*
X181971000Y-111940000D01*
X181931000Y-120188000D02*
X181931000Y-111968000D01*
X181891000Y-120158000D02*
X181891000Y-111998000D01*
X181851000Y-120128000D02*
X181851000Y-112028000D01*
X181811000Y-120098000D02*
X181811000Y-112058000D01*
X181771000Y-120067000D02*
X181771000Y-112089000D01*
X181731000Y-120035000D02*
X181731000Y-112121000D01*
X181691000Y-120003000D02*
X181691000Y-112153000D01*
X181651000Y-119970000D02*
X181651000Y-112186000D01*
X181611000Y-119936000D02*
X181611000Y-112220000D01*
X181571000Y-119902000D02*
X181571000Y-112254000D01*
X181531000Y-119867000D02*
X181531000Y-112289000D01*
X181491000Y-119831000D02*
X181491000Y-112325000D01*
X181451000Y-119794000D02*
X181451000Y-112362000D01*
X181411000Y-119757000D02*
X181411000Y-112399000D01*
X181371000Y-119718000D02*
X181371000Y-112438000D01*
X181331000Y-119679000D02*
X181331000Y-112477000D01*
X181291000Y-119639000D02*
X181291000Y-112517000D01*
X181251000Y-119598000D02*
X181251000Y-112558000D01*
X181211000Y-119556000D02*
X181211000Y-112600000D01*
X181171000Y-119514000D02*
X181171000Y-112642000D01*
X181131000Y-119470000D02*
X181131000Y-112686000D01*
X181091000Y-119425000D02*
X181091000Y-112731000D01*
X181051000Y-119379000D02*
X181051000Y-112777000D01*
X181011000Y-119332000D02*
X181011000Y-112824000D01*
X180971000Y-119284000D02*
X180971000Y-112872000D01*
X180931000Y-119234000D02*
X180931000Y-112922000D01*
X180891000Y-119184000D02*
X180891000Y-112972000D01*
X180851000Y-119132000D02*
X180851000Y-113024000D01*
X180811000Y-119078000D02*
X180811000Y-113078000D01*
X180771000Y-119023000D02*
X180771000Y-113133000D01*
X180731000Y-118967000D02*
X180731000Y-113189000D01*
X180691000Y-118908000D02*
X180691000Y-113248000D01*
X180651000Y-118848000D02*
X180651000Y-113308000D01*
X180611000Y-118787000D02*
X180611000Y-113369000D01*
X180571000Y-118723000D02*
X180571000Y-113433000D01*
X180531000Y-118657000D02*
X180531000Y-113499000D01*
X180491000Y-118588000D02*
X180491000Y-113568000D01*
X180451000Y-118517000D02*
X180451000Y-113639000D01*
X180411000Y-118443000D02*
X180411000Y-113713000D01*
X180371000Y-118367000D02*
X180371000Y-113789000D01*
X180331000Y-118287000D02*
X180331000Y-113869000D01*
X180291000Y-118203000D02*
X180291000Y-113953000D01*
X180251000Y-118115000D02*
X180251000Y-114041000D01*
X180211000Y-118022000D02*
X180211000Y-114134000D01*
X180171000Y-117924000D02*
X180171000Y-114232000D01*
X180131000Y-117820000D02*
X180131000Y-114336000D01*
X180091000Y-117708000D02*
X180091000Y-114448000D01*
X180051000Y-117588000D02*
X180051000Y-114568000D01*
X180011000Y-117456000D02*
X180011000Y-114700000D01*
X179971000Y-117308000D02*
X179971000Y-114848000D01*
X179931000Y-117140000D02*
X179931000Y-115016000D01*
X179891000Y-116940000D02*
X179891000Y-115216000D01*
X179851000Y-116677000D02*
X179851000Y-115479000D01*
X190411646Y-118953000D02*
X189411646Y-118953000D01*
X189911646Y-119453000D02*
X189911646Y-118453000D01*
%TO.C,D1*%
X171142000Y-83248000D02*
X171142000Y-83068000D01*
X171142000Y-85588000D02*
X171142000Y-85408000D01*
X171262000Y-83248000D02*
X171262000Y-83068000D01*
X171262000Y-85588000D02*
X171262000Y-85408000D01*
X167962000Y-83233000D02*
X167962000Y-83068000D01*
X167962000Y-85588000D02*
X167962000Y-85423000D01*
X171382000Y-83248000D02*
X171382000Y-83068000D01*
X171382000Y-85588000D02*
X171382000Y-85408000D01*
X171382000Y-83068000D02*
X167962000Y-83068000D01*
X171382000Y-85588000D02*
X167962000Y-85588000D01*
%TO.C,J1*%
X192532000Y-69148000D02*
X191202000Y-69148000D01*
X191202000Y-69148000D02*
X191202000Y-67818000D01*
X191202000Y-66548000D02*
X191202000Y-61408000D01*
X193862000Y-61408000D02*
X191202000Y-61408000D01*
X193862000Y-66548000D02*
X193862000Y-61408000D01*
X193862000Y-66548000D02*
X191202000Y-66548000D01*
%TO.C,J2*%
X154372000Y-58988000D02*
X154372000Y-57658000D01*
X155702000Y-58988000D02*
X154372000Y-58988000D01*
X156972000Y-58988000D02*
X156972000Y-56328000D01*
X156972000Y-56328000D02*
X164652000Y-56328000D01*
X156972000Y-58988000D02*
X164652000Y-58988000D01*
X164652000Y-58988000D02*
X164652000Y-56328000D01*
%TO.C,J3*%
X178622000Y-58988000D02*
X178622000Y-56328000D01*
X170942000Y-58988000D02*
X178622000Y-58988000D01*
X170942000Y-56328000D02*
X178622000Y-56328000D01*
X170942000Y-58988000D02*
X170942000Y-56328000D01*
X169672000Y-58988000D02*
X168342000Y-58988000D01*
X168342000Y-58988000D02*
X168342000Y-57658000D01*
%TO.C,R1*%
X189172000Y-61928000D02*
X185732000Y-61928000D01*
X185732000Y-61928000D02*
X185732000Y-71168000D01*
X185732000Y-71168000D02*
X189172000Y-71168000D01*
X189172000Y-71168000D02*
X189172000Y-61928000D01*
X187452000Y-61238000D02*
X187452000Y-61928000D01*
X187452000Y-71858000D02*
X187452000Y-71168000D01*
%TO.C,R2*%
X183642000Y-86463000D02*
X183642000Y-85773000D01*
X183642000Y-75843000D02*
X183642000Y-76533000D01*
X185362000Y-85773000D02*
X185362000Y-76533000D01*
X181922000Y-85773000D02*
X185362000Y-85773000D01*
X181922000Y-76533000D02*
X181922000Y-85773000D01*
X185362000Y-76533000D02*
X181922000Y-76533000D01*
%TO.C,U1*%
X155172000Y-107768000D02*
X158772000Y-107768000D01*
X158810478Y-107756478D02*
G75*
G03*
X156972000Y-103318000I-1838478J1838478D01*
G01*
X155133522Y-107756478D02*
G75*
G02*
X156972000Y-103318000I1838478J1838478D01*
G01*
%TO.C,U2*%
X176022000Y-72053000D02*
X172422000Y-72053000D01*
X176022000Y-72053000D02*
X178222000Y-72053000D01*
X176022000Y-78823000D02*
X173822000Y-78823000D01*
X176022000Y-78823000D02*
X178222000Y-78823000D01*
%TO.C,U8*%
X183112000Y-107768000D02*
X186712000Y-107768000D01*
X183073522Y-107756478D02*
G75*
G02*
X184912000Y-103318000I1838478J1838478D01*
G01*
X186750478Y-107756478D02*
G75*
G03*
X184912000Y-103318000I-1838478J1838478D01*
G01*
%TO.C,Y1*%
X162637000Y-69073000D02*
X168887000Y-69073000D01*
X162637000Y-64023000D02*
X168887000Y-64023000D01*
X162637000Y-69073000D02*
G75*
G02*
X162637000Y-64023000I0J2525000D01*
G01*
X168887000Y-69073000D02*
G75*
G03*
X168887000Y-64023000I0J2525000D01*
G01*
%TO.C,C3*%
X169772000Y-80288000D02*
X167032000Y-80288000D01*
X169772000Y-73048000D02*
X167032000Y-73048000D01*
X167032000Y-73048000D02*
X167032000Y-80288000D01*
X169772000Y-73048000D02*
X169772000Y-80288000D01*
%TO.C,C4*%
X163422000Y-73048000D02*
X163422000Y-80288000D01*
X160682000Y-73048000D02*
X160682000Y-80288000D01*
X163422000Y-73048000D02*
X160682000Y-73048000D01*
X163422000Y-80288000D02*
X160682000Y-80288000D01*
%TO.C,C7*%
X148947000Y-64743000D02*
X148947000Y-62003000D01*
X156187000Y-64743000D02*
X156187000Y-62003000D01*
X156187000Y-62003000D02*
X148947000Y-62003000D01*
X156187000Y-64743000D02*
X148947000Y-64743000D01*
%TO.C,C8*%
X148867000Y-67083000D02*
X156107000Y-67083000D01*
X148867000Y-69823000D02*
X156107000Y-69823000D01*
X148867000Y-67083000D02*
X148867000Y-69823000D01*
X156107000Y-67083000D02*
X156107000Y-69823000D01*
%TO.C,SW1*%
D11*
X135318666Y-105052761D02*
X135461523Y-105100380D01*
X135699619Y-105100380D01*
X135794857Y-105052761D01*
X135842476Y-105005142D01*
X135890095Y-104909904D01*
X135890095Y-104814666D01*
X135842476Y-104719428D01*
X135794857Y-104671809D01*
X135699619Y-104624190D01*
X135509142Y-104576571D01*
X135413904Y-104528952D01*
X135366285Y-104481333D01*
X135318666Y-104386095D01*
X135318666Y-104290857D01*
X135366285Y-104195619D01*
X135413904Y-104148000D01*
X135509142Y-104100380D01*
X135747238Y-104100380D01*
X135890095Y-104148000D01*
X136223428Y-104100380D02*
X136461523Y-105100380D01*
X136652000Y-104386095D01*
X136842476Y-105100380D01*
X137080571Y-104100380D01*
X137985333Y-105100380D02*
X137413904Y-105100380D01*
X137699619Y-105100380D02*
X137699619Y-104100380D01*
X137604380Y-104243238D01*
X137509142Y-104338476D01*
X137413904Y-104386095D01*
%TO.C,BT1*%
X139676285Y-93146571D02*
X139819142Y-93194190D01*
X139866761Y-93241809D01*
X139914380Y-93337047D01*
X139914380Y-93479904D01*
X139866761Y-93575142D01*
X139819142Y-93622761D01*
X139723904Y-93670380D01*
X139342952Y-93670380D01*
X139342952Y-92670380D01*
X139676285Y-92670380D01*
X139771523Y-92718000D01*
X139819142Y-92765619D01*
X139866761Y-92860857D01*
X139866761Y-92956095D01*
X139819142Y-93051333D01*
X139771523Y-93098952D01*
X139676285Y-93146571D01*
X139342952Y-93146571D01*
X140200095Y-92670380D02*
X140771523Y-92670380D01*
X140485809Y-93670380D02*
X140485809Y-92670380D01*
X141628666Y-93670380D02*
X141057238Y-93670380D01*
X141342952Y-93670380D02*
X141342952Y-92670380D01*
X141247714Y-92813238D01*
X141152476Y-92908476D01*
X141057238Y-92956095D01*
X138304500Y-74059428D02*
X139066404Y-74059428D01*
X138304500Y-86939428D02*
X139066404Y-86939428D01*
X138685452Y-87320380D02*
X138685452Y-86558476D01*
%TO.C,C1*%
X156825333Y-122685142D02*
X156777714Y-122732761D01*
X156634857Y-122780380D01*
X156539619Y-122780380D01*
X156396761Y-122732761D01*
X156301523Y-122637523D01*
X156253904Y-122542285D01*
X156206285Y-122351809D01*
X156206285Y-122208952D01*
X156253904Y-122018476D01*
X156301523Y-121923238D01*
X156396761Y-121828000D01*
X156539619Y-121780380D01*
X156634857Y-121780380D01*
X156777714Y-121828000D01*
X156825333Y-121875619D01*
X157777714Y-122780380D02*
X157206285Y-122780380D01*
X157492000Y-122780380D02*
X157492000Y-121780380D01*
X157396761Y-121923238D01*
X157301523Y-122018476D01*
X157206285Y-122066095D01*
%TO.C,C2*%
X163679142Y-95924666D02*
X163726761Y-95972285D01*
X163774380Y-96115142D01*
X163774380Y-96210380D01*
X163726761Y-96353238D01*
X163631523Y-96448476D01*
X163536285Y-96496095D01*
X163345809Y-96543714D01*
X163202952Y-96543714D01*
X163012476Y-96496095D01*
X162917238Y-96448476D01*
X162822000Y-96353238D01*
X162774380Y-96210380D01*
X162774380Y-96115142D01*
X162822000Y-95972285D01*
X162869619Y-95924666D01*
X162869619Y-95543714D02*
X162822000Y-95496095D01*
X162774380Y-95400857D01*
X162774380Y-95162761D01*
X162822000Y-95067523D01*
X162869619Y-95019904D01*
X162964857Y-94972285D01*
X163060095Y-94972285D01*
X163202952Y-95019904D01*
X163774380Y-95591333D01*
X163774380Y-94972285D01*
%TO.C,C5*%
X184765333Y-102365142D02*
X184717714Y-102412761D01*
X184574857Y-102460380D01*
X184479619Y-102460380D01*
X184336761Y-102412761D01*
X184241523Y-102317523D01*
X184193904Y-102222285D01*
X184146285Y-102031809D01*
X184146285Y-101888952D01*
X184193904Y-101698476D01*
X184241523Y-101603238D01*
X184336761Y-101508000D01*
X184479619Y-101460380D01*
X184574857Y-101460380D01*
X184717714Y-101508000D01*
X184765333Y-101555619D01*
X185670095Y-101460380D02*
X185193904Y-101460380D01*
X185146285Y-101936571D01*
X185193904Y-101888952D01*
X185289142Y-101841333D01*
X185527238Y-101841333D01*
X185622476Y-101888952D01*
X185670095Y-101936571D01*
X185717714Y-102031809D01*
X185717714Y-102269904D01*
X185670095Y-102365142D01*
X185622476Y-102412761D01*
X185527238Y-102460380D01*
X185289142Y-102460380D01*
X185193904Y-102412761D01*
X185146285Y-102365142D01*
%TO.C,C6*%
X184765333Y-122685142D02*
X184717714Y-122732761D01*
X184574857Y-122780380D01*
X184479619Y-122780380D01*
X184336761Y-122732761D01*
X184241523Y-122637523D01*
X184193904Y-122542285D01*
X184146285Y-122351809D01*
X184146285Y-122208952D01*
X184193904Y-122018476D01*
X184241523Y-121923238D01*
X184336761Y-121828000D01*
X184479619Y-121780380D01*
X184574857Y-121780380D01*
X184717714Y-121828000D01*
X184765333Y-121875619D01*
X185622476Y-121780380D02*
X185432000Y-121780380D01*
X185336761Y-121828000D01*
X185289142Y-121875619D01*
X185193904Y-122018476D01*
X185146285Y-122208952D01*
X185146285Y-122589904D01*
X185193904Y-122685142D01*
X185241523Y-122732761D01*
X185336761Y-122780380D01*
X185527238Y-122780380D01*
X185622476Y-122732761D01*
X185670095Y-122685142D01*
X185717714Y-122589904D01*
X185717714Y-122351809D01*
X185670095Y-122256571D01*
X185622476Y-122208952D01*
X185527238Y-122161333D01*
X185336761Y-122161333D01*
X185241523Y-122208952D01*
X185193904Y-122256571D01*
X185146285Y-122351809D01*
%TO.C,D1*%
X168933904Y-87040380D02*
X168933904Y-86040380D01*
X169172000Y-86040380D01*
X169314857Y-86088000D01*
X169410095Y-86183238D01*
X169457714Y-86278476D01*
X169505333Y-86468952D01*
X169505333Y-86611809D01*
X169457714Y-86802285D01*
X169410095Y-86897523D01*
X169314857Y-86992761D01*
X169172000Y-87040380D01*
X168933904Y-87040380D01*
X170457714Y-87040380D02*
X169886285Y-87040380D01*
X170172000Y-87040380D02*
X170172000Y-86040380D01*
X170076761Y-86183238D01*
X169981523Y-86278476D01*
X169886285Y-86326095D01*
%TO.C,J1*%
X192198666Y-70040380D02*
X192198666Y-70754666D01*
X192151047Y-70897523D01*
X192055809Y-70992761D01*
X191912952Y-71040380D01*
X191817714Y-71040380D01*
X193198666Y-71040380D02*
X192627238Y-71040380D01*
X192912952Y-71040380D02*
X192912952Y-70040380D01*
X192817714Y-70183238D01*
X192722476Y-70278476D01*
X192627238Y-70326095D01*
%TO.C,J2*%
X152824380Y-57991333D02*
X153538666Y-57991333D01*
X153681523Y-58038952D01*
X153776761Y-58134190D01*
X153824380Y-58277047D01*
X153824380Y-58372285D01*
X152919619Y-57562761D02*
X152872000Y-57515142D01*
X152824380Y-57419904D01*
X152824380Y-57181809D01*
X152872000Y-57086571D01*
X152919619Y-57038952D01*
X153014857Y-56991333D01*
X153110095Y-56991333D01*
X153252952Y-57038952D01*
X153824380Y-57610380D01*
X153824380Y-56991333D01*
%TO.C,J3*%
X166794380Y-57991333D02*
X167508666Y-57991333D01*
X167651523Y-58038952D01*
X167746761Y-58134190D01*
X167794380Y-58277047D01*
X167794380Y-58372285D01*
X166794380Y-57610380D02*
X166794380Y-56991333D01*
X167175333Y-57324666D01*
X167175333Y-57181809D01*
X167222952Y-57086571D01*
X167270571Y-57038952D01*
X167365809Y-56991333D01*
X167603904Y-56991333D01*
X167699142Y-57038952D01*
X167746761Y-57086571D01*
X167794380Y-57181809D01*
X167794380Y-57467523D01*
X167746761Y-57562761D01*
X167699142Y-57610380D01*
%TO.C,R1*%
X190624380Y-66714666D02*
X190148190Y-67048000D01*
X190624380Y-67286095D02*
X189624380Y-67286095D01*
X189624380Y-66905142D01*
X189672000Y-66809904D01*
X189719619Y-66762285D01*
X189814857Y-66714666D01*
X189957714Y-66714666D01*
X190052952Y-66762285D01*
X190100571Y-66809904D01*
X190148190Y-66905142D01*
X190148190Y-67286095D01*
X190624380Y-65762285D02*
X190624380Y-66333714D01*
X190624380Y-66048000D02*
X189624380Y-66048000D01*
X189767238Y-66143238D01*
X189862476Y-66238476D01*
X189910095Y-66333714D01*
%TO.C,R2*%
X186814380Y-81319666D02*
X186338190Y-81653000D01*
X186814380Y-81891095D02*
X185814380Y-81891095D01*
X185814380Y-81510142D01*
X185862000Y-81414904D01*
X185909619Y-81367285D01*
X186004857Y-81319666D01*
X186147714Y-81319666D01*
X186242952Y-81367285D01*
X186290571Y-81414904D01*
X186338190Y-81510142D01*
X186338190Y-81891095D01*
X185909619Y-80938714D02*
X185862000Y-80891095D01*
X185814380Y-80795857D01*
X185814380Y-80557761D01*
X185862000Y-80462523D01*
X185909619Y-80414904D01*
X186004857Y-80367285D01*
X186100095Y-80367285D01*
X186242952Y-80414904D01*
X186814380Y-80986333D01*
X186814380Y-80367285D01*
%TO.C,U1*%
X156210095Y-101810380D02*
X156210095Y-102619904D01*
X156257714Y-102715142D01*
X156305333Y-102762761D01*
X156400571Y-102810380D01*
X156591047Y-102810380D01*
X156686285Y-102762761D01*
X156733904Y-102715142D01*
X156781523Y-102619904D01*
X156781523Y-101810380D01*
X157781523Y-102810380D02*
X157210095Y-102810380D01*
X157495809Y-102810380D02*
X157495809Y-101810380D01*
X157400571Y-101953238D01*
X157305333Y-102048476D01*
X157210095Y-102096095D01*
%TO.C,U2*%
X175260095Y-70690380D02*
X175260095Y-71499904D01*
X175307714Y-71595142D01*
X175355333Y-71642761D01*
X175450571Y-71690380D01*
X175641047Y-71690380D01*
X175736285Y-71642761D01*
X175783904Y-71595142D01*
X175831523Y-71499904D01*
X175831523Y-70690380D01*
X176260095Y-70785619D02*
X176307714Y-70738000D01*
X176402952Y-70690380D01*
X176641047Y-70690380D01*
X176736285Y-70738000D01*
X176783904Y-70785619D01*
X176831523Y-70880857D01*
X176831523Y-70976095D01*
X176783904Y-71118952D01*
X176212476Y-71690380D01*
X176831523Y-71690380D01*
%TO.C,U8*%
X184150095Y-101810380D02*
X184150095Y-102619904D01*
X184197714Y-102715142D01*
X184245333Y-102762761D01*
X184340571Y-102810380D01*
X184531047Y-102810380D01*
X184626285Y-102762761D01*
X184673904Y-102715142D01*
X184721523Y-102619904D01*
X184721523Y-101810380D01*
X185340571Y-102238952D02*
X185245333Y-102191333D01*
X185197714Y-102143714D01*
X185150095Y-102048476D01*
X185150095Y-102000857D01*
X185197714Y-101905619D01*
X185245333Y-101858000D01*
X185340571Y-101810380D01*
X185531047Y-101810380D01*
X185626285Y-101858000D01*
X185673904Y-101905619D01*
X185721523Y-102000857D01*
X185721523Y-102048476D01*
X185673904Y-102143714D01*
X185626285Y-102191333D01*
X185531047Y-102238952D01*
X185340571Y-102238952D01*
X185245333Y-102286571D01*
X185197714Y-102334190D01*
X185150095Y-102429428D01*
X185150095Y-102619904D01*
X185197714Y-102715142D01*
X185245333Y-102762761D01*
X185340571Y-102810380D01*
X185531047Y-102810380D01*
X185626285Y-102762761D01*
X185673904Y-102715142D01*
X185721523Y-102619904D01*
X185721523Y-102429428D01*
X185673904Y-102334190D01*
X185626285Y-102286571D01*
X185531047Y-102238952D01*
%TO.C,Y1*%
X165285809Y-62999190D02*
X165285809Y-63475380D01*
X164952476Y-62475380D02*
X165285809Y-62999190D01*
X165619142Y-62475380D01*
X166476285Y-63475380D02*
X165904857Y-63475380D01*
X166190571Y-63475380D02*
X166190571Y-62475380D01*
X166095333Y-62618238D01*
X166000095Y-62713476D01*
X165904857Y-62761095D01*
%TO.C,C3*%
X166219142Y-76874666D02*
X166266761Y-76922285D01*
X166314380Y-77065142D01*
X166314380Y-77160380D01*
X166266761Y-77303238D01*
X166171523Y-77398476D01*
X166076285Y-77446095D01*
X165885809Y-77493714D01*
X165742952Y-77493714D01*
X165552476Y-77446095D01*
X165457238Y-77398476D01*
X165362000Y-77303238D01*
X165314380Y-77160380D01*
X165314380Y-77065142D01*
X165362000Y-76922285D01*
X165409619Y-76874666D01*
X165314380Y-76541333D02*
X165314380Y-75922285D01*
X165695333Y-76255619D01*
X165695333Y-76112761D01*
X165742952Y-76017523D01*
X165790571Y-75969904D01*
X165885809Y-75922285D01*
X166123904Y-75922285D01*
X166219142Y-75969904D01*
X166266761Y-76017523D01*
X166314380Y-76112761D01*
X166314380Y-76398476D01*
X166266761Y-76493714D01*
X166219142Y-76541333D01*
%TO.C,C4*%
X159869142Y-76834666D02*
X159916761Y-76882285D01*
X159964380Y-77025142D01*
X159964380Y-77120380D01*
X159916761Y-77263238D01*
X159821523Y-77358476D01*
X159726285Y-77406095D01*
X159535809Y-77453714D01*
X159392952Y-77453714D01*
X159202476Y-77406095D01*
X159107238Y-77358476D01*
X159012000Y-77263238D01*
X158964380Y-77120380D01*
X158964380Y-77025142D01*
X159012000Y-76882285D01*
X159059619Y-76834666D01*
X159297714Y-75977523D02*
X159964380Y-75977523D01*
X158916761Y-76215619D02*
X159631047Y-76453714D01*
X159631047Y-75834666D01*
%TO.C,C7*%
X152400333Y-66230142D02*
X152352714Y-66277761D01*
X152209857Y-66325380D01*
X152114619Y-66325380D01*
X151971761Y-66277761D01*
X151876523Y-66182523D01*
X151828904Y-66087285D01*
X151781285Y-65896809D01*
X151781285Y-65753952D01*
X151828904Y-65563476D01*
X151876523Y-65468238D01*
X151971761Y-65373000D01*
X152114619Y-65325380D01*
X152209857Y-65325380D01*
X152352714Y-65373000D01*
X152400333Y-65420619D01*
X152733666Y-65325380D02*
X153400333Y-65325380D01*
X152971761Y-66325380D01*
%TO.C,C8*%
X152320333Y-71350142D02*
X152272714Y-71397761D01*
X152129857Y-71445380D01*
X152034619Y-71445380D01*
X151891761Y-71397761D01*
X151796523Y-71302523D01*
X151748904Y-71207285D01*
X151701285Y-71016809D01*
X151701285Y-70873952D01*
X151748904Y-70683476D01*
X151796523Y-70588238D01*
X151891761Y-70493000D01*
X152034619Y-70445380D01*
X152129857Y-70445380D01*
X152272714Y-70493000D01*
X152320333Y-70540619D01*
X152891761Y-70873952D02*
X152796523Y-70826333D01*
X152748904Y-70778714D01*
X152701285Y-70683476D01*
X152701285Y-70635857D01*
X152748904Y-70540619D01*
X152796523Y-70493000D01*
X152891761Y-70445380D01*
X153082238Y-70445380D01*
X153177476Y-70493000D01*
X153225095Y-70540619D01*
X153272714Y-70635857D01*
X153272714Y-70683476D01*
X153225095Y-70778714D01*
X153177476Y-70826333D01*
X153082238Y-70873952D01*
X152891761Y-70873952D01*
X152796523Y-70921571D01*
X152748904Y-70969190D01*
X152701285Y-71064428D01*
X152701285Y-71254904D01*
X152748904Y-71350142D01*
X152796523Y-71397761D01*
X152891761Y-71445380D01*
X153082238Y-71445380D01*
X153177476Y-71397761D01*
X153225095Y-71350142D01*
X153272714Y-71254904D01*
X153272714Y-71064428D01*
X153225095Y-70969190D01*
X153177476Y-70921571D01*
X153082238Y-70873952D01*
%TD*%
M02*
